# This file uses centimeters as units for non-parametric coordinates.

mtllib lake.mtl
g default
v -2500.000000 2.000000 2500.000000
v 2500.000000 2.000000 2500.000000
v -2500.000000 2.000000 -2500.000000
v 2500.000000 2.000000 -2500.000000
vt -69.435921 -69.435921
vt 70.435921 -69.435921
vt -69.435921 70.435921
vt 70.435921 70.435921
vn 0.000000 1.000000 0.000000
vn 0.000000 1.000000 0.000000
vn 0.000000 1.000000 0.000000
vn 0.000000 1.000000 0.000000
vn 0.000000 1.000000 0.000000
vn 0.000000 1.000000 0.000000
s off
g lake:pPlane1
usemtl lake:initialShadingGroup
f 1/1/1 2/2/2 3/3/3
f 3/3/4 2/2/5 4/4/6
