# This file uses centimeters as units for non-parametric coordinates.

mtllib lake.mtl
g default
v -81.089501 6.025444 7.811502
v -70.006912 6.025444 7.811502
v -81.089501 6.025444 -7.811502
v -70.006912 6.025444 -7.811502
vt -2.673676 -2.673676
vt 3.673676 -2.673676
vt -2.673676 3.673676
vt 3.673676 3.673676
vn 0.000000 1.000000 0.000000
vn 0.000000 1.000000 0.000000
vn 0.000000 1.000000 0.000000
vn 0.000000 1.000000 0.000000
vn 0.000000 1.000000 0.000000
vn 0.000000 1.000000 0.000000
s off
g pPlane2
usemtl lake:initialShadingGroup
f 1/1/1 2/2/2 3/3/3
f 3/3/4 2/2/5 4/4/6
g default
v -65.985694 4.034186 15.382865
v -41.967415 4.034186 15.382865
v -65.985694 4.034186 -15.382865
v -41.967415 4.034186 -15.382865
vt -2.930557 -2.930557
vt 3.930557 -2.930557
vt -2.930557 3.930557
vt 3.930557 3.930557
vn 0.000000 1.000000 0.000000
vn 0.000000 1.000000 0.000000
vn 0.000000 1.000000 0.000000
vn 0.000000 1.000000 0.000000
vn 0.000000 1.000000 0.000000
vn 0.000000 1.000000 0.000000
s off
g pPlane1
usemtl lake:initialShadingGroup
f 5/5/7 6/6/8 7/7/9
f 7/7/10 6/6/11 8/8/12
g default
v -2500.000000 0.300000 2500.000000
v 2500.000000 0.412273 2500.000000
v -2500.000000 0.412273 -2500.000000
v 2500.000000 0.412273 -2500.000000
vt -312.066925 -312.066925
vt 313.066925 -312.066925
vt -312.066925 313.066925
vt 313.066925 313.066925
vn 0.000000 1.000000 0.000000
vn 0.000000 1.000000 0.000000
vn 0.000000 1.000000 0.000000
vn 0.000000 1.000000 0.000000
vn 0.000000 1.000000 0.000000
vn 0.000000 1.000000 0.000000
s off
g lake:pPlane1
usemtl lake:initialShadingGroup
f 9/9/13 10/10/14 11/11/15
f 11/11/16 10/10/17 12/12/18
