# This file uses centimeters as units for non-parametric coordinates.

mtllib conn04.mtl
g default
v -1.887112 8.881083 6.011503
v 4.430702 4.085168 4.970141
v 0.069894 12.899756 -0.623283
v 6.387707 8.103842 -1.664645
v -4.430702 7.914832 -4.970141
v 1.887112 3.118917 -6.011503
v -6.387707 3.896158 1.664645
v -0.069894 -0.899756 0.623283
v -8.054463 -0.956472 8.054463
v 8.054463 -0.956472 8.054463
v -8.054463 1.497580 8.054463
v 8.054463 1.497580 8.054463
v -8.054463 1.497580 -8.054463
v 8.054463 1.497580 -8.054463
v -8.054463 -0.956472 -8.054463
v 8.054463 -0.956472 -8.054463
vt 0.375000 0.000000
vt 0.625000 0.000000
vt 0.625000 0.250000
vt 0.375000 0.250000
vt 0.625000 0.500000
vt 0.375000 0.500000
vt 0.625000 0.750000
vt 0.375000 0.750000
vt 0.625000 1.000000
vt 0.375000 1.000000
vt 0.875000 0.000000
vt 0.875000 0.250000
vt 0.125000 0.000000
vt 0.125000 0.250000
vt 0.001992 0.411051
vt 0.001992 0.001876
vt 0.064326 0.001876
vt 0.064326 0.411051
vt 0.072349 0.001876
vt 0.481524 0.001876
vt 0.481524 0.411051
vt 0.072349 0.411051
vt 0.489425 0.411051
vt 0.489425 0.001876
vt 0.551759 0.001876
vt 0.551759 0.411051
vt 0.559587 0.001876
vt 0.968762 0.001876
vt 0.968762 0.411051
vt 0.559587 0.411051
vt 0.935674 0.824217
vt 0.935674 0.415042
vt 0.998008 0.415042
vt 0.998008 0.824217
vt 0.867205 0.824217
vt 0.867205 0.415042
vt 0.929539 0.415042
vt 0.929539 0.824217
vn 0.562574 0.623116 0.543357
vn 0.562574 0.623116 0.543357
vn 0.562574 0.623116 0.543357
vn 0.562574 0.623116 0.543357
vn 0.244626 0.502334 -0.829348
vn 0.244626 0.502334 -0.829348
vn 0.244626 0.502334 -0.829348
vn 0.244626 0.502334 -0.829348
vn -0.562574 -0.623116 -0.543357
vn -0.562574 -0.623116 -0.543357
vn -0.562574 -0.623116 -0.543357
vn -0.562574 -0.623116 -0.543357
vn -0.244626 -0.502334 0.829348
vn -0.244626 -0.502334 0.829348
vn -0.244626 -0.502334 0.829348
vn -0.244626 -0.502334 0.829348
vn 0.789727 -0.599489 -0.130170
vn 0.789727 -0.599489 -0.130170
vn 0.789727 -0.599489 -0.130170
vn 0.789727 -0.599489 -0.130170
vn -0.789727 0.599489 0.130170
vn -0.789727 0.599489 0.130170
vn -0.789727 0.599489 0.130170
vn -0.789727 0.599489 0.130170
vn 0.000000 0.000000 1.000000
vn 0.000000 0.000000 1.000000
vn 0.000000 0.000000 1.000000
vn 0.000000 0.000000 1.000000
vn 0.000000 1.000000 0.000000
vn 0.000000 1.000000 0.000000
vn 0.000000 1.000000 0.000000
vn 0.000000 1.000000 0.000000
vn 0.000000 0.000000 -1.000000
vn 0.000000 0.000000 -1.000000
vn 0.000000 0.000000 -1.000000
vn 0.000000 0.000000 -1.000000
vn 0.000000 -1.000000 0.000000
vn 0.000000 -1.000000 0.000000
vn 0.000000 -1.000000 0.000000
vn 0.000000 -1.000000 0.000000
vn 1.000000 0.000000 0.000000
vn 1.000000 0.000000 0.000000
vn 1.000000 0.000000 0.000000
vn 1.000000 0.000000 0.000000
vn -1.000000 0.000000 0.000000
vn -1.000000 0.000000 0.000000
vn -1.000000 0.000000 0.000000
vn -1.000000 0.000000 0.000000
s 1
g conn06:pCube2
usemtl initialShadingGroup
f 1/1/1 2/2/2 3/4/3
f 3/4/3 2/2/2 4/3/4
s 2
f 3/4/5 4/3/6 5/6/7
f 5/6/7 4/3/6 6/5/8
s 3
f 5/6/9 6/5/10 7/8/11
f 7/8/11 6/5/10 8/7/12
s 4
f 7/8/13 8/7/14 1/10/15
f 1/10/15 8/7/14 2/9/16
s 5
f 2/2/17 8/11/18 4/3/19
f 4/3/19 8/11/18 6/12/20
s 6
f 7/13/21 1/1/22 5/14/23
f 5/14/23 1/1/22 3/4/24
s 7
f 9/15/25 10/16/26 11/18/27
f 11/18/27 10/16/26 12/17/28
s 8
f 11/19/29 12/20/30 13/22/31
f 13/22/31 12/20/30 14/21/32
s 9
f 13/23/33 14/24/34 15/26/35
f 15/26/35 14/24/34 16/25/36
s 10
f 15/27/37 16/28/38 9/30/39
f 9/30/39 16/28/38 10/29/40
s 11
f 10/31/41 16/32/42 12/34/43
f 12/34/43 16/32/42 14/33/44
s 12
f 15/35/45 9/36/46 13/38/47
f 13/38/47 9/36/46 11/37/48
g default
v -1.887112 8.881083 6.011503
v 4.430702 4.085168 4.970141
v 0.069894 12.899756 -0.623283
v 6.387707 8.103842 -1.664645
v -4.430702 7.914832 -4.970141
v 1.887112 3.118917 -6.011503
v -6.387707 3.896158 1.664645
v -0.069894 -0.899756 0.623283
v -8.054463 -0.956472 8.054463
v 8.054463 -0.956472 8.054463
v -8.054463 1.497580 8.054463
v 8.054463 1.497580 8.054463
v -8.054463 1.497580 -8.054463
v 8.054463 1.497580 -8.054463
v -8.054463 -0.956472 -8.054463
v 8.054463 -0.956472 -8.054463
vt 0.375000 0.000000
vt 0.625000 0.000000
vt 0.625000 0.250000
vt 0.375000 0.250000
vt 0.625000 0.500000
vt 0.375000 0.500000
vt 0.625000 0.750000
vt 0.375000 0.750000
vt 0.625000 1.000000
vt 0.375000 1.000000
vt 0.875000 0.000000
vt 0.875000 0.250000
vt 0.125000 0.000000
vt 0.125000 0.250000
vt 0.001992 0.411051
vt 0.001992 0.001876
vt 0.064326 0.001876
vt 0.064326 0.411051
vt 0.072349 0.001876
vt 0.481524 0.001876
vt 0.481524 0.411051
vt 0.072349 0.411051
vt 0.489425 0.411051
vt 0.489425 0.001876
vt 0.551759 0.001876
vt 0.551759 0.411051
vt 0.559587 0.001876
vt 0.968762 0.001876
vt 0.968762 0.411051
vt 0.559587 0.411051
vt 0.935674 0.824217
vt 0.935674 0.415042
vt 0.998008 0.415042
vt 0.998008 0.824217
vt 0.867205 0.824217
vt 0.867205 0.415042
vt 0.929539 0.415042
vt 0.929539 0.824217
vn 0.562574 0.623116 0.543357
vn 0.562574 0.623116 0.543357
vn 0.562574 0.623116 0.543357
vn 0.562574 0.623116 0.543357
vn 0.244626 0.502334 -0.829348
vn 0.244626 0.502334 -0.829348
vn 0.244626 0.502334 -0.829348
vn 0.244626 0.502334 -0.829348
vn -0.562574 -0.623116 -0.543357
vn -0.562574 -0.623116 -0.543357
vn -0.562574 -0.623116 -0.543357
vn -0.562574 -0.623116 -0.543357
vn -0.244626 -0.502334 0.829348
vn -0.244626 -0.502334 0.829348
vn -0.244626 -0.502334 0.829348
vn -0.244626 -0.502334 0.829348
vn 0.789727 -0.599489 -0.130170
vn 0.789727 -0.599489 -0.130170
vn 0.789727 -0.599489 -0.130170
vn 0.789727 -0.599489 -0.130170
vn -0.789727 0.599489 0.130170
vn -0.789727 0.599489 0.130170
vn -0.789727 0.599489 0.130170
vn -0.789727 0.599489 0.130170
vn 0.000000 0.000000 1.000000
vn 0.000000 0.000000 1.000000
vn 0.000000 0.000000 1.000000
vn 0.000000 0.000000 1.000000
vn 0.000000 1.000000 0.000000
vn 0.000000 1.000000 0.000000
vn 0.000000 1.000000 0.000000
vn 0.000000 1.000000 0.000000
vn 0.000000 0.000000 -1.000000
vn 0.000000 0.000000 -1.000000
vn 0.000000 0.000000 -1.000000
vn 0.000000 0.000000 -1.000000
vn 0.000000 -1.000000 0.000000
vn 0.000000 -1.000000 0.000000
vn 0.000000 -1.000000 0.000000
vn 0.000000 -1.000000 0.000000
vn 1.000000 0.000000 0.000000
vn 1.000000 0.000000 0.000000
vn 1.000000 0.000000 0.000000
vn 1.000000 0.000000 0.000000
vn -1.000000 0.000000 0.000000
vn -1.000000 0.000000 0.000000
vn -1.000000 0.000000 0.000000
vn -1.000000 0.000000 0.000000
s 1
g conn06:pCube2
f 17/39/49 18/40/50 19/42/51
f 19/42/51 18/40/50 20/41/52
s 2
f 19/42/53 20/41/54 21/44/55
f 21/44/55 20/41/54 22/43/56
s 3
f 21/44/57 22/43/58 23/46/59
f 23/46/59 22/43/58 24/45/60
s 4
f 23/46/61 24/45/62 17/48/63
f 17/48/63 24/45/62 18/47/64
s 5
f 18/40/65 24/49/66 20/41/67
f 20/41/67 24/49/66 22/50/68
s 6
f 23/51/69 17/39/70 21/52/71
f 21/52/71 17/39/70 19/42/72
s 7
f 25/53/73 26/54/74 27/56/75
f 27/56/75 26/54/74 28/55/76
s 8
f 27/57/77 28/58/78 29/60/79
f 29/60/79 28/58/78 30/59/80
s 9
f 29/61/81 30/62/82 31/64/83
f 31/64/83 30/62/82 32/63/84
s 10
f 31/65/85 32/66/86 25/68/87
f 25/68/87 32/66/86 26/67/88
s 11
f 26/69/89 32/70/90 28/72/91
f 28/72/91 32/70/90 30/71/92
s 12
f 31/73/93 25/74/94 29/76/95
f 29/76/95 25/74/94 27/75/96
