# This file uses centimeters as units for non-parametric coordinates.

mtllib conn05.mtl
g default
v 3.954049 2.601277 -8.286200
v 5.710384 9.007450 -1.241361
v -3.012959 8.689288 -5.431301
v -5.128759 -0.585308 -7.236521
v 2.286948 -5.999159 -4.162269
v 8.985907 -0.070510 -0.457056
v 5.128759 4.366247 7.236522
v -2.286949 9.780101 4.162269
v -8.985908 3.851449 0.457056
v -5.710384 -5.226510 1.241361
v 3.012960 -4.908346 5.431301
v -3.954049 1.179664 8.286200
vt 0.853535 0.488359
vt 0.700146 0.354322
vt 0.892204 0.347317
vt 0.653563 0.558516
vt 0.816831 0.677710
vt 0.191133 0.001992
vt 0.132309 0.174363
vt 0.001781 0.092787
vt 0.332174 0.157095
vt 0.311705 0.347317
vt 0.403953 0.539375
vt 0.192736 0.523390
vt 0.644603 0.304004
vt 0.440409 0.343749
vt 0.538091 0.174363
vt 0.001781 0.985203
vt 0.069465 0.821935
vt 0.188434 0.998008
vt 0.151041 0.674447
vt 0.280682 0.805950
vt 0.229991 0.343749
vt 0.125051 0.360122
vt 0.274312 0.670878
vt 0.338225 0.157095
vt 0.025797 0.304004
vt 0.648078 0.558516
vt 0.484810 0.677710
vt 0.448106 0.488359
vt 0.668619 0.092787
vt 0.479267 0.001992
vt 0.409438 0.347317
vt 0.601496 0.354322
vn 0.302983 0.666260 -0.681395
vn 0.302983 0.666260 -0.681395
vn 0.302983 0.666260 -0.681395
vn -0.190754 0.229298 -0.954482
vn -0.190753 0.229298 -0.954482
vn -0.190753 0.229298 -0.954482
vn 0.050664 -0.439779 -0.896676
vn 0.050664 -0.439779 -0.896676
vn 0.050664 -0.439779 -0.896676
vn 0.693604 -0.416330 -0.587863
vn 0.693604 -0.416330 -0.587863
vn 0.693604 -0.416330 -0.587863
vn 0.849546 0.267240 -0.454812
vn 0.849546 0.267240 -0.454812
vn 0.849546 0.267240 -0.454812
vn 0.018698 0.993264 -0.114352
vn 0.018698 0.993264 -0.114352
vn 0.018698 0.993264 -0.114352
vn -0.780185 0.286245 -0.556216
vn -0.780185 0.286245 -0.556216
vn -0.780185 0.286245 -0.556216
vn -0.389563 -0.796345 -0.462683
vn -0.389563 -0.796345 -0.462683
vn -0.389563 -0.796345 -0.462683
vn 0.650737 -0.758402 0.036986
vn 0.650737 -0.758402 0.036986
vn 0.650737 -0.758402 0.036986
vn 0.903056 0.347637 0.252267
vn 0.903056 0.347637 0.252267
vn 0.903056 0.347637 0.252267
vn 0.389563 0.796345 0.462683
vn 0.389563 0.796345 0.462683
vn 0.389563 0.796345 0.462683
vn -0.650737 0.758402 -0.036986
vn -0.650737 0.758402 -0.036986
vn -0.650737 0.758402 -0.036986
vn -0.903056 -0.347637 -0.252267
vn -0.903056 -0.347637 -0.252267
vn -0.903056 -0.347637 -0.252267
vn -0.018698 -0.993264 0.114352
vn -0.018698 -0.993264 0.114352
vn -0.018698 -0.993264 0.114352
vn 0.780185 -0.286245 0.556215
vn 0.780185 -0.286245 0.556215
vn 0.780185 -0.286245 0.556215
vn -0.050664 0.439779 0.896676
vn -0.050664 0.439779 0.896676
vn -0.050664 0.439779 0.896676
vn -0.693605 0.416330 0.587863
vn -0.693605 0.416329 0.587863
vn -0.693605 0.416329 0.587863
vn -0.849546 -0.267240 0.454812
vn -0.849546 -0.267240 0.454812
vn -0.849546 -0.267240 0.454812
vn -0.302983 -0.666260 0.681395
vn -0.302983 -0.666260 0.681395
vn -0.302983 -0.666260 0.681395
vn 0.190753 -0.229298 0.954482
vn 0.190753 -0.229298 0.954482
vn 0.190753 -0.229298 0.954482
s off
g conn07:pPlatonic1
usemtl initialShadingGroup
f 1/1/1 3/2/2 2/3/3
f 1/1/4 4/4/5 3/2/6
f 1/1/7 5/5/8 4/4/9
f 1/6/10 6/7/11 5/8/12
f 1/6/13 2/9/14 6/7/15
f 2/10/16 3/11/17 8/12/18
f 3/13/19 4/14/20 9/15/21
f 4/16/22 5/17/23 10/18/24
f 5/17/25 6/19/26 11/20/27
f 6/7/28 2/9/29 7/21/30
f 2/10/31 8/12/32 7/22/33
f 3/11/34 9/23/35 8/12/36
f 4/14/37 10/24/38 9/15/39
f 5/17/40 11/20/41 10/18/42
f 6/7/43 7/21/44 11/25/45
f 7/26/46 8/27/47 12/28/48
f 8/29/49 9/15/50 12/30/51
f 9/15/52 10/24/53 12/30/54
f 10/31/55 11/32/56 12/28/57
f 11/32/58 7/26/59 12/28/60
