# This file uses centimeters as units for non-parametric coordinates.

mtllib conn03.mtl
g default
v -8.054463 -0.956472 8.054463
v 8.054463 -0.956472 8.054463
v -8.054463 1.497580 8.054463
v 8.054463 1.497580 8.054463
v -8.054463 1.497580 -8.054463
v 8.054463 1.497580 -8.054463
v -8.054463 -0.956472 -8.054463
v 8.054463 -0.956472 -8.054463
v 3.115498 -0.662634 -0.820698
v 2.267484 -0.662634 -0.027316
v 3.060864 -0.662634 0.820698
v 3.908879 -0.662634 0.027316
v 3.115498 8.332970 -0.820698
v 2.267484 8.332970 -0.027316
v 3.060864 8.332970 0.820698
v 3.908879 8.332970 0.027316
v 3.088181 -0.662634 0.000000
v 3.088181 9.552227 0.000000
v -2.390588 0.306369 -4.037787
v -3.327199 0.306369 -3.733464
v -3.327199 0.306369 -2.748654
v -2.390588 0.306369 -2.444331
v -1.811732 0.306369 -3.241059
v -2.390588 8.723331 -4.037787
v -3.327199 8.309058 -3.733464
v -3.327199 8.309058 -2.748654
v -2.390588 8.723331 -2.444331
v -1.811732 9.044491 -3.241059
v -2.649461 0.306369 -3.241059
v -2.649461 8.806808 -3.241059
v -3.163591 0.389361 2.032951
v -3.163591 0.389361 3.784745
v -1.646493 0.389361 2.908848
v -3.163591 11.988564 2.032951
v -3.163591 10.942485 3.784745
v -1.646493 10.942485 2.908848
v -2.657892 0.389361 2.908848
v -2.657892 11.572985 2.908848
vt 0.375000 0.000000
vt 0.625000 0.000000
vt 0.625000 0.250000
vt 0.375000 0.250000
vt 0.625000 0.500000
vt 0.375000 0.500000
vt 0.625000 0.750000
vt 0.375000 0.750000
vt 0.625000 1.000000
vt 0.375000 1.000000
vt 0.875000 0.000000
vt 0.875000 0.250000
vt 0.125000 0.000000
vt 0.125000 0.250000
vt 0.375000 0.312500
vt 0.437500 0.312500
vt 0.437500 0.688440
vt 0.375000 0.688440
vt 0.500000 0.312500
vt 0.500000 0.688440
vt 0.562500 0.312500
vt 0.562500 0.688440
vt 0.625000 0.312500
vt 0.625000 0.688440
vt 0.343750 0.156250
vt 0.500000 0.000000
vt 0.500000 0.150000
vt 0.500000 0.312500
vt 0.656250 0.156250
vt 0.500000 1.000000
vt 0.343750 0.843750
vt 0.500000 0.837500
vt 0.500000 0.687500
vt 0.656250 0.843750
vt 0.375000 0.312500
vt 0.425000 0.312500
vt 0.425000 0.688440
vt 0.375000 0.688440
vt 0.475000 0.312500
vt 0.475000 0.688440
vt 0.525000 0.312500
vt 0.525000 0.688440
vt 0.575000 0.312500
vt 0.575000 0.688440
vt 0.625000 0.312500
vt 0.625000 0.688440
vt 0.373591 0.064409
vt 0.548284 0.007647
vt 0.500000 0.150000
vt 0.373591 0.248091
vt 0.548284 0.304853
vt 0.656250 0.156250
vt 0.548284 0.992353
vt 0.373591 0.935591
vt 0.500000 0.837500
vt 0.373591 0.751909
vt 0.548284 0.695147
vt 0.656250 0.843750
vt 0.375000 0.312500
vt 0.458333 0.312500
vt 0.458333 0.688440
vt 0.375000 0.688440
vt 0.541667 0.312500
vt 0.541667 0.688440
vt 0.625000 0.312500
vt 0.625000 0.688440
vt 0.421875 0.291566
vt 0.421875 0.020934
vt 0.500000 0.150000
vt 0.656250 0.156250
vt 0.421875 0.979066
vt 0.421875 0.708434
vt 0.500000 0.837500
vt 0.656250 0.843750
vn 0.000000 0.000000 1.000000
vn 0.000000 0.000000 1.000000
vn 0.000000 0.000000 1.000000
vn 0.000000 0.000000 1.000000
vn 0.000000 1.000000 0.000000
vn 0.000000 1.000000 0.000000
vn 0.000000 1.000000 0.000000
vn 0.000000 1.000000 0.000000
vn 0.000000 0.000000 -1.000000
vn 0.000000 0.000000 -1.000000
vn 0.000000 0.000000 -1.000000
vn 0.000000 0.000000 -1.000000
vn 0.000000 -1.000000 0.000000
vn 0.000000 -1.000000 0.000000
vn 0.000000 -1.000000 0.000000
vn 0.000000 -1.000000 0.000000
vn 1.000000 0.000000 0.000000
vn 1.000000 0.000000 0.000000
vn 1.000000 0.000000 0.000000
vn 1.000000 0.000000 0.000000
vn -1.000000 0.000000 0.000000
vn -1.000000 0.000000 0.000000
vn -1.000000 0.000000 0.000000
vn -1.000000 0.000000 0.000000
vn -0.683193 0.000000 -0.730238
vn -0.683193 0.000000 -0.730238
vn -0.683193 0.000000 -0.730238
vn -0.683193 0.000000 -0.730238
vn -0.730238 0.000000 0.683193
vn -0.730238 0.000000 0.683193
vn -0.730238 0.000000 0.683193
vn -0.730238 0.000000 0.683193
vn 0.683193 0.000000 0.730238
vn 0.683193 0.000000 0.730238
vn 0.683193 0.000000 0.730238
vn 0.683193 0.000000 0.730238
vn 0.730238 0.000000 -0.683193
vn 0.730238 0.000000 -0.683193
vn 0.730238 0.000000 -0.683193
vn 0.730238 0.000000 -0.683193
vn 0.000000 -1.000000 0.000000
vn 0.000000 -1.000000 0.000000
vn 0.000000 -1.000000 0.000000
vn 0.000000 -1.000000 0.000000
vn 0.000000 -1.000000 0.000000
vn 0.000000 -1.000000 0.000000
vn 0.000000 -1.000000 0.000000
vn 0.000000 -1.000000 0.000000
vn 0.000000 -1.000000 0.000000
vn 0.000000 -1.000000 0.000000
vn 0.000000 -1.000000 0.000000
vn 0.000000 -1.000000 0.000000
vn 0.027592 0.558609 -0.828972
vn -0.828972 0.558609 -0.027592
vn 0.000000 1.000000 0.000000
vn -0.828972 0.558609 -0.027592
vn -0.027592 0.558609 0.828972
vn 0.000000 1.000000 0.000000
vn -0.027592 0.558609 0.828972
vn 0.828972 0.558609 0.027592
vn 0.000000 1.000000 0.000000
vn 0.828972 0.558609 0.027592
vn 0.027592 0.558609 -0.828972
vn 0.000000 1.000000 0.000000
vn -0.309017 0.000000 -0.951057
vn -0.309017 0.000000 -0.951057
vn -0.309017 0.000000 -0.951057
vn -0.309017 0.000000 -0.951057
vn -1.000000 0.000000 0.000000
vn -1.000000 0.000000 0.000000
vn -1.000000 0.000000 0.000000
vn -1.000000 0.000000 0.000000
vn -0.309017 0.000000 0.951056
vn -0.309017 0.000000 0.951056
vn -0.309017 0.000000 0.951056
vn -0.309017 0.000000 0.951056
vn 0.809017 0.000000 0.587785
vn 0.809017 0.000000 0.587785
vn 0.809017 0.000000 0.587785
vn 0.809017 0.000000 0.587785
vn 0.809017 0.000000 -0.587785
vn 0.809017 0.000000 -0.587785
vn 0.809017 0.000000 -0.587785
vn 0.809017 0.000000 -0.587785
vn 0.000000 -1.000000 0.000000
vn 0.000000 -1.000000 0.000000
vn 0.000000 -1.000000 0.000000
vn 0.000000 -1.000000 0.000000
vn 0.000000 -1.000000 0.000000
vn 0.000000 -1.000000 0.000000
vn 0.000000 -1.000000 0.000000
vn 0.000000 -1.000000 0.000000
vn 0.000000 -1.000000 0.000000
vn 0.000000 -1.000000 0.000000
vn 0.000000 -1.000000 0.000000
vn 0.000000 -1.000000 0.000000
vn 0.000000 -1.000000 0.000000
vn 0.000000 -1.000000 0.000000
vn 0.000000 -1.000000 0.000000
vn -0.374745 0.901562 -0.216221
vn -0.539634 0.835695 -0.102022
vn -0.418246 0.908334 0.000000
vn -0.539634 0.835695 -0.102022
vn -0.539634 0.835695 0.102022
vn -0.418246 0.908334 0.000000
vn -0.539634 0.835695 0.102022
vn -0.374745 0.901562 0.216221
vn -0.418246 0.908334 0.000000
vn -0.374745 0.901562 0.216221
vn -0.272950 0.962028 0.000000
vn -0.418246 0.908334 0.000000
vn -0.272950 0.962028 0.000000
vn -0.374745 0.901562 -0.216221
vn -0.418246 0.908334 0.000000
vn -1.000000 0.000000 -0.000000
vn -1.000000 0.000000 -0.000000
vn -1.000000 0.000000 -0.000000
vn -1.000000 0.000000 -0.000000
vn 0.500000 0.000000 0.866025
vn 0.500000 0.000000 0.866025
vn 0.500000 0.000000 0.866025
vn 0.500000 0.000000 0.866025
vn 0.500000 0.000000 -0.866025
vn 0.500000 0.000000 -0.866025
vn 0.500000 0.000000 -0.866025
vn 0.500000 0.000000 -0.866025
vn 0.000000 -1.000000 0.000000
vn 0.000000 -1.000000 0.000000
vn 0.000000 -1.000000 0.000000
vn 0.000000 -1.000000 0.000000
vn 0.000000 -1.000000 0.000000
vn 0.000000 -1.000000 0.000000
vn 0.000000 -1.000000 0.000000
vn 0.000000 -1.000000 0.000000
vn 0.000000 -1.000000 0.000000
vn 0.190031 0.924960 0.329145
vn 0.233108 0.720433 0.653175
vn 0.266831 0.845698 0.462165
vn 0.233108 0.720433 0.653175
vn 0.449112 0.720432 0.528465
vn 0.266831 0.845698 0.462165
vn 0.449112 0.720432 0.528465
vn 0.190031 0.924960 0.329145
vn 0.266831 0.845698 0.462165
s off
g conn03:pCube41
usemtl initialShadingGroup
f 1/1/1 2/2/2 4/3/3 3/4/4
f 3/4/5 4/3/6 6/5/7 5/6/8
f 5/6/9 6/5/10 8/7/11 7/8/12
f 7/8/13 8/7/14 2/9/15 1/10/16
f 2/2/17 8/11/18 6/12/19 4/3/20
f 7/13/21 1/1/22 3/4/23 5/14/24
f 9/15/25 10/16/26 14/17/27 13/18/28
f 10/16/29 11/19/30 15/20/31 14/17/32
f 11/19/33 12/21/34 16/22/35 15/20/36
f 12/21/37 9/23/38 13/24/39 16/22/40
f 10/25/41 9/26/42 17/27/43
f 11/28/44 10/25/45 17/27/46
f 12/29/47 11/28/48 17/27/49
f 9/26/50 12/29/51 17/27/52
f 13/30/53 14/31/54 18/32/55
f 14/31/56 15/33/57 18/32/58
f 15/33/59 16/34/60 18/32/61
f 16/34/62 13/30/63 18/32/64
f 19/35/65 20/36/66 25/37/67 24/38/68
f 20/36/69 21/39/70 26/40/71 25/37/72
f 21/39/73 22/41/74 27/42/75 26/40/76
f 22/41/77 23/43/78 28/44/79 27/42/80
f 23/43/81 19/45/82 24/46/83 28/44/84
f 20/47/85 19/48/86 29/49/87
f 21/50/88 20/47/89 29/49/90
f 22/51/91 21/50/92 29/49/93
f 23/52/94 22/51/95 29/49/96
f 19/48/97 23/52/98 29/49/99
f 24/53/100 25/54/101 30/55/102
f 25/54/103 26/56/104 30/55/105
f 26/56/106 27/57/107 30/55/108
f 27/57/109 28/58/110 30/55/111
f 28/58/112 24/53/113 30/55/114
f 31/59/115 32/60/116 35/61/117 34/62/118
f 32/60/119 33/63/120 36/64/121 35/61/122
f 33/63/123 31/65/124 34/66/125 36/64/126
f 32/67/127 31/68/128 37/69/129
f 33/70/130 32/67/131 37/69/132
f 31/68/133 33/70/134 37/69/135
f 34/71/136 35/72/137 38/73/138
f 35/72/139 36/74/140 38/73/141
f 36/74/142 34/71/143 38/73/144
