# This file uses centimeters as units for non-parametric coordinates.

mtllib conn3.mtl
g default
v -8.802463 -4.118370 -2.204400
v 0.770456 -5.953032 -7.974435
v -3.182680 -5.443210 7.540492
v 6.390241 -7.277872 1.770456
v -0.929386 5.655389 7.749919
v 8.643532 3.820726 1.979884
v -6.549171 6.980229 -1.994971
v 3.023749 5.145567 -7.765007
vt 0.375000 0.000000
vt 0.625000 0.000000
vt 0.625000 0.250000
vt 0.375000 0.250000
vt 0.625000 0.500000
vt 0.375000 0.500000
vt 0.625000 0.750000
vt 0.375000 0.750000
vt 0.625000 1.000000
vt 0.375000 1.000000
vt 0.875000 0.000000
vt 0.875000 0.250000
vt 0.125000 0.000000
vt 0.125000 0.250000
vn -0.198932 -0.979839 -0.018489
vn -0.198932 -0.979839 -0.018489
vn -0.198932 -0.979839 -0.018489
vn -0.198932 -0.979839 -0.018489
vn 0.496142 -0.116963 0.860327
vn 0.496142 -0.116963 0.860327
vn 0.496142 -0.116963 0.860327
vn 0.496142 -0.116963 0.860327
vn 0.198932 0.979839 0.018489
vn 0.198932 0.979839 0.018489
vn 0.198932 0.979839 0.018489
vn 0.198932 0.979839 0.018489
vn -0.496142 0.116963 -0.860327
vn -0.496142 0.116963 -0.860327
vn -0.496142 0.116963 -0.860327
vn -0.496142 0.116963 -0.860327
vn 0.845145 -0.161973 -0.509407
vn 0.845145 -0.161973 -0.509407
vn 0.845145 -0.161973 -0.509407
vn 0.845145 -0.161973 -0.509407
vn -0.845145 0.161973 0.509407
vn -0.845145 0.161973 0.509407
vn -0.845145 0.161973 0.509407
vn -0.845145 0.161973 0.509407
s off
g conn6:pCube14
usemtl conn6:initialShadingGroup
f 1/1/1 2/2/2 4/3/3 3/4/4
f 3/4/5 4/3/6 6/5/7 5/6/8
f 5/6/9 6/5/10 8/7/11 7/8/12
f 7/8/13 8/7/14 2/9/15 1/10/16
f 2/2/17 8/11/18 6/12/19 4/3/20
f 7/13/21 1/1/22 3/4/23 5/14/24
