# This file uses centimeters as units for non-parametric coordinates.

mtllib conn03.mtl
g default
v -8.054463 -0.956472 8.054463
v 8.054463 -0.956472 8.054463
v -8.054463 1.497580 8.054463
v 8.054463 1.497580 8.054463
v -8.054463 1.497580 -8.054463
v 8.054463 1.497580 -8.054463
v -8.054463 -0.956472 -8.054463
v 8.054463 -0.956472 -8.054463
v 3.115498 -0.662634 -0.820698
v 2.267484 -0.662634 -0.027316
v 3.060864 -0.662634 0.820698
v 3.908879 -0.662634 0.027316
v 3.115498 8.332970 -0.820698
v 2.267484 8.332970 -0.027316
v 3.060864 8.332970 0.820698
v 3.908879 8.332970 0.027316
v 3.088181 -0.662634 0.000000
v 3.088181 9.552227 0.000000
v -2.390588 0.306369 -4.037787
v -3.327199 0.306369 -3.733464
v -3.327199 0.306369 -2.748654
v -2.390588 0.306369 -2.444331
v -1.811732 0.306369 -3.241059
v -2.390588 8.723331 -4.037787
v -3.327199 8.309058 -3.733464
v -3.327199 8.309058 -2.748654
v -2.390588 8.723331 -2.444331
v -1.811732 9.044491 -3.241059
v -2.649461 0.306369 -3.241059
v -2.649461 8.806808 -3.241059
v -3.163591 0.389361 2.032951
v -3.163591 0.389361 3.784745
v -1.646493 0.389361 2.908848
v -3.163591 11.988564 2.032951
v -3.163591 10.942485 3.784745
v -1.646493 10.942485 2.908848
v -2.657892 0.389361 2.908848
v -2.657892 11.572985 2.908848
vt 0.439982 0.933385
vt 0.439982 0.469649
vt 0.510628 0.469649
vt 0.510628 0.933385
vt 0.363309 0.933385
vt 0.363309 0.469649
vt 0.433955 0.469649
vt 0.433955 0.933385
vt 0.146573 0.469649
vt 0.170985 0.469649
vt 0.170985 0.728610
vt 0.146573 0.728610
vt 0.147359 0.763709
vt 0.085694 0.469649
vt 0.110107 0.469649
vt 0.110107 0.728610
vt 0.085694 0.728610
vt 0.086481 0.763709
vt 0.071072 0.767631
vt 0.099422 0.767631
vt 0.099422 0.998008
vt 0.071072 0.998008
vt 0.033796 0.469649
vt 0.056732 0.469649
vt 0.056732 0.721198
vt 0.033796 0.711952
vt 0.079667 0.469649
vt 0.079667 0.711952
vt 0.306852 0.469649
vt 0.357282 0.469649
vt 0.357282 0.773447
vt 0.306852 0.803561
vt 0.078730 0.001992
vt 0.542466 0.001992
vt 0.542466 0.465728
vt 0.078730 0.465728
vt 0.516655 0.469649
vt 0.980391 0.469649
vt 0.980391 0.933385
vt 0.516655 0.933385
vt 0.205091 0.818358
vt 0.229503 0.795519
vt 0.228716 0.819145
vt 0.252342 0.819931
vt 0.227930 0.842770
vt 0.258698 0.816243
vt 0.285661 0.807482
vt 0.278208 0.830418
vt 0.302325 0.830418
vt 0.258698 0.844593
vt 0.285661 0.853354
vt 0.335439 0.853354
vt 0.308476 0.844593
vt 0.327987 0.830418
vt 0.308476 0.816243
vt 0.352103 0.830418
vt 0.335439 0.807482
vt 0.105534 0.818060
vt 0.105534 0.767631
vt 0.120092 0.792845
vt 0.149207 0.792845
vt 0.155312 0.818060
vt 0.155312 0.767631
vt 0.169870 0.792845
vt 0.198986 0.792845
vt 0.001957 0.465728
vt 0.001957 0.001992
vt 0.072603 0.001992
vt 0.072603 0.465728
vt 0.549709 0.465728
vt 0.549709 0.001992
vt 0.620356 0.001992
vt 0.620356 0.465728
vt 0.201424 0.763709
vt 0.177012 0.763709
vt 0.177012 0.504748
vt 0.201424 0.504748
vt 0.200638 0.469649
vt 0.116134 0.469649
vt 0.140546 0.469649
vt 0.140546 0.728610
vt 0.116134 0.728610
vt 0.116920 0.763709
vt 0.028920 0.967422
vt 0.001957 0.967422
vt 0.001957 0.737045
vt 0.028920 0.725119
vt 0.036610 0.725119
vt 0.063573 0.725119
vt 0.063573 0.967422
vt 0.036610 0.955496
vt 0.207451 0.469649
vt 0.251125 0.469649
vt 0.251125 0.773447
vt 0.207451 0.773447
vt 0.222009 0.791598
vt 0.300825 0.803561
vt 0.257152 0.803561
vt 0.257152 0.469649
vt 0.300825 0.499763
vn 0.000000 0.000000 1.000000
vn 0.000000 0.000000 1.000000
vn 0.000000 0.000000 1.000000
vn 0.000000 0.000000 1.000000
vn 0.000000 1.000000 0.000000
vn 0.000000 1.000000 0.000000
vn 0.000000 1.000000 0.000000
vn 0.000000 1.000000 0.000000
vn 0.000000 0.000000 -1.000000
vn 0.000000 0.000000 -1.000000
vn 0.000000 0.000000 -1.000000
vn 0.000000 0.000000 -1.000000
vn 0.000000 -1.000000 0.000000
vn 0.000000 -1.000000 0.000000
vn 0.000000 -1.000000 0.000000
vn 0.000000 -1.000000 0.000000
vn 1.000000 0.000000 0.000000
vn 1.000000 0.000000 0.000000
vn 1.000000 0.000000 0.000000
vn 1.000000 0.000000 0.000000
vn -1.000000 0.000000 0.000000
vn -1.000000 0.000000 0.000000
vn -1.000000 0.000000 0.000000
vn -1.000000 0.000000 0.000000
vn -0.683193 0.000000 -0.730238
vn -0.683193 0.000000 -0.730238
vn -0.683193 0.000000 -0.730238
vn -0.683193 0.000000 -0.730238
vn -0.730238 0.000000 0.683193
vn -0.730238 0.000000 0.683193
vn -0.730238 0.000000 0.683193
vn -0.730238 0.000000 0.683193
vn 0.683193 0.000000 0.730238
vn 0.683193 0.000000 0.730238
vn 0.683193 0.000000 0.730238
vn 0.683193 0.000000 0.730238
vn 0.730238 0.000000 -0.683193
vn 0.730238 0.000000 -0.683193
vn 0.730238 0.000000 -0.683193
vn 0.730238 0.000000 -0.683193
vn 0.000000 -1.000000 0.000000
vn 0.000000 -1.000000 0.000000
vn 0.000000 -1.000000 0.000000
vn 0.000000 -1.000000 0.000000
vn 0.000000 -1.000000 0.000000
vn 0.000000 -1.000000 0.000000
vn 0.000000 -1.000000 0.000000
vn 0.000000 -1.000000 0.000000
vn 0.000000 -1.000000 0.000000
vn 0.000000 -1.000000 0.000000
vn 0.000000 -1.000000 0.000000
vn 0.000000 -1.000000 0.000000
vn 0.027592 0.558609 -0.828972
vn -0.828972 0.558609 -0.027592
vn 0.000000 1.000000 0.000000
vn -0.828972 0.558609 -0.027592
vn -0.027592 0.558609 0.828972
vn 0.000000 1.000000 0.000000
vn -0.027592 0.558609 0.828972
vn 0.828972 0.558609 0.027592
vn 0.000000 1.000000 0.000000
vn 0.828972 0.558609 0.027592
vn 0.027592 0.558609 -0.828972
vn 0.000000 1.000000 0.000000
vn -0.309017 0.000000 -0.951057
vn -0.309017 0.000000 -0.951057
vn -0.309017 0.000000 -0.951057
vn -0.309017 0.000000 -0.951057
vn -1.000000 0.000000 0.000000
vn -1.000000 0.000000 0.000000
vn -1.000000 0.000000 0.000000
vn -1.000000 0.000000 0.000000
vn -0.309017 0.000000 0.951056
vn -0.309017 0.000000 0.951056
vn -0.309017 0.000000 0.951056
vn -0.309017 0.000000 0.951056
vn 0.809017 0.000000 0.587785
vn 0.809017 0.000000 0.587785
vn 0.809017 0.000000 0.587785
vn 0.809017 0.000000 0.587785
vn 0.809017 0.000000 -0.587785
vn 0.809017 0.000000 -0.587785
vn 0.809017 0.000000 -0.587785
vn 0.809017 0.000000 -0.587785
vn 0.000000 -1.000000 0.000000
vn 0.000000 -1.000000 0.000000
vn 0.000000 -1.000000 0.000000
vn 0.000000 -1.000000 0.000000
vn 0.000000 -1.000000 0.000000
vn 0.000000 -1.000000 0.000000
vn 0.000000 -1.000000 0.000000
vn 0.000000 -1.000000 0.000000
vn 0.000000 -1.000000 0.000000
vn 0.000000 -1.000000 0.000000
vn 0.000000 -1.000000 0.000000
vn 0.000000 -1.000000 0.000000
vn 0.000000 -1.000000 0.000000
vn 0.000000 -1.000000 0.000000
vn 0.000000 -1.000000 0.000000
vn -0.374745 0.901562 -0.216221
vn -0.539634 0.835695 -0.102022
vn -0.418246 0.908334 0.000000
vn -0.539634 0.835695 -0.102022
vn -0.539634 0.835695 0.102022
vn -0.418246 0.908334 0.000000
vn -0.539634 0.835695 0.102022
vn -0.374745 0.901562 0.216221
vn -0.418246 0.908334 0.000000
vn -0.374745 0.901562 0.216221
vn -0.272950 0.962028 0.000000
vn -0.418246 0.908334 0.000000
vn -0.272950 0.962028 0.000000
vn -0.374745 0.901562 -0.216221
vn -0.418246 0.908334 0.000000
vn -1.000000 0.000000 -0.000000
vn -1.000000 0.000000 -0.000000
vn -1.000000 0.000000 -0.000000
vn -1.000000 0.000000 -0.000000
vn 0.500000 0.000000 0.866025
vn 0.500000 0.000000 0.866025
vn 0.500000 0.000000 0.866025
vn 0.500000 0.000000 0.866025
vn 0.500000 0.000000 -0.866025
vn 0.500000 0.000000 -0.866025
vn 0.500000 0.000000 -0.866025
vn 0.500000 0.000000 -0.866025
vn 0.000000 -1.000000 0.000000
vn 0.000000 -1.000000 0.000000
vn 0.000000 -1.000000 0.000000
vn 0.000000 -1.000000 0.000000
vn 0.000000 -1.000000 0.000000
vn 0.000000 -1.000000 0.000000
vn 0.000000 -1.000000 0.000000
vn 0.000000 -1.000000 0.000000
vn 0.000000 -1.000000 0.000000
vn 0.190031 0.924960 0.329145
vn 0.233108 0.720433 0.653175
vn 0.266831 0.845698 0.462165
vn 0.233108 0.720433 0.653175
vn 0.449112 0.720432 0.528465
vn 0.266831 0.845698 0.462165
vn 0.449112 0.720432 0.528465
vn 0.190031 0.924960 0.329145
vn 0.266831 0.845698 0.462165
s off
g conn03:pCube41
usemtl initialShadingGroup
f 1/66/1 2/67/2 4/68/3 3/69/4
f 3/33/5 4/34/6 6/35/7 5/36/8
f 5/70/9 6/71/10 8/72/11 7/73/12
f 7/37/13 8/38/14 2/39/15 1/40/16
f 2/1/17 8/2/18 6/3/19 4/4/20
f 7/5/21 1/6/22 3/7/23 5/8/24
f 9/74/25 10/75/26 14/76/27 13/77/28
f 10/9/29 11/10/30 15/11/31 14/12/32
f 11/79/33 12/80/34 16/81/35 15/82/36
f 12/14/37 9/15/38 13/16/39 16/17/40
f 10/41/41 9/42/42 17/43/43
f 11/45/44 10/41/45 17/43/46
f 12/44/47 11/45/48 17/43/49
f 9/42/50 12/44/51 17/43/52
f 13/77/53 14/76/54 18/78/55
f 14/12/56 15/11/57 18/13/58
f 15/82/59 16/81/60 18/83/61
f 16/17/62 13/16/63 18/18/64
f 19/84/65 20/85/66 25/86/67 24/87/68
f 20/19/69 21/20/70 26/21/71 25/22/72
f 21/88/73 22/89/74 27/90/75 26/91/76
f 22/23/77 23/24/78 28/25/79 27/26/80
f 23/24/81 19/27/82 24/28/83 28/25/84
f 20/46/85 19/47/86 29/48/87
f 21/50/88 20/46/89 29/48/90
f 22/51/91 21/50/92 29/48/93
f 23/49/94 22/51/95 29/48/96
f 19/47/97 23/49/98 29/48/99
f 24/52/100 25/53/101 30/54/102
f 25/53/103 26/55/104 30/54/105
f 26/55/106 27/57/107 30/54/108
f 27/57/109 28/56/110 30/54/111
f 28/56/112 24/52/113 30/54/114
f 31/29/115 32/30/116 35/31/117 34/32/118
f 32/92/119 33/93/120 36/94/121 35/95/122
f 33/97/123 31/98/124 34/99/125 36/100/126
f 32/58/127 31/59/128 37/60/129
f 33/61/130 32/58/131 37/60/132
f 31/59/133 33/61/134 37/60/135
f 34/62/136 35/63/137 38/64/138
f 35/95/139 36/94/140 38/96/141
f 36/65/142 34/62/143 38/64/144
g default
v -8.054463 -0.956472 8.054463
v 8.054463 -0.956472 8.054463
v -8.054463 1.497580 8.054463
v 8.054463 1.497580 8.054463
v -8.054463 1.497580 -8.054463
v 8.054463 1.497580 -8.054463
v -8.054463 -0.956472 -8.054463
v 8.054463 -0.956472 -8.054463
v 3.115498 -0.662634 -0.820698
v 2.267484 -0.662634 -0.027316
v 3.060864 -0.662634 0.820698
v 3.908879 -0.662634 0.027316
v 3.115498 8.332970 -0.820698
v 2.267484 8.332970 -0.027316
v 3.060864 8.332970 0.820698
v 3.908879 8.332970 0.027316
v 3.088181 -0.662634 0.000000
v 3.088181 9.552227 0.000000
v -2.390588 0.306369 -4.037787
v -3.327199 0.306369 -3.733464
v -3.327199 0.306369 -2.748654
v -2.390588 0.306369 -2.444331
v -1.811732 0.306369 -3.241059
v -2.390588 8.723331 -4.037787
v -3.327199 8.309058 -3.733464
v -3.327199 8.309058 -2.748654
v -2.390588 8.723331 -2.444331
v -1.811732 9.044491 -3.241059
v -2.649461 0.306369 -3.241059
v -2.649461 8.806808 -3.241059
v -3.163591 0.389361 2.032951
v -3.163591 0.389361 3.784745
v -1.646493 0.389361 2.908848
v -3.163591 11.988564 2.032951
v -3.163591 10.942485 3.784745
v -1.646493 10.942485 2.908848
v -2.657892 0.389361 2.908848
v -2.657892 11.572985 2.908848
vt 0.439982 0.933385
vt 0.439982 0.469649
vt 0.510628 0.469649
vt 0.510628 0.933385
vt 0.363309 0.933385
vt 0.363309 0.469649
vt 0.433955 0.469649
vt 0.433955 0.933385
vt 0.146573 0.469649
vt 0.170985 0.469649
vt 0.170985 0.728610
vt 0.146573 0.728610
vt 0.147359 0.763709
vt 0.085694 0.469649
vt 0.110107 0.469649
vt 0.110107 0.728610
vt 0.085694 0.728610
vt 0.086481 0.763709
vt 0.071072 0.767631
vt 0.099422 0.767631
vt 0.099422 0.998008
vt 0.071072 0.998008
vt 0.033796 0.469649
vt 0.056732 0.469649
vt 0.056732 0.721198
vt 0.033796 0.711952
vt 0.079667 0.469649
vt 0.079667 0.711952
vt 0.306852 0.469649
vt 0.357282 0.469649
vt 0.357282 0.773447
vt 0.306852 0.803561
vt 0.078730 0.001992
vt 0.542466 0.001992
vt 0.542466 0.465728
vt 0.078730 0.465728
vt 0.516655 0.469649
vt 0.980391 0.469649
vt 0.980391 0.933385
vt 0.516655 0.933385
vt 0.205091 0.818358
vt 0.229503 0.795519
vt 0.228716 0.819145
vt 0.252342 0.819931
vt 0.227930 0.842770
vt 0.258698 0.816243
vt 0.285661 0.807482
vt 0.278208 0.830418
vt 0.302325 0.830418
vt 0.258698 0.844593
vt 0.285661 0.853354
vt 0.335439 0.853354
vt 0.308476 0.844593
vt 0.327987 0.830418
vt 0.308476 0.816243
vt 0.352103 0.830418
vt 0.335439 0.807482
vt 0.105534 0.818060
vt 0.105534 0.767631
vt 0.120092 0.792845
vt 0.149207 0.792845
vt 0.155312 0.818060
vt 0.155312 0.767631
vt 0.169870 0.792845
vt 0.198986 0.792845
vt 0.001957 0.465728
vt 0.001957 0.001992
vt 0.072603 0.001992
vt 0.072603 0.465728
vt 0.549709 0.465728
vt 0.549709 0.001992
vt 0.620356 0.001992
vt 0.620356 0.465728
vt 0.201424 0.763709
vt 0.177012 0.763709
vt 0.177012 0.504748
vt 0.201424 0.504748
vt 0.200638 0.469649
vt 0.116134 0.469649
vt 0.140546 0.469649
vt 0.140546 0.728610
vt 0.116134 0.728610
vt 0.116920 0.763709
vt 0.028920 0.967422
vt 0.001957 0.967422
vt 0.001957 0.737045
vt 0.028920 0.725119
vt 0.036610 0.725119
vt 0.063573 0.725119
vt 0.063573 0.967422
vt 0.036610 0.955496
vt 0.207451 0.469649
vt 0.251125 0.469649
vt 0.251125 0.773447
vt 0.207451 0.773447
vt 0.222009 0.791598
vt 0.300825 0.803561
vt 0.257152 0.803561
vt 0.257152 0.469649
vt 0.300825 0.499763
vn 0.000000 0.000000 1.000000
vn 0.000000 0.000000 1.000000
vn 0.000000 0.000000 1.000000
vn 0.000000 0.000000 1.000000
vn 0.000000 1.000000 0.000000
vn 0.000000 1.000000 0.000000
vn 0.000000 1.000000 0.000000
vn 0.000000 1.000000 0.000000
vn 0.000000 0.000000 -1.000000
vn 0.000000 0.000000 -1.000000
vn 0.000000 0.000000 -1.000000
vn 0.000000 0.000000 -1.000000
vn 0.000000 -1.000000 0.000000
vn 0.000000 -1.000000 0.000000
vn 0.000000 -1.000000 0.000000
vn 0.000000 -1.000000 0.000000
vn 1.000000 0.000000 0.000000
vn 1.000000 0.000000 0.000000
vn 1.000000 0.000000 0.000000
vn 1.000000 0.000000 0.000000
vn -1.000000 0.000000 0.000000
vn -1.000000 0.000000 0.000000
vn -1.000000 0.000000 0.000000
vn -1.000000 0.000000 0.000000
vn -0.683193 0.000000 -0.730238
vn -0.683193 0.000000 -0.730238
vn -0.683193 0.000000 -0.730238
vn -0.683193 0.000000 -0.730238
vn -0.730238 0.000000 0.683193
vn -0.730238 0.000000 0.683193
vn -0.730238 0.000000 0.683193
vn -0.730238 0.000000 0.683193
vn 0.683193 0.000000 0.730238
vn 0.683193 0.000000 0.730238
vn 0.683193 0.000000 0.730238
vn 0.683193 0.000000 0.730238
vn 0.730238 0.000000 -0.683193
vn 0.730238 0.000000 -0.683193
vn 0.730238 0.000000 -0.683193
vn 0.730238 0.000000 -0.683193
vn 0.000000 -1.000000 0.000000
vn 0.000000 -1.000000 0.000000
vn 0.000000 -1.000000 0.000000
vn 0.000000 -1.000000 0.000000
vn 0.000000 -1.000000 0.000000
vn 0.000000 -1.000000 0.000000
vn 0.000000 -1.000000 0.000000
vn 0.000000 -1.000000 0.000000
vn 0.000000 -1.000000 0.000000
vn 0.000000 -1.000000 0.000000
vn 0.000000 -1.000000 0.000000
vn 0.000000 -1.000000 0.000000
vn 0.027592 0.558609 -0.828972
vn -0.828972 0.558609 -0.027592
vn 0.000000 1.000000 0.000000
vn -0.828972 0.558609 -0.027592
vn -0.027592 0.558609 0.828972
vn 0.000000 1.000000 0.000000
vn -0.027592 0.558609 0.828972
vn 0.828972 0.558609 0.027592
vn 0.000000 1.000000 0.000000
vn 0.828972 0.558609 0.027592
vn 0.027592 0.558609 -0.828972
vn 0.000000 1.000000 0.000000
vn -0.309017 0.000000 -0.951057
vn -0.309017 0.000000 -0.951057
vn -0.309017 0.000000 -0.951057
vn -0.309017 0.000000 -0.951057
vn -1.000000 0.000000 0.000000
vn -1.000000 0.000000 0.000000
vn -1.000000 0.000000 0.000000
vn -1.000000 0.000000 0.000000
vn -0.309017 0.000000 0.951056
vn -0.309017 0.000000 0.951056
vn -0.309017 0.000000 0.951056
vn -0.309017 0.000000 0.951056
vn 0.809017 0.000000 0.587785
vn 0.809017 0.000000 0.587785
vn 0.809017 0.000000 0.587785
vn 0.809017 0.000000 0.587785
vn 0.809017 0.000000 -0.587785
vn 0.809017 0.000000 -0.587785
vn 0.809017 0.000000 -0.587785
vn 0.809017 0.000000 -0.587785
vn 0.000000 -1.000000 0.000000
vn 0.000000 -1.000000 0.000000
vn 0.000000 -1.000000 0.000000
vn 0.000000 -1.000000 0.000000
vn 0.000000 -1.000000 0.000000
vn 0.000000 -1.000000 0.000000
vn 0.000000 -1.000000 0.000000
vn 0.000000 -1.000000 0.000000
vn 0.000000 -1.000000 0.000000
vn 0.000000 -1.000000 0.000000
vn 0.000000 -1.000000 0.000000
vn 0.000000 -1.000000 0.000000
vn 0.000000 -1.000000 0.000000
vn 0.000000 -1.000000 0.000000
vn 0.000000 -1.000000 0.000000
vn -0.374745 0.901562 -0.216221
vn -0.539634 0.835695 -0.102022
vn -0.418246 0.908334 0.000000
vn -0.539634 0.835695 -0.102022
vn -0.539634 0.835695 0.102022
vn -0.418246 0.908334 0.000000
vn -0.539634 0.835695 0.102022
vn -0.374745 0.901562 0.216221
vn -0.418246 0.908334 0.000000
vn -0.374745 0.901562 0.216221
vn -0.272950 0.962028 0.000000
vn -0.418246 0.908334 0.000000
vn -0.272950 0.962028 0.000000
vn -0.374745 0.901562 -0.216221
vn -0.418246 0.908334 0.000000
vn -1.000000 0.000000 -0.000000
vn -1.000000 0.000000 -0.000000
vn -1.000000 0.000000 -0.000000
vn -1.000000 0.000000 -0.000000
vn 0.500000 0.000000 0.866025
vn 0.500000 0.000000 0.866025
vn 0.500000 0.000000 0.866025
vn 0.500000 0.000000 0.866025
vn 0.500000 0.000000 -0.866025
vn 0.500000 0.000000 -0.866025
vn 0.500000 0.000000 -0.866025
vn 0.500000 0.000000 -0.866025
vn 0.000000 -1.000000 0.000000
vn 0.000000 -1.000000 0.000000
vn 0.000000 -1.000000 0.000000
vn 0.000000 -1.000000 0.000000
vn 0.000000 -1.000000 0.000000
vn 0.000000 -1.000000 0.000000
vn 0.000000 -1.000000 0.000000
vn 0.000000 -1.000000 0.000000
vn 0.000000 -1.000000 0.000000
vn 0.190031 0.924960 0.329145
vn 0.233108 0.720433 0.653175
vn 0.266831 0.845698 0.462165
vn 0.233108 0.720433 0.653175
vn 0.449112 0.720432 0.528465
vn 0.266831 0.845698 0.462165
vn 0.449112 0.720432 0.528465
vn 0.190031 0.924960 0.329145
vn 0.266831 0.845698 0.462165
s off
g conn03:pCube41
f 39/166/145 40/167/146 42/168/147 41/169/148
f 41/133/149 42/134/150 44/135/151 43/136/152
f 43/170/153 44/171/154 46/172/155 45/173/156
f 45/137/157 46/138/158 40/139/159 39/140/160
f 40/101/161 46/102/162 44/103/163 42/104/164
f 45/105/165 39/106/166 41/107/167 43/108/168
f 47/174/169 48/175/170 52/176/171 51/177/172
f 48/109/173 49/110/174 53/111/175 52/112/176
f 49/179/177 50/180/178 54/181/179 53/182/180
f 50/114/181 47/115/182 51/116/183 54/117/184
f 48/141/185 47/142/186 55/143/187
f 49/145/188 48/141/189 55/143/190
f 50/144/191 49/145/192 55/143/193
f 47/142/194 50/144/195 55/143/196
f 51/177/197 52/176/198 56/178/199
f 52/112/200 53/111/201 56/113/202
f 53/182/203 54/181/204 56/183/205
f 54/117/206 51/116/207 56/118/208
f 57/184/209 58/185/210 63/186/211 62/187/212
f 58/119/213 59/120/214 64/121/215 63/122/216
f 59/188/217 60/189/218 65/190/219 64/191/220
f 60/123/221 61/124/222 66/125/223 65/126/224
f 61/124/225 57/127/226 62/128/227 66/125/228
f 58/146/229 57/147/230 67/148/231
f 59/150/232 58/146/233 67/148/234
f 60/151/235 59/150/236 67/148/237
f 61/149/238 60/151/239 67/148/240
f 57/147/241 61/149/242 67/148/243
f 62/152/244 63/153/245 68/154/246
f 63/153/247 64/155/248 68/154/249
f 64/155/250 65/157/251 68/154/252
f 65/157/253 66/156/254 68/154/255
f 66/156/256 62/152/257 68/154/258
f 69/129/259 70/130/260 73/131/261 72/132/262
f 70/192/263 71/193/264 74/194/265 73/195/266
f 71/197/267 69/198/268 72/199/269 74/200/270
f 70/158/271 69/159/272 75/160/273
f 71/161/274 70/158/275 75/160/276
f 69/159/277 71/161/278 75/160/279
f 72/162/280 73/163/281 76/164/282
f 73/195/283 74/194/284 76/196/285
f 74/165/286 72/162/287 76/164/288
