# This file uses centimeters as units for non-parametric coordinates.

mtllib conn04.mtl
g default
v -1.887112 8.881083 6.011503
v 4.430702 4.085168 4.970141
v 0.069894 12.899756 -0.623283
v 6.387707 8.103842 -1.664645
v -4.430702 7.914832 -4.970141
v 1.887112 3.118917 -6.011503
v -6.387707 3.896158 1.664645
v -0.069894 -0.899756 0.623283
vt 0.375000 0.000000
vt 0.625000 0.000000
vt 0.375000 0.250000
vt 0.625000 0.250000
vt 0.375000 0.500000
vt 0.625000 0.500000
vt 0.375000 0.750000
vt 0.625000 0.750000
vt 0.375000 1.000000
vt 0.625000 1.000000
vt 0.875000 0.000000
vt 0.875000 0.250000
vt 0.125000 0.000000
vt 0.125000 0.250000
vn 0.562574 0.623116 0.543357
vn 0.562574 0.623116 0.543357
vn 0.562574 0.623116 0.543357
vn 0.562574 0.623116 0.543357
vn 0.244626 0.502334 -0.829348
vn 0.244626 0.502334 -0.829348
vn 0.244626 0.502334 -0.829348
vn 0.244626 0.502334 -0.829348
vn -0.562574 -0.623116 -0.543357
vn -0.562574 -0.623116 -0.543357
vn -0.562574 -0.623116 -0.543357
vn -0.562574 -0.623116 -0.543357
vn -0.244626 -0.502334 0.829348
vn -0.244626 -0.502334 0.829348
vn -0.244626 -0.502334 0.829348
vn -0.244626 -0.502334 0.829348
vn 0.789727 -0.599489 -0.130170
vn 0.789727 -0.599489 -0.130170
vn 0.789727 -0.599489 -0.130170
vn 0.789727 -0.599489 -0.130170
vn -0.789727 0.599489 0.130170
vn -0.789727 0.599489 0.130170
vn -0.789727 0.599489 0.130170
vn -0.789727 0.599489 0.130170
s off
g road00:pCube1
usemtl initialShadingGroup
f 1/1/1 2/2/2 4/4/3 3/3/4
f 3/3/5 4/4/6 6/6/7 5/5/8
f 5/5/9 6/6/10 8/8/11 7/7/12
f 7/7/13 8/8/14 2/10/15 1/9/16
f 2/2/17 8/11/18 6/12/19 4/4/20
f 7/13/21 1/1/22 3/3/23 5/14/24
g default
v -8.054463 -0.956472 8.054463
v 8.054463 -0.956472 8.054463
v -8.054463 1.497580 8.054463
v 8.054463 1.497580 8.054463
v -8.054463 1.497580 -8.054463
v 8.054463 1.497580 -8.054463
v -8.054463 -0.956472 -8.054463
v 8.054463 -0.956472 -8.054463
vt 0.001992 0.411051
vt 0.001992 0.001876
vt 0.064326 0.001876
vt 0.064326 0.411051
vt 0.072349 0.001876
vt 0.481524 0.001876
vt 0.481524 0.411051
vt 0.072349 0.411051
vt 0.489425 0.411051
vt 0.489425 0.001876
vt 0.551759 0.001876
vt 0.551759 0.411051
vt 0.559587 0.001876
vt 0.968762 0.001876
vt 0.968762 0.411051
vt 0.559587 0.411051
vt 0.935674 0.824217
vt 0.935674 0.415042
vt 0.998008 0.415042
vt 0.998008 0.824217
vt 0.867205 0.824217
vt 0.867205 0.415042
vt 0.929539 0.415042
vt 0.929539 0.824217
vn 0.000000 0.000000 1.000000
vn 0.000000 0.000000 1.000000
vn 0.000000 0.000000 1.000000
vn 0.000000 0.000000 1.000000
vn 0.000000 1.000000 0.000000
vn 0.000000 1.000000 0.000000
vn 0.000000 1.000000 0.000000
vn 0.000000 1.000000 0.000000
vn 0.000000 0.000000 -1.000000
vn 0.000000 0.000000 -1.000000
vn 0.000000 0.000000 -1.000000
vn 0.000000 0.000000 -1.000000
vn 0.000000 -1.000000 0.000000
vn 0.000000 -1.000000 0.000000
vn 0.000000 -1.000000 0.000000
vn 0.000000 -1.000000 0.000000
vn 1.000000 0.000000 0.000000
vn 1.000000 0.000000 0.000000
vn 1.000000 0.000000 0.000000
vn 1.000000 0.000000 0.000000
vn -1.000000 0.000000 0.000000
vn -1.000000 0.000000 0.000000
vn -1.000000 0.000000 0.000000
vn -1.000000 0.000000 0.000000
s off
g conn06:polySurface1
usemtl conn06:initialShadingGroup
f 9/15/25 10/16/26 12/17/27 11/18/28
f 11/19/29 12/20/30 14/21/31 13/22/32
f 13/23/33 14/24/34 16/25/35 15/26/36
f 15/27/37 16/28/38 10/29/39 9/30/40
f 10/31/41 16/32/42 14/33/43 12/34/44
f 15/35/45 9/36/46 11/37/47 13/38/48
