# This file uses centimeters as units for non-parametric coordinates.

mtllib conn5.mtl
g default
v 2.872793 0.000000 -8.841548
v -7.521069 0.000000 -5.464378
v -7.521069 0.000000 5.464376
v 2.872793 0.000000 8.841548
v 9.296551 0.000000 0.000000
v 2.872793 2.000000 -8.841548
v -7.521069 2.000000 -5.464378
v -7.521069 2.000000 5.464376
v 2.872793 2.000000 8.841548
v 9.296551 2.000000 0.000000
v 0.000000 0.000000 0.000000
v 2.555867 2.000000 -7.866147
v -6.691345 2.000000 -4.861548
v 0.000000 2.000000 0.000000
v -6.691345 2.000000 4.861548
v 2.555867 2.000000 7.866145
v 8.270959 2.000000 -0.000000
v 8.590616 2.000000 -0.837975
v 3.451606 2.000000 -7.911209
v 3.198067 2.000000 -7.130892
v 7.770136 2.000000 -0.837975
v 8.590616 5.605992 -0.837975
v 3.451606 5.605992 -7.911209
v 3.198067 5.605992 -7.130892
v 7.770136 5.605992 -0.837975
v 8.352983 5.605992 -0.941505
v 4.755677 5.605992 -5.892768
v 4.578197 5.605992 -5.346550
v 7.778646 5.605992 -0.941505
v 8.352983 8.817779 -0.941503
v 4.755677 8.817779 -5.892768
v 4.578197 8.817779 -5.346546
v 7.778646 8.817779 -0.941503
v -7.377028 2.000000 -4.697568
v -7.377028 2.000000 2.223976
v -6.851540 2.000000 1.842185
v -6.851537 2.000000 -4.315774
v -7.377028 6.577660 -3.917555
v -7.377028 6.577660 1.443964
v -6.851540 6.577660 1.148224
v -6.851537 6.577660 -3.621813
v -1.573991 2.000000 7.091025
v 2.410322 2.000000 8.576078
v 2.288834 2.000000 8.147162
v -1.255930 2.000000 6.825942
v -1.573991 2.000000 7.091025
v 2.410322 2.000000 8.576078
v 2.288834 2.000000 8.147162
v -1.255930 2.000000 6.825942
v -1.573991 4.906316 7.091025
v 2.410322 4.906316 8.576078
v 2.288834 4.906316 8.147162
v -1.255930 4.906316 6.825942
vt 0.548284 0.007647
vt 0.373591 0.064409
vt 0.373591 0.248091
vt 0.548284 0.304853
vt 0.656250 0.156250
vt 0.375000 0.312500
vt 0.425000 0.312500
vt 0.475000 0.312500
vt 0.525000 0.312500
vt 0.575000 0.312500
vt 0.625000 0.312500
vt 0.375000 0.688440
vt 0.425000 0.688440
vt 0.475000 0.688440
vt 0.525000 0.688440
vt 0.575000 0.688440
vt 0.625000 0.688440
vt 0.548284 0.695147
vt 0.373591 0.751909
vt 0.373591 0.935591
vt 0.548284 0.992353
vt 0.656250 0.843750
vt 0.500000 0.150000
vt 0.500000 0.837500
vt 0.548284 0.992353
vt 0.373591 0.935591
vt 0.373591 0.751909
vt 0.548284 0.695147
vt 0.656250 0.843750
vt 0.656250 0.843750
vt 0.548284 0.992353
vt 0.548284 0.992353
vt 0.656250 0.843750
vt 0.656250 0.843750
vt 0.548284 0.992353
vt 0.548284 0.992353
vt 0.656250 0.843750
vt 0.656250 0.843750
vt 0.548284 0.992353
vt 0.548284 0.992353
vt 0.656250 0.843750
vt 0.656250 0.843750
vt 0.548284 0.992353
vt 0.548284 0.992353
vt 0.656250 0.843750
vt 0.373591 0.935591
vt 0.373591 0.751909
vt 0.373591 0.751909
vt 0.373591 0.935591
vt 0.373591 0.935591
vt 0.373591 0.751909
vt 0.373591 0.751909
vt 0.373591 0.935591
vt 0.373591 0.751909
vt 0.548284 0.695147
vt 0.548284 0.695147
vt 0.373591 0.751909
vt 0.373591 0.751909
vt 0.548284 0.695147
vt 0.548284 0.695147
vt 0.373591 0.751909
vt 0.373591 0.751909
vt 0.548284 0.695147
vt 0.548284 0.695147
vt 0.373591 0.751909
vn -0.309017 0.000000 -0.951057
vn -0.309017 0.000000 -0.951057
vn -0.309017 0.000000 -0.951057
vn -0.309017 0.000000 -0.951057
vn -1.000000 0.000000 0.000000
vn -1.000000 0.000000 0.000000
vn -1.000000 0.000000 0.000000
vn -1.000000 0.000000 0.000000
vn -0.309017 0.000000 0.951056
vn -0.309017 0.000000 0.951056
vn -0.309017 0.000000 0.951056
vn -0.309017 0.000000 0.951056
vn 0.809017 0.000000 0.587785
vn 0.809017 0.000000 0.587785
vn 0.809017 0.000000 0.587785
vn 0.809017 0.000000 0.587785
vn 0.809017 0.000000 -0.587785
vn 0.809017 0.000000 -0.587785
vn 0.809017 0.000000 -0.587785
vn 0.809017 0.000000 -0.587785
vn 0.000000 -1.000000 0.000000
vn 0.000000 -1.000000 0.000000
vn 0.000000 -1.000000 -0.000000
vn 0.000000 -1.000000 -0.000000
vn 0.000000 -1.000000 -0.000000
vn 0.000000 -1.000000 0.000000
vn 0.000000 1.000000 -0.000000
vn 0.000000 1.000000 -0.000000
vn 0.000000 1.000000 -0.000000
vn 0.000000 1.000000 0.000000
vn 0.000000 1.000000 -0.000000
vn 0.000000 1.000000 -0.000000
vn 0.000000 1.000000 -0.000000
vn 0.000000 1.000000 -0.000000
vn 0.000000 1.000000 0.000000
vn 0.000000 1.000000 0.000000
vn 0.000000 1.000000 0.000000
vn 0.000000 1.000000 0.000000
vn 0.000000 1.000000 0.000000
vn 0.000000 1.000000 0.000000
vn 0.000000 1.000000 0.000000
vn 0.000000 1.000000 0.000000
vn 0.000000 1.000000 -0.000000
vn 0.000000 1.000000 -0.000000
vn 0.000000 1.000000 0.000001
vn 0.000000 1.000000 0.000001
vn 0.000000 1.000000 0.000001
vn 0.000000 1.000000 0.000001
vn 0.000000 1.000000 -0.000000
vn 0.000000 1.000000 -0.000000
vn 0.000000 1.000000 0.000000
vn 0.000000 1.000000 0.000000
vn 0.809017 0.000000 -0.587786
vn 0.809017 0.000000 -0.587786
vn 0.809017 0.000000 -0.587786
vn 0.809017 0.000000 -0.587786
vn -0.951057 0.000000 -0.309016
vn -0.951057 0.000000 -0.309016
vn -0.951057 0.000000 -0.309016
vn -0.951057 0.000000 -0.309016
vn -0.809017 0.000000 0.587785
vn -0.809017 0.000000 0.587785
vn -0.809017 0.000000 0.587785
vn -0.809017 0.000000 0.587785
vn 0.000000 0.000000 1.000000
vn 0.000000 0.000000 1.000000
vn 0.000000 0.000000 1.000000
vn 0.000000 0.000000 1.000000
vn 0.000000 1.000000 0.000002
vn 0.000000 1.000000 0.000000
vn 0.000000 1.000000 0.000001
vn 0.000000 1.000000 0.000002
vn 0.000000 1.000000 -0.000000
vn 0.000000 1.000000 -0.000001
vn 0.000000 1.000000 -0.000001
vn 0.000000 1.000000 -0.000002
vn 0.809017 0.000000 -0.587785
vn 0.809017 0.000000 -0.587785
vn 0.809017 0.000000 -0.587785
vn 0.809017 0.000000 -0.587785
vn -0.951056 0.000000 -0.309020
vn -0.951056 0.000000 -0.309020
vn -0.951056 0.000000 -0.309020
vn -0.951056 0.000000 -0.309020
vn -0.809017 -0.000000 0.587785
vn -0.809017 -0.000000 0.587785
vn -0.809017 -0.000000 0.587785
vn -0.809017 -0.000000 0.587785
vn 0.000000 -0.000001 1.000000
vn 0.000000 -0.000001 1.000000
vn 0.000000 -0.000001 1.000000
vn 0.000000 -0.000001 1.000000
vn 0.000000 1.000000 0.000000
vn 0.000000 1.000000 0.000000
vn 0.000000 1.000000 0.000000
vn 0.000000 1.000000 0.000000
vn 0.000000 1.000000 0.000000
vn -1.000000 0.000000 0.000000
vn -1.000000 0.000000 0.000000
vn -1.000000 0.000000 0.000000
vn -1.000000 0.000000 0.000000
vn 0.536940 0.134093 0.832895
vn 0.536940 0.134093 0.832895
vn 0.536940 0.134093 0.832895
vn 0.536940 0.134093 0.832895
vn 1.000000 -0.000000 0.000001
vn 1.000000 -0.000000 0.000001
vn 1.000000 -0.000000 0.000001
vn 1.000000 -0.000000 0.000001
vn 0.536941 0.134093 -0.832895
vn 0.536941 0.134093 -0.832895
vn 0.536941 0.134093 -0.832895
vn 0.536941 0.134093 -0.832895
vn 0.000000 1.000000 -0.000000
vn 0.000000 1.000000 -0.000000
vn 0.000000 1.000000 0.000000
vn 0.000000 1.000000 0.000000
vn 0.000000 0.657031 0.753863
vn 0.000000 0.657031 0.753863
vn 0.000000 0.657031 0.753863
vn 0.000000 0.657031 0.753863
vn 0.000000 -1.000000 0.000000
vn 0.000000 -1.000000 0.000000
vn 0.000000 -1.000000 0.000000
vn 0.000000 -1.000000 0.000000
vn 0.000000 0.867397 -0.497616
vn 0.000000 0.867397 -0.497616
vn 0.000000 0.867397 -0.497616
vn 0.000000 0.867397 -0.497616
vn 0.000000 0.000000 0.000000
vn 0.000000 0.000000 0.000000
vn 0.000000 0.000000 0.000000
vn 0.000000 0.000000 0.000000
vn -0.349254 -0.000000 0.937028
vn -0.349254 -0.000000 0.937028
vn -0.349254 -0.000000 0.937028
vn -0.349254 -0.000000 0.937028
vn 0.962149 0.000000 -0.272524
vn 0.962149 0.000000 -0.272524
vn 0.962149 0.000000 -0.272524
vn 0.962149 0.000000 -0.272524
vn 0.349254 -0.000000 -0.937028
vn 0.349254 -0.000000 -0.937028
vn 0.349254 -0.000000 -0.937028
vn 0.349254 -0.000000 -0.937028
vn -0.640230 0.000000 -0.768183
vn -0.640230 0.000000 -0.768183
vn -0.640230 0.000000 -0.768183
vn -0.640230 0.000000 -0.768183
s off
g conn0:pCylinder1
usemtl initialShadingGroup
f 1/6/1 2/7/2 7/13/3 6/12/4
f 2/7/5 3/8/6 8/14/7 7/13/8
f 3/8/9 4/9/10 9/15/11 8/14/12
f 4/9/13 5/10/14 10/16/15 9/15/16
f 5/10/17 1/11/18 6/17/19 10/16/20
s 1
f 2/2/21 1/1/22 11/23/23
f 3/3/24 2/2/21 11/23/23
f 4/4/25 3/3/24 11/23/23
f 5/5/26 4/4/25 11/23/23
f 1/1/22 5/5/26 11/23/23
s 2
f 12/25/27 13/26/28 14/24/29
f 13/26/28 15/27/30 14/24/29
f 15/27/30 16/28/31 14/24/29
f 16/28/31 17/29/32 14/24/29
f 17/29/32 12/25/27 14/24/29
f 6/21/33 7/20/34 13/26/28 12/25/27
s off
f 38/50/35 39/51/36 40/52/37 41/53/38
f 50/62/39 51/63/40 52/64/41 53/65/42
s 2
f 9/18/43 10/22/44 17/29/32 16/28/31
s off
f 30/42/45 31/43/46 32/44/47 33/45/48
s 2
f 10/22/44 6/21/33 19/31/49 18/30/50
f 6/21/33 12/25/27 20/32/51 19/31/49
f 12/25/27 17/29/32 21/33/52 20/32/51
f 17/29/32 10/22/44 18/30/50 21/33/52
s off
f 18/30/53 19/31/54 23/35/55 22/34/56
f 19/31/57 20/32/58 24/36/59 23/35/60
f 20/32/61 21/33/62 25/37/63 24/36/64
f 21/33/65 18/30/66 22/34/67 25/37/68
s 3
f 22/34/69 23/35/70 27/39/71 26/38/72
f 23/35/70 24/36/73 28/40/74 27/39/71
f 24/36/73 25/37/75 29/41/76 28/40/74
f 25/37/75 22/34/69 26/38/72 29/41/76
s off
f 26/38/77 27/39/78 31/43/79 30/42/80
f 27/39/81 28/40/82 32/44/83 31/43/84
f 28/40/85 29/41/86 33/45/87 32/44/88
f 29/41/89 26/38/90 30/42/91 33/45/92
s 2
f 7/20/34 8/19/93 35/47/94 34/46/95
f 8/19/93 15/27/30 36/48/96 35/47/94
f 15/27/30 13/26/28 37/49/97 36/48/96
f 13/26/28 7/20/34 34/46/95 37/49/97
s off
f 34/46/98 35/47/99 39/51/100 38/50/101
f 35/47/102 36/48/103 40/52/104 39/51/105
f 36/48/106 37/49/107 41/53/108 40/52/109
f 37/49/110 34/46/111 38/50/112 41/53/113
s 2
f 8/19/93 9/18/43 43/55/114 42/54/115
f 9/18/43 16/28/31 44/56/116 43/55/114
f 16/28/31 15/27/30 45/57/117 44/56/116
f 15/27/30 8/19/93 42/54/115 45/57/117
s off
f 42/54/118 43/55/119 47/59/120 46/58/121
f 43/55/122 44/56/123 48/60/124 47/59/125
f 44/56/126 45/57/127 49/61/128 48/60/129
f 45/57/130 42/54/131 46/58/132 49/61/133
f 46/58/134 47/59/135 51/63/136 50/62/137
f 47/59/138 48/60/139 52/64/140 51/63/141
f 48/60/142 49/61/143 53/65/144 52/64/145
f 49/61/146 46/58/147 50/62/148 53/65/149
