# This file uses centimeters as units for non-parametric coordinates.

mtllib example_road2.mtl
g default
v -3.315640 -3.505695 8.540591
v 6.858199 1.199114 6.910303
v -8.129797 4.841506 2.586750
v 2.044042 9.546315 0.956462
v -6.858199 -1.199114 -6.910303
v 3.315640 3.505695 -8.540591
v -2.044042 -9.546315 -0.956462
v 8.129797 -4.841506 -2.586750
vt 0.375000 0.000000
vt 0.625000 0.000000
vt 0.375000 0.250000
vt 0.625000 0.250000
vt 0.375000 0.500000
vt 0.625000 0.500000
vt 0.375000 0.750000
vt 0.625000 0.750000
vt 0.375000 1.000000
vt 0.625000 1.000000
vt 0.875000 0.000000
vt 0.875000 0.250000
vt 0.125000 0.000000
vt 0.125000 0.250000
vn -0.112263 0.533296 0.838447
vn -0.112263 0.533296 0.838447
vn -0.112263 0.533296 0.838447
vn -0.112263 0.533296 0.838447
vn -0.425017 0.736932 -0.525634
vn -0.425017 0.736932 -0.525634
vn -0.425017 0.736932 -0.525634
vn -0.425017 0.736932 -0.525634
vn 0.112263 -0.533296 -0.838447
vn 0.112263 -0.533296 -0.838447
vn 0.112263 -0.533296 -0.838447
vn 0.112263 -0.533296 -0.838447
vn 0.425017 -0.736932 0.525634
vn 0.425017 -0.736932 0.525634
vn 0.425017 -0.736932 0.525634
vn 0.425017 -0.736932 0.525634
vn 0.898197 0.415364 -0.143930
vn 0.898197 0.415364 -0.143930
vn 0.898197 0.415364 -0.143930
vn 0.898197 0.415364 -0.143930
vn -0.898197 -0.415364 0.143930
vn -0.898197 -0.415364 0.143930
vn -0.898197 -0.415364 0.143930
vn -0.898197 -0.415364 0.143930
s off
g example_road:pCube14
usemtl initialShadingGroup
f 1/1/1 2/2/2 4/4/3 3/3/4
f 3/3/5 4/4/6 6/6/7 5/5/8
f 5/5/9 6/6/10 8/8/11 7/7/12
f 7/7/13 8/8/14 2/10/15 1/9/16
f 2/2/17 8/11/18 6/12/19 4/4/20
f 7/13/21 1/1/22 3/3/23 5/14/24
