# This file uses centimeters as units for non-parametric coordinates.

mtllib road3.mtl
g default
v 3.218103 -1.442276 5.137321
v 9.726778 -1.444502 5.184439
v 3.224648 0.769779 4.980467
v 9.733323 0.767553 5.027586
v 3.473558 0.062323 -4.993578
v 9.982233 0.060097 -4.946460
v 3.467013 -2.149731 -4.836725
v 9.975688 -2.151957 -4.789606
v -5.472294 -1.754622 4.855803
v 2.139139 -1.754622 4.855803
v -5.472294 0.455476 5.038187
v 2.139139 0.455476 5.038187
v -5.472294 1.277911 -4.927936
v 2.139139 1.277911 -4.927936
v -5.472294 -0.932187 -5.110320
v 2.139139 -0.932187 -5.110320
v -9.750000 -1.577792 4.982951
v -6.250000 -1.577792 4.982951
v -9.750000 0.637577 4.883250
v -6.250000 0.637577 4.883250
v -9.750000 0.355303 -4.710958
v -6.250000 0.355303 -4.710958
v -9.750000 -2.027378 -5.006938
v -6.250000 -2.027378 -5.006938
vt 0.375000 0.000000
vt 0.625000 0.000000
vt 0.625000 0.250000
vt 0.375000 0.250000
vt 0.625000 0.500000
vt 0.375000 0.500000
vt 0.625000 0.750000
vt 0.375000 0.750000
vt 0.625000 1.000000
vt 0.375000 1.000000
vt 0.875000 0.000000
vt 0.875000 0.250000
vt 0.125000 0.000000
vt 0.125000 0.250000
vt 0.375000 0.000000
vt 0.625000 0.000000
vt 0.625000 0.250000
vt 0.375000 0.250000
vt 0.625000 0.500000
vt 0.375000 0.500000
vt 0.625000 0.750000
vt 0.375000 0.750000
vt 0.625000 1.000000
vt 0.375000 1.000000
vt 0.875000 0.000000
vt 0.875000 0.250000
vt 0.125000 0.000000
vt 0.125000 0.250000
vt 0.375000 0.000000
vt 0.625000 0.000000
vt 0.625000 0.250000
vt 0.375000 0.250000
vt 0.625000 0.500000
vt 0.375000 0.500000
vt 0.625000 0.750000
vt 0.375000 0.750000
vt 0.625000 1.000000
vt 0.375000 1.000000
vt 0.875000 0.000000
vt 0.875000 0.250000
vt 0.125000 0.000000
vt 0.125000 0.250000
vn -0.007197 0.070750 0.997468
vn -0.007197 0.070750 0.997468
vn -0.007197 0.070750 0.997468
vn -0.007197 0.070750 0.997468
vn 0.000853 0.997495 -0.070731
vn 0.000853 0.997495 -0.070731
vn 0.000853 0.997495 -0.070731
vn 0.000853 0.997495 -0.070731
vn 0.007197 -0.070750 -0.997468
vn 0.007197 -0.070750 -0.997468
vn 0.007197 -0.070750 -0.997468
vn 0.007197 -0.070750 -0.997468
vn -0.000853 -0.997495 0.070731
vn -0.000853 -0.997495 0.070731
vn -0.000853 -0.997495 0.070731
vn -0.000853 -0.997495 0.070731
vn 0.999686 -0.001183 0.025032
vn 0.999686 -0.001183 0.025032
vn 0.999686 -0.001183 0.025032
vn 0.999686 -0.001183 0.025032
vn -0.999686 0.001183 -0.025032
vn -0.999686 0.001183 -0.025032
vn -0.999686 0.001183 -0.025032
vn -0.999686 0.001183 -0.025032
vn 0.000000 -0.082243 0.996612
vn 0.000000 -0.082243 0.996612
vn 0.000000 -0.082243 0.996612
vn 0.000000 -0.082243 0.996612
vn 0.000000 0.996612 0.082244
vn 0.000000 0.996612 0.082244
vn 0.000000 0.996612 0.082244
vn 0.000000 0.996612 0.082244
vn 0.000000 0.082243 -0.996612
vn 0.000000 0.082243 -0.996612
vn 0.000000 0.082243 -0.996612
vn 0.000000 0.082243 -0.996612
vn 0.000000 -0.996612 -0.082244
vn 0.000000 -0.996612 -0.082244
vn 0.000000 -0.996612 -0.082244
vn 0.000000 -0.996612 -0.082244
vn 1.000000 0.000000 0.000000
vn 1.000000 0.000000 0.000000
vn 1.000000 0.000000 0.000000
vn 1.000000 0.000000 0.000000
vn -1.000000 -0.000000 0.000000
vn -1.000000 -0.000000 0.000000
vn -1.000000 -0.000000 0.000000
vn -1.000000 -0.000000 0.000000
vn 0.000000 0.044959 0.998989
vn 0.000000 0.044959 0.998989
vn 0.000000 0.044959 0.998989
vn 0.000000 0.044959 0.998989
vn 0.000000 0.999568 -0.029409
vn 0.000000 0.999568 -0.029409
vn 0.000000 0.999568 -0.029409
vn 0.000000 0.999568 -0.029409
vn 0.000000 0.123274 -0.992373
vn 0.000000 0.123274 -0.992373
vn 0.000000 0.123274 -0.992373
vn 0.000000 0.123274 -0.992373
vn 0.000000 -0.998989 0.044959
vn 0.000000 -0.998989 0.044959
vn 0.000000 -0.998989 0.044959
vn 0.000000 -0.998989 0.044959
vn 1.000000 -0.000000 0.000000
vn 1.000000 -0.000000 0.000000
vn 1.000000 -0.000000 0.000000
vn 1.000000 -0.000000 0.000000
vn -1.000000 0.000000 0.000000
vn -1.000000 0.000000 0.000000
vn -1.000000 0.000000 0.000000
vn -1.000000 0.000000 0.000000
s off
g example_road:example_road:polySurface17
usemtl initialShadingGroup
f 1/1/1 2/2/2 4/3/3 3/4/4
f 3/4/5 4/3/6 6/5/7 5/6/8
f 5/6/9 6/5/10 8/7/11 7/8/12
f 7/8/13 8/7/14 2/9/15 1/10/16
f 2/2/17 8/11/18 6/12/19 4/3/20
f 7/13/21 1/1/22 3/4/23 5/14/24
f 9/15/25 10/16/26 12/17/27 11/18/28
f 11/18/29 12/17/30 14/19/31 13/20/32
f 13/20/33 14/19/34 16/21/35 15/22/36
f 15/22/37 16/21/38 10/23/39 9/24/40
f 10/16/41 16/25/42 14/26/43 12/17/44
f 15/27/45 9/15/46 11/18/47 13/28/48
f 17/29/49 18/30/50 20/31/51 19/32/52
f 19/32/53 20/31/54 22/33/55 21/34/56
f 21/34/57 22/33/58 24/35/59 23/36/60
f 23/36/61 24/35/62 18/37/63 17/38/64
f 18/30/65 24/39/66 22/40/67 20/31/68
f 23/41/69 17/29/70 19/32/71 21/42/72
