# This file uses centimeters as units for non-parametric coordinates.

mtllib road6.mtl
g default
v -9.500000 -1.657561 5.000000
v 9.500000 -1.657561 5.000000
v -9.500000 0.290955 5.000000
v 9.500000 0.290955 5.000000
v -9.500000 0.290955 -5.000000
v 9.500000 0.290955 -5.000000
v -9.500000 -1.657561 -5.000000
v 9.500000 -1.657561 -5.000000
v -6.090662 0.290955 -5.000000
v -6.090662 -1.657561 -5.000000
v -6.090662 -1.657561 5.000000
v -6.090662 0.290955 5.000000
v -2.285625 0.290955 -5.000000
v -2.285625 -1.657561 -5.000000
v -2.285625 -1.657561 5.000000
v -2.285625 0.290955 5.000000
v 1.423125 0.290955 -5.000000
v 1.423125 -1.657561 -5.000000
v 1.423125 -1.657561 5.000000
v 1.423125 0.290955 5.000000
v 5.390625 0.290955 -5.000000
v 5.390625 -1.657561 -5.000000
v 5.390625 -1.657561 5.000000
v 5.390625 0.290955 5.000000
v -8.771460 0.290955 5.000000
v -6.819202 0.290955 5.000000
v -6.819202 0.290955 -5.000000
v -8.771460 0.290955 -5.000000
v -5.277566 0.290955 5.000000
v -5.277566 0.290955 -5.000000
v -3.098722 0.290955 5.000000
v -3.098722 0.290955 -5.000000
v -1.493105 0.290955 5.000000
v -1.493105 0.290955 -5.000000
v 0.630604 0.290955 5.000000
v 0.630604 0.290955 -5.000000
v 2.270938 0.290955 5.000000
v 2.270938 0.290955 -5.000000
v 4.542812 0.290955 5.000000
v 4.542812 0.290955 -5.000000
v 6.268755 0.290955 5.000000
v 6.268755 0.290955 -5.000000
v 8.621870 0.290955 5.000000
v 8.621870 0.290955 -5.000000
v -8.771460 0.621469 5.000000
v -6.819202 0.621469 5.000000
v -6.819202 0.621469 -5.000000
v -8.771460 0.621469 -5.000000
v -5.277566 0.621469 5.000000
v -5.277566 0.621469 -5.000000
v -3.098722 0.621469 5.000000
v -3.098722 0.621469 -5.000000
v -1.493105 0.621469 5.000000
v -1.493105 0.621469 -5.000000
v 0.630604 0.621469 5.000000
v 0.630604 0.621469 -5.000000
v 2.270938 0.621469 5.000000
v 2.270938 0.621469 -5.000000
v 4.542812 0.621469 5.000000
v 4.542812 0.621469 -5.000000
v 6.268755 0.621469 5.000000
v 6.268755 0.621469 -5.000000
v 8.621870 0.621469 5.000000
v 8.621870 0.621469 -5.000000
vt 0.375000 0.000000
vt 0.625000 0.000000
vt 0.375000 0.250000
vt 0.625000 0.250000
vt 0.375000 0.500000
vt 0.625000 0.500000
vt 0.375000 0.750000
vt 0.625000 0.750000
vt 0.375000 1.000000
vt 0.625000 1.000000
vt 0.875000 0.000000
vt 0.875000 0.250000
vt 0.125000 0.000000
vt 0.125000 0.250000
vt 0.419860 0.500000
vt 0.419860 0.750000
vt 0.419860 0.000000
vt 0.419860 1.000000
vt 0.419860 0.250000
vt 0.469926 0.500000
vt 0.469926 0.750000
vt 0.469926 0.000000
vt 0.469926 1.000000
vt 0.469926 0.250000
vt 0.518725 0.500000
vt 0.518725 0.750000
vt 0.518725 0.000000
vt 0.518725 1.000000
vt 0.518725 0.250000
vt 0.570929 0.500000
vt 0.570929 0.750000
vt 0.570929 0.000000
vt 0.570929 1.000000
vt 0.570929 0.250000
vt 0.375000 0.250000
vt 0.419860 0.250000
vt 0.419860 0.500000
vt 0.375000 0.500000
vt 0.419860 0.500000
vt 0.419860 0.250000
vt 0.469926 0.250000
vt 0.469926 0.500000
vt 0.469926 0.500000
vt 0.469926 0.250000
vt 0.518725 0.250000
vt 0.518725 0.500000
vt 0.518725 0.500000
vt 0.518725 0.250000
vt 0.570929 0.250000
vt 0.570929 0.500000
vt 0.570929 0.500000
vt 0.570929 0.250000
vt 0.625000 0.250000
vt 0.625000 0.500000
vt 0.375000 0.250000
vt 0.419860 0.250000
vt 0.419860 0.500000
vt 0.375000 0.500000
vt 0.469926 0.250000
vt 0.469926 0.500000
vt 0.518725 0.250000
vt 0.518725 0.500000
vt 0.570929 0.250000
vt 0.570929 0.500000
vt 0.625000 0.250000
vt 0.625000 0.500000
vn 0.000000 0.000000 1.000000
vn 0.000000 0.000000 1.000000
vn 0.000000 0.000000 1.000000
vn 0.000000 0.000000 1.000000
vn 0.000000 1.000000 0.000000
vn 0.000000 1.000000 0.000000
vn 0.000000 1.000000 0.000000
vn 0.000000 1.000000 0.000000
vn 0.000000 0.000000 -1.000000
vn 0.000000 0.000000 -1.000000
vn 0.000000 0.000000 -1.000000
vn 0.000000 0.000000 -1.000000
vn 0.000000 -1.000000 0.000000
vn 0.000000 -1.000000 0.000000
vn 0.000000 -1.000000 0.000000
vn 0.000000 -1.000000 0.000000
vn 1.000000 0.000000 0.000000
vn 1.000000 0.000000 0.000000
vn 1.000000 0.000000 0.000000
vn 1.000000 0.000000 0.000000
vn -1.000000 0.000000 0.000000
vn -1.000000 0.000000 0.000000
vn -1.000000 0.000000 0.000000
vn -1.000000 0.000000 0.000000
vn 0.000000 0.000000 -1.000000
vn 0.000000 0.000000 -1.000000
vn 0.000000 -1.000000 0.000000
vn 0.000000 -1.000000 0.000000
vn 0.000000 0.000000 1.000000
vn 0.000000 0.000000 1.000000
vn 0.000000 1.000000 0.000000
vn 0.000000 1.000000 0.000000
vn 0.000000 1.000000 0.000000
vn 0.000000 1.000000 0.000000
vn 0.000000 0.000000 -1.000000
vn 0.000000 0.000000 -1.000000
vn 0.000000 -1.000000 0.000000
vn 0.000000 -1.000000 0.000000
vn 0.000000 0.000000 1.000000
vn 0.000000 0.000000 1.000000
vn 0.000000 1.000000 0.000000
vn 0.000000 1.000000 0.000000
vn 0.000000 1.000000 0.000000
vn 0.000000 1.000000 0.000000
vn 0.000000 0.000000 -1.000000
vn 0.000000 0.000000 -1.000000
vn 0.000000 -1.000000 0.000000
vn 0.000000 -1.000000 0.000000
vn 0.000000 0.000000 1.000000
vn 0.000000 0.000000 1.000000
vn 0.000000 1.000000 0.000000
vn 0.000000 1.000000 0.000000
vn 0.000000 1.000000 0.000000
vn 0.000000 1.000000 0.000000
vn 0.000000 0.000000 -1.000000
vn 0.000000 0.000000 -1.000000
vn 0.000000 -1.000000 0.000000
vn 0.000000 -1.000000 0.000000
vn 0.000000 0.000000 1.000000
vn 0.000000 0.000000 1.000000
vn 0.000000 1.000000 0.000000
vn 0.000000 1.000000 0.000000
vn 0.000000 1.000000 0.000000
vn 0.000000 1.000000 0.000000
vn 0.000000 0.000000 0.000000
vn 0.000000 0.000000 0.000000
vn 0.000000 0.000000 0.000000
vn 0.000000 0.000000 0.000000
vn 0.000000 1.000000 0.000000
vn 0.000000 1.000000 0.000000
vn 0.000000 1.000000 0.000000
vn 0.000000 1.000000 0.000000
vn 0.000000 0.000000 0.000000
vn 0.000000 0.000000 0.000000
vn 0.000000 0.000000 0.000000
vn 0.000000 0.000000 0.000000
vn 0.000000 1.000000 0.000000
vn 0.000000 1.000000 0.000000
vn 0.000000 1.000000 0.000000
vn 0.000000 1.000000 0.000000
vn 0.000000 1.000000 0.000000
vn 0.000000 1.000000 0.000000
vn 0.000000 0.000000 1.000000
vn 0.000000 0.000000 1.000000
vn 0.000000 1.000000 0.000000
vn 0.000000 1.000000 0.000000
vn 0.000000 1.000000 0.000000
vn 0.000000 1.000000 0.000000
vn 0.000000 0.000000 -1.000000
vn 0.000000 0.000000 -1.000000
vn 0.000000 1.000000 0.000000
vn 0.000000 1.000000 0.000000
vn 0.000000 0.000000 0.000000
vn 0.000000 0.000000 0.000000
vn 0.000000 0.000000 1.000000
vn 0.000000 0.000000 1.000000
vn 0.000000 1.000000 0.000000
vn 0.000000 1.000000 0.000000
vn 0.000000 1.000000 0.000000
vn 0.000000 1.000000 0.000000
vn 0.000000 0.000000 -0.000000
vn 0.000000 0.000000 -0.000000
vn 0.000000 0.000000 -1.000000
vn 0.000000 0.000000 -1.000000
vn 0.000000 1.000000 0.000000
vn 0.000000 1.000000 0.000000
vn 0.000000 0.000000 1.000000
vn 0.000000 0.000000 1.000000
vn 0.000000 1.000000 0.000000
vn 0.000000 1.000000 0.000000
vn 0.000000 1.000000 0.000000
vn 0.000000 1.000000 0.000000
vn 0.000000 0.000000 -1.000000
vn 0.000000 0.000000 -1.000000
vn 0.000000 1.000000 0.000000
vn 0.000000 1.000000 0.000000
vn 0.000000 0.000000 0.000000
vn 0.000000 0.000000 0.000000
vn 0.000000 0.000000 0.000000
vn 0.000000 0.000000 0.000000
vn 0.000000 1.000000 0.000000
vn 0.000000 1.000000 0.000000
vn 0.000000 1.000000 0.000000
vn 0.000000 1.000000 0.000000
vn 0.000000 0.000000 0.000000
vn 0.000000 0.000000 0.000000
vn 0.000000 0.000000 0.000000
vn 0.000000 0.000000 0.000000
vn 0.000000 0.000000 1.000000
vn 0.000000 0.000000 1.000000
vn 0.000000 0.000000 1.000000
vn 0.000000 0.000000 1.000000
vn 1.000000 0.000000 0.000000
vn 1.000000 0.000000 0.000000
vn 1.000000 0.000000 0.000000
vn 1.000000 0.000000 0.000000
vn 0.000000 0.000000 -1.000000
vn 0.000000 0.000000 -1.000000
vn 0.000000 0.000000 -1.000000
vn 0.000000 0.000000 -1.000000
vn -1.000000 0.000000 0.000000
vn -1.000000 0.000000 0.000000
vn -1.000000 0.000000 0.000000
vn -1.000000 0.000000 0.000000
vn -1.000000 0.000000 0.000000
vn -1.000000 0.000000 0.000000
vn -1.000000 0.000000 0.000000
vn -1.000000 0.000000 0.000000
vn 0.000000 0.000000 1.000000
vn 0.000000 0.000000 1.000000
vn 1.000000 0.000000 0.000000
vn 1.000000 0.000000 0.000000
vn 1.000000 0.000000 0.000000
vn 1.000000 0.000000 0.000000
vn 0.000000 0.000000 -1.000000
vn 0.000000 0.000000 -1.000000
vn -1.000000 0.000000 0.000000
vn -1.000000 0.000000 0.000000
vn -1.000000 0.000000 0.000000
vn -1.000000 0.000000 0.000000
vn 0.000000 0.000000 1.000000
vn 0.000000 0.000000 1.000000
vn 0.000000 0.000000 1.000000
vn 0.000000 0.000000 1.000000
vn 1.000000 0.000000 0.000000
vn 1.000000 0.000000 0.000000
vn 1.000000 0.000000 0.000000
vn 1.000000 0.000000 0.000000
vn 0.000000 0.000000 -1.000000
vn 0.000000 0.000000 -1.000000
vn 0.000000 0.000000 -1.000000
vn 0.000000 0.000000 -1.000000
vn -1.000000 0.000000 0.000000
vn -1.000000 0.000000 0.000000
vn -1.000000 0.000000 0.000000
vn -1.000000 0.000000 0.000000
vn 0.000000 0.000000 1.000000
vn 0.000000 0.000000 1.000000
vn 1.000000 0.000000 0.000000
vn 1.000000 0.000000 0.000000
vn 1.000000 0.000000 0.000000
vn 1.000000 0.000000 0.000000
vn 0.000000 0.000000 -1.000000
vn 0.000000 0.000000 -1.000000
vn -1.000000 0.000000 0.000000
vn -1.000000 0.000000 0.000000
vn -1.000000 0.000000 0.000000
vn -1.000000 0.000000 0.000000
vn 0.000000 0.000000 1.000000
vn 0.000000 0.000000 1.000000
vn 0.000000 0.000000 1.000000
vn 0.000000 0.000000 1.000000
vn 1.000000 0.000000 0.000000
vn 1.000000 0.000000 0.000000
vn 1.000000 0.000000 0.000000
vn 1.000000 0.000000 0.000000
vn 0.000000 0.000000 -1.000000
vn 0.000000 0.000000 -1.000000
vn 0.000000 0.000000 -1.000000
vn 0.000000 0.000000 -1.000000
s 1
g conn0:pCube1
usemtl initialShadingGroup
f 1/1/1 11/17/2 12/19/3 3/3/4
s off
f 45/55/5 46/56/6 47/57/7 48/58/8
s 2
f 5/5/9 9/15/10 10/16/11 7/7/12
s 3
f 7/7/13 10/16/14 11/18/15 1/9/16
s off
f 2/2/17 8/11/18 6/12/19 4/4/20
f 7/13/21 1/1/22 3/3/23 5/14/24
s 2
f 9/15/10 13/20/25 14/21/26 10/16/11
s 3
f 11/18/15 10/16/14 14/21/27 15/23/28
s 1
f 12/19/3 11/17/2 15/22/29 16/24/30
s off
f 50/57/31 49/56/32 51/59/33 52/60/34
s 2
f 13/20/25 17/25/35 18/26/36 14/21/26
s 3
f 15/23/28 14/21/27 18/26/37 19/28/38
s 1
f 16/24/30 15/22/29 19/27/39 20/29/40
s off
f 54/60/41 53/59/42 55/61/43 56/62/44
s 2
f 17/25/35 21/30/45 22/31/46 18/26/36
s 3
f 19/28/38 18/26/37 22/31/47 23/33/48
s 1
f 20/29/40 19/27/39 23/32/49 24/34/50
s off
f 58/62/51 57/61/52 59/63/53 60/64/54
s 2
f 21/30/45 6/6/55 8/8/56 22/31/46
s 3
f 23/33/48 22/31/47 8/8/57 2/10/58
s 1
f 24/34/50 23/32/49 2/2/59 4/4/60
s off
f 62/64/61 61/63/62 63/65/63 64/66/64
f 3/3/65 12/19/66 26/36/67 25/35/68
s 4
f 12/19/69 9/15/70 27/37/71 26/36/72
s off
f 9/15/73 5/5/74 28/38/75 27/37/76
f 5/5/77 3/3/78 25/35/79 28/38/80
s 4
f 9/15/70 12/19/69 29/40/81 30/39/82
s 1
f 12/19/3 16/24/30 31/41/83 29/40/84
s 5
f 16/24/85 13/20/86 32/42/87 31/41/88
s 2
f 13/20/25 9/15/10 30/39/89 32/42/90
s 5
f 13/20/86 16/24/85 33/44/91 34/43/92
s off
f 16/24/93 20/29/94 35/45/95 33/44/96
s 6
f 20/29/97 17/25/98 36/46/99 35/45/100
s off
f 17/25/101 13/20/102 34/43/103 36/46/104
s 6
f 17/25/98 20/29/97 37/48/105 38/47/106
s 1
f 20/29/40 24/34/50 39/49/107 37/48/108
s 7
f 24/34/109 21/30/110 40/50/111 39/49/112
s 2
f 21/30/45 17/25/35 38/47/113 40/50/114
s 7
f 21/30/110 24/34/109 41/52/115 42/51/116
s off
f 24/34/117 4/4/118 43/53/119 41/52/120
f 4/4/121 6/6/122 44/54/123 43/53/124
f 6/6/125 21/30/126 42/51/127 44/54/128
f 25/3/129 26/19/130 46/56/131 45/55/132
f 26/19/133 27/15/134 47/57/135 46/56/136
f 27/15/137 28/5/138 48/58/139 47/57/140
f 28/5/141 25/3/142 45/55/143 48/58/144
f 30/15/145 29/19/146 49/56/147 50/57/148
s 1
f 29/19/84 31/24/83 51/59/149 49/56/150
s off
f 31/24/151 32/20/152 52/60/153 51/59/154
s 2
f 32/20/90 30/15/89 50/57/155 52/60/156
s off
f 34/20/157 33/24/158 53/59/159 54/60/160
f 33/24/161 35/29/162 55/61/163 53/59/164
f 35/29/165 36/25/166 56/62/167 55/61/168
f 36/25/169 34/20/170 54/60/171 56/62/172
f 38/25/173 37/29/174 57/61/175 58/62/176
s 1
f 37/29/108 39/52/107 59/63/177 57/61/178
s off
f 39/52/179 40/51/180 60/64/181 59/63/182
s 2
f 40/51/114 38/25/113 58/62/183 60/64/184
s off
f 42/51/185 41/52/186 61/63/187 62/64/188
f 41/52/189 43/53/190 63/65/191 61/63/192
f 43/53/193 44/54/194 64/66/195 63/65/196
f 44/54/197 42/51/198 62/64/199 64/66/200
