# This file uses centimeters as units for non-parametric coordinates.

mtllib road05.mtl
g default
v 1.204737 -1.658640 7.615239
v 5.295263 -1.658640 7.615239
v 1.204737 0.941360 7.615239
v 5.295263 0.941360 7.615239
v 1.204737 0.941360 3.598943
v 5.295263 0.941360 3.598943
v 1.204737 -1.658640 3.598943
v 5.295263 -1.658640 3.598943
v 0.487500 -2.038152 2.925795
v 6.012500 -2.038152 2.925795
v 0.487500 0.561848 2.925795
v 6.012500 0.561848 2.925795
v 0.487500 0.561848 -0.471341
v 6.012500 0.561848 -0.471341
v 0.487500 -2.038152 -0.471341
v 6.012500 -2.038152 -0.471341
v -6.012500 -2.123172 7.591609
v -0.487500 -2.123172 7.591609
v -6.012500 0.474763 7.711189
v -0.487500 0.474763 7.711189
v -6.012500 0.992946 -7.276890
v -0.487500 0.992946 -7.276890
v -6.012500 -1.604988 -7.396470
v -0.487500 -1.604988 -7.396470
v 0.241517 -1.954726 -1.877526
v 5.746573 -2.020446 -1.341689
v 0.262987 0.642727 -1.747065
v 5.768044 0.577005 -1.211227
v 0.753427 0.890221 -8.414902
v 6.258483 0.824500 -7.879065
v 0.731956 -1.707230 -8.545363
v 6.237012 -1.772952 -8.009526
vt 0.375000 0.000000
vt 0.625000 0.000000
vt 0.625000 0.250000
vt 0.375000 0.250000
vt 0.625000 0.500000
vt 0.375000 0.500000
vt 0.625000 0.750000
vt 0.375000 0.750000
vt 0.625000 1.000000
vt 0.375000 1.000000
vt 0.875000 0.000000
vt 0.875000 0.250000
vt 0.125000 0.000000
vt 0.125000 0.250000
vt 0.375000 0.000000
vt 0.625000 0.000000
vt 0.625000 0.250000
vt 0.375000 0.250000
vt 0.625000 0.500000
vt 0.375000 0.500000
vt 0.625000 0.750000
vt 0.375000 0.750000
vt 0.625000 1.000000
vt 0.375000 1.000000
vt 0.875000 0.000000
vt 0.875000 0.250000
vt 0.125000 0.000000
vt 0.125000 0.250000
vt 0.375000 0.000000
vt 0.625000 0.000000
vt 0.625000 0.250000
vt 0.375000 0.250000
vt 0.625000 0.500000
vt 0.375000 0.500000
vt 0.625000 0.750000
vt 0.375000 0.750000
vt 0.625000 1.000000
vt 0.375000 1.000000
vt 0.875000 0.000000
vt 0.875000 0.250000
vt 0.125000 0.000000
vt 0.125000 0.250000
vt 0.375000 0.000000
vt 0.625000 0.000000
vt 0.625000 0.250000
vt 0.375000 0.250000
vt 0.625000 0.500000
vt 0.375000 0.500000
vt 0.625000 0.750000
vt 0.375000 0.750000
vt 0.625000 1.000000
vt 0.375000 1.000000
vt 0.875000 0.000000
vt 0.875000 0.250000
vt 0.125000 0.000000
vt 0.125000 0.250000
vn 0.000000 0.000000 1.000000
vn 0.000000 0.000000 1.000000
vn 0.000000 0.000000 1.000000
vn 0.000000 0.000000 1.000000
vn 0.000000 1.000000 0.000000
vn 0.000000 1.000000 0.000000
vn 0.000000 1.000000 0.000000
vn 0.000000 1.000000 0.000000
vn 0.000000 0.000000 -1.000000
vn 0.000000 0.000000 -1.000000
vn 0.000000 0.000000 -1.000000
vn 0.000000 0.000000 -1.000000
vn 0.000000 -1.000000 0.000000
vn 0.000000 -1.000000 0.000000
vn 0.000000 -1.000000 0.000000
vn 0.000000 -1.000000 0.000000
vn 1.000000 0.000000 0.000000
vn 1.000000 0.000000 0.000000
vn 1.000000 0.000000 0.000000
vn 1.000000 0.000000 0.000000
vn -1.000000 0.000000 0.000000
vn -1.000000 0.000000 0.000000
vn -1.000000 0.000000 0.000000
vn -1.000000 0.000000 0.000000
vn 0.000000 0.000000 1.000000
vn 0.000000 0.000000 1.000000
vn 0.000000 0.000000 1.000000
vn 0.000000 0.000000 1.000000
vn 0.000000 1.000000 0.000000
vn 0.000000 1.000000 0.000000
vn 0.000000 1.000000 0.000000
vn 0.000000 1.000000 0.000000
vn 0.000000 0.000000 -1.000000
vn 0.000000 0.000000 -1.000000
vn 0.000000 0.000000 -1.000000
vn 0.000000 0.000000 -1.000000
vn 0.000000 -1.000000 0.000000
vn 0.000000 -1.000000 0.000000
vn 0.000000 -1.000000 0.000000
vn 0.000000 -1.000000 0.000000
vn 1.000000 0.000000 0.000000
vn 1.000000 0.000000 0.000000
vn 1.000000 0.000000 0.000000
vn 1.000000 0.000000 0.000000
vn -1.000000 0.000000 0.000000
vn -1.000000 0.000000 0.000000
vn -1.000000 0.000000 0.000000
vn -1.000000 0.000000 0.000000
vn 0.000000 -0.045980 0.998942
vn 0.000000 -0.045980 0.998942
vn 0.000000 -0.045980 0.998942
vn 0.000000 -0.045980 0.998942
vn 0.000000 0.999403 0.034552
vn 0.000000 0.999403 0.034552
vn 0.000000 0.999403 0.034552
vn 0.000000 0.999403 0.034552
vn 0.000000 0.045980 -0.998942
vn 0.000000 0.045980 -0.998942
vn 0.000000 0.045980 -0.998942
vn 0.000000 0.045980 -0.998942
vn 0.000000 -0.999403 -0.034552
vn 0.000000 -0.999403 -0.034552
vn 0.000000 -0.999403 -0.034552
vn 0.000000 -0.999403 -0.034552
vn 1.000000 0.000000 0.000000
vn 1.000000 0.000000 0.000000
vn 1.000000 0.000000 0.000000
vn 1.000000 0.000000 0.000000
vn -1.000000 0.000000 0.000000
vn -1.000000 0.000000 0.000000
vn -1.000000 0.000000 0.000000
vn -1.000000 0.000000 0.000000
vn -0.097342 -0.049123 0.994038
vn -0.097342 -0.049123 0.994038
vn -0.097342 -0.049123 0.994038
vn -0.097342 -0.049123 0.994038
vn 0.008260 0.999255 0.037698
vn 0.008260 0.999255 0.037698
vn 0.008260 0.999255 0.037698
vn 0.008260 0.999255 0.037698
vn 0.097342 0.049123 -0.994038
vn 0.097342 0.049123 -0.994038
vn 0.097342 0.049123 -0.994038
vn 0.097342 0.049123 -0.994038
vn -0.008260 -0.999255 -0.037698
vn -0.008260 -0.999255 -0.037698
vn -0.008260 -0.999255 -0.037698
vn -0.008260 -0.999255 -0.037698
vn 0.997267 -0.011905 0.072910
vn 0.997267 -0.011905 0.072910
vn 0.997267 -0.011905 0.072910
vn 0.997267 -0.011905 0.072910
vn -0.997267 0.011905 -0.072910
vn -0.997267 0.011905 -0.072910
vn -0.997267 0.011905 -0.072910
vn -0.997267 0.011905 -0.072910
s off
g road07:pCube34
usemtl road07:initialShadingGroup
f 1/1/1 2/2/2 4/3/3 3/4/4
f 3/4/5 4/3/6 6/5/7 5/6/8
f 5/6/9 6/5/10 8/7/11 7/8/12
f 7/8/13 8/7/14 2/9/15 1/10/16
f 2/2/17 8/11/18 6/12/19 4/3/20
f 7/13/21 1/1/22 3/4/23 5/14/24
f 9/15/25 10/16/26 12/17/27 11/18/28
f 11/18/29 12/17/30 14/19/31 13/20/32
f 13/20/33 14/19/34 16/21/35 15/22/36
f 15/22/37 16/21/38 10/23/39 9/24/40
f 10/16/41 16/25/42 14/26/43 12/17/44
f 15/27/45 9/15/46 11/18/47 13/28/48
f 17/29/49 18/30/50 20/31/51 19/32/52
f 19/32/53 20/31/54 22/33/55 21/34/56
f 21/34/57 22/33/58 24/35/59 23/36/60
f 23/36/61 24/35/62 18/37/63 17/38/64
f 18/30/65 24/39/66 22/40/67 20/31/68
f 23/41/69 17/29/70 19/32/71 21/42/72
f 25/43/73 26/44/74 28/45/75 27/46/76
f 27/46/77 28/45/78 30/47/79 29/48/80
f 29/48/81 30/47/82 32/49/83 31/50/84
f 31/50/85 32/49/86 26/51/87 25/52/88
f 26/44/89 32/53/90 30/54/91 28/45/92
f 31/55/93 25/43/94 27/46/95 29/56/96
