# This file uses centimeters as units for non-parametric coordinates.

mtllib road03.mtl
g default
v 0.487500 -2.042216 7.456218
v 6.012500 -2.042216 7.456218
v 0.487500 0.556813 7.538182
v 6.012500 0.556813 7.538182
v 0.487500 0.911992 -7.456218
v 6.012500 0.911992 -7.456218
v 0.487500 -1.687039 -7.538182
v 6.012500 -1.687039 -7.538182
v -6.012500 -1.865113 -1.451115
v -0.487500 -1.865113 -1.451115
v -6.012500 0.734887 -1.451115
v -0.487500 0.734887 -1.451115
v -6.012500 0.734887 -7.931062
v -0.487500 0.734887 -7.931062
v -6.012500 -1.865113 -7.931062
v -0.487500 -1.865113 -7.931062
v -6.196342 -2.210354 8.189310
v -0.678101 -2.210354 8.504562
v -6.196342 0.389646 8.189310
v -0.678101 0.389646 8.504562
v -5.821899 0.389646 -0.536882
v -0.303658 0.389646 -0.221630
v -5.821899 -2.210354 -0.536882
v -0.303658 -2.210354 -0.221630
vt 0.096079 0.925049
vt 0.096079 0.738215
vt 0.183968 0.738215
vt 0.183968 0.925049
vt 0.215019 0.001992
vt 0.401853 0.001992
vt 0.401853 0.509045
vt 0.215019 0.509045
vt 0.190166 0.925049
vt 0.190166 0.738215
vt 0.278055 0.738215
vt 0.278055 0.925049
vt 0.408519 0.001992
vt 0.595353 0.001992
vt 0.595353 0.509045
vt 0.408519 0.509045
vt 0.001814 0.509045
vt 0.013825 0.001992
vt 0.101714 0.004764
vt 0.089704 0.511817
vt 0.120516 0.511817
vt 0.108506 0.004764
vt 0.196395 0.001992
vt 0.208406 0.509045
vt 0.284253 0.925049
vt 0.284253 0.738215
vt 0.372175 0.738215
vt 0.372175 0.925049
vt 0.330336 0.512681
vt 0.517170 0.512681
vt 0.517170 0.731807
vt 0.330336 0.731807
vt 0.378340 0.922277
vt 0.378340 0.735443
vt 0.466262 0.735443
vt 0.466262 0.922277
vt 0.137913 0.515452
vt 0.324748 0.515452
vt 0.324748 0.734579
vt 0.137913 0.734579
vt 0.044403 0.734579
vt 0.044403 0.515452
vt 0.132325 0.515452
vt 0.132325 0.734579
vt 0.001814 0.957342
vt 0.001814 0.738215
vt 0.089736 0.738215
vt 0.089736 0.957342
vt 0.472427 0.998008
vt 0.472427 0.811402
vt 0.560349 0.811402
vt 0.560349 0.998008
vt 0.602018 0.012653
vt 0.788624 0.001992
vt 0.801286 0.297078
vt 0.614681 0.307739
vt 0.566514 0.998008
vt 0.566514 0.811402
vt 0.654436 0.811402
vt 0.654436 0.998008
vt 0.722442 0.311375
vt 0.909047 0.322035
vt 0.896385 0.617121
vt 0.709779 0.606461
vt 0.616269 0.606461
vt 0.616269 0.311375
vt 0.704191 0.311375
vt 0.704191 0.606461
vt 0.522759 0.807767
vt 0.522759 0.512681
vt 0.610681 0.512681
vt 0.610681 0.807767
vn 0.000000 -0.031520 0.999503
vn 0.000000 -0.031520 0.999503
vn 0.000000 -0.031520 0.999503
vn 0.000000 -0.031520 0.999503
vn 0.000000 0.999720 0.023680
vn 0.000000 0.999720 0.023680
vn 0.000000 0.999720 0.023680
vn 0.000000 0.999720 0.023680
vn 0.000000 0.031520 -0.999503
vn 0.000000 0.031520 -0.999503
vn 0.000000 0.031520 -0.999503
vn 0.000000 0.031520 -0.999503
vn 0.000000 -0.999720 -0.023680
vn 0.000000 -0.999720 -0.023680
vn 0.000000 -0.999720 -0.023680
vn 0.000000 -0.999720 -0.023680
vn 1.000000 -0.000000 0.000000
vn 1.000000 -0.000000 0.000000
vn 1.000000 -0.000000 0.000000
vn 1.000000 -0.000000 0.000000
vn -1.000000 0.000000 0.000000
vn -1.000000 0.000000 0.000000
vn -1.000000 0.000000 0.000000
vn -1.000000 0.000000 0.000000
vn 0.000000 0.000000 1.000000
vn 0.000000 0.000000 1.000000
vn 0.000000 0.000000 1.000000
vn 0.000000 0.000000 1.000000
vn 0.000000 1.000000 0.000000
vn 0.000000 1.000000 0.000000
vn 0.000000 1.000000 0.000000
vn 0.000000 1.000000 0.000000
vn 0.000000 0.000000 -1.000000
vn 0.000000 0.000000 -1.000000
vn 0.000000 0.000000 -1.000000
vn 0.000000 0.000000 -1.000000
vn 0.000000 -1.000000 0.000000
vn 0.000000 -1.000000 0.000000
vn 0.000000 -1.000000 0.000000
vn 0.000000 -1.000000 0.000000
vn 1.000000 0.000000 0.000000
vn 1.000000 0.000000 0.000000
vn 1.000000 0.000000 0.000000
vn 1.000000 0.000000 0.000000
vn -1.000000 0.000000 0.000000
vn -1.000000 0.000000 0.000000
vn -1.000000 0.000000 0.000000
vn -1.000000 0.000000 0.000000
vn -0.057036 0.000000 0.998372
vn -0.057036 0.000000 0.998372
vn -0.057036 0.000000 0.998372
vn -0.057036 0.000000 0.998372
vn 0.000000 1.000000 0.000000
vn 0.000000 1.000000 0.000000
vn 0.000000 1.000000 0.000000
vn 0.000000 1.000000 0.000000
vn 0.057036 0.000000 -0.998372
vn 0.057036 0.000000 -0.998372
vn 0.057036 0.000000 -0.998372
vn 0.057036 0.000000 -0.998372
vn 0.000000 -1.000000 0.000000
vn 0.000000 -1.000000 0.000000
vn 0.000000 -1.000000 0.000000
vn 0.000000 -1.000000 0.000000
vn 0.999081 0.000000 0.042871
vn 0.999081 0.000000 0.042871
vn 0.999081 0.000000 0.042871
vn 0.999081 0.000000 0.042871
vn -0.999081 0.000000 -0.042871
vn -0.999081 0.000000 -0.042871
vn -0.999081 0.000000 -0.042871
vn -0.999081 0.000000 -0.042871
s 1
g road05:pCube33
usemtl initialShadingGroup
f 1/1/1 2/2/2 3/4/3
f 3/4/3 2/2/2 4/3/4
s 2
f 3/5/5 4/6/6 5/8/7
f 5/8/7 4/6/6 6/7/8
s 3
f 5/9/9 6/10/10 7/12/11
f 7/12/11 6/10/10 8/11/12
s 4
f 7/13/13 8/14/14 1/16/15
f 1/16/15 8/14/14 2/15/16
s 5
f 8/18/17 6/19/18 2/17/19
f 2/17/19 6/19/18 4/20/20
s 6
f 7/21/21 1/22/22 5/24/23
f 5/24/23 1/22/22 3/23/24
s 7
f 9/25/25 10/26/26 11/28/27
f 11/28/27 10/26/26 12/27/28
s 8
f 11/29/29 12/30/30 13/32/31
f 13/32/31 12/30/30 14/31/32
s 9
f 13/33/33 14/34/34 15/36/35
f 15/36/35 14/34/34 16/35/36
s 10
f 15/37/37 16/38/38 9/40/39
f 9/40/39 16/38/38 10/39/40
s 11
f 10/41/41 16/42/42 12/44/43
f 12/44/43 16/42/42 14/43/44
s 12
f 15/45/45 9/46/46 13/48/47
f 13/48/47 9/46/46 11/47/48
s 13
f 17/49/49 18/50/50 19/52/51
f 19/52/51 18/50/50 20/51/52
s 14
f 20/54/53 22/55/54 19/53/55
f 19/53/55 22/55/54 21/56/56
s 15
f 21/57/57 22/58/58 23/60/59
f 23/60/59 22/58/58 24/59/60
s 16
f 23/61/61 24/62/62 17/64/63
f 17/64/63 24/62/62 18/63/64
s 17
f 18/65/65 24/66/66 20/68/67
f 20/68/67 24/66/66 22/67/68
s 18
f 23/69/69 17/70/70 21/72/71
f 21/72/71 17/70/70 19/71/72
g default
v 0.487500 -2.042216 7.456218
v 6.012500 -2.042216 7.456218
v 0.487500 0.556813 7.538182
v 6.012500 0.556813 7.538182
v 0.487500 0.911992 -7.456218
v 6.012500 0.911992 -7.456218
v 0.487500 -1.687039 -7.538182
v 6.012500 -1.687039 -7.538182
v -6.012500 -1.865113 -1.451115
v -0.487500 -1.865113 -1.451115
v -6.012500 0.734887 -1.451115
v -0.487500 0.734887 -1.451115
v -6.012500 0.734887 -7.931062
v -0.487500 0.734887 -7.931062
v -6.012500 -1.865113 -7.931062
v -0.487500 -1.865113 -7.931062
v -6.196342 -2.210354 8.189310
v -0.678101 -2.210354 8.504562
v -6.196342 0.389646 8.189310
v -0.678101 0.389646 8.504562
v -5.821899 0.389646 -0.536882
v -0.303658 0.389646 -0.221630
v -5.821899 -2.210354 -0.536882
v -0.303658 -2.210354 -0.221630
vt 0.096079 0.925049
vt 0.096079 0.738215
vt 0.183968 0.738215
vt 0.183968 0.925049
vt 0.215019 0.001992
vt 0.401853 0.001992
vt 0.401853 0.509045
vt 0.215019 0.509045
vt 0.190166 0.925049
vt 0.190166 0.738215
vt 0.278055 0.738215
vt 0.278055 0.925049
vt 0.408519 0.001992
vt 0.595353 0.001992
vt 0.595353 0.509045
vt 0.408519 0.509045
vt 0.001814 0.509045
vt 0.013825 0.001992
vt 0.101714 0.004764
vt 0.089704 0.511817
vt 0.120516 0.511817
vt 0.108506 0.004764
vt 0.196395 0.001992
vt 0.208406 0.509045
vt 0.284253 0.925049
vt 0.284253 0.738215
vt 0.372175 0.738215
vt 0.372175 0.925049
vt 0.330336 0.512681
vt 0.517170 0.512681
vt 0.517170 0.731807
vt 0.330336 0.731807
vt 0.378340 0.922277
vt 0.378340 0.735443
vt 0.466262 0.735443
vt 0.466262 0.922277
vt 0.137913 0.515452
vt 0.324748 0.515452
vt 0.324748 0.734579
vt 0.137913 0.734579
vt 0.044403 0.734579
vt 0.044403 0.515452
vt 0.132325 0.515452
vt 0.132325 0.734579
vt 0.001814 0.957342
vt 0.001814 0.738215
vt 0.089736 0.738215
vt 0.089736 0.957342
vt 0.472427 0.998008
vt 0.472427 0.811402
vt 0.560349 0.811402
vt 0.560349 0.998008
vt 0.602018 0.012653
vt 0.788624 0.001992
vt 0.801286 0.297078
vt 0.614681 0.307739
vt 0.566514 0.998008
vt 0.566514 0.811402
vt 0.654436 0.811402
vt 0.654436 0.998008
vt 0.722442 0.311375
vt 0.909047 0.322035
vt 0.896385 0.617121
vt 0.709779 0.606461
vt 0.616269 0.606461
vt 0.616269 0.311375
vt 0.704191 0.311375
vt 0.704191 0.606461
vt 0.522759 0.807767
vt 0.522759 0.512681
vt 0.610681 0.512681
vt 0.610681 0.807767
vn 0.000000 -0.031520 0.999503
vn 0.000000 -0.031520 0.999503
vn 0.000000 -0.031520 0.999503
vn 0.000000 -0.031520 0.999503
vn 0.000000 0.999720 0.023680
vn 0.000000 0.999720 0.023680
vn 0.000000 0.999720 0.023680
vn 0.000000 0.999720 0.023680
vn 0.000000 0.031520 -0.999503
vn 0.000000 0.031520 -0.999503
vn 0.000000 0.031520 -0.999503
vn 0.000000 0.031520 -0.999503
vn 0.000000 -0.999720 -0.023680
vn 0.000000 -0.999720 -0.023680
vn 0.000000 -0.999720 -0.023680
vn 0.000000 -0.999720 -0.023680
vn 1.000000 -0.000000 0.000000
vn 1.000000 -0.000000 0.000000
vn 1.000000 -0.000000 0.000000
vn 1.000000 -0.000000 0.000000
vn -1.000000 0.000000 0.000000
vn -1.000000 0.000000 0.000000
vn -1.000000 0.000000 0.000000
vn -1.000000 0.000000 0.000000
vn 0.000000 0.000000 1.000000
vn 0.000000 0.000000 1.000000
vn 0.000000 0.000000 1.000000
vn 0.000000 0.000000 1.000000
vn 0.000000 1.000000 0.000000
vn 0.000000 1.000000 0.000000
vn 0.000000 1.000000 0.000000
vn 0.000000 1.000000 0.000000
vn 0.000000 0.000000 -1.000000
vn 0.000000 0.000000 -1.000000
vn 0.000000 0.000000 -1.000000
vn 0.000000 0.000000 -1.000000
vn 0.000000 -1.000000 0.000000
vn 0.000000 -1.000000 0.000000
vn 0.000000 -1.000000 0.000000
vn 0.000000 -1.000000 0.000000
vn 1.000000 0.000000 0.000000
vn 1.000000 0.000000 0.000000
vn 1.000000 0.000000 0.000000
vn 1.000000 0.000000 0.000000
vn -1.000000 0.000000 0.000000
vn -1.000000 0.000000 0.000000
vn -1.000000 0.000000 0.000000
vn -1.000000 0.000000 0.000000
vn -0.057036 0.000000 0.998372
vn -0.057036 0.000000 0.998372
vn -0.057036 0.000000 0.998372
vn -0.057036 0.000000 0.998372
vn 0.000000 1.000000 0.000000
vn 0.000000 1.000000 0.000000
vn 0.000000 1.000000 0.000000
vn 0.000000 1.000000 0.000000
vn 0.057036 0.000000 -0.998372
vn 0.057036 0.000000 -0.998372
vn 0.057036 0.000000 -0.998372
vn 0.057036 0.000000 -0.998372
vn 0.000000 -1.000000 0.000000
vn 0.000000 -1.000000 0.000000
vn 0.000000 -1.000000 0.000000
vn 0.000000 -1.000000 0.000000
vn 0.999081 0.000000 0.042871
vn 0.999081 0.000000 0.042871
vn 0.999081 0.000000 0.042871
vn 0.999081 0.000000 0.042871
vn -0.999081 0.000000 -0.042871
vn -0.999081 0.000000 -0.042871
vn -0.999081 0.000000 -0.042871
vn -0.999081 0.000000 -0.042871
s 1
g road05:pCube33
f 25/73/73 26/74/74 27/76/75
f 27/76/75 26/74/74 28/75/76
s 2
f 27/77/77 28/78/78 29/80/79
f 29/80/79 28/78/78 30/79/80
s 3
f 29/81/81 30/82/82 31/84/83
f 31/84/83 30/82/82 32/83/84
s 4
f 31/85/85 32/86/86 25/88/87
f 25/88/87 32/86/86 26/87/88
s 5
f 32/90/89 30/91/90 26/89/91
f 26/89/91 30/91/90 28/92/92
s 6
f 31/93/93 25/94/94 29/96/95
f 29/96/95 25/94/94 27/95/96
s 7
f 33/97/97 34/98/98 35/100/99
f 35/100/99 34/98/98 36/99/100
s 8
f 35/101/101 36/102/102 37/104/103
f 37/104/103 36/102/102 38/103/104
s 9
f 37/105/105 38/106/106 39/108/107
f 39/108/107 38/106/106 40/107/108
s 10
f 39/109/109 40/110/110 33/112/111
f 33/112/111 40/110/110 34/111/112
s 11
f 34/113/113 40/114/114 36/116/115
f 36/116/115 40/114/114 38/115/116
s 12
f 39/117/117 33/118/118 37/120/119
f 37/120/119 33/118/118 35/119/120
s 13
f 41/121/121 42/122/122 43/124/123
f 43/124/123 42/122/122 44/123/124
s 14
f 44/126/125 46/127/126 43/125/127
f 43/125/127 46/127/126 45/128/128
s 15
f 45/129/129 46/130/130 47/132/131
f 47/132/131 46/130/130 48/131/132
s 16
f 47/133/133 48/134/134 41/136/135
f 41/136/135 48/134/134 42/135/136
s 17
f 42/137/137 48/138/138 44/140/139
f 44/140/139 48/138/138 46/139/140
s 18
f 47/141/141 41/142/142 45/144/143
f 45/144/143 41/142/142 43/143/144
