# This file uses centimeters as units for non-parametric coordinates.

mtllib road1.mtl
g default
v 1.302755 -2.295734 4.946773
v 7.696157 -2.243809 5.595983
v 1.302755 0.212248 4.938656
v 7.696157 0.264173 5.587866
v 0.685628 0.427466 -5.026195
v 8.939308 1.244967 -4.811439
v 0.685628 -2.080516 -5.018079
v 8.939308 -2.094255 -4.921155
v -8.394060 -1.155931 5.128230
v -2.000659 -1.263456 4.386977
v -8.394060 1.326087 4.768193
v -2.000659 1.218562 4.026940
v -8.394060 -0.109469 -5.128230
v -1.030646 -0.109469 -5.128230
v -8.394060 -2.591486 -4.768193
v -1.030646 -2.591486 -4.768193
vt 0.375000 0.000000
vt 0.625000 0.000000
vt 0.625000 0.250000
vt 0.375000 0.250000
vt 0.625000 0.500000
vt 0.375000 0.500000
vt 0.625000 0.750000
vt 0.375000 0.750000
vt 0.625000 1.000000
vt 0.375000 1.000000
vt 0.875000 0.000000
vt 0.875000 0.250000
vt 0.125000 0.000000
vt 0.125000 0.250000
vt 0.375000 0.000000
vt 0.625000 0.000000
vt 0.625000 0.250000
vt 0.375000 0.250000
vt 0.625000 0.500000
vt 0.375000 0.500000
vt 0.625000 0.750000
vt 0.375000 0.750000
vt 0.625000 1.000000
vt 0.375000 1.000000
vt 0.875000 0.000000
vt 0.875000 0.250000
vt 0.125000 0.000000
vt 0.125000 0.250000
vn -0.101050 0.003220 0.994876
vn -0.101050 0.003220 0.994876
vn -0.101050 0.003220 0.994876
vn -0.101050 0.003220 0.994876
vn -0.062486 0.996440 0.056601
vn -0.062486 0.996440 0.056601
vn -0.062486 0.996440 0.056601
vn -0.062486 0.996440 0.056601
vn 0.018030 0.017370 -0.999687
vn 0.018030 0.017370 -0.999687
vn 0.018030 0.017370 -0.999687
vn 0.018030 0.017370 -0.999687
vn 0.003508 -0.999837 -0.017699
vn 0.003508 -0.999837 -0.017699
vn 0.003508 -0.999837 -0.017699
vn 0.003508 -0.999837 -0.017699
vn 0.993020 -0.002049 0.117928
vn 0.993020 -0.002049 0.117928
vn 0.993020 -0.002049 0.117928
vn 0.993020 -0.002049 0.117928
vn -0.998088 0.000200 0.061816
vn -0.998088 0.000200 0.061816
vn -0.998088 0.000200 0.061816
vn -0.998088 0.000200 0.061816
vn 0.116358 0.142581 0.982920
vn 0.116358 0.142581 0.982920
vn 0.116358 0.142581 0.982920
vn 0.116358 0.142581 0.982920
vn -0.000000 0.989642 -0.143556
vn -0.000000 0.989642 -0.143556
vn -0.000000 0.989642 -0.143556
vn -0.000000 0.989642 -0.143556
vn 0.000000 -0.143556 -0.989642
vn 0.000000 -0.143556 -0.989642
vn 0.000000 -0.143556 -0.989642
vn 0.000000 -0.143556 -0.989642
vn 0.000000 -0.989642 0.143556
vn 0.000000 -0.989642 0.143556
vn 0.000000 -0.989642 0.143556
vn 0.000000 -0.989642 0.143556
vn 0.994548 0.014970 0.103203
vn 0.994548 0.014970 0.103203
vn 0.994548 0.014970 0.103203
vn 0.994548 0.014970 0.103203
vn -1.000000 0.000000 0.000000
vn -1.000000 0.000000 0.000000
vn -1.000000 0.000000 0.000000
vn -1.000000 0.000000 0.000000
s off
g example_road:example_road:polySurface13
usemtl initialShadingGroup
f 1/1/1 2/2/2 4/3/3 3/4/4
f 3/4/5 4/3/6 6/5/7 5/6/8
f 5/6/9 6/5/10 8/7/11 7/8/12
f 7/8/13 8/7/14 2/9/15 1/10/16
f 2/2/17 8/11/18 6/12/19 4/3/20
f 7/13/21 1/1/22 3/4/23 5/14/24
f 9/15/25 10/16/26 12/17/27 11/18/28
f 11/18/29 12/17/30 14/19/31 13/20/32
f 13/20/33 14/19/34 16/21/35 15/22/36
f 15/22/37 16/21/38 10/23/39 9/24/40
f 10/16/41 16/25/42 14/26/43 12/17/44
f 15/27/45 9/15/46 11/18/47 13/28/48
