# This file uses centimeters as units for non-parametric coordinates.

mtllib road000.mtl
g default
v -4.625000 -1.434702 5.000000
v -0.375000 -1.434702 5.000000
v -4.625000 0.565298 5.000000
v -0.375000 0.565298 5.000000
v -4.625000 0.565298 -5.000000
v -0.375000 0.565298 -5.000000
v -4.625000 -1.434702 -5.000000
v -0.375000 -1.434702 -5.000000
v 0.375000 -1.434702 5.000000
v 4.625000 -1.434702 5.000000
v 0.375000 0.565298 5.000000
v 4.625000 0.565298 5.000000
v 0.375000 0.565298 -5.000000
v 4.625000 0.565298 -5.000000
v 0.375000 -1.434702 -5.000000
v 4.625000 -1.434702 -5.000000
v -4.625000 -1.434702 5.000000
v -0.375000 -1.434702 5.000000
v -4.625000 0.565298 5.000000
v -0.375000 0.565298 5.000000
v -4.625000 0.565298 -5.000000
v -0.375000 0.565298 -5.000000
v -4.625000 -1.434702 -5.000000
v -0.375000 -1.434702 -5.000000
v 0.375000 -1.434702 5.000000
v 4.625000 -1.434702 5.000000
v 0.375000 0.565298 5.000000
v 4.625000 0.565298 5.000000
v 0.375000 0.565298 -5.000000
v 4.625000 0.565298 -5.000000
v 0.375000 -1.434702 -5.000000
v 4.625000 -1.434702 -5.000000
vt 0.684384 0.921822
vt 0.684384 0.647765
vt 0.813352 0.921822
vt 0.813352 0.647765
vt 0.001992 0.001290
vt 0.276049 0.001290
vt 0.001992 0.646129
vt 0.276049 0.646129
vt 0.278268 0.921245
vt 0.278268 0.647188
vt 0.407236 0.921245
vt 0.407236 0.647188
vt 0.408990 0.001290
vt 0.683047 0.001290
vt 0.408990 0.646129
vt 0.683047 0.646129
vt 0.278165 0.646129
vt 0.278165 0.001290
vt 0.407133 0.646129
vt 0.407133 0.001290
vt 0.684585 0.646129
vt 0.684585 0.001290
vt 0.813553 0.646129
vt 0.813553 0.001290
vt 0.001557 0.646192
vt 0.275614 0.646214
vt 0.001547 0.775160
vt 0.275603 0.775182
vt 0.001992 0.001290
vt 0.276049 0.001290
vt 0.001992 0.646129
vt 0.276049 0.646129
vt 0.406144 0.646589
vt 0.680201 0.646696
vt 0.406094 0.775557
vt 0.680150 0.775664
vt 0.406134 0.001290
vt 0.680190 0.001290
vt 0.406134 0.646129
vt 0.680190 0.646129
vt 0.276561 0.646129
vt 0.276561 0.001290
vt 0.405529 0.646129
vt 0.405529 0.001290
vt 0.680693 0.646129
vt 0.680693 0.001290
vt 0.809661 0.646129
vt 0.809661 0.001290
vt 0.684384 0.921822
vt 0.684384 0.647765
vt 0.813352 0.921822
vt 0.813352 0.647765
vt 0.001992 0.001290
vt 0.276049 0.001290
vt 0.001992 0.646129
vt 0.276049 0.646129
vt 0.278268 0.921245
vt 0.278268 0.647188
vt 0.407236 0.921245
vt 0.407236 0.647188
vt 0.408990 0.001290
vt 0.683047 0.001290
vt 0.408990 0.646129
vt 0.683047 0.646129
vt 0.278165 0.646129
vt 0.278165 0.001290
vt 0.407133 0.646129
vt 0.407133 0.001290
vt 0.684585 0.646129
vt 0.684585 0.001290
vt 0.813553 0.646129
vt 0.813553 0.001290
vt 0.001557 0.646192
vt 0.275614 0.646214
vt 0.001547 0.775160
vt 0.275603 0.775182
vt 0.001992 0.001290
vt 0.276049 0.001290
vt 0.001992 0.646129
vt 0.276049 0.646129
vt 0.406144 0.646589
vt 0.680201 0.646696
vt 0.406094 0.775557
vt 0.680150 0.775664
vt 0.406134 0.001290
vt 0.680190 0.001290
vt 0.406134 0.646129
vt 0.680190 0.646129
vt 0.276561 0.646129
vt 0.276561 0.001290
vt 0.405529 0.646129
vt 0.405529 0.001290
vt 0.680693 0.646129
vt 0.680693 0.001290
vt 0.809661 0.646129
vt 0.809661 0.001290
vn -0.666667 -0.666667 0.333333
vn 0.408248 -0.408248 0.816497
vn -0.408248 0.408248 0.816497
vn -0.408248 0.408248 0.816497
vn 0.408248 -0.408248 0.816497
vn 0.666667 0.666667 0.333333
vn -0.408248 0.408248 0.816497
vn 0.666667 0.666667 0.333333
vn -0.666667 0.666667 -0.333333
vn -0.666667 0.666667 -0.333333
vn 0.666667 0.666667 0.333333
vn 0.408248 0.408248 -0.816497
vn -0.666667 0.666667 -0.333333
vn 0.408248 0.408248 -0.816497
vn -0.408248 -0.408248 -0.816497
vn -0.408248 -0.408248 -0.816497
vn 0.408248 0.408248 -0.816497
vn 0.666667 -0.666667 -0.333333
vn -0.408248 -0.408248 -0.816497
vn 0.666667 -0.666667 -0.333333
vn -0.666667 -0.666667 0.333333
vn -0.666667 -0.666667 0.333333
vn 0.666667 -0.666667 -0.333333
vn 0.408248 -0.408248 0.816497
vn 0.408248 -0.408248 0.816497
vn 0.666667 -0.666667 -0.333333
vn 0.666667 0.666667 0.333333
vn 0.666667 0.666667 0.333333
vn 0.666667 -0.666667 -0.333333
vn 0.408248 0.408248 -0.816497
vn -0.408248 -0.408248 -0.816497
vn -0.666667 -0.666667 0.333333
vn -0.666667 0.666667 -0.333333
vn -0.666667 0.666667 -0.333333
vn -0.666667 -0.666667 0.333333
vn -0.408248 0.408248 0.816497
vn -0.666667 -0.666667 0.333333
vn 0.408248 -0.408248 0.816497
vn -0.408248 0.408248 0.816497
vn -0.408248 0.408248 0.816497
vn 0.408248 -0.408248 0.816497
vn 0.666667 0.666667 0.333333
vn -0.408248 0.408248 0.816497
vn 0.666667 0.666667 0.333333
vn -0.666667 0.666667 -0.333333
vn -0.666667 0.666667 -0.333333
vn 0.666667 0.666667 0.333333
vn 0.408248 0.408248 -0.816497
vn -0.666667 0.666667 -0.333333
vn 0.408248 0.408248 -0.816497
vn -0.408248 -0.408248 -0.816497
vn -0.408248 -0.408248 -0.816497
vn 0.408248 0.408248 -0.816497
vn 0.666667 -0.666667 -0.333333
vn -0.408248 -0.408248 -0.816497
vn 0.666667 -0.666667 -0.333333
vn -0.666667 -0.666667 0.333333
vn -0.666667 -0.666667 0.333333
vn 0.666667 -0.666667 -0.333333
vn 0.408248 -0.408248 0.816497
vn 0.408248 -0.408248 0.816497
vn 0.666667 -0.666667 -0.333333
vn 0.666667 0.666667 0.333333
vn 0.666667 0.666667 0.333333
vn 0.666667 -0.666667 -0.333333
vn 0.408248 0.408248 -0.816497
vn -0.408248 -0.408248 -0.816497
vn -0.666667 -0.666667 0.333333
vn -0.666667 0.666667 -0.333333
vn -0.666667 0.666667 -0.333333
vn -0.666667 -0.666667 0.333333
vn -0.408248 0.408248 0.816497
vn -0.666667 -0.666667 0.333333
vn 0.408248 -0.408248 0.816497
vn -0.408248 0.408248 0.816497
vn -0.408248 0.408248 0.816497
vn 0.408248 -0.408248 0.816497
vn 0.666667 0.666667 0.333333
vn -0.408248 0.408248 0.816497
vn 0.666667 0.666667 0.333333
vn -0.666667 0.666667 -0.333333
vn -0.666667 0.666667 -0.333333
vn 0.666667 0.666667 0.333333
vn 0.408248 0.408248 -0.816497
vn -0.666667 0.666667 -0.333333
vn 0.408248 0.408248 -0.816497
vn -0.408248 -0.408248 -0.816497
vn -0.408248 -0.408248 -0.816497
vn 0.408248 0.408248 -0.816497
vn 0.666667 -0.666667 -0.333333
vn -0.408248 -0.408248 -0.816497
vn 0.666667 -0.666667 -0.333333
vn -0.666667 -0.666667 0.333333
vn -0.666667 -0.666667 0.333333
vn 0.666667 -0.666667 -0.333333
vn 0.408248 -0.408248 0.816497
vn 0.408248 -0.408248 0.816497
vn 0.666667 -0.666667 -0.333333
vn 0.666667 0.666667 0.333333
vn 0.666667 0.666667 0.333333
vn 0.666667 -0.666667 -0.333333
vn 0.408248 0.408248 -0.816497
vn -0.408248 -0.408248 -0.816497
vn -0.666667 -0.666667 0.333333
vn -0.666667 0.666667 -0.333333
vn -0.666667 0.666667 -0.333333
vn -0.666667 -0.666667 0.333333
vn -0.408248 0.408248 0.816497
vn -0.666667 -0.666667 0.333333
vn 0.408248 -0.408248 0.816497
vn -0.408248 0.408248 0.816497
vn -0.408248 0.408248 0.816497
vn 0.408248 -0.408248 0.816497
vn 0.666667 0.666667 0.333333
vn -0.408248 0.408248 0.816497
vn 0.666667 0.666667 0.333333
vn -0.666667 0.666667 -0.333333
vn -0.666667 0.666667 -0.333333
vn 0.666667 0.666667 0.333333
vn 0.408248 0.408248 -0.816497
vn -0.666667 0.666667 -0.333333
vn 0.408248 0.408248 -0.816497
vn -0.408248 -0.408248 -0.816497
vn -0.408248 -0.408248 -0.816497
vn 0.408248 0.408248 -0.816497
vn 0.666667 -0.666667 -0.333333
vn -0.408248 -0.408248 -0.816497
vn 0.666667 -0.666667 -0.333333
vn -0.666667 -0.666667 0.333333
vn -0.666667 -0.666667 0.333333
vn 0.666667 -0.666667 -0.333333
vn 0.408248 -0.408248 0.816497
vn 0.408248 -0.408248 0.816497
vn 0.666667 -0.666667 -0.333333
vn 0.666667 0.666667 0.333333
vn 0.666667 0.666667 0.333333
vn 0.666667 -0.666667 -0.333333
vn 0.408248 0.408248 -0.816497
vn -0.408248 -0.408248 -0.816497
vn -0.666667 -0.666667 0.333333
vn -0.666667 0.666667 -0.333333
vn -0.666667 0.666667 -0.333333
vn -0.666667 -0.666667 0.333333
vn -0.408248 0.408248 0.816497
s off
g road00:pCube32
usemtl initialShadingGroup
f 1/1/1 2/2/2 3/3/3
f 3/3/4 2/2/5 4/4/6
f 3/5/7 4/6/8 5/7/9
f 5/7/10 4/6/11 6/8/12
f 5/9/13 6/10/14 7/11/15
f 7/11/16 6/10/17 8/12/18
f 7/13/19 8/14/20 1/15/21
f 1/15/22 8/14/23 2/16/24
f 2/17/25 8/18/26 4/19/27
f 4/19/28 8/18/29 6/20/30
f 7/21/31 1/22/32 5/23/33
f 5/23/34 1/22/35 3/24/36
f 9/25/37 10/26/38 11/27/39
f 11/27/40 10/26/41 12/28/42
f 11/29/43 12/30/44 13/31/45
f 13/31/46 12/30/47 14/32/48
f 13/33/49 14/34/50 15/35/51
f 15/35/52 14/34/53 16/36/54
f 15/37/55 16/38/56 9/39/57
f 9/39/58 16/38/59 10/40/60
f 10/41/61 16/42/62 12/43/63
f 12/43/64 16/42/65 14/44/66
f 15/45/67 9/46/68 13/47/69
f 13/47/70 9/46/71 11/48/72
f 17/49/73 18/50/74 19/51/75
f 19/51/76 18/50/77 20/52/78
f 19/53/79 20/54/80 21/55/81
f 21/55/82 20/54/83 22/56/84
f 21/57/85 22/58/86 23/59/87
f 23/59/88 22/58/89 24/60/90
f 23/61/91 24/62/92 17/63/93
f 17/63/94 24/62/95 18/64/96
f 18/65/97 24/66/98 20/67/99
f 20/67/100 24/66/101 22/68/102
f 23/69/103 17/70/104 21/71/105
f 21/71/106 17/70/107 19/72/108
f 25/73/109 26/74/110 27/75/111
f 27/75/112 26/74/113 28/76/114
f 27/77/115 28/78/116 29/79/117
f 29/79/118 28/78/119 30/80/120
f 29/81/121 30/82/122 31/83/123
f 31/83/124 30/82/125 32/84/126
f 31/85/127 32/86/128 25/87/129
f 25/87/130 32/86/131 26/88/132
f 26/89/133 32/90/134 28/91/135
f 28/91/136 32/90/137 30/92/138
f 31/93/139 25/94/140 29/95/141
f 29/95/142 25/94/143 27/96/144
