# This file uses centimeters as units for non-parametric coordinates.

mtllib road05.mtl
g default
v 1.204737 -1.658640 7.615239
v 5.295263 -1.658640 7.615239
v 1.204737 0.941360 7.615239
v 5.295263 0.941360 7.615239
v 1.204737 0.941360 3.598943
v 5.295263 0.941360 3.598943
v 1.204737 -1.658640 3.598943
v 5.295263 -1.658640 3.598943
v 0.487500 -2.038152 2.925795
v 6.012500 -2.038152 2.925795
v 0.487500 0.561848 2.925795
v 6.012500 0.561848 2.925795
v 0.487500 0.561848 -0.471341
v 6.012500 0.561848 -0.471341
v 0.487500 -2.038152 -0.471341
v 6.012500 -2.038152 -0.471341
v -6.012500 -2.123172 7.591609
v -0.487500 -2.123172 7.591609
v -6.012500 0.474763 7.711189
v -0.487500 0.474763 7.711189
v -6.012500 0.992946 -7.276890
v -0.487500 0.992946 -7.276890
v -6.012500 -1.604988 -7.396470
v -0.487500 -1.604988 -7.396470
v 0.241517 -1.954726 -1.877526
v 5.746573 -2.020446 -1.341689
v 0.262987 0.642727 -1.747065
v 5.768044 0.577005 -1.211227
v 0.753427 0.890221 -8.414902
v 6.258483 0.824500 -7.879065
v 0.731956 -1.707230 -8.545363
v 6.237012 -1.772952 -8.009526
vt 0.335458 0.910639
vt 0.335458 0.760897
vt 0.430637 0.760897
vt 0.430637 0.910639
vt 0.436803 0.957195
vt 0.436803 0.807453
vt 0.583829 0.807453
vt 0.583829 0.957195
vt 0.590771 0.957196
vt 0.590771 0.807453
vt 0.685949 0.807453
vt 0.685949 0.957196
vt 0.692116 0.687070
vt 0.692116 0.537327
vt 0.839141 0.537327
vt 0.839141 0.687070
vt 0.846083 0.684353
vt 0.846083 0.537327
vt 0.941262 0.537327
vt 0.941262 0.684353
vt 0.902829 0.835369
vt 0.902829 0.688344
vt 0.998008 0.688344
vt 0.998008 0.835369
vt 0.249401 0.756849
vt 0.249401 0.554594
vt 0.344579 0.554594
vt 0.344579 0.756849
vt 0.118906 0.761227
vt 0.118906 0.558972
vt 0.243265 0.558972
vt 0.243265 0.761227
vt 0.017592 0.761227
vt 0.017592 0.558972
vt 0.112770 0.558972
vt 0.112770 0.761227
vt 0.001992 0.967473
vt 0.001992 0.765218
vt 0.126352 0.765218
vt 0.126352 0.967473
vt 0.801515 0.815421
vt 0.801515 0.691061
vt 0.896694 0.691061
vt 0.896694 0.815421
vt 0.700201 0.815421
vt 0.700201 0.691061
vt 0.795380 0.691061
vt 0.795380 0.815421
vt 0.132767 0.967473
vt 0.132767 0.765218
vt 0.227870 0.765218
vt 0.227870 0.967473
vt 0.243857 0.001931
vt 0.446112 0.001931
vt 0.446112 0.550603
vt 0.243857 0.550603
vt 0.234112 0.967473
vt 0.234112 0.765218
vt 0.329215 0.765218
vt 0.329215 0.967473
vt 0.452395 0.001931
vt 0.654650 0.001931
vt 0.654650 0.550603
vt 0.452395 0.550603
vt 0.001992 0.550603
vt 0.020961 0.001931
vt 0.116064 0.006309
vt 0.097095 0.554980
vt 0.141991 0.554980
vt 0.123022 0.006309
vt 0.218125 0.001931
vt 0.237094 0.550603
vt 0.456747 0.756905
vt 0.454341 0.555380
vt 0.549427 0.554594
vt 0.551833 0.756119
vt 0.660933 0.021547
vt 0.862458 0.001931
vt 0.880411 0.246022
vt 0.678886 0.265638
vt 0.350715 0.756119
vt 0.353120 0.554594
vt 0.448206 0.555380
vt 0.445800 0.756905
vt 0.796483 0.269629
vt 0.998008 0.289245
vt 0.980054 0.533336
vt 0.778530 0.513720
vt 0.668249 0.513720
vt 0.677309 0.269629
vt 0.772394 0.274405
vt 0.763334 0.518496
vt 0.567028 0.803461
vt 0.557968 0.559370
vt 0.653053 0.554594
vt 0.662114 0.798685
vn 0.000000 0.000000 1.000000
vn 0.000000 0.000000 1.000000
vn 0.000000 0.000000 1.000000
vn 0.000000 0.000000 1.000000
vn 0.000000 1.000000 0.000000
vn 0.000000 1.000000 0.000000
vn 0.000000 1.000000 0.000000
vn 0.000000 1.000000 0.000000
vn 0.000000 0.000000 -1.000000
vn 0.000000 0.000000 -1.000000
vn 0.000000 0.000000 -1.000000
vn 0.000000 0.000000 -1.000000
vn 0.000000 -1.000000 0.000000
vn 0.000000 -1.000000 0.000000
vn 0.000000 -1.000000 0.000000
vn 0.000000 -1.000000 0.000000
vn 1.000000 0.000000 0.000000
vn 1.000000 0.000000 0.000000
vn 1.000000 0.000000 0.000000
vn 1.000000 0.000000 0.000000
vn -1.000000 0.000000 0.000000
vn -1.000000 0.000000 0.000000
vn -1.000000 0.000000 0.000000
vn -1.000000 0.000000 0.000000
vn 0.000000 0.000000 1.000000
vn 0.000000 0.000000 1.000000
vn 0.000000 0.000000 1.000000
vn 0.000000 0.000000 1.000000
vn 0.000000 1.000000 0.000000
vn 0.000000 1.000000 0.000000
vn 0.000000 1.000000 0.000000
vn 0.000000 1.000000 0.000000
vn 0.000000 0.000000 -1.000000
vn 0.000000 0.000000 -1.000000
vn 0.000000 0.000000 -1.000000
vn 0.000000 0.000000 -1.000000
vn 0.000000 -1.000000 0.000000
vn 0.000000 -1.000000 0.000000
vn 0.000000 -1.000000 0.000000
vn 0.000000 -1.000000 0.000000
vn 1.000000 0.000000 0.000000
vn 1.000000 0.000000 0.000000
vn 1.000000 0.000000 0.000000
vn 1.000000 0.000000 0.000000
vn -1.000000 0.000000 0.000000
vn -1.000000 0.000000 0.000000
vn -1.000000 0.000000 0.000000
vn -1.000000 0.000000 0.000000
vn 0.000000 -0.045980 0.998942
vn 0.000000 -0.045980 0.998942
vn 0.000000 -0.045980 0.998942
vn 0.000000 -0.045980 0.998942
vn 0.000000 0.999403 0.034552
vn 0.000000 0.999403 0.034552
vn 0.000000 0.999403 0.034552
vn 0.000000 0.999403 0.034552
vn 0.000000 0.045980 -0.998942
vn 0.000000 0.045980 -0.998942
vn 0.000000 0.045980 -0.998942
vn 0.000000 0.045980 -0.998942
vn 0.000000 -0.999403 -0.034552
vn 0.000000 -0.999403 -0.034552
vn 0.000000 -0.999403 -0.034552
vn 0.000000 -0.999403 -0.034552
vn 1.000000 0.000000 0.000000
vn 1.000000 0.000000 0.000000
vn 1.000000 0.000000 0.000000
vn 1.000000 0.000000 0.000000
vn -1.000000 0.000000 0.000000
vn -1.000000 0.000000 0.000000
vn -1.000000 0.000000 0.000000
vn -1.000000 0.000000 0.000000
vn -0.097342 -0.049123 0.994038
vn -0.097342 -0.049123 0.994038
vn -0.097342 -0.049123 0.994038
vn -0.097342 -0.049123 0.994038
vn 0.008260 0.999255 0.037698
vn 0.008260 0.999255 0.037698
vn 0.008260 0.999255 0.037698
vn 0.008260 0.999255 0.037698
vn 0.097342 0.049123 -0.994038
vn 0.097342 0.049123 -0.994038
vn 0.097342 0.049123 -0.994038
vn 0.097342 0.049123 -0.994038
vn -0.008260 -0.999255 -0.037698
vn -0.008260 -0.999255 -0.037698
vn -0.008260 -0.999255 -0.037698
vn -0.008260 -0.999255 -0.037698
vn 0.997267 -0.011905 0.072910
vn 0.997267 -0.011905 0.072910
vn 0.997267 -0.011905 0.072910
vn 0.997267 -0.011905 0.072910
vn -0.997267 0.011905 -0.072910
vn -0.997267 0.011905 -0.072910
vn -0.997267 0.011905 -0.072910
vn -0.997267 0.011905 -0.072910
s 1
g road07:pCube34
usemtl initialShadingGroup
f 1/1/1 2/2/2 3/4/3
f 3/4/3 2/2/2 4/3/4
s 2
f 3/5/5 4/6/6 5/8/7
f 5/8/7 4/6/6 6/7/8
s 3
f 5/9/9 6/10/10 7/12/11
f 7/12/11 6/10/10 8/11/12
s 4
f 7/13/13 8/14/14 1/16/15
f 1/16/15 8/14/14 2/15/16
s 5
f 2/17/17 8/18/18 4/20/19
f 4/20/19 8/18/18 6/19/20
s 6
f 7/21/21 1/22/22 5/24/23
f 5/24/23 1/22/22 3/23/24
s 7
f 9/25/25 10/26/26 11/28/27
f 11/28/27 10/26/26 12/27/28
s 8
f 11/29/29 12/30/30 13/32/31
f 13/32/31 12/30/30 14/31/32
s 9
f 13/33/33 14/34/34 15/36/35
f 15/36/35 14/34/34 16/35/36
s 10
f 15/37/37 16/38/38 9/40/39
f 9/40/39 16/38/38 10/39/40
s 11
f 10/41/41 16/42/42 12/44/43
f 12/44/43 16/42/42 14/43/44
s 12
f 15/45/45 9/46/46 13/48/47
f 13/48/47 9/46/46 11/47/48
s 13
f 17/49/49 18/50/50 19/52/51
f 19/52/51 18/50/50 20/51/52
s 14
f 19/53/53 20/54/54 21/56/55
f 21/56/55 20/54/54 22/55/56
s 15
f 21/57/57 22/58/58 23/60/59
f 23/60/59 22/58/58 24/59/60
s 16
f 23/61/61 24/62/62 17/64/63
f 17/64/63 24/62/62 18/63/64
s 17
f 24/66/65 22/67/66 18/65/67
f 18/65/67 22/67/66 20/68/68
s 18
f 23/69/69 17/70/70 21/72/71
f 21/72/71 17/70/70 19/71/72
s 19
f 25/73/73 26/74/74 27/76/75
f 27/76/75 26/74/74 28/75/76
s 20
f 28/78/77 30/79/78 27/77/79
f 27/77/79 30/79/78 29/80/80
s 21
f 30/82/81 32/83/82 29/81/83
f 29/81/83 32/83/82 31/84/84
s 22
f 31/85/85 32/86/86 25/88/87
f 25/88/87 32/86/86 26/87/88
s 23
f 32/90/89 30/91/90 26/89/91
f 26/89/91 30/91/90 28/92/92
s 24
f 31/93/93 25/94/94 29/96/95
f 29/96/95 25/94/94 27/95/96
g default
v 1.204737 -1.658640 7.615239
v 5.295263 -1.658640 7.615239
v 1.204737 0.941360 7.615239
v 5.295263 0.941360 7.615239
v 1.204737 0.941360 3.598943
v 5.295263 0.941360 3.598943
v 1.204737 -1.658640 3.598943
v 5.295263 -1.658640 3.598943
v 0.487500 -2.038152 2.925795
v 6.012500 -2.038152 2.925795
v 0.487500 0.561848 2.925795
v 6.012500 0.561848 2.925795
v 0.487500 0.561848 -0.471341
v 6.012500 0.561848 -0.471341
v 0.487500 -2.038152 -0.471341
v 6.012500 -2.038152 -0.471341
v -6.012500 -2.123172 7.591609
v -0.487500 -2.123172 7.591609
v -6.012500 0.474763 7.711189
v -0.487500 0.474763 7.711189
v -6.012500 0.992946 -7.276890
v -0.487500 0.992946 -7.276890
v -6.012500 -1.604988 -7.396470
v -0.487500 -1.604988 -7.396470
v 0.241517 -1.954726 -1.877526
v 5.746573 -2.020446 -1.341689
v 0.262987 0.642727 -1.747065
v 5.768044 0.577005 -1.211227
v 0.753427 0.890221 -8.414902
v 6.258483 0.824500 -7.879065
v 0.731956 -1.707230 -8.545363
v 6.237012 -1.772952 -8.009526
vt 0.335458 0.910639
vt 0.335458 0.760897
vt 0.430637 0.760897
vt 0.430637 0.910639
vt 0.436803 0.957195
vt 0.436803 0.807453
vt 0.583829 0.807453
vt 0.583829 0.957195
vt 0.590771 0.957196
vt 0.590771 0.807453
vt 0.685949 0.807453
vt 0.685949 0.957196
vt 0.692116 0.687070
vt 0.692116 0.537327
vt 0.839141 0.537327
vt 0.839141 0.687070
vt 0.846083 0.684353
vt 0.846083 0.537327
vt 0.941262 0.537327
vt 0.941262 0.684353
vt 0.902829 0.835369
vt 0.902829 0.688344
vt 0.998008 0.688344
vt 0.998008 0.835369
vt 0.249401 0.756849
vt 0.249401 0.554594
vt 0.344579 0.554594
vt 0.344579 0.756849
vt 0.118906 0.761227
vt 0.118906 0.558972
vt 0.243265 0.558972
vt 0.243265 0.761227
vt 0.017592 0.761227
vt 0.017592 0.558972
vt 0.112770 0.558972
vt 0.112770 0.761227
vt 0.001992 0.967473
vt 0.001992 0.765218
vt 0.126352 0.765218
vt 0.126352 0.967473
vt 0.801515 0.815421
vt 0.801515 0.691061
vt 0.896694 0.691061
vt 0.896694 0.815421
vt 0.700201 0.815421
vt 0.700201 0.691061
vt 0.795380 0.691061
vt 0.795380 0.815421
vt 0.132767 0.967473
vt 0.132767 0.765218
vt 0.227870 0.765218
vt 0.227870 0.967473
vt 0.243857 0.001931
vt 0.446112 0.001931
vt 0.446112 0.550603
vt 0.243857 0.550603
vt 0.234112 0.967473
vt 0.234112 0.765218
vt 0.329215 0.765218
vt 0.329215 0.967473
vt 0.452395 0.001931
vt 0.654650 0.001931
vt 0.654650 0.550603
vt 0.452395 0.550603
vt 0.001992 0.550603
vt 0.020961 0.001931
vt 0.116064 0.006309
vt 0.097095 0.554980
vt 0.141991 0.554980
vt 0.123022 0.006309
vt 0.218125 0.001931
vt 0.237094 0.550603
vt 0.456747 0.756905
vt 0.454341 0.555380
vt 0.549427 0.554594
vt 0.551833 0.756119
vt 0.660933 0.021547
vt 0.862458 0.001931
vt 0.880411 0.246022
vt 0.678886 0.265638
vt 0.350715 0.756119
vt 0.353120 0.554594
vt 0.448206 0.555380
vt 0.445800 0.756905
vt 0.796483 0.269629
vt 0.998008 0.289245
vt 0.980054 0.533336
vt 0.778530 0.513720
vt 0.668249 0.513720
vt 0.677309 0.269629
vt 0.772394 0.274405
vt 0.763334 0.518496
vt 0.567028 0.803461
vt 0.557968 0.559370
vt 0.653053 0.554594
vt 0.662114 0.798685
vn 0.000000 0.000000 1.000000
vn 0.000000 0.000000 1.000000
vn 0.000000 0.000000 1.000000
vn 0.000000 0.000000 1.000000
vn 0.000000 1.000000 0.000000
vn 0.000000 1.000000 0.000000
vn 0.000000 1.000000 0.000000
vn 0.000000 1.000000 0.000000
vn 0.000000 0.000000 -1.000000
vn 0.000000 0.000000 -1.000000
vn 0.000000 0.000000 -1.000000
vn 0.000000 0.000000 -1.000000
vn 0.000000 -1.000000 0.000000
vn 0.000000 -1.000000 0.000000
vn 0.000000 -1.000000 0.000000
vn 0.000000 -1.000000 0.000000
vn 1.000000 0.000000 0.000000
vn 1.000000 0.000000 0.000000
vn 1.000000 0.000000 0.000000
vn 1.000000 0.000000 0.000000
vn -1.000000 0.000000 0.000000
vn -1.000000 0.000000 0.000000
vn -1.000000 0.000000 0.000000
vn -1.000000 0.000000 0.000000
vn 0.000000 0.000000 1.000000
vn 0.000000 0.000000 1.000000
vn 0.000000 0.000000 1.000000
vn 0.000000 0.000000 1.000000
vn 0.000000 1.000000 0.000000
vn 0.000000 1.000000 0.000000
vn 0.000000 1.000000 0.000000
vn 0.000000 1.000000 0.000000
vn 0.000000 0.000000 -1.000000
vn 0.000000 0.000000 -1.000000
vn 0.000000 0.000000 -1.000000
vn 0.000000 0.000000 -1.000000
vn 0.000000 -1.000000 0.000000
vn 0.000000 -1.000000 0.000000
vn 0.000000 -1.000000 0.000000
vn 0.000000 -1.000000 0.000000
vn 1.000000 0.000000 0.000000
vn 1.000000 0.000000 0.000000
vn 1.000000 0.000000 0.000000
vn 1.000000 0.000000 0.000000
vn -1.000000 0.000000 0.000000
vn -1.000000 0.000000 0.000000
vn -1.000000 0.000000 0.000000
vn -1.000000 0.000000 0.000000
vn 0.000000 -0.045980 0.998942
vn 0.000000 -0.045980 0.998942
vn 0.000000 -0.045980 0.998942
vn 0.000000 -0.045980 0.998942
vn 0.000000 0.999403 0.034552
vn 0.000000 0.999403 0.034552
vn 0.000000 0.999403 0.034552
vn 0.000000 0.999403 0.034552
vn 0.000000 0.045980 -0.998942
vn 0.000000 0.045980 -0.998942
vn 0.000000 0.045980 -0.998942
vn 0.000000 0.045980 -0.998942
vn 0.000000 -0.999403 -0.034552
vn 0.000000 -0.999403 -0.034552
vn 0.000000 -0.999403 -0.034552
vn 0.000000 -0.999403 -0.034552
vn 1.000000 0.000000 0.000000
vn 1.000000 0.000000 0.000000
vn 1.000000 0.000000 0.000000
vn 1.000000 0.000000 0.000000
vn -1.000000 0.000000 0.000000
vn -1.000000 0.000000 0.000000
vn -1.000000 0.000000 0.000000
vn -1.000000 0.000000 0.000000
vn -0.097342 -0.049123 0.994038
vn -0.097342 -0.049123 0.994038
vn -0.097342 -0.049123 0.994038
vn -0.097342 -0.049123 0.994038
vn 0.008260 0.999255 0.037698
vn 0.008260 0.999255 0.037698
vn 0.008260 0.999255 0.037698
vn 0.008260 0.999255 0.037698
vn 0.097342 0.049123 -0.994038
vn 0.097342 0.049123 -0.994038
vn 0.097342 0.049123 -0.994038
vn 0.097342 0.049123 -0.994038
vn -0.008260 -0.999255 -0.037698
vn -0.008260 -0.999255 -0.037698
vn -0.008260 -0.999255 -0.037698
vn -0.008260 -0.999255 -0.037698
vn 0.997267 -0.011905 0.072910
vn 0.997267 -0.011905 0.072910
vn 0.997267 -0.011905 0.072910
vn 0.997267 -0.011905 0.072910
vn -0.997267 0.011905 -0.072910
vn -0.997267 0.011905 -0.072910
vn -0.997267 0.011905 -0.072910
vn -0.997267 0.011905 -0.072910
s 1
g road07:pCube34
f 33/97/97 34/98/98 35/100/99
f 35/100/99 34/98/98 36/99/100
s 2
f 35/101/101 36/102/102 37/104/103
f 37/104/103 36/102/102 38/103/104
s 3
f 37/105/105 38/106/106 39/108/107
f 39/108/107 38/106/106 40/107/108
s 4
f 39/109/109 40/110/110 33/112/111
f 33/112/111 40/110/110 34/111/112
s 5
f 34/113/113 40/114/114 36/116/115
f 36/116/115 40/114/114 38/115/116
s 6
f 39/117/117 33/118/118 37/120/119
f 37/120/119 33/118/118 35/119/120
s 7
f 41/121/121 42/122/122 43/124/123
f 43/124/123 42/122/122 44/123/124
s 8
f 43/125/125 44/126/126 45/128/127
f 45/128/127 44/126/126 46/127/128
s 9
f 45/129/129 46/130/130 47/132/131
f 47/132/131 46/130/130 48/131/132
s 10
f 47/133/133 48/134/134 41/136/135
f 41/136/135 48/134/134 42/135/136
s 11
f 42/137/137 48/138/138 44/140/139
f 44/140/139 48/138/138 46/139/140
s 12
f 47/141/141 41/142/142 45/144/143
f 45/144/143 41/142/142 43/143/144
s 13
f 49/145/145 50/146/146 51/148/147
f 51/148/147 50/146/146 52/147/148
s 14
f 51/149/149 52/150/150 53/152/151
f 53/152/151 52/150/150 54/151/152
s 15
f 53/153/153 54/154/154 55/156/155
f 55/156/155 54/154/154 56/155/156
s 16
f 55/157/157 56/158/158 49/160/159
f 49/160/159 56/158/158 50/159/160
s 17
f 56/162/161 54/163/162 50/161/163
f 50/161/163 54/163/162 52/164/164
s 18
f 55/165/165 49/166/166 53/168/167
f 53/168/167 49/166/166 51/167/168
s 19
f 57/169/169 58/170/170 59/172/171
f 59/172/171 58/170/170 60/171/172
s 20
f 60/174/173 62/175/174 59/173/175
f 59/173/175 62/175/174 61/176/176
s 21
f 62/178/177 64/179/178 61/177/179
f 61/177/179 64/179/178 63/180/180
s 22
f 63/181/181 64/182/182 57/184/183
f 57/184/183 64/182/182 58/183/184
s 23
f 64/186/185 62/187/186 58/185/187
f 58/185/187 62/187/186 60/188/188
s 24
f 63/189/189 57/190/190 61/192/191
f 61/192/191 57/190/190 59/191/192
