# This file uses centimeters as units for non-parametric coordinates.

mtllib road0.mtl
g default
v -9.687194 -1.259351 4.923481
v -6.518711 -1.707308 4.916631
v -9.522662 -0.408938 5.016061
v -6.354179 -0.856894 5.009210
v -9.477919 -0.172438 -4.448301
v -6.309435 -0.620394 -4.455152
v -9.640228 -0.775225 -5.010660
v -6.471745 -1.223181 -5.017511
v -6.683257 0.145361 3.063974
v -9.444614 0.535758 3.069945
v -6.316314 -0.154640 -3.000058
v -9.484797 0.293316 -2.993207
v -1.600000 -1.678648 5.128430
v 1.600000 -1.678648 5.128430
v -1.600000 -0.744156 5.200383
v 1.600000 -0.744156 5.200383
v -1.600000 0.684513 -5.030056
v 1.600000 0.684514 -5.030056
v -1.600000 -0.665891 -5.259498
v 1.600000 -0.665891 -5.259498
v 1.600000 0.643510 -0.289002
v -1.600000 0.643509 -0.289002
v -1.600000 -1.127266 -0.527140
v 1.600000 -1.127266 -0.527140
v 6.309572 -1.694360 5.464321
v 9.509126 -1.694360 5.517794
v 6.308418 -0.696121 5.533328
v 9.507973 -0.696121 5.586801
v 6.488641 -0.144989 -5.250432
v 9.688195 -0.144989 -5.196959
v 6.489795 -1.143227 -5.319439
v 9.689348 -1.143227 -5.265966
v 6.371467 -0.503316 1.760803
v 9.570344 0.082561 1.854776
v 9.572174 -1.501554 1.745268
v 6.372620 -1.501554 1.691796
v 9.620334 -1.354280 -1.136387
v 6.420779 -1.354280 -1.189860
v 6.418718 0.430192 -1.066502
v 9.618272 0.430192 -1.013029
v 9.588488 0.138046 0.769132
v 6.388933 0.138046 0.715659
v 6.390764 -1.446070 0.606152
v 9.590318 -1.446070 0.659624
v 9.508653 -1.285106 5.546085
v 6.309099 -1.285106 5.492612
v 6.372147 -1.092301 1.720087
v 6.390291 -1.036817 0.634443
v 6.420306 -0.945027 -1.161569
v 6.489321 -0.733974 -5.291148
v 9.688876 -0.733974 -5.237675
v 9.619861 -0.945027 -1.108096
v 9.589845 -1.036817 0.687915
v 9.571701 -1.092301 1.773559
v 6.465923 -0.805526 -3.891118
v 6.466397 -1.214779 -3.919409
v 9.665951 -1.214779 -3.865936
v 9.664570 -0.019292 -3.783294
v 9.663889 0.569692 -3.742578
v 6.464335 0.569692 -3.796051
v -5.519890 -2.680778 4.747007
v -2.697064 -2.253719 4.889153
v -5.764428 -1.081105 4.797202
v -2.941602 -0.654046 4.939347
v -4.932702 0.179371 -4.247636
v -2.361340 0.275890 -4.490287
v -5.090168 -1.536433 -4.714238
v -2.141711 -1.300447 -4.566210
v -5.734504 -0.664755 2.952063
v -2.911677 -0.237697 3.094209
v -2.661631 -1.873405 3.042883
v -5.484457 -2.300463 2.900738
v -5.406025 0.367487 -1.815916
v -2.655156 0.203433 -1.893568
v -2.408284 -1.476738 -1.958653
v -5.162709 -1.363230 -1.896576
v 2.695880 -0.593323 5.150721
v 5.890749 -0.593323 4.969584
v 2.691242 -0.204850 5.068918
v 5.886111 -0.054837 4.887781
v 2.692240 -0.233751 -5.456206
v 4.695477 -0.233751 -5.569782
v 2.696878 -1.231267 -5.374403
v 4.700115 -1.231267 -5.487978
v 5.456206 -0.056882 -2.694844
v 2.261337 -0.056882 -2.513707
v 2.265975 -1.054398 -2.431904
v 5.460844 -1.054398 -2.613040
v 2.550893 0.253668 2.593448
v 5.745762 0.253668 2.412311
v 5.750400 -0.743848 2.494114
v 2.555531 -0.743848 2.675251
v 2.381230 -0.220546 -4.486687
v 5.114079 -0.220546 -4.641629
v 5.118716 -1.173572 -4.559825
v 2.385868 -1.173572 -4.404883
vt 0.375000 0.000000
vt 0.625000 0.000000
vt 0.625000 0.250000
vt 0.375000 0.250000
vt 0.375000 0.500000
vt 0.625000 0.500000
vt 0.625000 0.750000
vt 0.375000 0.750000
vt 0.625000 1.000000
vt 0.375000 1.000000
vt 0.875000 0.000000
vt 0.875000 0.250000
vt 0.125000 0.000000
vt 0.125000 0.250000
vt 0.625000 0.250000
vt 0.375000 0.250000
vt 0.625000 0.500000
vt 0.375000 0.500000
vt 0.375000 0.000000
vt 0.625000 0.000000
vt 0.625000 0.250000
vt 0.375000 0.250000
vt 0.625000 0.386109
vt 0.375000 0.386109
vt 0.375000 0.500000
vt 0.625000 0.500000
vt 0.625000 0.750000
vt 0.375000 0.750000
vt 0.375000 0.863891
vt 0.625000 0.863891
vt 0.625000 1.000000
vt 0.375000 1.000000
vt 0.761109 0.000000
vt 0.761109 0.250000
vt 0.238891 0.000000
vt 0.238891 0.250000
vt 0.125000 0.000000
vt 0.125000 0.250000
vt 0.875000 0.000000
vt 0.875000 0.250000
vt 0.375000 0.000000
vt 0.625000 0.000000
vt 0.625000 0.102494
vt 0.375000 0.102494
vt 0.375000 0.404264
vt 0.625000 0.404264
vt 0.625000 0.467543
vt 0.375000 0.467543
vt 0.375000 0.647506
vt 0.625000 0.647506
vt 0.625000 0.750000
vt 0.375000 0.750000
vt 0.375000 0.782457
vt 0.625000 0.782457
vt 0.625000 0.845736
vt 0.375000 0.845736
vt 0.779264 0.102494
vt 0.779264 0.000000
vt 0.842543 0.000000
vt 0.842543 0.102494
vt 0.157457 0.000000
vt 0.220736 0.000000
vt 0.220736 0.102494
vt 0.157457 0.102494
vt 0.375000 0.250000
vt 0.625000 0.250000
vt 0.625000 0.337458
vt 0.375000 0.337458
vt 0.712458 0.000000
vt 0.712458 0.102494
vt 0.375000 0.912542
vt 0.625000 0.912542
vt 0.625000 1.000000
vt 0.375000 1.000000
vt 0.287542 0.102494
vt 0.287542 0.000000
vt 0.375000 0.887373
vt 0.625000 0.887373
vt 0.262373 0.102494
vt 0.262373 0.000000
vt 0.625000 0.362627
vt 0.375000 0.362627
vt 0.737627 0.000000
vt 0.737627 0.102494
vt 0.287542 0.250000
vt 0.262373 0.250000
vt 0.220736 0.250000
vt 0.157457 0.250000
vt 0.375000 0.500000
vt 0.625000 0.500000
vt 0.779264 0.250000
vt 0.842543 0.250000
vt 0.737627 0.250000
vt 0.712458 0.250000
vt 0.125000 0.000000
vt 0.125000 0.102494
vt 0.875000 0.000000
vt 0.875000 0.102494
vt 0.875000 0.250000
vt 0.125000 0.250000
vt 0.375000 0.000000
vt 0.625000 0.000000
vt 0.625000 0.250000
vt 0.375000 0.250000
vt 0.375000 0.428123
vt 0.625000 0.428123
vt 0.625000 0.500000
vt 0.375000 0.500000
vt 0.625000 0.750000
vt 0.375000 0.750000
vt 0.625000 0.821877
vt 0.375000 0.821877
vt 0.803123 0.000000
vt 0.875000 0.000000
vt 0.875000 0.250000
vt 0.803123 0.250000
vt 0.125000 0.000000
vt 0.196877 0.000000
vt 0.196877 0.250000
vt 0.125000 0.250000
vt 0.625000 0.297666
vt 0.375000 0.297666
vt 0.672666 0.000000
vt 0.672666 0.250000
vt 0.375000 0.952334
vt 0.625000 0.952334
vt 0.625000 1.000000
vt 0.375000 1.000000
vt 0.327334 0.250000
vt 0.327334 0.000000
vt 0.375000 0.000000
vt 0.625000 0.000000
vt 0.625000 0.250000
vt 0.375000 0.250000
vt 0.375000 0.308988
vt 0.625000 0.308988
vt 0.625000 0.430688
vt 0.375000 0.430688
vt 0.375000 0.500000
vt 0.625000 0.500000
vt 0.625000 0.750000
vt 0.375000 0.750000
vt 0.375000 0.819312
vt 0.625000 0.819312
vt 0.625000 0.941012
vt 0.375000 0.941012
vt 0.683988 0.000000
vt 0.805688 0.000000
vt 0.805688 0.250000
vt 0.683988 0.250000
vt 0.194312 0.000000
vt 0.316012 0.000000
vt 0.316012 0.250000
vt 0.194312 0.250000
vt 0.375000 0.477390
vt 0.625000 0.477390
vt 0.125000 0.000000
vt 0.147610 0.000000
vt 0.147610 0.250000
vt 0.125000 0.250000
vt 0.625000 0.772610
vt 0.375000 0.772610
vt 0.852390 0.250000
vt 0.852390 0.000000
vt 0.875000 0.000000
vt 0.875000 0.250000
vt 0.625000 1.000000
vt 0.375000 1.000000
vn -0.008892 -0.078143 0.996903
vn -0.008892 -0.078143 0.996903
vn -0.008892 -0.078143 0.996903
vn -0.008892 -0.078143 0.996903
vn 0.008892 0.078143 -0.996903
vn 0.008892 0.078143 -0.996903
vn 0.008892 0.078143 -0.996903
vn 0.008892 0.078143 -0.996903
vn -0.139923 -0.988956 -0.048857
vn -0.139923 -0.988956 -0.048857
vn -0.139923 -0.988956 -0.048857
vn -0.139923 -0.988956 -0.048857
vn 0.990151 -0.139986 -0.002141
vn 0.990151 -0.139986 -0.002141
vn 0.990151 -0.139986 -0.002141
vn 0.990151 -0.139986 -0.002141
vn -0.990151 0.139986 0.002141
vn -0.990151 0.139986 0.002141
vn -0.990151 0.139986 0.002141
vn -0.990151 0.139986 0.002141
vn 0.126820 0.890339 0.437280
vn 0.126821 0.890339 0.437280
vn 0.139923 0.988956 0.048857
vn 0.139923 0.988956 0.048857
vn 0.972663 0.230889 0.024843
vn 0.972663 0.230889 0.024843
vn 0.139923 0.988956 0.048857
vn 0.139923 0.988956 0.048857
vn 0.132830 0.944143 -0.301578
vn 0.132830 0.944143 -0.301578
vn 0.139923 0.988956 0.048857
vn 0.139923 0.988956 0.048857
vn -0.998735 0.050285 -0.000313
vn -0.998735 0.050285 -0.000313
vn 0.139923 0.988956 0.048857
vn 0.139923 0.988956 0.048857
vn 0.139786 0.989354 -0.040487
vn 0.139786 0.989354 -0.040487
vn 0.139786 0.989354 -0.040487
vn 0.139786 0.989354 -0.040487
vn 0.000000 -0.130775 0.991412
vn 0.000000 -0.130775 0.991412
vn 0.000000 -0.130775 0.991412
vn 0.000000 -0.130775 0.991412
vn 0.000000 0.995281 0.097034
vn 0.000000 0.995281 0.097034
vn -0.000000 0.990389 0.138307
vn -0.000000 0.990389 0.138307
vn 0.000000 0.130775 -0.991412
vn 0.000000 0.130775 -0.991412
vn 0.000000 0.130775 -0.991412
vn 0.000000 0.130775 -0.991412
vn 0.000000 -0.995281 -0.097034
vn 0.000000 -0.995281 -0.097034
vn 0.000000 -0.995281 -0.097034
vn 0.000000 -0.995281 -0.097034
vn 1.000000 0.000000 0.000000
vn 1.000000 0.000000 0.000000
vn 1.000000 0.000000 0.000000
vn 1.000000 0.000000 0.000000
vn -1.000000 0.000000 0.000000
vn -1.000000 0.000000 0.000000
vn -1.000000 0.000000 0.000000
vn -1.000000 0.000000 0.000000
vn 0.000000 0.995281 0.097034
vn 0.000000 0.995281 0.097034
vn -1.000000 0.000000 0.000000
vn -1.000000 0.000000 0.000000
vn 0.000000 -0.995281 -0.097034
vn 0.000000 -0.995281 -0.097034
vn 1.000000 0.000000 0.000000
vn 1.000000 0.000000 0.000000
vn -0.016670 -0.068974 0.997479
vn -0.016670 -0.068974 0.997479
vn -0.016670 -0.068974 0.997479
vn -0.016670 -0.068974 0.997479
vn -0.001591 0.995456 0.095211
vn -0.001591 0.995456 0.095211
vn 0.002275 0.990685 -0.136155
vn 0.002275 0.990685 -0.136155
vn 0.016670 0.068974 -0.997479
vn 0.016670 0.068974 -0.997479
vn 0.016670 0.068974 -0.997479
vn 0.016670 0.068974 -0.997479
vn 0.000853 -0.998697 -0.051027
vn 0.000853 -0.998697 -0.051027
vn 0.000853 -0.998697 -0.051027
vn 0.000853 -0.998697 -0.051027
vn 0.999860 -0.000000 0.016710
vn 0.999860 0.000000 0.016710
vn 0.999860 -0.000000 0.016710
vn 0.999860 -0.000000 0.016710
vn -0.999860 -0.000002 -0.016710
vn -0.999860 -0.000000 -0.016710
vn -0.999860 0.000000 -0.016710
vn -0.999860 -0.000000 -0.016710
vn -0.000853 0.998697 0.051027
vn -0.000853 0.998697 0.051027
vn -0.093733 0.981186 0.168783
vn -0.093717 0.981552 0.166654
vn 0.999860 0.000000 0.016710
vn 0.999860 -0.000000 0.016710
vn 0.999860 -0.000001 0.016710
vn 0.999860 -0.000001 0.016710
vn 0.000853 -0.998697 -0.051027
vn 0.000853 -0.998697 -0.051027
vn 0.000853 -0.998697 -0.051027
vn 0.000853 -0.998697 -0.051027
vn -0.999860 -0.000000 -0.016710
vn -0.999860 -0.000002 -0.016710
vn -0.999860 0.000000 -0.016710
vn -0.999860 -0.000000 -0.016710
vn 0.000853 -0.998697 -0.051027
vn 0.000853 -0.998697 -0.051027
vn -0.999860 -0.000000 -0.016710
vn -0.999860 0.000000 -0.016710
vn -0.037811 0.975057 0.218711
vn -0.037811 0.975057 0.218711
vn 0.999860 0.000001 0.016710
vn 0.999860 -0.000001 0.016710
vn -0.016670 -0.068974 0.997479
vn -0.016670 -0.068974 0.997479
vn -0.999860 0.000001 -0.016710
vn -0.999860 0.000000 -0.016710
vn -0.999860 -0.000000 -0.016710
vn -0.999860 0.000000 -0.016710
vn -0.999860 0.000001 -0.016710
vn 0.016670 0.068974 -0.997479
vn 0.016670 0.068974 -0.997479
vn 0.999860 -0.000000 0.016710
vn 0.999860 0.000000 0.016710
vn 0.999860 -0.000001 0.016710
vn 0.999860 -0.000001 0.016710
vn 0.999860 0.000000 0.016710
vn -0.999860 0.000000 -0.016710
vn -0.999860 -0.000000 -0.016710
vn 0.000853 -0.998697 -0.051027
vn 0.000853 -0.998697 -0.051027
vn 0.999860 0.000000 0.016710
vn 0.999860 -0.000001 0.016710
vn 0.999860 0.000000 0.016710
vn -0.000853 0.998697 0.051027
vn -0.000853 0.998697 0.051027
vn -0.999860 0.000000 -0.016710
vn -0.044501 -0.038127 0.998282
vn -0.044501 -0.038127 0.998282
vn -0.044501 -0.038127 0.998282
vn -0.044501 -0.038127 0.998282
vn -0.031586 0.994545 0.099414
vn -0.027221 0.995821 0.087171
vn -0.151040 0.988041 0.031003
vn -0.151040 0.988041 0.031003
vn 0.044501 0.038127 -0.998282
vn 0.044501 0.038127 -0.998282
vn 0.044501 0.038127 -0.998282
vn 0.044501 0.038127 -0.998282
vn 0.151040 -0.988041 -0.031003
vn 0.151040 -0.988041 -0.031003
vn 0.043660 -0.995808 -0.080377
vn 0.045343 -0.995215 -0.086552
vn 0.986604 0.142602 0.079223
vn 0.987526 0.149400 0.049728
vn 0.987526 0.149400 0.049728
vn 0.986582 0.142519 0.079654
vn -0.987526 -0.149400 -0.049728
vn -0.990626 -0.094587 -0.098559
vn -0.990681 -0.093970 -0.098592
vn -0.987526 -0.149400 -0.049728
vn -0.151040 0.988041 0.031003
vn -0.151040 0.988041 0.031003
vn -0.078809 0.982998 0.165845
vn -0.079716 0.982827 0.166424
vn 0.987526 0.149400 0.049728
vn 0.987409 0.146825 0.058868
vn 0.987397 0.146626 0.059574
vn 0.987526 0.149400 0.049728
vn 0.085958 -0.984911 -0.150203
vn 0.085222 -0.985049 -0.149716
vn 0.151040 -0.988041 -0.031003
vn 0.151040 -0.988041 -0.031003
vn -0.986075 -0.142669 -0.085455
vn -0.986295 -0.143409 -0.081581
vn -0.987526 -0.149400 -0.049728
vn -0.987526 -0.149400 -0.049728
vn 0.056415 0.081863 0.995046
vn 0.056415 0.081863 0.995046
vn 0.056415 0.081863 0.995046
vn 0.056415 0.081863 0.995046
vn -0.007096 0.999925 0.010024
vn -0.007096 0.999925 0.010024
vn -0.003746 0.997808 -0.066075
vn -0.003746 0.997808 -0.066075
vn -0.056415 -0.081863 -0.995046
vn -0.056415 -0.081863 -0.995046
vn -0.056415 -0.081863 -0.995046
vn -0.056415 -0.081863 -0.995046
vn 0.003430 -0.998162 0.060500
vn 0.003430 -0.998162 0.060500
vn 0.003430 -0.998162 0.060500
vn 0.003430 -0.998162 0.060500
vn 0.998397 -0.000000 -0.056605
vn 0.996128 -0.002634 -0.087876
vn 0.996046 -0.002711 -0.088797
vn 0.998397 -0.000000 -0.056605
vn -0.999677 -0.002634 0.025279
vn -0.998397 -0.000000 0.056605
vn -0.998397 -0.000000 0.056605
vn -0.999700 -0.002711 0.024354
vn -0.003860 0.997672 -0.068081
vn -0.003860 0.997672 -0.068081
vn -0.003430 0.998162 -0.060500
vn -0.003430 0.998162 -0.060500
vn -0.998397 0.000000 0.056605
vn -0.989700 -0.016633 -0.142187
vn -0.989092 -0.016976 -0.146316
vn -0.998397 0.000000 0.056605
vn 0.003430 -0.998162 0.060500
vn 0.003430 -0.998162 0.060500
vn 0.003430 -0.998162 0.060500
vn 0.003430 -0.998162 0.060500
vn 0.966216 -0.016976 -0.257174
vn 0.967287 -0.016633 -0.253140
vn 0.998397 0.000000 -0.056605
vn 0.998397 0.000000 -0.056605
vn -0.003430 0.998162 -0.060500
vn -0.003430 0.998162 -0.060500
vn 0.998397 0.000000 -0.056605
vn 0.998397 0.000000 -0.056605
vn 0.003430 -0.998162 0.060500
vn 0.003430 -0.998162 0.060500
vn -0.998397 0.000000 0.056605
vn -0.998397 0.000000 0.056605
s off
g example_road:example_road:polySurface9
usemtl example_road:initialShadingGroup
f 1/1/1 2/2/2 4/3/3 3/4/4
f 5/5/5 6/6/6 8/7/7 7/8/8
f 7/8/9 8/7/10 2/9/11 1/10/12
f 2/2/13 8/11/14 6/12/15 4/3/16
f 7/13/17 1/1/18 3/4/19 5/14/20
f 3/4/21 4/3/22 9/15/23 10/16/24
f 4/3/25 6/6/26 11/17/27 9/15/28
f 6/6/29 5/5/30 12/18/31 11/17/32
f 5/5/33 3/4/34 10/16/35 12/18/36
f 10/16/37 9/15/38 11/17/39 12/18/40
f 13/19/41 14/20/42 16/21/43 15/22/44
s 1
f 15/22/45 16/21/46 21/23/47 22/24/48
s off
f 17/25/49 18/26/50 20/27/51 19/28/52
s 2
f 23/29/53 24/30/54 14/31/55 13/32/56
s 3
f 14/20/57 24/33/58 21/34/59 16/21/60
s 4
f 23/35/61 13/19/62 15/22/63 22/36/64
s 1
f 22/24/48 21/23/47 18/26/65 17/25/66
s 4
f 19/37/67 23/35/61 22/36/64 17/38/68
s 2
f 19/28/69 20/27/70 24/30/54 23/29/53
s 3
f 21/34/59 24/33/58 20/39/71 18/40/72
s 5
f 25/41/73 26/42/74 45/43/75 46/44/76
s 6
f 39/45/77 40/46/78 59/47/79 60/48/80
s 7
f 50/49/81 51/50/82 32/51/83 31/52/84
s 8
f 56/53/85 57/54/86 37/55/87 38/56/88
s 9
f 52/57/89 37/58/90 57/59/91 58/60/92
s 10
f 56/61/93 38/62/94 49/63/95 55/64/96
s 6
f 27/65/97 28/66/98 34/67/99 33/68/100
s 9
f 26/42/101 35/69/102 54/70/103 45/43/104
s 8
f 36/71/105 35/72/106 26/73/107 25/74/108
s 10
f 47/75/109 36/76/110 25/41/111 46/44/112
s 8
f 43/77/113 44/78/114 35/72/106 36/71/105
s 10
f 48/79/115 43/80/116 36/76/110 47/75/109
s 6
f 33/68/100 34/67/99 41/81/117 42/82/118
s 9
f 35/69/102 44/83/119 53/84/120 54/70/103
s 6
f 42/82/118 41/81/117 40/46/78 39/45/77
s 10
f 49/63/95 38/62/94 43/80/116 48/79/115
s 8
f 38/56/88 37/55/87 44/78/114 43/77/113
s 9
f 53/84/120 44/83/119 37/58/90 52/57/89
s 5
f 46/44/76 45/43/75 28/66/121 27/65/122
s 10
f 33/85/123 47/75/109 46/44/112 27/65/124
f 42/86/125 48/79/115 47/75/109 33/85/123
f 39/87/126 49/63/95 48/79/115 42/86/125
f 60/88/127 55/64/96 49/63/95 39/87/126
s 7
f 29/89/128 30/90/129 51/50/82 50/49/81
s 9
f 40/91/130 52/57/89 58/60/92 59/92/131
f 41/93/132 53/84/120 52/57/89 40/91/130
f 54/70/103 53/84/120 41/93/132 34/94/133
f 45/43/104 54/70/103 34/94/133 28/66/134
s 10
f 31/95/135 56/61/93 55/64/96 50/96/136
s 8
f 31/52/137 32/51/138 57/54/86 56/53/85
s 9
f 58/60/92 57/59/91 32/97/139 51/98/140
f 59/92/131 58/60/92 51/98/140 30/99/141
s 6
f 60/48/80 59/47/79 30/90/142 29/89/143
s 10
f 50/96/136 55/64/96 60/88/127 29/100/144
s off
f 61/101/145 62/102/146 64/103/147 63/104/148
s 15
f 73/105/149 74/106/150 66/107/151 65/108/152
s off
f 65/108/153 66/107/154 68/109/155 67/110/156
s 16
f 67/110/157 68/109/158 75/111/159 76/112/160
s 17
f 75/113/161 68/114/162 66/115/163 74/116/164
s 18
f 67/117/165 76/118/166 73/119/167 65/120/168
s 15
f 63/104/169 64/103/170 70/121/171 69/122/172
s 17
f 62/102/173 71/123/174 70/124/175 64/103/176
s 16
f 72/125/177 71/126/178 62/127/179 61/128/180
s 18
f 69/129/181 72/130/182 61/101/183 63/104/184
s 15
f 69/122/172 70/121/171 74/106/150 73/105/149
s 17
f 71/123/174 75/113/161 74/116/164 70/124/175
s 16
f 76/112/160 75/111/159 71/126/178 72/125/177
s 18
f 73/119/167 76/118/166 72/130/182 69/129/181
s off
f 77/131/185 78/132/186 80/133/187 79/134/188
s 19
f 89/135/189 90/136/190 85/137/191 86/138/192
s off
f 81/139/193 82/140/194 84/141/195 83/142/196
s 20
f 87/143/197 88/144/198 91/145/199 92/146/200
s 21
f 91/147/201 88/148/202 85/149/203 90/150/204
s 22
f 87/151/205 92/152/206 89/153/207 86/154/208
s 19
f 93/155/209 94/156/210 82/140/211 81/139/212
s 22
f 83/157/213 96/158/214 93/159/215 81/160/216
s 20
f 83/142/217 84/141/218 95/161/219 96/162/220
s 21
f 94/163/221 95/164/222 84/165/223 82/166/224
s 19
f 79/134/225 80/133/226 90/136/190 89/135/189
s 21
f 78/132/227 91/147/201 90/150/204 80/133/228
s 20
f 92/146/200 91/145/199 78/167/229 77/168/230
s 22
f 89/153/207 92/152/206 77/131/231 79/134/232
s 19
f 86/138/192 85/137/191 94/156/210 93/155/209
s 21
f 85/149/203 88/148/202 95/164/222 94/163/221
s 20
f 96/162/220 95/161/219 88/144/198 87/143/197
s 22
f 93/159/215 96/158/214 87/151/205 86/154/208
