# This file uses centimeters as units for non-parametric coordinates.

mtllib road01.mtl
g default
v 0.776673 -2.271433 7.632390
v 6.296304 -2.271433 7.351410
v 0.776673 0.328567 7.632390
v 6.296304 0.328567 7.351410
v 0.203696 0.328567 -7.353033
v 5.723326 0.328567 -7.634013
v 0.203696 -2.271433 -7.353033
v 5.723326 -2.271433 -7.634013
vt 0.375000 0.000000
vt 0.625000 0.000000
vt 0.625000 0.250000
vt 0.375000 0.250000
vt 0.625000 0.500000
vt 0.375000 0.500000
vt 0.625000 0.750000
vt 0.375000 0.750000
vt 0.625000 1.000000
vt 0.375000 1.000000
vt 0.875000 0.000000
vt 0.875000 0.250000
vt 0.125000 0.000000
vt 0.125000 0.250000
vn 0.050839 0.000000 0.998707
vn 0.050839 0.000000 0.998707
vn 0.050839 0.000000 0.998707
vn 0.050839 0.000000 0.998707
vn 0.000000 1.000000 0.000000
vn 0.000000 1.000000 0.000000
vn 0.000000 1.000000 0.000000
vn 0.000000 1.000000 0.000000
vn -0.050839 0.000000 -0.998707
vn -0.050839 0.000000 -0.998707
vn -0.050839 0.000000 -0.998707
vn -0.050839 0.000000 -0.998707
vn 0.000000 -1.000000 0.000000
vn 0.000000 -1.000000 0.000000
vn 0.000000 -1.000000 0.000000
vn 0.000000 -1.000000 0.000000
vn 0.999270 0.000000 -0.038208
vn 0.999270 0.000000 -0.038208
vn 0.999270 0.000000 -0.038208
vn 0.999270 0.000000 -0.038208
vn -0.999270 0.000000 0.038208
vn -0.999270 0.000000 0.038208
vn -0.999270 0.000000 0.038208
vn -0.999270 0.000000 0.038208
s off
g polySurface2 road04:pCube32
usemtl road04:initialShadingGroup
f 1/1/1 2/2/2 4/3/3 3/4/4
f 3/4/5 4/3/6 6/5/7 5/6/8
f 5/6/9 6/5/10 8/7/11 7/8/12
f 7/8/13 8/7/14 2/9/15 1/10/16
f 2/2/17 8/11/18 6/12/19 4/3/20
f 7/13/21 1/1/22 3/4/23 5/14/24
g default
v -6.012500 -1.865113 7.231210
v -0.487500 -1.865113 7.231210
v -6.012500 0.734887 7.231210
v -0.487500 0.734887 7.231210
v -6.012500 0.734887 -6.277418
v -0.487500 0.734887 -6.277418
v -6.012500 -1.865113 -6.277418
v -0.487500 -1.865113 -6.277418
vt 0.375000 0.000000
vt 0.625000 0.000000
vt 0.625000 0.250000
vt 0.375000 0.250000
vt 0.625000 0.500000
vt 0.375000 0.500000
vt 0.625000 0.750000
vt 0.375000 0.750000
vt 0.625000 1.000000
vt 0.375000 1.000000
vt 0.875000 0.000000
vt 0.875000 0.250000
vt 0.125000 0.000000
vt 0.125000 0.250000
vn 0.000000 0.000000 1.000000
vn 0.000000 0.000000 1.000000
vn 0.000000 0.000000 1.000000
vn 0.000000 0.000000 1.000000
vn 0.000000 1.000000 0.000000
vn 0.000000 1.000000 0.000000
vn 0.000000 1.000000 0.000000
vn 0.000000 1.000000 0.000000
vn 0.000000 0.000000 -1.000000
vn 0.000000 0.000000 -1.000000
vn 0.000000 0.000000 -1.000000
vn 0.000000 0.000000 -1.000000
vn 0.000000 -1.000000 0.000000
vn 0.000000 -1.000000 0.000000
vn 0.000000 -1.000000 0.000000
vn 0.000000 -1.000000 0.000000
vn 1.000000 0.000000 0.000000
vn 1.000000 0.000000 0.000000
vn 1.000000 0.000000 0.000000
vn 1.000000 0.000000 0.000000
vn -1.000000 0.000000 0.000000
vn -1.000000 0.000000 0.000000
vn -1.000000 0.000000 0.000000
vn -1.000000 0.000000 0.000000
s off
g road04:pCube32 polySurface1
usemtl road04:initialShadingGroup
f 9/15/25 10/16/26 12/17/27 11/18/28
f 11/18/29 12/17/30 14/19/31 13/20/32
f 13/20/33 14/19/34 16/21/35 15/22/36
f 15/22/37 16/21/38 10/23/39 9/24/40
f 10/16/41 16/25/42 14/26/43 12/17/44
f 15/27/45 9/15/46 11/18/47 13/28/48
