# This file uses centimeters as units for non-parametric coordinates.

mtllib road04.mtl
g default
v 0.458590 -1.771124 7.380474
v 5.983590 -1.771124 7.380474
v 0.458590 0.828876 7.380474
v 5.983590 0.828876 7.380474
v 0.458590 0.828876 3.352432
v 5.983590 0.828876 3.352432
v 0.458590 -1.771124 3.352432
v 5.983590 -1.771124 3.352432
v -6.041410 -1.857741 -0.790044
v -0.516410 -1.857741 -0.790044
v -6.041410 0.742260 -0.790044
v -0.516410 0.742260 -0.790044
v -6.041410 0.742260 -7.187972
v -0.516410 0.742260 -7.187972
v -6.041410 -1.857741 -7.187972
v -0.516410 -1.857741 -7.187972
v 0.811905 -1.322927 3.909283
v 6.336905 -1.322927 3.909283
v 0.811905 1.277073 3.909283
v 6.336905 1.277073 3.909283
v 0.811905 1.277073 -3.325988
v 6.336905 1.277073 -3.325988
v 0.811905 -1.322927 -3.325988
v 6.336905 -1.322927 -3.325988
v 0.281531 -1.202429 -3.915548
v 4.724102 -1.202429 -3.915548
v 0.281531 1.397571 -3.915548
v 4.724102 1.397571 -3.915548
v 0.281531 1.397571 -8.547065
v 4.724102 1.397571 -8.547065
v 0.281531 -1.202429 -8.547065
v 4.724102 -1.202429 -8.547065
v -6.144173 -2.005409 6.608387
v -0.623115 -2.024161 6.848238
v -6.144173 0.584075 6.877929
v -0.623115 0.565323 7.117782
v -5.934705 1.081914 0.510426
v -0.413648 1.063161 0.750279
v -5.934705 -1.507571 0.240882
v -0.413648 -1.526324 0.480735
vt 0.097241 0.659501
vt 0.097241 0.472005
vt 0.185474 0.472005
vt 0.185474 0.659501
vt 0.192466 0.659501
vt 0.192466 0.472005
vt 0.329161 0.472005
vt 0.329161 0.659501
vt 0.336201 0.659501
vt 0.336201 0.472005
vt 0.424434 0.472005
vt 0.424434 0.659501
vt 0.431426 0.666608
vt 0.431426 0.479112
vt 0.568121 0.479112
vt 0.568121 0.666608
vt 0.097241 0.983940
vt 0.097241 0.847246
vt 0.185474 0.847246
vt 0.185474 0.983940
vt 0.192466 0.960729
vt 0.192466 0.824034
vt 0.280699 0.824034
vt 0.280699 0.960729
vt 0.575162 0.666608
vt 0.575162 0.479112
vt 0.663395 0.479112
vt 0.663395 0.666608
vt 0.332293 0.251207
vt 0.519789 0.251207
vt 0.519789 0.468325
vt 0.332293 0.468325
vt 0.670386 0.666608
vt 0.670386 0.479112
vt 0.758619 0.479112
vt 0.758619 0.666608
vt 0.139142 0.251207
vt 0.326637 0.251207
vt 0.326637 0.468325
vt 0.139142 0.468325
vt 0.045253 0.468325
vt 0.045253 0.251206
vt 0.133486 0.251206
vt 0.133486 0.468325
vt 0.001836 0.689124
vt 0.001836 0.472005
vt 0.090070 0.472005
vt 0.090070 0.689124
vt 0.765611 0.646306
vt 0.765611 0.458811
vt 0.853844 0.458811
vt 0.853844 0.646306
vt 0.001836 0.001992
vt 0.189332 0.001992
vt 0.189332 0.247527
vt 0.001836 0.247527
vt 0.831807 0.837481
vt 0.831807 0.649986
vt 0.920041 0.649986
vt 0.920041 0.837481
vt 0.196059 0.001992
vt 0.383554 0.001992
vt 0.383554 0.247527
vt 0.196059 0.247527
vt 0.390102 0.247527
vt 0.390102 0.001992
vt 0.478335 0.001992
vt 0.478335 0.247527
vt 0.485327 0.247527
vt 0.485327 0.001992
vt 0.573560 0.001992
vt 0.573560 0.247527
vt 0.048966 0.843566
vt 0.048966 0.692804
vt 0.137199 0.692804
vt 0.137199 0.843566
vt 0.487052 0.670287
vt 0.637814 0.670287
vt 0.637814 0.827462
vt 0.487052 0.827462
vt 0.001836 0.998008
vt 0.001836 0.847246
vt 0.090070 0.847246
vt 0.090070 0.998008
vt 0.330634 0.670287
vt 0.481396 0.670287
vt 0.481396 0.827462
vt 0.330634 0.827462
vt 0.236745 0.820354
vt 0.236745 0.663180
vt 0.324978 0.663180
vt 0.324978 0.820354
vt 0.142855 0.820354
vt 0.142855 0.663180
vt 0.231088 0.663180
vt 0.231088 0.820354
vt 0.738275 0.857649
vt 0.737639 0.670287
vt 0.825515 0.670287
vt 0.826152 0.857649
vt 0.725571 0.239045
vt 0.912932 0.230905
vt 0.920041 0.446992
vt 0.732679 0.455131
vt 0.643470 0.857649
vt 0.644107 0.670287
vt 0.731983 0.670287
vt 0.731347 0.857649
vt 0.532553 0.251207
vt 0.719915 0.259346
vt 0.712806 0.475433
vt 0.525444 0.467293
vt 0.580552 0.218078
vt 0.597446 0.001992
vt 0.685322 0.011139
vt 0.668428 0.227226
vt 0.708841 0.227226
vt 0.691947 0.011139
vt 0.779823 0.001992
vt 0.796717 0.218079
vn 0.000000 0.000000 1.000000
vn 0.000000 0.000000 1.000000
vn 0.000000 0.000000 1.000000
vn 0.000000 0.000000 1.000000
vn 0.000000 1.000000 0.000000
vn 0.000000 1.000000 0.000000
vn 0.000000 1.000000 0.000000
vn 0.000000 1.000000 0.000000
vn 0.000000 0.000000 -1.000000
vn 0.000000 0.000000 -1.000000
vn 0.000000 0.000000 -1.000000
vn 0.000000 0.000000 -1.000000
vn 0.000000 -1.000000 0.000000
vn 0.000000 -1.000000 0.000000
vn 0.000000 -1.000000 0.000000
vn 0.000000 -1.000000 0.000000
vn 1.000000 0.000000 0.000000
vn 1.000000 0.000000 0.000000
vn 1.000000 0.000000 0.000000
vn 1.000000 0.000000 0.000000
vn -1.000000 0.000000 0.000000
vn -1.000000 0.000000 0.000000
vn -1.000000 0.000000 0.000000
vn -1.000000 0.000000 0.000000
vn 0.000000 0.000000 1.000000
vn 0.000000 0.000000 1.000000
vn 0.000000 0.000000 1.000000
vn 0.000000 0.000000 1.000000
vn 0.000000 1.000000 0.000000
vn 0.000000 1.000000 0.000000
vn 0.000000 1.000000 0.000000
vn 0.000000 1.000000 0.000000
vn 0.000000 0.000000 -1.000000
vn 0.000000 0.000000 -1.000000
vn 0.000000 0.000000 -1.000000
vn 0.000000 0.000000 -1.000000
vn 0.000000 -1.000000 0.000000
vn 0.000000 -1.000000 0.000000
vn 0.000000 -1.000000 0.000000
vn 0.000000 -1.000000 0.000000
vn 1.000000 0.000000 0.000000
vn 1.000000 0.000000 0.000000
vn 1.000000 0.000000 0.000000
vn 1.000000 0.000000 0.000000
vn -1.000000 0.000000 0.000000
vn -1.000000 0.000000 0.000000
vn -1.000000 0.000000 0.000000
vn -1.000000 0.000000 0.000000
vn 0.000000 0.000000 1.000000
vn 0.000000 0.000000 1.000000
vn 0.000000 0.000000 1.000000
vn 0.000000 0.000000 1.000000
vn 0.000000 1.000000 0.000000
vn 0.000000 1.000000 0.000000
vn 0.000000 1.000000 0.000000
vn 0.000000 1.000000 0.000000
vn 0.000000 0.000000 -1.000000
vn 0.000000 0.000000 -1.000000
vn 0.000000 0.000000 -1.000000
vn 0.000000 0.000000 -1.000000
vn 0.000000 -1.000000 0.000000
vn 0.000000 -1.000000 0.000000
vn 0.000000 -1.000000 0.000000
vn 0.000000 -1.000000 0.000000
vn 1.000000 0.000000 0.000000
vn 1.000000 0.000000 0.000000
vn 1.000000 0.000000 0.000000
vn 1.000000 0.000000 0.000000
vn -1.000000 0.000000 0.000000
vn -1.000000 0.000000 0.000000
vn -1.000000 0.000000 0.000000
vn -1.000000 0.000000 0.000000
vn 0.000000 0.000000 1.000000
vn 0.000000 0.000000 1.000000
vn 0.000000 0.000000 1.000000
vn 0.000000 0.000000 1.000000
vn 0.000000 1.000000 0.000000
vn 0.000000 1.000000 0.000000
vn 0.000000 1.000000 0.000000
vn 0.000000 1.000000 0.000000
vn 0.000000 0.000000 -1.000000
vn 0.000000 0.000000 -1.000000
vn 0.000000 0.000000 -1.000000
vn 0.000000 0.000000 -1.000000
vn 0.000000 -1.000000 0.000000
vn 0.000000 -1.000000 0.000000
vn 0.000000 -1.000000 0.000000
vn 0.000000 -1.000000 0.000000
vn 1.000000 0.000000 0.000000
vn 1.000000 0.000000 0.000000
vn 1.000000 0.000000 0.000000
vn 1.000000 0.000000 0.000000
vn -1.000000 0.000000 0.000000
vn -1.000000 0.000000 0.000000
vn -1.000000 0.000000 0.000000
vn -1.000000 0.000000 0.000000
vn -0.043520 -0.103434 0.993684
vn -0.043520 -0.103434 0.993684
vn -0.043520 -0.103434 0.993684
vn -0.043520 -0.103434 0.993684
vn 0.000000 0.996958 0.077947
vn 0.000000 0.996958 0.077947
vn 0.000000 0.996958 0.077947
vn 0.000000 0.996958 0.077947
vn 0.043520 0.103434 -0.993684
vn 0.043520 0.103434 -0.993684
vn 0.043520 0.103434 -0.993684
vn 0.043520 0.103434 -0.993684
vn 0.000000 -0.996958 -0.077947
vn 0.000000 -0.996958 -0.077947
vn 0.000000 -0.996958 -0.077947
vn 0.000000 -0.996958 -0.077947
vn 0.999462 -0.003395 0.032613
vn 0.999462 -0.003395 0.032613
vn 0.999462 -0.003395 0.032613
vn 0.999462 -0.003395 0.032613
vn -0.999462 0.003396 -0.032613
vn -0.999462 0.003396 -0.032613
vn -0.999462 0.003396 -0.032613
vn -0.999462 0.003396 -0.032613
s 1
g road06:polySurface5
usemtl initialShadingGroup
f 1/1/1 2/2/2 3/4/3
f 3/4/3 2/2/2 4/3/4
s 2
f 3/5/5 4/6/6 5/8/7
f 5/8/7 4/6/6 6/7/8
s 3
f 5/9/9 6/10/10 7/12/11
f 7/12/11 6/10/10 8/11/12
s 4
f 7/13/13 8/14/14 1/16/15
f 1/16/15 8/14/14 2/15/16
s 5
f 2/17/17 8/18/18 4/20/19
f 4/20/19 8/18/18 6/19/20
s 6
f 7/21/21 1/22/22 5/24/23
f 5/24/23 1/22/22 3/23/24
s 7
f 9/25/25 10/26/26 11/28/27
f 11/28/27 10/26/26 12/27/28
s 8
f 11/29/29 12/30/30 13/32/31
f 13/32/31 12/30/30 14/31/32
s 9
f 13/33/33 14/34/34 15/36/35
f 15/36/35 14/34/34 16/35/36
s 10
f 15/37/37 16/38/38 9/40/39
f 9/40/39 16/38/38 10/39/40
s 11
f 10/41/41 16/42/42 12/44/43
f 12/44/43 16/42/42 14/43/44
s 12
f 15/45/45 9/46/46 13/48/47
f 13/48/47 9/46/46 11/47/48
s 13
f 17/49/49 18/50/50 19/52/51
f 19/52/51 18/50/50 20/51/52
s 14
f 19/53/53 20/54/54 21/56/55
f 21/56/55 20/54/54 22/55/56
s 15
f 21/57/57 22/58/58 23/60/59
f 23/60/59 22/58/58 24/59/60
s 16
f 23/61/61 24/62/62 17/64/63
f 17/64/63 24/62/62 18/63/64
s 17
f 18/65/65 24/66/66 20/68/67
f 20/68/67 24/66/66 22/67/68
s 18
f 23/69/69 17/70/70 21/72/71
f 21/72/71 17/70/70 19/71/72
s 19
f 25/73/73 26/74/74 27/76/75
f 27/76/75 26/74/74 28/75/76
s 20
f 27/77/77 28/78/78 29/80/79
f 29/80/79 28/78/78 30/79/80
s 21
f 29/81/81 30/82/82 31/84/83
f 31/84/83 30/82/82 32/83/84
s 22
f 31/85/85 32/86/86 25/88/87
f 25/88/87 32/86/86 26/87/88
s 23
f 26/89/89 32/90/90 28/92/91
f 28/92/91 32/90/90 30/91/92
s 24
f 31/93/93 25/94/94 29/96/95
f 29/96/95 25/94/94 27/95/96
s 25
f 33/97/97 34/98/98 35/100/99
f 35/100/99 34/98/98 36/99/100
s 26
f 36/102/101 38/103/102 35/101/103
f 35/101/103 38/103/102 37/104/104
s 27
f 38/106/105 40/107/106 37/105/107
f 37/105/107 40/107/106 39/108/108
s 28
f 39/109/109 40/110/110 33/112/111
f 33/112/111 40/110/110 34/111/112
s 29
f 40/114/113 38/115/114 34/113/115
f 34/113/115 38/115/114 36/116/116
s 30
f 39/117/117 33/118/118 37/120/119
f 37/120/119 33/118/118 35/119/120
g default
v 0.458590 -1.771124 7.380474
v 5.983590 -1.771124 7.380474
v 0.458590 0.828876 7.380474
v 5.983590 0.828876 7.380474
v 0.458590 0.828876 3.352432
v 5.983590 0.828876 3.352432
v 0.458590 -1.771124 3.352432
v 5.983590 -1.771124 3.352432
v -6.041410 -1.857741 -0.790044
v -0.516410 -1.857741 -0.790044
v -6.041410 0.742260 -0.790044
v -0.516410 0.742260 -0.790044
v -6.041410 0.742260 -7.187972
v -0.516410 0.742260 -7.187972
v -6.041410 -1.857741 -7.187972
v -0.516410 -1.857741 -7.187972
v 0.811905 -1.322927 3.909283
v 6.336905 -1.322927 3.909283
v 0.811905 1.277073 3.909283
v 6.336905 1.277073 3.909283
v 0.811905 1.277073 -3.325988
v 6.336905 1.277073 -3.325988
v 0.811905 -1.322927 -3.325988
v 6.336905 -1.322927 -3.325988
v 0.281531 -1.202429 -3.915548
v 4.724102 -1.202429 -3.915548
v 0.281531 1.397571 -3.915548
v 4.724102 1.397571 -3.915548
v 0.281531 1.397571 -8.547065
v 4.724102 1.397571 -8.547065
v 0.281531 -1.202429 -8.547065
v 4.724102 -1.202429 -8.547065
v -6.144173 -2.005409 6.608387
v -0.623115 -2.024161 6.848238
v -6.144173 0.584075 6.877929
v -0.623115 0.565323 7.117782
v -5.934705 1.081914 0.510426
v -0.413648 1.063161 0.750279
v -5.934705 -1.507571 0.240882
v -0.413648 -1.526324 0.480735
vt 0.097241 0.659501
vt 0.097241 0.472005
vt 0.185474 0.472005
vt 0.185474 0.659501
vt 0.192466 0.659501
vt 0.192466 0.472005
vt 0.329161 0.472005
vt 0.329161 0.659501
vt 0.336201 0.659501
vt 0.336201 0.472005
vt 0.424434 0.472005
vt 0.424434 0.659501
vt 0.431426 0.666608
vt 0.431426 0.479112
vt 0.568121 0.479112
vt 0.568121 0.666608
vt 0.097241 0.983940
vt 0.097241 0.847246
vt 0.185474 0.847246
vt 0.185474 0.983940
vt 0.192466 0.960729
vt 0.192466 0.824034
vt 0.280699 0.824034
vt 0.280699 0.960729
vt 0.575162 0.666608
vt 0.575162 0.479112
vt 0.663395 0.479112
vt 0.663395 0.666608
vt 0.332293 0.251207
vt 0.519789 0.251207
vt 0.519789 0.468325
vt 0.332293 0.468325
vt 0.670386 0.666608
vt 0.670386 0.479112
vt 0.758619 0.479112
vt 0.758619 0.666608
vt 0.139142 0.251207
vt 0.326637 0.251207
vt 0.326637 0.468325
vt 0.139142 0.468325
vt 0.045253 0.468325
vt 0.045253 0.251206
vt 0.133486 0.251206
vt 0.133486 0.468325
vt 0.001836 0.689124
vt 0.001836 0.472005
vt 0.090070 0.472005
vt 0.090070 0.689124
vt 0.765611 0.646306
vt 0.765611 0.458811
vt 0.853844 0.458811
vt 0.853844 0.646306
vt 0.001836 0.001992
vt 0.189332 0.001992
vt 0.189332 0.247527
vt 0.001836 0.247527
vt 0.831807 0.837481
vt 0.831807 0.649986
vt 0.920041 0.649986
vt 0.920041 0.837481
vt 0.196059 0.001992
vt 0.383554 0.001992
vt 0.383554 0.247527
vt 0.196059 0.247527
vt 0.390102 0.247527
vt 0.390102 0.001992
vt 0.478335 0.001992
vt 0.478335 0.247527
vt 0.485327 0.247527
vt 0.485327 0.001992
vt 0.573560 0.001992
vt 0.573560 0.247527
vt 0.048966 0.843566
vt 0.048966 0.692804
vt 0.137199 0.692804
vt 0.137199 0.843566
vt 0.487052 0.670287
vt 0.637814 0.670287
vt 0.637814 0.827462
vt 0.487052 0.827462
vt 0.001836 0.998008
vt 0.001836 0.847246
vt 0.090070 0.847246
vt 0.090070 0.998008
vt 0.330634 0.670287
vt 0.481396 0.670287
vt 0.481396 0.827462
vt 0.330634 0.827462
vt 0.236745 0.820354
vt 0.236745 0.663180
vt 0.324978 0.663180
vt 0.324978 0.820354
vt 0.142855 0.820354
vt 0.142855 0.663180
vt 0.231088 0.663180
vt 0.231088 0.820354
vt 0.738275 0.857649
vt 0.737639 0.670287
vt 0.825515 0.670287
vt 0.826152 0.857649
vt 0.725571 0.239045
vt 0.912932 0.230905
vt 0.920041 0.446992
vt 0.732679 0.455131
vt 0.643470 0.857649
vt 0.644107 0.670287
vt 0.731983 0.670287
vt 0.731347 0.857649
vt 0.532553 0.251207
vt 0.719915 0.259346
vt 0.712806 0.475433
vt 0.525444 0.467293
vt 0.580552 0.218078
vt 0.597446 0.001992
vt 0.685322 0.011139
vt 0.668428 0.227226
vt 0.708841 0.227226
vt 0.691947 0.011139
vt 0.779823 0.001992
vt 0.796717 0.218079
vn 0.000000 0.000000 1.000000
vn 0.000000 0.000000 1.000000
vn 0.000000 0.000000 1.000000
vn 0.000000 0.000000 1.000000
vn 0.000000 1.000000 0.000000
vn 0.000000 1.000000 0.000000
vn 0.000000 1.000000 0.000000
vn 0.000000 1.000000 0.000000
vn 0.000000 0.000000 -1.000000
vn 0.000000 0.000000 -1.000000
vn 0.000000 0.000000 -1.000000
vn 0.000000 0.000000 -1.000000
vn 0.000000 -1.000000 0.000000
vn 0.000000 -1.000000 0.000000
vn 0.000000 -1.000000 0.000000
vn 0.000000 -1.000000 0.000000
vn 1.000000 0.000000 0.000000
vn 1.000000 0.000000 0.000000
vn 1.000000 0.000000 0.000000
vn 1.000000 0.000000 0.000000
vn -1.000000 0.000000 0.000000
vn -1.000000 0.000000 0.000000
vn -1.000000 0.000000 0.000000
vn -1.000000 0.000000 0.000000
vn 0.000000 0.000000 1.000000
vn 0.000000 0.000000 1.000000
vn 0.000000 0.000000 1.000000
vn 0.000000 0.000000 1.000000
vn 0.000000 1.000000 0.000000
vn 0.000000 1.000000 0.000000
vn 0.000000 1.000000 0.000000
vn 0.000000 1.000000 0.000000
vn 0.000000 0.000000 -1.000000
vn 0.000000 0.000000 -1.000000
vn 0.000000 0.000000 -1.000000
vn 0.000000 0.000000 -1.000000
vn 0.000000 -1.000000 0.000000
vn 0.000000 -1.000000 0.000000
vn 0.000000 -1.000000 0.000000
vn 0.000000 -1.000000 0.000000
vn 1.000000 0.000000 0.000000
vn 1.000000 0.000000 0.000000
vn 1.000000 0.000000 0.000000
vn 1.000000 0.000000 0.000000
vn -1.000000 0.000000 0.000000
vn -1.000000 0.000000 0.000000
vn -1.000000 0.000000 0.000000
vn -1.000000 0.000000 0.000000
vn 0.000000 0.000000 1.000000
vn 0.000000 0.000000 1.000000
vn 0.000000 0.000000 1.000000
vn 0.000000 0.000000 1.000000
vn 0.000000 1.000000 0.000000
vn 0.000000 1.000000 0.000000
vn 0.000000 1.000000 0.000000
vn 0.000000 1.000000 0.000000
vn 0.000000 0.000000 -1.000000
vn 0.000000 0.000000 -1.000000
vn 0.000000 0.000000 -1.000000
vn 0.000000 0.000000 -1.000000
vn 0.000000 -1.000000 0.000000
vn 0.000000 -1.000000 0.000000
vn 0.000000 -1.000000 0.000000
vn 0.000000 -1.000000 0.000000
vn 1.000000 0.000000 0.000000
vn 1.000000 0.000000 0.000000
vn 1.000000 0.000000 0.000000
vn 1.000000 0.000000 0.000000
vn -1.000000 0.000000 0.000000
vn -1.000000 0.000000 0.000000
vn -1.000000 0.000000 0.000000
vn -1.000000 0.000000 0.000000
vn 0.000000 0.000000 1.000000
vn 0.000000 0.000000 1.000000
vn 0.000000 0.000000 1.000000
vn 0.000000 0.000000 1.000000
vn 0.000000 1.000000 0.000000
vn 0.000000 1.000000 0.000000
vn 0.000000 1.000000 0.000000
vn 0.000000 1.000000 0.000000
vn 0.000000 0.000000 -1.000000
vn 0.000000 0.000000 -1.000000
vn 0.000000 0.000000 -1.000000
vn 0.000000 0.000000 -1.000000
vn 0.000000 -1.000000 0.000000
vn 0.000000 -1.000000 0.000000
vn 0.000000 -1.000000 0.000000
vn 0.000000 -1.000000 0.000000
vn 1.000000 0.000000 0.000000
vn 1.000000 0.000000 0.000000
vn 1.000000 0.000000 0.000000
vn 1.000000 0.000000 0.000000
vn -1.000000 0.000000 0.000000
vn -1.000000 0.000000 0.000000
vn -1.000000 0.000000 0.000000
vn -1.000000 0.000000 0.000000
vn -0.043520 -0.103434 0.993684
vn -0.043520 -0.103434 0.993684
vn -0.043520 -0.103434 0.993684
vn -0.043520 -0.103434 0.993684
vn 0.000000 0.996958 0.077947
vn 0.000000 0.996958 0.077947
vn 0.000000 0.996958 0.077947
vn 0.000000 0.996958 0.077947
vn 0.043520 0.103434 -0.993684
vn 0.043520 0.103434 -0.993684
vn 0.043520 0.103434 -0.993684
vn 0.043520 0.103434 -0.993684
vn 0.000000 -0.996958 -0.077947
vn 0.000000 -0.996958 -0.077947
vn 0.000000 -0.996958 -0.077947
vn 0.000000 -0.996958 -0.077947
vn 0.999462 -0.003395 0.032613
vn 0.999462 -0.003395 0.032613
vn 0.999462 -0.003395 0.032613
vn 0.999462 -0.003395 0.032613
vn -0.999462 0.003396 -0.032613
vn -0.999462 0.003396 -0.032613
vn -0.999462 0.003396 -0.032613
vn -0.999462 0.003396 -0.032613
s 1
g road06:polySurface5
f 41/121/121 42/122/122 43/124/123
f 43/124/123 42/122/122 44/123/124
s 2
f 43/125/125 44/126/126 45/128/127
f 45/128/127 44/126/126 46/127/128
s 3
f 45/129/129 46/130/130 47/132/131
f 47/132/131 46/130/130 48/131/132
s 4
f 47/133/133 48/134/134 41/136/135
f 41/136/135 48/134/134 42/135/136
s 5
f 42/137/137 48/138/138 44/140/139
f 44/140/139 48/138/138 46/139/140
s 6
f 47/141/141 41/142/142 45/144/143
f 45/144/143 41/142/142 43/143/144
s 7
f 49/145/145 50/146/146 51/148/147
f 51/148/147 50/146/146 52/147/148
s 8
f 51/149/149 52/150/150 53/152/151
f 53/152/151 52/150/150 54/151/152
s 9
f 53/153/153 54/154/154 55/156/155
f 55/156/155 54/154/154 56/155/156
s 10
f 55/157/157 56/158/158 49/160/159
f 49/160/159 56/158/158 50/159/160
s 11
f 50/161/161 56/162/162 52/164/163
f 52/164/163 56/162/162 54/163/164
s 12
f 55/165/165 49/166/166 53/168/167
f 53/168/167 49/166/166 51/167/168
s 13
f 57/169/169 58/170/170 59/172/171
f 59/172/171 58/170/170 60/171/172
s 14
f 59/173/173 60/174/174 61/176/175
f 61/176/175 60/174/174 62/175/176
s 15
f 61/177/177 62/178/178 63/180/179
f 63/180/179 62/178/178 64/179/180
s 16
f 63/181/181 64/182/182 57/184/183
f 57/184/183 64/182/182 58/183/184
s 17
f 58/185/185 64/186/186 60/188/187
f 60/188/187 64/186/186 62/187/188
s 18
f 63/189/189 57/190/190 61/192/191
f 61/192/191 57/190/190 59/191/192
s 19
f 65/193/193 66/194/194 67/196/195
f 67/196/195 66/194/194 68/195/196
s 20
f 67/197/197 68/198/198 69/200/199
f 69/200/199 68/198/198 70/199/200
s 21
f 69/201/201 70/202/202 71/204/203
f 71/204/203 70/202/202 72/203/204
s 22
f 71/205/205 72/206/206 65/208/207
f 65/208/207 72/206/206 66/207/208
s 23
f 66/209/209 72/210/210 68/212/211
f 68/212/211 72/210/210 70/211/212
s 24
f 71/213/213 65/214/214 69/216/215
f 69/216/215 65/214/214 67/215/216
s 25
f 73/217/217 74/218/218 75/220/219
f 75/220/219 74/218/218 76/219/220
s 26
f 76/222/221 78/223/222 75/221/223
f 75/221/223 78/223/222 77/224/224
s 27
f 78/226/225 80/227/226 77/225/227
f 77/225/227 80/227/226 79/228/228
s 28
f 79/229/229 80/230/230 73/232/231
f 73/232/231 80/230/230 74/231/232
s 29
f 80/234/233 78/235/234 74/233/235
f 74/233/235 78/235/234 76/236/236
s 30
f 79/237/237 73/238/238 77/240/239
f 77/240/239 73/238/238 75/239/240
