# This file uses centimeters as units for non-parametric coordinates.

mtllib road05.mtl
g default
v 1.204737 -1.658640 7.615239
v 5.295263 -1.658640 7.615239
v 1.204737 0.941360 7.615239
v 5.295263 0.941360 7.615239
v 1.204737 0.941360 3.598943
v 5.295263 0.941360 3.598943
v 1.204737 -1.658640 3.598943
v 5.295263 -1.658640 3.598943
v 0.487500 -2.038152 2.925795
v 6.012500 -2.038152 2.925795
v 0.487500 0.561848 2.925795
v 6.012500 0.561848 2.925795
v 0.487500 0.561848 -0.471341
v 6.012500 0.561848 -0.471341
v 0.487500 -2.038152 -0.471341
v 6.012500 -2.038152 -0.471341
v -6.012500 -2.123172 7.591609
v -0.487500 -2.123172 7.591609
v -6.012500 0.474763 7.711189
v -0.487500 0.474763 7.711189
v -6.012500 0.992946 -7.276890
v -0.487500 0.992946 -7.276890
v -6.012500 -1.604988 -7.396470
v -0.487500 -1.604988 -7.396470
v 0.241517 -1.954726 -1.877526
v 5.746573 -2.020446 -1.341689
v 0.262987 0.642727 -1.747065
v 5.768044 0.577005 -1.211227
v 0.753427 0.890221 -8.414902
v 6.258483 0.824500 -7.879065
v 0.731956 -1.707230 -8.545363
v 6.237012 -1.772952 -8.009526
vt 0.846083 0.684353
vt 0.846083 0.537327
vt 0.941262 0.537327
vt 0.941262 0.684353
vt 0.902829 0.835369
vt 0.902829 0.688344
vt 0.998008 0.688344
vt 0.998008 0.835369
vt 0.801515 0.815421
vt 0.801515 0.691061
vt 0.896694 0.691061
vt 0.896694 0.815421
vt 0.700201 0.815421
vt 0.700201 0.691061
vt 0.795380 0.691061
vt 0.795380 0.815421
vt 0.001992 0.550603
vt 0.020961 0.001931
vt 0.116064 0.006309
vt 0.097095 0.554980
vt 0.141991 0.554980
vt 0.123022 0.006309
vt 0.218125 0.001931
vt 0.237094 0.550603
vt 0.668249 0.513720
vt 0.677309 0.269629
vt 0.772394 0.274405
vt 0.763334 0.518496
vt 0.567028 0.803461
vt 0.557968 0.559370
vt 0.653053 0.554594
vt 0.662114 0.798685
vt 0.436803 0.957195
vt 0.436803 0.807453
vt 0.583829 0.807453
vt 0.583829 0.957195
vt 0.692116 0.687070
vt 0.692116 0.537327
vt 0.839141 0.537327
vt 0.839141 0.687070
vt 0.118906 0.761227
vt 0.118906 0.558972
vt 0.243265 0.558972
vt 0.243265 0.761227
vt 0.001992 0.967473
vt 0.001992 0.765218
vt 0.126352 0.765218
vt 0.126352 0.967473
vt 0.243857 0.001931
vt 0.446112 0.001931
vt 0.446112 0.550603
vt 0.243857 0.550603
vt 0.452395 0.001931
vt 0.654650 0.001931
vt 0.654650 0.550603
vt 0.452395 0.550603
vt 0.660933 0.021547
vt 0.862458 0.001931
vt 0.880411 0.246022
vt 0.678886 0.265638
vt 0.796483 0.269629
vt 0.998008 0.289245
vt 0.980054 0.533336
vt 0.778530 0.513720
vt 0.335458 0.910639
vt 0.335458 0.760897
vt 0.430637 0.760897
vt 0.430637 0.910639
vt 0.590771 0.957196
vt 0.590771 0.807453
vt 0.685949 0.807453
vt 0.685949 0.957196
vt 0.249401 0.756849
vt 0.249401 0.554594
vt 0.344579 0.554594
vt 0.344579 0.756849
vt 0.017592 0.761227
vt 0.017592 0.558972
vt 0.112770 0.558972
vt 0.112770 0.761227
vt 0.132767 0.967473
vt 0.132767 0.765218
vt 0.227870 0.765218
vt 0.227870 0.967473
vt 0.234112 0.967473
vt 0.234112 0.765218
vt 0.329215 0.765218
vt 0.329215 0.967473
vt 0.456747 0.756905
vt 0.454341 0.555380
vt 0.549427 0.554594
vt 0.551833 0.756119
vt 0.350715 0.756119
vt 0.353120 0.554594
vt 0.448206 0.555380
vt 0.445800 0.756905
vn 0.000000 0.000000 1.000000
vn 0.000000 0.000000 1.000000
vn 0.000000 0.000000 1.000000
vn 0.000000 0.000000 1.000000
vn 0.000000 1.000000 0.000000
vn 0.000000 1.000000 0.000000
vn 0.000000 1.000000 0.000000
vn 0.000000 1.000000 0.000000
vn 0.000000 0.000000 -1.000000
vn 0.000000 0.000000 -1.000000
vn 0.000000 0.000000 -1.000000
vn 0.000000 0.000000 -1.000000
vn 0.000000 -1.000000 0.000000
vn 0.000000 -1.000000 0.000000
vn 0.000000 -1.000000 0.000000
vn 0.000000 -1.000000 0.000000
vn 1.000000 0.000000 0.000000
vn 1.000000 0.000000 0.000000
vn 1.000000 0.000000 0.000000
vn 1.000000 0.000000 0.000000
vn -1.000000 0.000000 0.000000
vn -1.000000 0.000000 0.000000
vn -1.000000 0.000000 0.000000
vn -1.000000 0.000000 0.000000
vn 0.000000 0.000000 1.000000
vn 0.000000 0.000000 1.000000
vn 0.000000 0.000000 1.000000
vn 0.000000 0.000000 1.000000
vn 0.000000 1.000000 0.000000
vn 0.000000 1.000000 0.000000
vn 0.000000 1.000000 0.000000
vn 0.000000 1.000000 0.000000
vn 0.000000 0.000000 -1.000000
vn 0.000000 0.000000 -1.000000
vn 0.000000 0.000000 -1.000000
vn 0.000000 0.000000 -1.000000
vn 0.000000 -1.000000 0.000000
vn 0.000000 -1.000000 0.000000
vn 0.000000 -1.000000 0.000000
vn 0.000000 -1.000000 0.000000
vn 1.000000 0.000000 0.000000
vn 1.000000 0.000000 0.000000
vn 1.000000 0.000000 0.000000
vn 1.000000 0.000000 0.000000
vn -1.000000 0.000000 0.000000
vn -1.000000 0.000000 0.000000
vn -1.000000 0.000000 0.000000
vn -1.000000 0.000000 0.000000
vn 0.000000 -0.045980 0.998942
vn 0.000000 -0.045980 0.998942
vn 0.000000 -0.045980 0.998942
vn 0.000000 -0.045980 0.998942
vn 0.000000 0.999403 0.034552
vn 0.000000 0.999403 0.034552
vn 0.000000 0.999403 0.034552
vn 0.000000 0.999403 0.034552
vn 0.000000 0.045980 -0.998942
vn 0.000000 0.045980 -0.998942
vn 0.000000 0.045980 -0.998942
vn 0.000000 0.045980 -0.998942
vn 0.000000 -0.999403 -0.034552
vn 0.000000 -0.999403 -0.034552
vn 0.000000 -0.999403 -0.034552
vn 0.000000 -0.999403 -0.034552
vn 1.000000 0.000000 0.000000
vn 1.000000 0.000000 0.000000
vn 1.000000 0.000000 0.000000
vn 1.000000 0.000000 0.000000
vn -1.000000 0.000000 0.000000
vn -1.000000 0.000000 0.000000
vn -1.000000 0.000000 0.000000
vn -1.000000 0.000000 0.000000
vn -0.097342 -0.049123 0.994038
vn -0.097342 -0.049123 0.994038
vn -0.097342 -0.049123 0.994038
vn -0.097342 -0.049123 0.994038
vn 0.008260 0.999255 0.037698
vn 0.008260 0.999255 0.037698
vn 0.008260 0.999255 0.037698
vn 0.008260 0.999255 0.037698
vn 0.097342 0.049123 -0.994038
vn 0.097342 0.049123 -0.994038
vn 0.097342 0.049123 -0.994038
vn 0.097342 0.049123 -0.994038
vn -0.008260 -0.999255 -0.037698
vn -0.008260 -0.999255 -0.037698
vn -0.008260 -0.999255 -0.037698
vn -0.008260 -0.999255 -0.037698
vn 0.997267 -0.011905 0.072910
vn 0.997267 -0.011905 0.072910
vn 0.997267 -0.011905 0.072910
vn 0.997267 -0.011905 0.072910
vn -0.997267 0.011905 -0.072910
vn -0.997267 0.011905 -0.072910
vn -0.997267 0.011905 -0.072910
vn -0.997267 0.011905 -0.072910
s off
g road07:pCube34
usemtl initialShadingGroup
f 1/65/1 2/66/2 4/67/3 3/68/4
f 3/33/5 4/34/6 6/35/7 5/36/8
f 5/69/9 6/70/10 8/71/11 7/72/12
f 7/37/13 8/38/14 2/39/15 1/40/16
f 2/1/17 8/2/18 6/3/19 4/4/20
f 7/5/21 1/6/22 3/7/23 5/8/24
f 9/73/25 10/74/26 12/75/27 11/76/28
f 11/41/29 12/42/30 14/43/31 13/44/32
f 13/77/33 14/78/34 16/79/35 15/80/36
f 15/45/37 16/46/38 10/47/39 9/48/40
f 10/9/41 16/10/42 14/11/43 12/12/44
f 15/13/45 9/14/46 11/15/47 13/16/48
f 17/81/49 18/82/50 20/83/51 19/84/52
f 19/49/53 20/50/54 22/51/55 21/52/56
f 21/85/57 22/86/58 24/87/59 23/88/60
f 23/53/61 24/54/62 18/55/63 17/56/64
f 18/17/65 24/18/66 22/19/67 20/20/68
f 23/21/69 17/22/70 19/23/71 21/24/72
f 25/89/73 26/90/74 28/91/75 27/92/76
f 27/57/77 28/58/78 30/59/79 29/60/80
f 29/93/81 30/94/82 32/95/83 31/96/84
f 31/61/85 32/62/86 26/63/87 25/64/88
f 26/25/89 32/26/90 30/27/91 28/28/92
f 31/29/93 25/30/94 27/31/95 29/32/96
