# This file uses centimeters as units for non-parametric coordinates.

mtllib b_Glass_new.mtl
g default
v 45.453430 -0.625584 109.903664
v 54.126884 5.167021 116.247589
v 40.882191 8.433930 107.881294
v 49.555645 14.226537 114.225212
v 47.744560 9.570456 97.461258
v 56.418015 15.363061 103.805183
v 52.315800 0.510939 99.483635
v 60.989254 6.303545 105.827553
v 35.184242 -4.818514 90.299438
v 42.415455 -4.993900 92.226120
v 35.629349 7.411886 89.742210
v 42.860561 7.236501 91.668892
v 39.234737 6.661045 76.142136
v 46.465950 6.485659 78.068817
v 38.789631 -5.569355 76.699364
v 46.020844 -5.744741 78.626045
v 26.080170 -5.175438 67.726379
v 37.929752 -5.870775 75.870399
v 29.056677 4.930391 64.258385
v 40.906261 4.235054 72.402405
v 35.325657 -0.196411 54.699272
v 47.175240 -0.891749 62.843296
v 32.349148 -10.302239 58.167263
v 44.198730 -10.997577 66.311287
v 3.975217 1.216976 104.092575
v 15.977776 2.493981 112.442734
v 2.682012 12.762255 104.185799
v 14.684570 14.039259 112.535957
v 11.315908 13.830877 91.611969
v 23.318466 15.107882 99.962128
v 12.609114 2.285599 91.518745
v 24.611671 3.562603 99.868904
v -51.593044 11.887647 44.707222
v -50.600128 11.887647 36.668308
v -51.593044 16.987648 44.707222
v -50.600128 16.987648 36.668308
v -57.647041 16.987648 43.959469
v -56.654125 16.987648 35.920555
v -57.647041 11.887647 43.959469
v -56.654125 11.887647 35.920555
v -51.913628 29.940285 44.626583
v -50.920708 29.940285 36.587669
v -51.913628 34.641277 44.626583
v -50.920708 34.641277 36.587669
v -57.765839 34.641277 43.903751
v -56.772919 34.641277 35.864838
v -57.765839 29.940285 43.903751
v -56.772919 29.940285 35.864838
v -51.811306 40.078522 44.619579
v -50.818386 40.078522 36.580666
v -51.811306 45.178520 44.619579
v -50.818386 45.178520 36.580666
v -57.865299 45.178520 43.871826
v -56.872379 45.178520 35.832912
v -57.865299 40.078522 43.871826
v -56.872379 40.078522 35.832912
v -51.560802 6.751966 44.729752
v -50.399288 6.751966 36.713463
v -51.560802 11.851966 44.729752
v -50.399288 11.851966 36.713463
v -57.597759 11.851966 43.855030
v -56.436245 11.851966 35.838741
v -57.597759 6.751966 43.855030
v -56.436245 6.751966 35.838741
v -48.199615 6.751966 30.814182
v -41.899414 6.751966 25.723267
v -48.199615 11.851966 30.814182
v -41.899414 11.851966 25.723267
v -52.033516 11.851966 26.069584
v -45.733315 11.851966 20.978668
v -52.033516 6.751966 26.069584
v -45.733315 6.751966 20.978668
v -48.199615 11.887647 30.814182
v -41.899414 11.887647 25.723267
v -48.199615 16.987648 30.814182
v -41.899414 16.987648 25.723267
v -52.033516 16.987648 26.069584
v -45.733315 16.987648 20.978668
v -52.033516 11.887647 26.069584
v -45.733315 11.887647 20.978668
v -48.199615 23.988190 30.814182
v -41.899414 23.988190 25.723267
v -48.199615 29.088188 30.814182
v -41.899414 29.088188 25.723267
v -52.033516 29.088188 26.069584
v -45.733315 29.088188 20.978668
v -52.033516 23.988190 26.069584
v -45.733315 23.988190 20.978668
v -52.617203 12.093876 38.116844
v -48.139214 12.093876 27.608986
v -52.617203 15.358668 38.116844
v -48.139214 15.358668 27.608986
v -56.335854 15.358668 36.532116
v -51.857864 15.358668 26.024260
v -56.335854 12.093876 36.532116
v -51.857864 12.093876 26.024260
vt 0.375000 0.000000
vt 0.625000 0.000000
vt 0.375000 0.250000
vt 0.625000 0.250000
vt 0.375000 0.500000
vt 0.625000 0.500000
vt 0.375000 0.750000
vt 0.625000 0.750000
vt 0.375000 1.000000
vt 0.625000 1.000000
vt 0.875000 0.000000
vt 0.875000 0.250000
vt 0.125000 0.000000
vt 0.125000 0.250000
vt 0.375000 0.000000
vt 0.625000 0.000000
vt 0.375000 0.250000
vt 0.625000 0.250000
vt 0.375000 0.500000
vt 0.625000 0.500000
vt 0.375000 0.750000
vt 0.625000 0.750000
vt 0.375000 1.000000
vt 0.625000 1.000000
vt 0.875000 0.000000
vt 0.875000 0.250000
vt 0.125000 0.000000
vt 0.125000 0.250000
vt 0.375000 0.000000
vt 0.625000 0.000000
vt 0.375000 0.250000
vt 0.625000 0.250000
vt 0.375000 0.500000
vt 0.625000 0.500000
vt 0.375000 0.750000
vt 0.625000 0.750000
vt 0.375000 1.000000
vt 0.625000 1.000000
vt 0.875000 0.000000
vt 0.875000 0.250000
vt 0.125000 0.000000
vt 0.125000 0.250000
vt 0.375000 0.000000
vt 0.625000 0.000000
vt 0.375000 0.250000
vt 0.625000 0.250000
vt 0.375000 0.500000
vt 0.625000 0.500000
vt 0.375000 0.750000
vt 0.625000 0.750000
vt 0.375000 1.000000
vt 0.625000 1.000000
vt 0.875000 0.000000
vt 0.875000 0.250000
vt 0.125000 0.000000
vt 0.125000 0.250000
vt 0.375000 0.000000
vt 0.625000 0.000000
vt 0.375000 0.250000
vt 0.625000 0.250000
vt 0.375000 0.500000
vt 0.625000 0.500000
vt 0.375000 0.750000
vt 0.625000 0.750000
vt 0.375000 1.000000
vt 0.625000 1.000000
vt 0.875000 0.000000
vt 0.875000 0.250000
vt 0.125000 0.000000
vt 0.125000 0.250000
vt 0.375000 0.000000
vt 0.625000 0.000000
vt 0.375000 0.250000
vt 0.625000 0.250000
vt 0.375000 0.500000
vt 0.625000 0.500000
vt 0.375000 0.750000
vt 0.625000 0.750000
vt 0.375000 1.000000
vt 0.625000 1.000000
vt 0.875000 0.000000
vt 0.875000 0.250000
vt 0.125000 0.000000
vt 0.125000 0.250000
vt 0.375000 0.000000
vt 0.625000 0.000000
vt 0.375000 0.250000
vt 0.625000 0.250000
vt 0.375000 0.500000
vt 0.625000 0.500000
vt 0.375000 0.750000
vt 0.625000 0.750000
vt 0.375000 1.000000
vt 0.625000 1.000000
vt 0.875000 0.000000
vt 0.875000 0.250000
vt 0.125000 0.000000
vt 0.125000 0.250000
vt 0.375000 0.000000
vt 0.625000 0.000000
vt 0.375000 0.250000
vt 0.625000 0.250000
vt 0.375000 0.500000
vt 0.625000 0.500000
vt 0.375000 0.750000
vt 0.625000 0.750000
vt 0.375000 1.000000
vt 0.625000 1.000000
vt 0.875000 0.000000
vt 0.875000 0.250000
vt 0.125000 0.000000
vt 0.125000 0.250000
vt 0.375000 0.000000
vt 0.625000 0.000000
vt 0.375000 0.250000
vt 0.625000 0.250000
vt 0.375000 0.500000
vt 0.625000 0.500000
vt 0.375000 0.750000
vt 0.625000 0.750000
vt 0.375000 1.000000
vt 0.625000 1.000000
vt 0.875000 0.000000
vt 0.875000 0.250000
vt 0.125000 0.000000
vt 0.125000 0.250000
vt 0.375000 0.000000
vt 0.625000 0.000000
vt 0.375000 0.250000
vt 0.625000 0.250000
vt 0.375000 0.500000
vt 0.625000 0.500000
vt 0.375000 0.750000
vt 0.625000 0.750000
vt 0.375000 1.000000
vt 0.625000 1.000000
vt 0.875000 0.000000
vt 0.875000 0.250000
vt 0.125000 0.000000
vt 0.125000 0.250000
vt 0.375000 0.000000
vt 0.625000 0.000000
vt 0.375000 0.250000
vt 0.625000 0.250000
vt 0.375000 0.500000
vt 0.625000 0.500000
vt 0.375000 0.750000
vt 0.625000 0.750000
vt 0.375000 1.000000
vt 0.625000 1.000000
vt 0.875000 0.000000
vt 0.875000 0.250000
vt 0.125000 0.000000
vt 0.125000 0.250000
vt 0.375000 0.000000
vt 0.625000 0.000000
vt 0.375000 0.250000
vt 0.625000 0.250000
vt 0.375000 0.500000
vt 0.625000 0.500000
vt 0.375000 0.750000
vt 0.625000 0.750000
vt 0.375000 1.000000
vt 0.625000 1.000000
vt 0.875000 0.000000
vt 0.875000 0.250000
vt 0.125000 0.000000
vt 0.125000 0.250000
vn -0.547745 -0.090716 0.831713
vn -0.547745 -0.090716 0.831713
vn -0.547745 -0.090716 0.831713
vn -0.547745 -0.090716 0.831713
vn -0.547745 -0.090716 0.831713
vn -0.547746 -0.090716 0.831712
vn -0.441793 0.875566 -0.195454
vn -0.441792 0.875567 -0.195454
vn -0.441792 0.875567 -0.195454
vn -0.441792 0.875567 -0.195454
vn -0.441792 0.875567 -0.195454
vn -0.441791 0.875567 -0.195454
vn 0.547745 0.090715 -0.831713
vn 0.547744 0.090716 -0.831713
vn 0.547744 0.090716 -0.831713
vn 0.547744 0.090716 -0.831713
vn 0.547744 0.090716 -0.831713
vn 0.547743 0.090716 -0.831714
vn 0.441793 -0.875567 0.195454
vn 0.441792 -0.875567 0.195454
vn 0.441792 -0.875567 0.195454
vn 0.441792 -0.875567 0.195454
vn 0.441792 -0.875567 0.195454
vn 0.441792 -0.875567 0.195454
vn 0.710490 0.474503 0.519665
vn 0.710490 0.474503 0.519665
vn 0.710490 0.474503 0.519665
vn 0.710490 0.474503 0.519665
vn 0.710490 0.474503 0.519665
vn 0.710490 0.474502 0.519665
vn -0.710489 -0.474504 -0.519665
vn -0.710489 -0.474503 -0.519665
vn -0.710489 -0.474503 -0.519665
vn -0.710489 -0.474503 -0.519665
vn -0.710489 -0.474503 -0.519665
vn -0.710490 -0.474503 -0.519665
vn -0.255884 0.053290 0.965238
vn -0.255885 0.053290 0.965237
vn -0.255886 0.053290 0.965237
vn -0.255886 0.053290 0.965237
vn -0.255885 0.053290 0.965237
vn -0.255886 0.053290 0.965237
vn 0.036332 0.998304 -0.045484
vn 0.036332 0.998304 -0.045484
vn 0.036332 0.998304 -0.045484
vn 0.036332 0.998304 -0.045484
vn 0.036332 0.998304 -0.045484
vn 0.036332 0.998304 -0.045484
vn 0.255887 -0.053289 -0.965237
vn 0.255886 -0.053290 -0.965237
vn 0.255884 -0.053290 -0.965238
vn 0.255884 -0.053290 -0.965238
vn 0.255886 -0.053290 -0.965237
vn 0.255883 -0.053290 -0.965238
vn -0.036331 -0.998304 0.045484
vn -0.036331 -0.998304 0.045484
vn -0.036332 -0.998304 0.045484
vn -0.036332 -0.998304 0.045484
vn -0.036331 -0.998304 0.045484
vn -0.036332 -0.998304 0.045483
vn 0.966024 -0.023431 0.257387
vn 0.966024 -0.023430 0.257387
vn 0.966024 -0.023430 0.257387
vn 0.966024 -0.023430 0.257387
vn 0.966024 -0.023430 0.257387
vn 0.966024 -0.023429 0.257387
vn -0.966024 0.023430 -0.257387
vn -0.966024 0.023430 -0.257387
vn -0.966024 0.023430 -0.257387
vn -0.966024 0.023430 -0.257387
vn -0.966024 0.023430 -0.257387
vn -0.966024 0.023431 -0.257387
vn -0.500380 0.409215 0.762996
vn -0.500381 0.409215 0.762996
vn -0.500381 0.409215 0.762996
vn -0.500381 0.409215 0.762996
vn -0.500381 0.409215 0.762996
vn -0.500381 0.409214 0.762996
vn 0.268367 0.911159 -0.312680
vn 0.268367 0.911159 -0.312680
vn 0.268367 0.911159 -0.312680
vn 0.268367 0.911159 -0.312680
vn 0.268367 0.911159 -0.312680
vn 0.268367 0.911159 -0.312680
vn 0.500382 -0.409214 -0.762995
vn 0.500382 -0.409214 -0.762995
vn 0.500382 -0.409214 -0.762995
vn 0.500382 -0.409214 -0.762995
vn 0.500382 -0.409214 -0.762995
vn 0.500382 -0.409214 -0.762995
vn -0.268367 -0.911159 0.312680
vn -0.268367 -0.911159 0.312680
vn -0.268367 -0.911159 0.312680
vn -0.268367 -0.911159 0.312680
vn -0.268367 -0.911159 0.312680
vn -0.268367 -0.911159 0.312680
vn 0.823164 -0.048304 0.565746
vn 0.823163 -0.048303 0.565747
vn 0.823163 -0.048303 0.565747
vn 0.823163 -0.048303 0.565747
vn 0.823163 -0.048303 0.565747
vn 0.823162 -0.048303 0.565748
vn -0.823163 0.048304 -0.565746
vn -0.823163 0.048303 -0.565746
vn -0.823163 0.048303 -0.565746
vn -0.823163 0.048303 -0.565746
vn -0.823163 0.048303 -0.565746
vn -0.823163 0.048303 -0.565746
vn -0.564672 -0.069890 0.822351
vn -0.564672 -0.069890 0.822351
vn -0.564672 -0.069890 0.822351
vn -0.564672 -0.069890 0.822351
vn -0.564672 -0.069890 0.822351
vn -0.564672 -0.069890 0.822351
vn -0.111312 0.993753 0.008024
vn -0.111312 0.993753 0.008024
vn -0.111312 0.993753 0.008024
vn -0.111312 0.993753 0.008024
vn -0.111312 0.993753 0.008024
vn -0.111312 0.993753 0.008024
vn 0.564672 0.069890 -0.822351
vn 0.564672 0.069890 -0.822351
vn 0.564672 0.069890 -0.822351
vn 0.564672 0.069890 -0.822351
vn 0.564672 0.069890 -0.822351
vn 0.564672 0.069890 -0.822351
vn 0.111312 -0.993753 -0.008024
vn 0.111312 -0.993753 -0.008024
vn 0.111312 -0.993753 -0.008024
vn 0.111312 -0.993753 -0.008024
vn 0.111312 -0.993753 -0.008024
vn 0.111312 -0.993753 -0.008024
vn 0.817775 0.087007 0.568924
vn 0.817775 0.087006 0.568924
vn 0.817775 0.087006 0.568924
vn 0.817775 0.087006 0.568924
vn 0.817775 0.087006 0.568924
vn 0.817775 0.087006 0.568924
vn -0.817775 -0.087006 -0.568924
vn -0.817775 -0.087006 -0.568924
vn -0.817775 -0.087006 -0.568924
vn -0.817775 -0.087006 -0.568924
vn -0.817775 -0.087006 -0.568924
vn -0.817775 -0.087006 -0.568924
vn 0.992458 0.000000 0.122582
vn 0.992458 0.000000 0.122582
vn 0.992458 0.000000 0.122582
vn 0.992458 0.000000 0.122582
vn 0.992458 0.000000 0.122582
vn 0.992458 0.000000 0.122582
vn 0.000000 1.000000 0.000000
vn 0.000000 1.000000 0.000000
vn 0.000000 1.000000 0.000000
vn 0.000000 1.000000 0.000000
vn 0.000000 1.000000 0.000000
vn 0.000000 1.000000 0.000000
vn -0.992458 0.000000 -0.122582
vn -0.992458 0.000000 -0.122582
vn -0.992458 0.000000 -0.122582
vn -0.992458 0.000000 -0.122582
vn -0.992458 0.000000 -0.122582
vn -0.992458 0.000000 -0.122582
vn 0.000000 -1.000000 0.000000
vn 0.000000 -1.000000 0.000000
vn 0.000000 -1.000000 0.000000
vn 0.000000 -1.000000 0.000000
vn 0.000000 -1.000000 0.000000
vn 0.000000 -1.000000 0.000000
vn 0.122582 0.000000 -0.992458
vn 0.122582 0.000000 -0.992458
vn 0.122582 0.000000 -0.992458
vn 0.122582 0.000000 -0.992458
vn 0.122582 0.000000 -0.992458
vn 0.122582 0.000000 -0.992458
vn -0.122582 0.000000 0.992458
vn -0.122583 0.000000 0.992458
vn -0.122583 0.000000 0.992458
vn -0.122583 0.000000 0.992458
vn -0.122583 0.000000 0.992458
vn -0.122583 0.000000 0.992458
vn 0.992458 0.000000 0.122582
vn 0.992458 0.000000 0.122583
vn 0.992458 0.000000 0.122583
vn 0.992458 0.000000 0.122583
vn 0.992458 0.000000 0.122583
vn 0.992458 0.000000 0.122583
vn 0.000000 1.000000 0.000001
vn 0.000000 1.000000 0.000000
vn 0.000000 1.000000 0.000000
vn 0.000000 1.000000 0.000000
vn 0.000000 1.000000 0.000000
vn 0.000000 1.000000 0.000000
vn -0.992458 0.000000 -0.122583
vn -0.992458 0.000000 -0.122583
vn -0.992458 0.000000 -0.122583
vn -0.992458 0.000000 -0.122583
vn -0.992458 0.000000 -0.122583
vn -0.992458 0.000000 -0.122583
vn 0.000000 -1.000000 0.000000
vn 0.000000 -1.000000 0.000000
vn 0.000000 -1.000000 0.000000
vn 0.000000 -1.000000 0.000000
vn 0.000000 -1.000000 0.000000
vn 0.000000 -1.000000 0.000000
vn 0.122583 0.000000 -0.992458
vn 0.122583 0.000000 -0.992458
vn 0.122583 0.000000 -0.992458
vn 0.122583 0.000000 -0.992458
vn 0.122583 0.000000 -0.992458
vn 0.122582 0.000000 -0.992458
vn -0.122583 0.000000 0.992458
vn -0.122583 0.000000 0.992458
vn -0.122583 0.000000 0.992458
vn -0.122583 0.000000 0.992458
vn -0.122583 0.000000 0.992458
vn -0.122582 0.000000 0.992458
vn 0.992458 0.000000 0.122583
vn 0.992458 0.000000 0.122583
vn 0.992458 0.000000 0.122583
vn 0.992458 0.000000 0.122583
vn 0.992458 0.000000 0.122583
vn 0.992458 0.000000 0.122583
vn 0.000000 1.000000 0.000000
vn 0.000000 1.000000 0.000000
vn 0.000000 1.000000 0.000000
vn 0.000000 1.000000 0.000000
vn 0.000000 1.000000 0.000000
vn 0.000000 1.000000 0.000000
vn -0.992458 0.000000 -0.122583
vn -0.992458 0.000000 -0.122583
vn -0.992458 0.000000 -0.122583
vn -0.992458 0.000000 -0.122583
vn -0.992458 0.000000 -0.122583
vn -0.992458 0.000000 -0.122583
vn 0.000000 -1.000000 0.000000
vn 0.000000 -1.000000 0.000000
vn 0.000000 -1.000000 0.000000
vn 0.000000 -1.000000 0.000000
vn 0.000000 -1.000000 0.000000
vn 0.000000 -1.000000 0.000000
vn 0.122583 0.000000 -0.992458
vn 0.122582 0.000000 -0.992458
vn 0.122583 0.000000 -0.992458
vn 0.122583 0.000000 -0.992458
vn 0.122582 0.000000 -0.992458
vn 0.122581 0.000000 -0.992459
vn -0.122583 0.000000 0.992458
vn -0.122582 0.000000 0.992458
vn -0.122583 0.000000 0.992458
vn -0.122583 0.000000 0.992458
vn -0.122582 0.000000 0.992458
vn -0.122581 0.000000 0.992459
vn 0.989665 0.000000 0.143397
vn 0.989665 0.000000 0.143397
vn 0.989665 0.000000 0.143397
vn 0.989665 0.000000 0.143397
vn 0.989665 0.000000 0.143397
vn 0.989665 0.000000 0.143397
vn 0.000000 1.000000 0.000000
vn 0.000000 1.000000 0.000000
vn 0.000000 1.000000 0.000000
vn 0.000000 1.000000 0.000000
vn 0.000000 1.000000 0.000000
vn 0.000000 1.000000 0.000000
vn -0.989665 0.000000 -0.143397
vn -0.989665 0.000000 -0.143397
vn -0.989665 0.000000 -0.143397
vn -0.989665 0.000000 -0.143397
vn -0.989665 0.000000 -0.143397
vn -0.989665 0.000000 -0.143397
vn 0.000000 -1.000000 0.000000
vn 0.000000 -1.000000 0.000000
vn 0.000000 -1.000000 0.000000
vn 0.000000 -1.000000 0.000000
vn 0.000000 -1.000000 0.000000
vn 0.000000 -1.000000 0.000000
vn 0.143398 0.000000 -0.989665
vn 0.143397 0.000000 -0.989665
vn 0.143397 0.000000 -0.989665
vn 0.143397 0.000000 -0.989665
vn 0.143397 0.000000 -0.989665
vn 0.143396 0.000000 -0.989665
vn -0.143396 0.000000 0.989665
vn -0.143397 0.000000 0.989665
vn -0.143397 0.000000 0.989665
vn -0.143397 0.000000 0.989665
vn -0.143397 0.000000 0.989665
vn -0.143398 0.000000 0.989665
vn 0.628509 0.000000 0.777803
vn 0.628508 0.000000 0.777803
vn 0.628508 0.000000 0.777803
vn 0.628508 0.000000 0.777803
vn 0.628508 0.000000 0.777803
vn 0.628508 0.000000 0.777803
vn 0.000000 1.000000 0.000000
vn 0.000000 1.000000 0.000000
vn 0.000000 1.000000 0.000000
vn 0.000000 1.000000 0.000000
vn 0.000000 1.000000 0.000000
vn 0.000000 1.000000 0.000000
vn -0.628509 0.000000 -0.777803
vn -0.628508 0.000000 -0.777803
vn -0.628509 0.000000 -0.777803
vn -0.628509 0.000000 -0.777803
vn -0.628508 0.000000 -0.777803
vn -0.628508 0.000000 -0.777803
vn 0.000000 -1.000000 0.000000
vn 0.000000 -1.000000 0.000000
vn 0.000000 -1.000000 0.000000
vn 0.000000 -1.000000 0.000000
vn 0.000000 -1.000000 0.000000
vn 0.000000 -1.000000 0.000000
vn 0.777803 0.000000 -0.628508
vn 0.777803 0.000000 -0.628508
vn 0.777803 0.000000 -0.628508
vn 0.777803 0.000000 -0.628508
vn 0.777803 0.000000 -0.628508
vn 0.777803 0.000000 -0.628508
vn -0.777803 0.000000 0.628508
vn -0.777803 0.000000 0.628508
vn -0.777803 0.000000 0.628508
vn -0.777803 0.000000 0.628508
vn -0.777803 0.000000 0.628508
vn -0.777803 0.000000 0.628508
vn 0.628509 0.000000 0.777803
vn 0.628508 0.000000 0.777803
vn 0.628509 0.000000 0.777803
vn 0.628509 0.000000 0.777803
vn 0.628508 0.000000 0.777803
vn 0.628508 0.000000 0.777803
vn 0.000000 1.000000 0.000000
vn 0.000000 1.000000 0.000000
vn 0.000000 1.000000 0.000000
vn 0.000000 1.000000 0.000000
vn 0.000000 1.000000 0.000000
vn 0.000000 1.000000 0.000000
vn -0.628508 0.000000 -0.777803
vn -0.628508 0.000000 -0.777803
vn -0.628508 0.000000 -0.777803
vn -0.628508 0.000000 -0.777803
vn -0.628508 0.000000 -0.777803
vn -0.628509 0.000000 -0.777803
vn 0.000000 -1.000000 0.000000
vn 0.000000 -1.000000 0.000000
vn 0.000000 -1.000000 0.000000
vn 0.000000 -1.000000 0.000000
vn 0.000000 -1.000000 0.000000
vn 0.000000 -1.000000 0.000000
vn 0.777803 0.000000 -0.628508
vn 0.777803 0.000000 -0.628508
vn 0.777803 0.000000 -0.628508
vn 0.777803 0.000000 -0.628508
vn 0.777803 0.000000 -0.628508
vn 0.777803 0.000000 -0.628508
vn -0.777803 0.000000 0.628508
vn -0.777803 0.000000 0.628508
vn -0.777803 0.000000 0.628508
vn -0.777803 0.000000 0.628508
vn -0.777803 0.000000 0.628508
vn -0.777803 0.000000 0.628508
vn 0.628508 0.000000 0.777803
vn 0.628509 0.000000 0.777803
vn 0.628508 0.000000 0.777803
vn 0.628508 0.000000 0.777803
vn 0.628509 0.000000 0.777803
vn 0.628509 0.000000 0.777803
vn 0.000000 1.000000 0.000000
vn 0.000000 1.000000 0.000000
vn 0.000000 1.000000 0.000000
vn 0.000000 1.000000 0.000000
vn 0.000000 1.000000 0.000000
vn 0.000000 1.000000 0.000000
vn -0.628508 0.000000 -0.777803
vn -0.628508 0.000000 -0.777803
vn -0.628508 0.000000 -0.777803
vn -0.628508 0.000000 -0.777803
vn -0.628508 0.000000 -0.777803
vn -0.628508 0.000000 -0.777803
vn 0.000000 -1.000000 0.000000
vn 0.000000 -1.000000 0.000000
vn 0.000000 -1.000000 0.000000
vn 0.000000 -1.000000 0.000000
vn 0.000000 -1.000000 0.000000
vn 0.000000 -1.000000 0.000000
vn 0.777803 0.000000 -0.628508
vn 0.777803 0.000000 -0.628508
vn 0.777803 0.000000 -0.628508
vn 0.777803 0.000000 -0.628508
vn 0.777803 0.000000 -0.628508
vn 0.777803 0.000000 -0.628508
vn -0.777803 0.000000 0.628508
vn -0.777803 0.000000 0.628508
vn -0.777803 0.000000 0.628508
vn -0.777803 0.000000 0.628508
vn -0.777803 0.000000 0.628508
vn -0.777803 0.000000 0.628508
vn 0.919948 0.000000 0.392041
vn 0.919948 0.000000 0.392041
vn 0.919948 0.000000 0.392041
vn 0.919948 0.000000 0.392041
vn 0.919948 0.000000 0.392041
vn 0.919948 0.000000 0.392041
vn 0.000000 1.000000 0.000000
vn 0.000000 1.000000 0.000000
vn 0.000000 1.000000 0.000000
vn 0.000000 1.000000 0.000000
vn 0.000000 1.000000 0.000000
vn 0.000000 1.000000 0.000000
vn -0.919948 0.000000 -0.392041
vn -0.919948 0.000000 -0.392041
vn -0.919948 0.000000 -0.392041
vn -0.919948 0.000000 -0.392041
vn -0.919948 0.000000 -0.392041
vn -0.919948 0.000000 -0.392042
vn 0.000000 -1.000000 0.000000
vn 0.000000 -1.000000 0.000000
vn 0.000000 -1.000000 0.000000
vn 0.000000 -1.000000 0.000000
vn 0.000000 -1.000000 0.000000
vn 0.000000 -1.000000 0.000000
vn 0.392041 0.000000 -0.919948
vn 0.392042 0.000000 -0.919948
vn 0.392042 0.000000 -0.919948
vn 0.392042 0.000000 -0.919948
vn 0.392042 0.000000 -0.919948
vn 0.392042 0.000000 -0.919947
vn -0.392041 0.000000 0.919948
vn -0.392042 0.000000 0.919947
vn -0.392042 0.000000 0.919947
vn -0.392042 0.000000 0.919947
vn -0.392042 0.000000 0.919947
vn -0.392043 0.000000 0.919947
s off
g pCube198
usemtl b_Glass_new_initialShadingGroup
f 1/1/1 2/2/2 3/3/3
f 3/3/4 2/2/5 4/4/6
f 3/3/7 4/4/8 5/5/9
f 5/5/10 4/4/11 6/6/12
f 5/5/13 6/6/14 7/7/15
f 7/7/16 6/6/17 8/8/18
f 7/7/19 8/8/20 1/9/21
f 1/9/22 8/8/23 2/10/24
f 2/2/25 8/11/26 4/4/27
f 4/4/28 8/11/29 6/12/30
f 7/13/31 1/1/32 5/14/33
f 5/14/34 1/1/35 3/3/36
f 9/15/37 10/16/38 11/17/39
f 11/17/40 10/16/41 12/18/42
f 11/17/43 12/18/44 13/19/45
f 13/19/46 12/18/47 14/20/48
f 13/19/49 14/20/50 15/21/51
f 15/21/52 14/20/53 16/22/54
f 15/21/55 16/22/56 9/23/57
f 9/23/58 16/22/59 10/24/60
f 10/16/61 16/25/62 12/18/63
f 12/18/64 16/25/65 14/26/66
f 15/27/67 9/15/68 13/28/69
f 13/28/70 9/15/71 11/17/72
f 17/29/73 18/30/74 19/31/75
f 19/31/76 18/30/77 20/32/78
f 19/31/79 20/32/80 21/33/81
f 21/33/82 20/32/83 22/34/84
f 21/33/85 22/34/86 23/35/87
f 23/35/88 22/34/89 24/36/90
f 23/35/91 24/36/92 17/37/93
f 17/37/94 24/36/95 18/38/96
f 18/30/97 24/39/98 20/32/99
f 20/32/100 24/39/101 22/40/102
f 23/41/103 17/29/104 21/42/105
f 21/42/106 17/29/107 19/31/108
f 25/43/109 26/44/110 27/45/111
f 27/45/112 26/44/113 28/46/114
f 27/45/115 28/46/116 29/47/117
f 29/47/118 28/46/119 30/48/120
f 29/47/121 30/48/122 31/49/123
f 31/49/124 30/48/125 32/50/126
f 31/49/127 32/50/128 25/51/129
f 25/51/130 32/50/131 26/52/132
f 26/44/133 32/53/134 28/46/135
f 28/46/136 32/53/137 30/54/138
f 31/55/139 25/43/140 29/56/141
f 29/56/142 25/43/143 27/45/144
usemtl b_Glass_initialShadingGroup
f 33/57/145 34/58/146 35/59/147
f 35/59/148 34/58/149 36/60/150
f 35/59/151 36/60/152 37/61/153
f 37/61/154 36/60/155 38/62/156
f 37/61/157 38/62/158 39/63/159
f 39/63/160 38/62/161 40/64/162
f 39/63/163 40/64/164 33/65/165
f 33/65/166 40/64/167 34/66/168
f 34/58/169 40/67/170 36/60/171
f 36/60/172 40/67/173 38/68/174
f 39/69/175 33/57/176 37/70/177
f 37/70/178 33/57/179 35/59/180
f 41/71/181 42/72/182 43/73/183
f 43/73/184 42/72/185 44/74/186
f 43/73/187 44/74/188 45/75/189
f 45/75/190 44/74/191 46/76/192
f 45/75/193 46/76/194 47/77/195
f 47/77/196 46/76/197 48/78/198
f 47/77/199 48/78/200 41/79/201
f 41/79/202 48/78/203 42/80/204
f 42/72/205 48/81/206 44/74/207
f 44/74/208 48/81/209 46/82/210
f 47/83/211 41/71/212 45/84/213
f 45/84/214 41/71/215 43/73/216
f 49/85/217 50/86/218 51/87/219
f 51/87/220 50/86/221 52/88/222
f 51/87/223 52/88/224 53/89/225
f 53/89/226 52/88/227 54/90/228
f 53/89/229 54/90/230 55/91/231
f 55/91/232 54/90/233 56/92/234
f 55/91/235 56/92/236 49/93/237
f 49/93/238 56/92/239 50/94/240
f 50/86/241 56/95/242 52/88/243
f 52/88/244 56/95/245 54/96/246
f 55/97/247 49/85/248 53/98/249
f 53/98/250 49/85/251 51/87/252
f 57/99/253 58/100/254 59/101/255
f 59/101/256 58/100/257 60/102/258
f 59/101/259 60/102/260 61/103/261
f 61/103/262 60/102/263 62/104/264
f 61/103/265 62/104/266 63/105/267
f 63/105/268 62/104/269 64/106/270
f 63/105/271 64/106/272 57/107/273
f 57/107/274 64/106/275 58/108/276
f 58/100/277 64/109/278 60/102/279
f 60/102/280 64/109/281 62/110/282
f 63/111/283 57/99/284 61/112/285
f 61/112/286 57/99/287 59/101/288
f 65/113/289 66/114/290 67/115/291
f 67/115/292 66/114/293 68/116/294
f 67/115/295 68/116/296 69/117/297
f 69/117/298 68/116/299 70/118/300
f 69/117/301 70/118/302 71/119/303
f 71/119/304 70/118/305 72/120/306
f 71/119/307 72/120/308 65/121/309
f 65/121/310 72/120/311 66/122/312
f 66/114/313 72/123/314 68/116/315
f 68/116/316 72/123/317 70/124/318
f 71/125/319 65/113/320 69/126/321
f 69/126/322 65/113/323 67/115/324
f 73/127/325 74/128/326 75/129/327
f 75/129/328 74/128/329 76/130/330
f 75/129/331 76/130/332 77/131/333
f 77/131/334 76/130/335 78/132/336
f 77/131/337 78/132/338 79/133/339
f 79/133/340 78/132/341 80/134/342
f 79/133/343 80/134/344 73/135/345
f 73/135/346 80/134/347 74/136/348
f 74/128/349 80/137/350 76/130/351
f 76/130/352 80/137/353 78/138/354
f 79/139/355 73/127/356 77/140/357
f 77/140/358 73/127/359 75/129/360
f 81/141/361 82/142/362 83/143/363
f 83/143/364 82/142/365 84/144/366
f 83/143/367 84/144/368 85/145/369
f 85/145/370 84/144/371 86/146/372
f 85/145/373 86/146/374 87/147/375
f 87/147/376 86/146/377 88/148/378
f 87/147/379 88/148/380 81/149/381
f 81/149/382 88/148/383 82/150/384
f 82/142/385 88/151/386 84/144/387
f 84/144/388 88/151/389 86/152/390
f 87/153/391 81/141/392 85/154/393
f 85/154/394 81/141/395 83/143/396
f 89/155/397 90/156/398 91/157/399
f 91/157/400 90/156/401 92/158/402
f 91/157/403 92/158/404 93/159/405
f 93/159/406 92/158/407 94/160/408
f 93/159/409 94/160/410 95/161/411
f 95/161/412 94/160/413 96/162/414
f 95/161/415 96/162/416 89/163/417
f 89/163/418 96/162/419 90/164/420
f 90/156/421 96/165/422 92/158/423
f 92/158/424 96/165/425 94/166/426
f 95/167/427 89/155/428 93/168/429
f 93/168/430 89/155/431 91/157/432
