# This file uses centimeters as units for non-parametric coordinates.

mtllib b_Glass_v3.mtl
g default
v -9.603084 3.882356 9.787173
v 9.603084 3.882356 9.787173
v -9.603084 3.882356 -9.787173
v 9.603084 3.882356 -9.787173
v 50.695747 2.977162 68.760040
v 60.136345 3.924854 57.878372
v 48.845078 15.628073 68.256218
v 58.285679 16.575766 57.374573
v 38.123684 13.682499 58.785206
v 47.564285 14.630192 47.903561
v 39.974350 1.031588 59.289021
v 49.414955 1.979280 48.407368
v 69.577652 -10.369249 20.152182
v 61.934025 -5.249597 29.366379
v 72.562157 0.769547 16.438965
v 64.918533 5.889198 25.653162
v 83.757996 0.850780 25.681320
v 76.114380 5.970432 34.895527
v 80.773499 -10.288015 29.394545
v 73.129868 -5.168363 38.608738
v -82.425949 13.093876 -57.983299
v -77.100067 13.093876 -68.087875
v -82.425949 16.358669 -57.983299
v -77.100067 16.358669 -68.087875
v -86.001877 16.358669 -59.868088
v -80.676003 16.358669 -69.972664
v -86.001877 13.093876 -59.868088
v -80.676003 13.093876 -69.972664
v -81.946533 12.887647 -51.331070
v -80.296715 12.887647 -59.261276
v -81.946533 17.987648 -51.331070
v -80.296715 17.987648 -59.261276
v -87.918648 17.987648 -52.573517
v -86.268845 17.987648 -60.503727
v -87.918648 12.887647 -52.573517
v -86.268845 12.887647 -60.503727
v -81.916252 7.751966 -51.305977
v -80.100266 7.751966 -59.199783
v -81.916252 12.851966 -51.305977
v -80.100266 12.851966 -59.199783
v -87.860962 12.851966 -52.673561
v -86.044991 12.851966 -60.567368
v -87.860962 7.751966 -52.673561
v -86.044991 7.751966 -60.567368
v -77.423515 12.887647 -64.898468
v -70.987938 12.887647 -69.600533
v -77.423515 17.987648 -64.898468
v -70.987938 17.987648 -69.600533
v -80.854774 17.987648 -69.941925
v -74.157738 17.987648 -74.498192
v -80.854774 12.887647 -69.941925
v -74.157738 12.887647 -74.498192
v -77.423515 7.751966 -64.898468
v -70.726471 7.751966 -69.454742
v -77.423515 12.851966 -64.898468
v -70.726471 12.851966 -69.454742
v -80.854774 12.851966 -69.941925
v -74.157738 12.851966 -74.498192
v -80.854774 7.751966 -69.941925
v -74.157738 7.751966 -74.498192
v -82.259399 30.940285 -51.437775
v -80.609596 30.940285 -59.367973
v -82.259399 35.641277 -51.437775
v -80.609596 35.641277 -59.367973
v -88.032471 35.641277 -52.638802
v -86.382660 35.641277 -60.569016
v -88.032471 30.940285 -52.638802
v -86.382660 30.940285 -60.569016
v -82.156853 41.078522 -51.436344
v -80.507050 41.078522 -59.366554
v -82.156853 46.178520 -51.436344
v -80.507050 46.178520 -59.366554
v -88.128975 46.178520 -52.678795
v -86.479156 46.178520 -60.608994
v -88.128975 41.078522 -52.678795
v -86.479156 41.078522 -60.608994
vt 0.000000 0.000000
vt 1.000000 0.000000
vt 0.000000 1.000000
vt 1.000000 1.000000
vt 0.375000 0.000000
vt 0.625000 0.000000
vt 0.375000 0.250000
vt 0.625000 0.250000
vt 0.375000 0.500000
vt 0.625000 0.500000
vt 0.375000 0.750000
vt 0.625000 0.750000
vt 0.375000 1.000000
vt 0.625000 1.000000
vt 0.875000 0.000000
vt 0.875000 0.250000
vt 0.125000 0.000000
vt 0.125000 0.250000
vt 0.375000 0.000000
vt 0.625000 0.000000
vt 0.375000 0.250000
vt 0.625000 0.250000
vt 0.375000 0.500000
vt 0.625000 0.500000
vt 0.375000 0.750000
vt 0.625000 0.750000
vt 0.375000 1.000000
vt 0.625000 1.000000
vt 0.875000 0.000000
vt 0.875000 0.250000
vt 0.125000 0.000000
vt 0.125000 0.250000
vt 0.375000 0.000000
vt 0.625000 0.000000
vt 0.375000 0.250000
vt 0.625000 0.250000
vt 0.375000 0.500000
vt 0.625000 0.500000
vt 0.375000 0.750000
vt 0.625000 0.750000
vt 0.375000 1.000000
vt 0.625000 1.000000
vt 0.875000 0.000000
vt 0.875000 0.250000
vt 0.125000 0.000000
vt 0.125000 0.250000
vt 0.375000 0.000000
vt 0.625000 0.000000
vt 0.375000 0.250000
vt 0.625000 0.250000
vt 0.375000 0.500000
vt 0.625000 0.500000
vt 0.375000 0.750000
vt 0.625000 0.750000
vt 0.375000 1.000000
vt 0.625000 1.000000
vt 0.875000 0.000000
vt 0.875000 0.250000
vt 0.125000 0.000000
vt 0.125000 0.250000
vt 0.375000 0.000000
vt 0.625000 0.000000
vt 0.375000 0.250000
vt 0.625000 0.250000
vt 0.375000 0.500000
vt 0.625000 0.500000
vt 0.375000 0.750000
vt 0.625000 0.750000
vt 0.375000 1.000000
vt 0.625000 1.000000
vt 0.875000 0.000000
vt 0.875000 0.250000
vt 0.125000 0.000000
vt 0.125000 0.250000
vt 0.375000 0.000000
vt 0.625000 0.000000
vt 0.375000 0.250000
vt 0.625000 0.250000
vt 0.375000 0.500000
vt 0.625000 0.500000
vt 0.375000 0.750000
vt 0.625000 0.750000
vt 0.375000 1.000000
vt 0.625000 1.000000
vt 0.875000 0.000000
vt 0.875000 0.250000
vt 0.125000 0.000000
vt 0.125000 0.250000
vt 0.375000 0.000000
vt 0.625000 0.000000
vt 0.375000 0.250000
vt 0.625000 0.250000
vt 0.375000 0.500000
vt 0.625000 0.500000
vt 0.375000 0.750000
vt 0.625000 0.750000
vt 0.375000 1.000000
vt 0.625000 1.000000
vt 0.875000 0.000000
vt 0.875000 0.250000
vt 0.125000 0.000000
vt 0.125000 0.250000
vt 0.375000 0.000000
vt 0.625000 0.000000
vt 0.375000 0.250000
vt 0.625000 0.250000
vt 0.375000 0.500000
vt 0.625000 0.500000
vt 0.375000 0.750000
vt 0.625000 0.750000
vt 0.375000 1.000000
vt 0.625000 1.000000
vt 0.875000 0.000000
vt 0.875000 0.250000
vt 0.125000 0.000000
vt 0.125000 0.250000
vt 0.375000 0.000000
vt 0.625000 0.000000
vt 0.375000 0.250000
vt 0.625000 0.250000
vt 0.375000 0.500000
vt 0.625000 0.500000
vt 0.375000 0.750000
vt 0.625000 0.750000
vt 0.375000 1.000000
vt 0.625000 1.000000
vt 0.875000 0.000000
vt 0.875000 0.250000
vt 0.125000 0.000000
vt 0.125000 0.250000
vn 0.000000 1.000000 0.000000
vn 0.000000 1.000000 0.000000
vn 0.000000 1.000000 0.000000
vn 0.000000 1.000000 0.000000
vn 0.000000 1.000000 0.000000
vn 0.000000 1.000000 0.000000
vn 0.742621 0.134761 0.656014
vn 0.742622 0.134761 0.656013
vn 0.742621 0.134761 0.656014
vn 0.742621 0.134761 0.656014
vn 0.742622 0.134761 0.656013
vn 0.742622 0.134761 0.656013
vn -0.144634 0.988702 -0.039374
vn -0.144634 0.988702 -0.039374
vn -0.144634 0.988702 -0.039374
vn -0.144634 0.988702 -0.039374
vn -0.144634 0.988702 -0.039374
vn -0.144634 0.988702 -0.039374
vn -0.742622 -0.134761 -0.656013
vn -0.742622 -0.134761 -0.656013
vn -0.742622 -0.134761 -0.656013
vn -0.742622 -0.134761 -0.656013
vn -0.742622 -0.134761 -0.656013
vn -0.742621 -0.134761 -0.656014
vn 0.144634 -0.988702 0.039374
vn 0.144634 -0.988702 0.039374
vn 0.144634 -0.988702 0.039374
vn 0.144634 -0.988702 0.039374
vn 0.144634 -0.988702 0.039374
vn 0.144634 -0.988702 0.039374
vn 0.653907 0.065642 -0.753722
vn 0.653907 0.065642 -0.753722
vn 0.653907 0.065642 -0.753722
vn 0.653907 0.065642 -0.753722
vn 0.653907 0.065642 -0.753722
vn 0.653907 0.065642 -0.753722
vn -0.653907 -0.065642 0.753722
vn -0.653907 -0.065642 0.753722
vn -0.653907 -0.065642 0.753722
vn -0.653907 -0.065642 0.753722
vn -0.653907 -0.065642 0.753722
vn -0.653907 -0.065642 0.753722
vn -0.771166 -0.005595 -0.636610
vn -0.771166 -0.005595 -0.636610
vn -0.771166 -0.005595 -0.636610
vn -0.771166 -0.005595 -0.636610
vn -0.771166 -0.005595 -0.636610
vn -0.771166 -0.005595 -0.636610
vn 0.246352 0.919438 -0.306503
vn 0.246352 0.919438 -0.306503
vn 0.246352 0.919438 -0.306503
vn 0.246352 0.919438 -0.306503
vn 0.246352 0.919438 -0.306503
vn 0.246352 0.919438 -0.306503
vn 0.771166 0.005596 0.636610
vn 0.771166 0.005595 0.636610
vn 0.771166 0.005595 0.636610
vn 0.771166 0.005595 0.636610
vn 0.771166 0.005595 0.636610
vn 0.771166 0.005595 0.636610
vn -0.246352 -0.919438 0.306503
vn -0.246352 -0.919438 0.306503
vn -0.246352 -0.919438 0.306503
vn -0.246352 -0.919438 0.306503
vn -0.246352 -0.919438 0.306503
vn -0.246352 -0.919438 0.306503
vn -0.587039 0.393195 0.707660
vn -0.587039 0.393195 0.707660
vn -0.587039 0.393195 0.707660
vn -0.587039 0.393195 0.707660
vn -0.587039 0.393195 0.707660
vn -0.587039 0.393195 0.707660
vn 0.587039 -0.393195 -0.707660
vn 0.587039 -0.393195 -0.707660
vn 0.587039 -0.393195 -0.707660
vn 0.587039 -0.393195 -0.707660
vn 0.587039 -0.393195 -0.707660
vn 0.587039 -0.393195 -0.707660
vn 0.884641 0.000000 0.466273
vn 0.884641 0.000000 0.466273
vn 0.884641 0.000000 0.466273
vn 0.884641 0.000000 0.466273
vn 0.884641 0.000000 0.466273
vn 0.884641 0.000000 0.466273
vn 0.000000 1.000000 0.000000
vn 0.000000 1.000000 0.000000
vn 0.000000 1.000000 0.000000
vn 0.000000 1.000000 0.000000
vn 0.000000 1.000000 0.000000
vn 0.000000 1.000000 0.000000
vn -0.884641 0.000000 -0.466273
vn -0.884641 0.000000 -0.466273
vn -0.884641 0.000000 -0.466273
vn -0.884641 0.000000 -0.466273
vn -0.884641 0.000000 -0.466273
vn -0.884640 0.000000 -0.466274
vn 0.000000 -1.000000 0.000000
vn 0.000000 -1.000000 0.000000
vn 0.000000 -1.000000 0.000000
vn 0.000000 -1.000000 0.000000
vn 0.000000 -1.000000 0.000000
vn 0.000000 -1.000000 0.000000
vn 0.466273 0.000000 -0.884641
vn 0.466274 0.000000 -0.884640
vn 0.466274 0.000000 -0.884640
vn 0.466274 0.000000 -0.884640
vn 0.466274 0.000000 -0.884640
vn 0.466275 0.000000 -0.884640
vn -0.466275 0.000000 0.884640
vn -0.466274 0.000000 0.884640
vn -0.466274 0.000000 0.884640
vn -0.466274 0.000000 0.884640
vn -0.466274 0.000000 0.884640
vn -0.466273 0.000000 0.884641
vn 0.979037 0.000000 0.203681
vn 0.979037 0.000000 0.203681
vn 0.979037 0.000000 0.203681
vn 0.979037 0.000000 0.203681
vn 0.979037 0.000000 0.203681
vn 0.979037 0.000000 0.203681
vn 0.000000 1.000000 0.000000
vn 0.000000 1.000000 0.000000
vn 0.000000 1.000000 0.000000
vn 0.000000 1.000000 0.000000
vn 0.000000 1.000000 0.000000
vn 0.000000 1.000000 0.000000
vn -0.979038 0.000000 -0.203680
vn -0.979038 0.000000 -0.203680
vn -0.979038 0.000000 -0.203680
vn -0.979038 0.000000 -0.203680
vn -0.979038 0.000000 -0.203680
vn -0.979038 0.000000 -0.203680
vn 0.000000 -1.000000 0.000000
vn 0.000000 -1.000000 0.000000
vn 0.000000 -1.000000 0.000000
vn 0.000000 -1.000000 0.000000
vn 0.000000 -1.000000 0.000000
vn 0.000000 -1.000000 0.000000
vn 0.203681 0.000000 -0.979037
vn 0.203681 0.000000 -0.979037
vn 0.203681 0.000000 -0.979037
vn 0.203681 0.000000 -0.979037
vn 0.203681 0.000000 -0.979037
vn 0.203680 0.000000 -0.979038
vn -0.203680 0.000000 0.979038
vn -0.203681 0.000000 0.979037
vn -0.203681 0.000000 0.979037
vn -0.203681 0.000000 0.979037
vn -0.203681 0.000000 0.979037
vn -0.203681 0.000000 0.979037
vn 0.974544 0.000000 0.224195
vn 0.974544 0.000000 0.224195
vn 0.974544 0.000000 0.224195
vn 0.974544 0.000000 0.224195
vn 0.974544 0.000000 0.224195
vn 0.974544 0.000000 0.224195
vn 0.000000 1.000000 0.000000
vn 0.000000 1.000000 0.000000
vn 0.000000 1.000000 0.000000
vn 0.000000 1.000000 0.000000
vn 0.000000 1.000000 0.000000
vn 0.000000 1.000000 0.000000
vn -0.974544 0.000000 -0.224195
vn -0.974544 0.000000 -0.224195
vn -0.974544 0.000000 -0.224195
vn -0.974544 0.000000 -0.224195
vn -0.974544 0.000000 -0.224195
vn -0.974544 0.000000 -0.224195
vn 0.000000 -1.000000 0.000000
vn 0.000000 -1.000000 0.000000
vn 0.000000 -1.000000 0.000000
vn 0.000000 -1.000000 0.000000
vn 0.000000 -1.000000 0.000000
vn 0.000000 -1.000000 0.000000
vn 0.224194 0.000000 -0.974545
vn 0.224195 0.000000 -0.974544
vn 0.224195 0.000000 -0.974544
vn 0.224195 0.000000 -0.974544
vn 0.224195 0.000000 -0.974544
vn 0.224195 0.000000 -0.974544
vn -0.224195 0.000000 0.974544
vn -0.224195 0.000000 0.974544
vn -0.224195 0.000000 0.974544
vn -0.224195 0.000000 0.974544
vn -0.224195 0.000000 0.974544
vn -0.224194 0.000000 0.974545
vn 0.562504 0.000000 0.826795
vn 0.562503 0.000000 0.826796
vn 0.562504 0.000000 0.826795
vn 0.562504 0.000000 0.826795
vn 0.562503 0.000000 0.826796
vn 0.562503 0.000000 0.826796
vn 0.000000 1.000000 0.000000
vn 0.000000 1.000000 0.000000
vn 0.000000 1.000000 0.000000
vn 0.000000 1.000000 0.000000
vn 0.000000 1.000000 0.000000
vn 0.000000 1.000000 0.000000
vn -0.562503 0.000000 -0.826796
vn -0.562503 0.000000 -0.826796
vn -0.562503 0.000000 -0.826796
vn -0.562503 0.000000 -0.826796
vn -0.562503 0.000000 -0.826796
vn -0.562504 0.000000 -0.826795
vn 0.000000 -1.000000 0.000000
vn 0.000000 -1.000000 0.000000
vn 0.000000 -1.000000 0.000000
vn 0.000000 -1.000000 0.000000
vn 0.000000 -1.000000 0.000000
vn 0.000000 -1.000000 0.000000
vn 0.826796 0.000000 -0.562503
vn 0.826796 0.000000 -0.562503
vn 0.826796 0.000000 -0.562503
vn 0.826796 0.000000 -0.562503
vn 0.826796 0.000000 -0.562503
vn 0.826796 0.000000 -0.562503
vn -0.826796 0.000000 0.562503
vn -0.826796 0.000000 0.562503
vn -0.826796 0.000000 0.562503
vn -0.826796 0.000000 0.562503
vn -0.826796 0.000000 0.562503
vn -0.826796 0.000000 0.562503
vn 0.562503 0.000000 0.826796
vn 0.562504 0.000000 0.826795
vn 0.562503 0.000000 0.826796
vn 0.562503 0.000000 0.826796
vn 0.562504 0.000000 0.826795
vn 0.562505 0.000000 0.826794
vn 0.000000 1.000000 0.000000
vn 0.000000 1.000000 0.000000
vn 0.000000 1.000000 0.000000
vn 0.000000 1.000000 0.000000
vn 0.000000 1.000000 0.000000
vn 0.000000 1.000000 0.000000
vn -0.562503 0.000000 -0.826796
vn -0.562503 0.000000 -0.826796
vn -0.562503 0.000000 -0.826796
vn -0.562503 0.000000 -0.826796
vn -0.562503 0.000000 -0.826796
vn -0.562504 0.000000 -0.826795
vn 0.000000 -1.000000 0.000000
vn 0.000000 -1.000000 0.000000
vn 0.000000 -1.000000 0.000000
vn 0.000000 -1.000000 0.000000
vn 0.000000 -1.000000 0.000000
vn 0.000000 -1.000000 0.000000
vn 0.826796 0.000000 -0.562503
vn 0.826796 0.000000 -0.562503
vn 0.826796 0.000000 -0.562503
vn 0.826796 0.000000 -0.562503
vn 0.826796 0.000000 -0.562503
vn 0.826796 0.000000 -0.562503
vn -0.826796 0.000000 0.562503
vn -0.826796 0.000000 0.562503
vn -0.826796 0.000000 0.562503
vn -0.826796 0.000000 0.562503
vn -0.826796 0.000000 0.562503
vn -0.826796 0.000000 0.562503
vn 0.979038 0.000000 0.203680
vn 0.979037 0.000000 0.203681
vn 0.979037 0.000000 0.203681
vn 0.979037 0.000000 0.203681
vn 0.979037 0.000000 0.203681
vn 0.979037 0.000000 0.203681
vn 0.000000 1.000000 0.000001
vn 0.000000 1.000000 0.000000
vn 0.000000 1.000000 0.000000
vn 0.000000 1.000000 0.000000
vn 0.000000 1.000000 0.000000
vn 0.000000 1.000000 0.000000
vn -0.979037 0.000000 -0.203681
vn -0.979037 0.000000 -0.203681
vn -0.979037 0.000000 -0.203681
vn -0.979037 0.000000 -0.203681
vn -0.979037 0.000000 -0.203681
vn -0.979038 0.000000 -0.203680
vn 0.000000 -1.000000 0.000000
vn 0.000000 -1.000000 0.000000
vn 0.000000 -1.000000 0.000000
vn 0.000000 -1.000000 0.000000
vn 0.000000 -1.000000 0.000000
vn 0.000000 -1.000000 0.000000
vn 0.203680 0.000000 -0.979038
vn 0.203681 0.000000 -0.979037
vn 0.203681 0.000000 -0.979037
vn 0.203681 0.000000 -0.979037
vn 0.203681 0.000000 -0.979037
vn 0.203681 0.000000 -0.979037
vn -0.203680 0.000000 0.979038
vn -0.203681 0.000000 0.979037
vn -0.203681 0.000000 0.979037
vn -0.203681 0.000000 0.979037
vn -0.203681 0.000000 0.979037
vn -0.203681 0.000000 0.979037
vn 0.979037 0.000000 0.203681
vn 0.979037 0.000000 0.203681
vn 0.979037 0.000000 0.203681
vn 0.979037 0.000000 0.203681
vn 0.979037 0.000000 0.203681
vn 0.979037 0.000000 0.203681
vn 0.000000 1.000000 0.000001
vn 0.000000 1.000000 0.000000
vn 0.000000 1.000000 0.000000
vn 0.000000 1.000000 0.000000
vn 0.000000 1.000000 0.000000
vn -0.000000 1.000000 -0.000001
vn -0.979037 0.000000 -0.203681
vn -0.979037 0.000000 -0.203681
vn -0.979037 0.000000 -0.203681
vn -0.979037 0.000000 -0.203681
vn -0.979037 0.000000 -0.203681
vn -0.979037 0.000000 -0.203681
vn 0.000000 -1.000000 0.000000
vn 0.000000 -1.000000 0.000000
vn 0.000000 -1.000000 0.000000
vn 0.000000 -1.000000 0.000000
vn 0.000000 -1.000000 0.000000
vn 0.000000 -1.000000 0.000000
vn 0.203680 0.000000 -0.979038
vn 0.203680 0.000000 -0.979038
vn 0.203680 0.000000 -0.979038
vn 0.203680 0.000000 -0.979038
vn 0.203680 0.000000 -0.979038
vn 0.203681 0.000000 -0.979037
vn -0.203681 0.000000 0.979037
vn -0.203681 0.000000 0.979037
vn -0.203681 0.000000 0.979037
vn -0.203681 0.000000 0.979037
vn -0.203681 0.000000 0.979037
vn -0.203681 0.000000 0.979037
s off
g b_Glass_v3:pPlane2
usemtl b_Glass_v3:initialShadingGroup
f 1/1/1 2/2/2 3/3/3
f 3/3/4 2/2/5 4/4/6
f 5/5/7 6/6/8 7/7/9
f 7/7/10 6/6/11 8/8/12
f 7/7/13 8/8/14 9/9/15
f 9/9/16 8/8/17 10/10/18
f 9/9/19 10/10/20 11/11/21
f 11/11/22 10/10/23 12/12/24
f 11/11/25 12/12/26 5/13/27
f 5/13/28 12/12/29 6/14/30
f 6/6/31 12/15/32 8/8/33
f 8/8/34 12/15/35 10/16/36
f 11/17/37 5/5/38 9/18/39
f 9/18/40 5/5/41 7/7/42
f 13/19/43 14/20/44 15/21/45
f 15/21/46 14/20/47 16/22/48
f 15/21/49 16/22/50 17/23/51
f 17/23/52 16/22/53 18/24/54
f 17/23/55 18/24/56 19/25/57
f 19/25/58 18/24/59 20/26/60
f 19/25/61 20/26/62 13/27/63
f 13/27/64 20/26/65 14/28/66
f 14/20/67 20/29/68 16/22/69
f 16/22/70 20/29/71 18/30/72
f 19/31/73 13/19/74 17/32/75
f 17/32/76 13/19/77 15/21/78
f 21/33/79 22/34/80 23/35/81
f 23/35/82 22/34/83 24/36/84
f 23/35/85 24/36/86 25/37/87
f 25/37/88 24/36/89 26/38/90
f 25/37/91 26/38/92 27/39/93
f 27/39/94 26/38/95 28/40/96
f 27/39/97 28/40/98 21/41/99
f 21/41/100 28/40/101 22/42/102
f 22/34/103 28/43/104 24/36/105
f 24/36/106 28/43/107 26/44/108
f 27/45/109 21/33/110 25/46/111
f 25/46/112 21/33/113 23/35/114
f 29/47/115 30/48/116 31/49/117
f 31/49/118 30/48/119 32/50/120
f 31/49/121 32/50/122 33/51/123
f 33/51/124 32/50/125 34/52/126
f 33/51/127 34/52/128 35/53/129
f 35/53/130 34/52/131 36/54/132
f 35/53/133 36/54/134 29/55/135
f 29/55/136 36/54/137 30/56/138
f 30/48/139 36/57/140 32/50/141
f 32/50/142 36/57/143 34/58/144
f 35/59/145 29/47/146 33/60/147
f 33/60/148 29/47/149 31/49/150
f 37/61/151 38/62/152 39/63/153
f 39/63/154 38/62/155 40/64/156
f 39/63/157 40/64/158 41/65/159
f 41/65/160 40/64/161 42/66/162
f 41/65/163 42/66/164 43/67/165
f 43/67/166 42/66/167 44/68/168
f 43/67/169 44/68/170 37/69/171
f 37/69/172 44/68/173 38/70/174
f 38/62/175 44/71/176 40/64/177
f 40/64/178 44/71/179 42/72/180
f 43/73/181 37/61/182 41/74/183
f 41/74/184 37/61/185 39/63/186
f 45/75/187 46/76/188 47/77/189
f 47/77/190 46/76/191 48/78/192
f 47/77/193 48/78/194 49/79/195
f 49/79/196 48/78/197 50/80/198
f 49/79/199 50/80/200 51/81/201
f 51/81/202 50/80/203 52/82/204
f 51/81/205 52/82/206 45/83/207
f 45/83/208 52/82/209 46/84/210
f 46/76/211 52/85/212 48/78/213
f 48/78/214 52/85/215 50/86/216
f 51/87/217 45/75/218 49/88/219
f 49/88/220 45/75/221 47/77/222
f 53/89/223 54/90/224 55/91/225
f 55/91/226 54/90/227 56/92/228
f 55/91/229 56/92/230 57/93/231
f 57/93/232 56/92/233 58/94/234
f 57/93/235 58/94/236 59/95/237
f 59/95/238 58/94/239 60/96/240
f 59/95/241 60/96/242 53/97/243
f 53/97/244 60/96/245 54/98/246
f 54/90/247 60/99/248 56/92/249
f 56/92/250 60/99/251 58/100/252
f 59/101/253 53/89/254 57/102/255
f 57/102/256 53/89/257 55/91/258
f 61/103/259 62/104/260 63/105/261
f 63/105/262 62/104/263 64/106/264
f 63/105/265 64/106/266 65/107/267
f 65/107/268 64/106/269 66/108/270
f 65/107/271 66/108/272 67/109/273
f 67/109/274 66/108/275 68/110/276
f 67/109/277 68/110/278 61/111/279
f 61/111/280 68/110/281 62/112/282
f 62/104/283 68/113/284 64/106/285
f 64/106/286 68/113/287 66/114/288
f 67/115/289 61/103/290 65/116/291
f 65/116/292 61/103/293 63/105/294
f 69/117/295 70/118/296 71/119/297
f 71/119/298 70/118/299 72/120/300
f 71/119/301 72/120/302 73/121/303
f 73/121/304 72/120/305 74/122/306
f 73/121/307 74/122/308 75/123/309
f 75/123/310 74/122/311 76/124/312
f 75/123/313 76/124/314 69/125/315
f 69/125/316 76/124/317 70/126/318
f 70/118/319 76/127/320 72/120/321
f 72/120/322 76/127/323 74/128/324
f 75/129/325 69/117/326 73/130/327
f 73/130/328 69/117/329 71/119/330
