# This file uses centimeters as units for non-parametric coordinates.

mtllib b_Glass.mtl
g default
v -51.593044 11.887647 44.707222
v -50.600128 11.887647 36.668308
v -51.593044 16.987648 44.707222
v -50.600128 16.987648 36.668308
v -57.647041 16.987648 43.959469
v -56.654125 16.987648 35.920555
v -57.647041 11.887647 43.959469
v -56.654125 11.887647 35.920555
v -51.913628 29.940285 44.626583
v -50.920708 29.940285 36.587669
v -51.913628 34.641277 44.626583
v -50.920708 34.641277 36.587669
v -57.765839 34.641277 43.903751
v -56.772919 34.641277 35.864838
v -57.765839 29.940285 43.903751
v -56.772919 29.940285 35.864838
v -51.811306 40.078522 44.619579
v -50.818386 40.078522 36.580666
v -51.811306 45.178520 44.619579
v -50.818386 45.178520 36.580666
v -57.865299 45.178520 43.871826
v -56.872379 45.178520 35.832912
v -57.865299 40.078522 43.871826
v -56.872379 40.078522 35.832912
v -51.560802 6.751966 44.729752
v -50.399288 6.751966 36.713463
v -51.560802 11.851966 44.729752
v -50.399288 11.851966 36.713463
v -57.597759 11.851966 43.855030
v -56.436245 11.851966 35.838741
v -57.597759 6.751966 43.855030
v -56.436245 6.751966 35.838741
v -48.199615 6.751966 30.814182
v -41.899414 6.751966 25.723267
v -48.199615 11.851966 30.814182
v -41.899414 11.851966 25.723267
v -52.033516 11.851966 26.069584
v -45.733315 11.851966 20.978668
v -52.033516 6.751966 26.069584
v -45.733315 6.751966 20.978668
v -48.199615 11.887647 30.814182
v -41.899414 11.887647 25.723267
v -48.199615 16.987648 30.814182
v -41.899414 16.987648 25.723267
v -52.033516 16.987648 26.069584
v -45.733315 16.987648 20.978668
v -52.033516 11.887647 26.069584
v -45.733315 11.887647 20.978668
v -48.199615 23.988190 30.814182
v -41.899414 23.988190 25.723267
v -48.199615 29.088188 30.814182
v -41.899414 29.088188 25.723267
v -52.033516 29.088188 26.069584
v -45.733315 29.088188 20.978668
v -52.033516 23.988190 26.069584
v -45.733315 23.988190 20.978668
v -52.617203 12.093876 38.116844
v -48.139214 12.093876 27.608986
v -52.617203 15.358668 38.116844
v -48.139214 15.358668 27.608986
v -56.335854 15.358668 36.532116
v -51.857864 15.358668 26.024260
v -56.335854 12.093876 36.532116
v -51.857864 12.093876 26.024260
vt 0.375000 0.000000
vt 0.625000 0.000000
vt 0.375000 0.250000
vt 0.625000 0.250000
vt 0.375000 0.500000
vt 0.625000 0.500000
vt 0.375000 0.750000
vt 0.625000 0.750000
vt 0.375000 1.000000
vt 0.625000 1.000000
vt 0.875000 0.000000
vt 0.875000 0.250000
vt 0.125000 0.000000
vt 0.125000 0.250000
vt 0.375000 0.000000
vt 0.625000 0.000000
vt 0.375000 0.250000
vt 0.625000 0.250000
vt 0.375000 0.500000
vt 0.625000 0.500000
vt 0.375000 0.750000
vt 0.625000 0.750000
vt 0.375000 1.000000
vt 0.625000 1.000000
vt 0.875000 0.000000
vt 0.875000 0.250000
vt 0.125000 0.000000
vt 0.125000 0.250000
vt 0.375000 0.000000
vt 0.625000 0.000000
vt 0.375000 0.250000
vt 0.625000 0.250000
vt 0.375000 0.500000
vt 0.625000 0.500000
vt 0.375000 0.750000
vt 0.625000 0.750000
vt 0.375000 1.000000
vt 0.625000 1.000000
vt 0.875000 0.000000
vt 0.875000 0.250000
vt 0.125000 0.000000
vt 0.125000 0.250000
vt 0.375000 0.000000
vt 0.625000 0.000000
vt 0.375000 0.250000
vt 0.625000 0.250000
vt 0.375000 0.500000
vt 0.625000 0.500000
vt 0.375000 0.750000
vt 0.625000 0.750000
vt 0.375000 1.000000
vt 0.625000 1.000000
vt 0.875000 0.000000
vt 0.875000 0.250000
vt 0.125000 0.000000
vt 0.125000 0.250000
vt 0.375000 0.000000
vt 0.625000 0.000000
vt 0.375000 0.250000
vt 0.625000 0.250000
vt 0.375000 0.500000
vt 0.625000 0.500000
vt 0.375000 0.750000
vt 0.625000 0.750000
vt 0.375000 1.000000
vt 0.625000 1.000000
vt 0.875000 0.000000
vt 0.875000 0.250000
vt 0.125000 0.000000
vt 0.125000 0.250000
vt 0.375000 0.000000
vt 0.625000 0.000000
vt 0.375000 0.250000
vt 0.625000 0.250000
vt 0.375000 0.500000
vt 0.625000 0.500000
vt 0.375000 0.750000
vt 0.625000 0.750000
vt 0.375000 1.000000
vt 0.625000 1.000000
vt 0.875000 0.000000
vt 0.875000 0.250000
vt 0.125000 0.000000
vt 0.125000 0.250000
vt 0.375000 0.000000
vt 0.625000 0.000000
vt 0.375000 0.250000
vt 0.625000 0.250000
vt 0.375000 0.500000
vt 0.625000 0.500000
vt 0.375000 0.750000
vt 0.625000 0.750000
vt 0.375000 1.000000
vt 0.625000 1.000000
vt 0.875000 0.000000
vt 0.875000 0.250000
vt 0.125000 0.000000
vt 0.125000 0.250000
vt 0.375000 0.000000
vt 0.625000 0.000000
vt 0.375000 0.250000
vt 0.625000 0.250000
vt 0.375000 0.500000
vt 0.625000 0.500000
vt 0.375000 0.750000
vt 0.625000 0.750000
vt 0.375000 1.000000
vt 0.625000 1.000000
vt 0.875000 0.000000
vt 0.875000 0.250000
vt 0.125000 0.000000
vt 0.125000 0.250000
vn 0.992458 0.000000 0.122582
vn 0.992458 0.000000 0.122582
vn 0.992458 0.000000 0.122582
vn 0.992458 0.000000 0.122582
vn 0.000000 1.000000 0.000000
vn 0.000000 1.000000 0.000000
vn 0.000000 1.000000 0.000000
vn 0.000000 1.000000 0.000000
vn -0.992458 0.000000 -0.122582
vn -0.992458 0.000000 -0.122582
vn -0.992458 0.000000 -0.122582
vn -0.992458 0.000000 -0.122582
vn 0.000000 -1.000000 0.000000
vn 0.000000 -1.000000 0.000000
vn 0.000000 -1.000000 0.000000
vn 0.000000 -1.000000 -0.000000
vn 0.122582 0.000000 -0.992458
vn 0.122582 0.000000 -0.992458
vn 0.122582 0.000000 -0.992458
vn 0.122582 0.000000 -0.992458
vn -0.122582 0.000000 0.992458
vn -0.122583 0.000000 0.992458
vn -0.122583 0.000000 0.992458
vn -0.122583 0.000000 0.992458
vn 0.992458 0.000000 0.122582
vn 0.992458 0.000000 0.122583
vn 0.992458 0.000000 0.122583
vn 0.992458 0.000000 0.122583
vn 0.000000 1.000000 0.000001
vn 0.000000 1.000000 -0.000000
vn 0.000000 1.000000 0.000000
vn 0.000000 1.000000 -0.000000
vn -0.992458 0.000000 -0.122583
vn -0.992458 0.000000 -0.122583
vn -0.992458 0.000000 -0.122583
vn -0.992458 0.000000 -0.122583
vn 0.000000 -1.000000 0.000000
vn 0.000000 -1.000000 0.000000
vn 0.000000 -1.000000 0.000000
vn 0.000000 -1.000000 0.000000
vn 0.122583 0.000000 -0.992458
vn 0.122583 0.000000 -0.992458
vn 0.122583 0.000000 -0.992458
vn 0.122582 0.000000 -0.992458
vn -0.122583 0.000000 0.992458
vn -0.122583 0.000000 0.992458
vn -0.122583 0.000000 0.992458
vn -0.122582 0.000000 0.992458
vn 0.992458 0.000000 0.122583
vn 0.992458 0.000000 0.122583
vn 0.992458 0.000000 0.122583
vn 0.992458 0.000000 0.122583
vn 0.000000 1.000000 0.000000
vn 0.000000 1.000000 0.000000
vn 0.000000 1.000000 0.000000
vn 0.000000 1.000000 0.000000
vn -0.992458 0.000000 -0.122583
vn -0.992458 0.000000 -0.122583
vn -0.992458 0.000000 -0.122583
vn -0.992458 0.000000 -0.122583
vn 0.000000 -1.000000 0.000000
vn 0.000000 -1.000000 -0.000000
vn 0.000000 -1.000000 -0.000000
vn 0.000000 -1.000000 -0.000000
vn 0.122583 0.000000 -0.992458
vn 0.122582 0.000000 -0.992458
vn 0.122583 0.000000 -0.992458
vn 0.122581 0.000000 -0.992459
vn -0.122583 0.000000 0.992458
vn -0.122582 0.000000 0.992458
vn -0.122583 0.000000 0.992458
vn -0.122581 0.000000 0.992459
vn 0.989665 0.000000 0.143397
vn 0.989665 0.000000 0.143397
vn 0.989665 0.000000 0.143397
vn 0.989665 0.000000 0.143397
vn 0.000000 1.000000 0.000000
vn 0.000000 1.000000 0.000000
vn 0.000000 1.000000 0.000000
vn 0.000000 1.000000 0.000000
vn -0.989665 0.000000 -0.143397
vn -0.989665 0.000000 -0.143397
vn -0.989665 0.000000 -0.143397
vn -0.989665 0.000000 -0.143397
vn 0.000000 -1.000000 -0.000000
vn 0.000000 -1.000000 -0.000000
vn 0.000000 -1.000000 -0.000000
vn 0.000000 -1.000000 0.000000
vn 0.143398 0.000000 -0.989665
vn 0.143397 0.000000 -0.989665
vn 0.143397 0.000000 -0.989665
vn 0.143396 0.000000 -0.989665
vn -0.143396 0.000000 0.989665
vn -0.143397 0.000000 0.989665
vn -0.143397 0.000000 0.989665
vn -0.143398 0.000000 0.989665
vn 0.628509 0.000000 0.777803
vn 0.628508 0.000000 0.777803
vn 0.628508 0.000000 0.777803
vn 0.628508 0.000000 0.777803
vn 0.000000 1.000000 0.000000
vn 0.000000 1.000000 0.000000
vn 0.000000 1.000000 0.000000
vn 0.000000 1.000000 0.000000
vn -0.628509 0.000000 -0.777803
vn -0.628508 0.000000 -0.777803
vn -0.628509 0.000000 -0.777803
vn -0.628508 0.000000 -0.777803
vn 0.000000 -1.000000 0.000000
vn 0.000000 -1.000000 0.000000
vn 0.000000 -1.000000 0.000000
vn 0.000000 -1.000000 0.000000
vn 0.777803 0.000000 -0.628508
vn 0.777803 0.000000 -0.628508
vn 0.777803 0.000000 -0.628508
vn 0.777803 0.000000 -0.628508
vn -0.777803 0.000000 0.628508
vn -0.777803 0.000000 0.628508
vn -0.777803 0.000000 0.628508
vn -0.777803 0.000000 0.628508
vn 0.628509 0.000000 0.777803
vn 0.628508 0.000000 0.777803
vn 0.628509 0.000000 0.777803
vn 0.628508 0.000000 0.777803
vn 0.000000 1.000000 0.000000
vn 0.000000 1.000000 0.000000
vn 0.000000 1.000000 0.000000
vn 0.000000 1.000000 0.000000
vn -0.628508 0.000000 -0.777803
vn -0.628508 0.000000 -0.777803
vn -0.628508 0.000000 -0.777803
vn -0.628509 0.000000 -0.777803
vn 0.000000 -1.000000 -0.000000
vn 0.000000 -1.000000 -0.000000
vn 0.000000 -1.000000 -0.000000
vn 0.000000 -1.000000 0.000000
vn 0.777803 0.000000 -0.628508
vn 0.777803 0.000000 -0.628508
vn 0.777803 0.000000 -0.628508
vn 0.777803 0.000000 -0.628508
vn -0.777803 0.000000 0.628508
vn -0.777803 0.000000 0.628508
vn -0.777803 0.000000 0.628508
vn -0.777803 0.000000 0.628508
vn 0.628508 0.000000 0.777803
vn 0.628509 0.000000 0.777803
vn 0.628508 0.000000 0.777803
vn 0.628509 0.000000 0.777803
vn 0.000000 1.000000 -0.000000
vn 0.000000 1.000000 -0.000000
vn 0.000000 1.000000 -0.000000
vn 0.000000 1.000000 0.000000
vn -0.628508 0.000000 -0.777803
vn -0.628508 0.000000 -0.777803
vn -0.628508 0.000000 -0.777803
vn -0.628508 0.000000 -0.777803
vn 0.000000 -1.000000 -0.000000
vn 0.000000 -1.000000 -0.000000
vn 0.000000 -1.000000 -0.000000
vn 0.000000 -1.000000 0.000000
vn 0.777803 0.000000 -0.628508
vn 0.777803 0.000000 -0.628508
vn 0.777803 0.000000 -0.628508
vn 0.777803 0.000000 -0.628508
vn -0.777803 0.000000 0.628508
vn -0.777803 0.000000 0.628508
vn -0.777803 0.000000 0.628508
vn -0.777803 0.000000 0.628508
vn 0.919948 0.000000 0.392041
vn 0.919948 0.000000 0.392041
vn 0.919948 0.000000 0.392041
vn 0.919948 0.000000 0.392041
vn 0.000000 1.000000 0.000000
vn 0.000000 1.000000 0.000000
vn 0.000000 1.000000 0.000000
vn 0.000000 1.000000 0.000000
vn -0.919948 0.000000 -0.392041
vn -0.919948 0.000000 -0.392041
vn -0.919948 0.000000 -0.392041
vn -0.919948 0.000000 -0.392042
vn 0.000000 -1.000000 0.000000
vn 0.000000 -1.000000 0.000000
vn 0.000000 -1.000000 0.000000
vn 0.000000 -1.000000 0.000000
vn 0.392041 0.000000 -0.919948
vn 0.392042 0.000000 -0.919948
vn 0.392042 0.000000 -0.919948
vn 0.392042 0.000000 -0.919947
vn -0.392041 0.000000 0.919948
vn -0.392042 0.000000 0.919947
vn -0.392042 0.000000 0.919947
vn -0.392043 0.000000 0.919947
s 1
g pCube193
usemtl initialShadingGroup
f 1/1/1 2/2/2 3/3/3
f 3/3/3 2/2/2 4/4/4
s 2
f 3/3/5 4/4/6 5/5/7
f 5/5/7 4/4/6 6/6/8
s 3
f 5/5/9 6/6/10 7/7/11
f 7/7/11 6/6/10 8/8/12
s 4
f 7/7/13 8/8/14 1/9/15
f 1/9/15 8/8/14 2/10/16
s 5
f 2/2/17 8/11/18 4/4/19
f 4/4/19 8/11/18 6/12/20
s 6
f 7/13/21 1/1/22 5/14/23
f 5/14/23 1/1/22 3/3/24
s 7
f 9/15/25 10/16/26 11/17/27
f 11/17/27 10/16/26 12/18/28
s 8
f 11/17/29 12/18/30 13/19/31
f 13/19/31 12/18/30 14/20/32
s 9
f 13/19/33 14/20/34 15/21/35
f 15/21/35 14/20/34 16/22/36
s 10
f 15/21/37 16/22/38 9/23/39
f 9/23/39 16/22/38 10/24/40
s 11
f 10/16/41 16/25/42 12/18/43
f 12/18/43 16/25/42 14/26/44
s 12
f 15/27/45 9/15/46 13/28/47
f 13/28/47 9/15/46 11/17/48
s 13
f 17/29/49 18/30/50 19/31/51
f 19/31/51 18/30/50 20/32/52
s 14
f 19/31/53 20/32/54 21/33/55
f 21/33/55 20/32/54 22/34/56
s 15
f 21/33/57 22/34/58 23/35/59
f 23/35/59 22/34/58 24/36/60
s 16
f 23/35/61 24/36/62 17/37/63
f 17/37/63 24/36/62 18/38/64
s 17
f 18/30/65 24/39/66 20/32/67
f 20/32/67 24/39/66 22/40/68
s 18
f 23/41/69 17/29/70 21/42/71
f 21/42/71 17/29/70 19/31/72
s 19
f 25/43/73 26/44/74 27/45/75
f 27/45/75 26/44/74 28/46/76
s 20
f 27/45/77 28/46/78 29/47/79
f 29/47/79 28/46/78 30/48/80
s 21
f 29/47/81 30/48/82 31/49/83
f 31/49/83 30/48/82 32/50/84
s 22
f 31/49/85 32/50/86 25/51/87
f 25/51/87 32/50/86 26/52/88
s 23
f 26/44/89 32/53/90 28/46/91
f 28/46/91 32/53/90 30/54/92
s 24
f 31/55/93 25/43/94 29/56/95
f 29/56/95 25/43/94 27/45/96
s 25
f 33/57/97 34/58/98 35/59/99
f 35/59/99 34/58/98 36/60/100
s 26
f 35/59/101 36/60/102 37/61/103
f 37/61/103 36/60/102 38/62/104
s 27
f 37/61/105 38/62/106 39/63/107
f 39/63/107 38/62/106 40/64/108
s 28
f 39/63/109 40/64/110 33/65/111
f 33/65/111 40/64/110 34/66/112
s 29
f 34/58/113 40/67/114 36/60/115
f 36/60/115 40/67/114 38/68/116
s 30
f 39/69/117 33/57/118 37/70/119
f 37/70/119 33/57/118 35/59/120
s 31
f 41/71/121 42/72/122 43/73/123
f 43/73/123 42/72/122 44/74/124
s 32
f 43/73/125 44/74/126 45/75/127
f 45/75/127 44/74/126 46/76/128
s 33
f 45/75/129 46/76/130 47/77/131
f 47/77/131 46/76/130 48/78/132
s 34
f 47/77/133 48/78/134 41/79/135
f 41/79/135 48/78/134 42/80/136
s 35
f 42/72/137 48/81/138 44/74/139
f 44/74/139 48/81/138 46/82/140
s 36
f 47/83/141 41/71/142 45/84/143
f 45/84/143 41/71/142 43/73/144
s 37
f 49/85/145 50/86/146 51/87/147
f 51/87/147 50/86/146 52/88/148
s 38
f 51/87/149 52/88/150 53/89/151
f 53/89/151 52/88/150 54/90/152
s 39
f 53/89/153 54/90/154 55/91/155
f 55/91/155 54/90/154 56/92/156
s 40
f 55/91/157 56/92/158 49/93/159
f 49/93/159 56/92/158 50/94/160
s 41
f 50/86/161 56/95/162 52/88/163
f 52/88/163 56/95/162 54/96/164
s 42
f 55/97/165 49/85/166 53/98/167
f 53/98/167 49/85/166 51/87/168
s 43
f 57/99/169 58/100/170 59/101/171
f 59/101/171 58/100/170 60/102/172
s 44
f 59/101/173 60/102/174 61/103/175
f 61/103/175 60/102/174 62/104/176
s 45
f 61/103/177 62/104/178 63/105/179
f 63/105/179 62/104/178 64/106/180
s 46
f 63/105/181 64/106/182 57/107/183
f 57/107/183 64/106/182 58/108/184
s 47
f 58/100/185 64/109/186 60/102/187
f 60/102/187 64/109/186 62/110/188
s 48
f 63/111/189 57/99/190 61/112/191
f 61/112/191 57/99/190 59/101/192
