# This file uses centimeters as units for non-parametric coordinates.

mtllib b_Glass.mtl
g default
v -0.550000 -0.633872 34.680523
v 7.550000 -0.633872 34.680523
v -0.550000 4.466127 34.680523
v 7.550000 4.466127 34.680523
v -0.550000 4.466127 28.580523
v 7.550000 4.466127 28.580523
v -0.550000 -0.633872 28.580523
v 7.550000 -0.633872 28.580523
v -0.550000 4.501808 34.680523
v 7.550000 4.501808 34.680523
v -0.550000 9.601809 34.680523
v 7.550000 9.601809 34.680523
v -0.550000 9.601809 28.580523
v 7.550000 9.601809 28.580523
v -0.550000 4.501808 28.580523
v 7.550000 4.501808 28.580523
v -37.173252 4.501808 14.999584
v -30.873051 4.501808 9.908669
v -37.173252 9.601809 14.999584
v -30.873051 9.601809 9.908669
v -41.007153 9.601809 10.254986
v -34.706951 9.601809 5.164070
v -41.007153 4.501808 10.254986
v -34.706951 4.501808 5.164070
v -37.173252 -0.633872 14.999584
v -30.873051 -0.633872 9.908669
v -37.173252 4.466127 14.999584
v -30.873051 4.466127 9.908669
v -41.007153 4.466127 10.254986
v -34.706951 4.466127 5.164070
v -41.007153 -0.633872 10.254986
v -34.706951 -0.633872 5.164070
v -37.173252 16.602350 14.999584
v -30.873051 16.602350 9.908669
v -37.173252 21.702349 14.999584
v -30.873051 21.702349 9.908669
v -41.007153 21.702349 10.254986
v -34.706951 21.702349 5.164070
v -41.007153 16.602350 10.254986
v -34.706951 16.602350 5.164070
v -40.566681 4.501808 28.892624
v -39.573765 4.501808 20.853710
v -40.566681 9.601809 28.892624
v -39.573765 9.601809 20.853710
v -46.620678 9.601809 28.144871
v -45.627762 9.601809 20.105957
v -46.620678 4.501808 28.144871
v -45.627762 4.501808 20.105957
v -40.887264 22.554447 28.811985
v -39.894344 22.554447 20.773071
v -40.887264 27.255440 28.811985
v -39.894344 27.255440 20.773071
v -46.739475 27.255440 28.089153
v -45.746555 27.255440 20.050240
v -46.739475 22.554447 28.089153
v -45.746555 22.554447 20.050240
v -40.784943 32.692684 28.804979
v -39.792023 32.692684 20.766066
v -40.784943 37.792683 28.804979
v -39.792023 37.792683 20.766066
v -46.838936 37.792683 28.057226
v -45.846016 37.792683 20.018312
v -46.838936 32.692684 28.057226
v -45.846016 32.692684 20.018312
v -40.534439 -0.633872 28.915154
v -39.372925 -0.633872 20.898865
v -40.534439 4.466127 28.915154
v -39.372925 4.466127 20.898865
v -46.571396 4.466127 28.040432
v -45.409882 4.466127 20.024143
v -46.571396 -0.633872 28.040432
v -45.409882 -0.633872 20.024143
v -41.590839 4.708037 22.302246
v -37.112850 4.708037 11.794388
v -41.590839 7.972830 22.302246
v -37.112850 7.972830 11.794388
v -45.309490 7.972830 20.717518
v -40.831501 7.972830 10.209661
v -45.309490 4.708037 20.717518
v -40.831501 4.708037 10.209661
vt 0.375000 0.000000
vt 0.625000 0.000000
vt 0.375000 0.250000
vt 0.625000 0.250000
vt 0.375000 0.500000
vt 0.625000 0.500000
vt 0.375000 0.750000
vt 0.625000 0.750000
vt 0.375000 1.000000
vt 0.625000 1.000000
vt 0.875000 0.000000
vt 0.875000 0.250000
vt 0.125000 0.000000
vt 0.125000 0.250000
vt 0.375000 0.000000
vt 0.625000 0.000000
vt 0.375000 0.250000
vt 0.625000 0.250000
vt 0.375000 0.500000
vt 0.625000 0.500000
vt 0.375000 0.750000
vt 0.625000 0.750000
vt 0.375000 1.000000
vt 0.625000 1.000000
vt 0.875000 0.000000
vt 0.875000 0.250000
vt 0.125000 0.000000
vt 0.125000 0.250000
vt 0.375000 0.000000
vt 0.625000 0.000000
vt 0.375000 0.250000
vt 0.625000 0.250000
vt 0.375000 0.500000
vt 0.625000 0.500000
vt 0.375000 0.750000
vt 0.625000 0.750000
vt 0.375000 1.000000
vt 0.625000 1.000000
vt 0.875000 0.000000
vt 0.875000 0.250000
vt 0.125000 0.000000
vt 0.125000 0.250000
vt 0.375000 0.000000
vt 0.625000 0.000000
vt 0.375000 0.250000
vt 0.625000 0.250000
vt 0.375000 0.500000
vt 0.625000 0.500000
vt 0.375000 0.750000
vt 0.625000 0.750000
vt 0.375000 1.000000
vt 0.625000 1.000000
vt 0.875000 0.000000
vt 0.875000 0.250000
vt 0.125000 0.000000
vt 0.125000 0.250000
vt 0.375000 0.000000
vt 0.625000 0.000000
vt 0.375000 0.250000
vt 0.625000 0.250000
vt 0.375000 0.500000
vt 0.625000 0.500000
vt 0.375000 0.750000
vt 0.625000 0.750000
vt 0.375000 1.000000
vt 0.625000 1.000000
vt 0.875000 0.000000
vt 0.875000 0.250000
vt 0.125000 0.000000
vt 0.125000 0.250000
vt 0.375000 0.000000
vt 0.625000 0.000000
vt 0.375000 0.250000
vt 0.625000 0.250000
vt 0.375000 0.500000
vt 0.625000 0.500000
vt 0.375000 0.750000
vt 0.625000 0.750000
vt 0.375000 1.000000
vt 0.625000 1.000000
vt 0.875000 0.000000
vt 0.875000 0.250000
vt 0.125000 0.000000
vt 0.125000 0.250000
vt 0.375000 0.000000
vt 0.625000 0.000000
vt 0.375000 0.250000
vt 0.625000 0.250000
vt 0.375000 0.500000
vt 0.625000 0.500000
vt 0.375000 0.750000
vt 0.625000 0.750000
vt 0.375000 1.000000
vt 0.625000 1.000000
vt 0.875000 0.000000
vt 0.875000 0.250000
vt 0.125000 0.000000
vt 0.125000 0.250000
vt 0.375000 0.000000
vt 0.625000 0.000000
vt 0.375000 0.250000
vt 0.625000 0.250000
vt 0.375000 0.500000
vt 0.625000 0.500000
vt 0.375000 0.750000
vt 0.625000 0.750000
vt 0.375000 1.000000
vt 0.625000 1.000000
vt 0.875000 0.000000
vt 0.875000 0.250000
vt 0.125000 0.000000
vt 0.125000 0.250000
vt 0.375000 0.000000
vt 0.625000 0.000000
vt 0.375000 0.250000
vt 0.625000 0.250000
vt 0.375000 0.500000
vt 0.625000 0.500000
vt 0.375000 0.750000
vt 0.625000 0.750000
vt 0.375000 1.000000
vt 0.625000 1.000000
vt 0.875000 0.000000
vt 0.875000 0.250000
vt 0.125000 0.000000
vt 0.125000 0.250000
vt 0.375000 0.000000
vt 0.625000 0.000000
vt 0.375000 0.250000
vt 0.625000 0.250000
vt 0.375000 0.500000
vt 0.625000 0.500000
vt 0.375000 0.750000
vt 0.625000 0.750000
vt 0.375000 1.000000
vt 0.625000 1.000000
vt 0.875000 0.000000
vt 0.875000 0.250000
vt 0.125000 0.000000
vt 0.125000 0.250000
vn 0.000000 0.000000 1.000000
vn 0.000000 0.000000 1.000000
vn 0.000000 0.000000 1.000000
vn 0.000000 0.000000 1.000000
vn 0.000000 1.000000 0.000000
vn 0.000000 1.000000 0.000000
vn 0.000000 1.000000 0.000000
vn 0.000000 1.000000 0.000000
vn 0.000000 0.000000 -1.000000
vn 0.000000 0.000000 -1.000000
vn 0.000000 0.000000 -1.000000
vn 0.000000 0.000000 -1.000000
vn 0.000000 -1.000000 0.000000
vn 0.000000 -1.000000 0.000000
vn 0.000000 -1.000000 0.000000
vn 0.000000 -1.000000 0.000000
vn 1.000000 0.000000 0.000000
vn 1.000000 0.000000 0.000000
vn 1.000000 0.000000 0.000000
vn 1.000000 0.000000 0.000000
vn -1.000000 0.000000 0.000000
vn -1.000000 0.000000 0.000000
vn -1.000000 0.000000 0.000000
vn -1.000000 0.000000 0.000000
vn 0.000000 0.000000 1.000000
vn 0.000000 0.000000 1.000000
vn 0.000000 0.000000 1.000000
vn 0.000000 0.000000 1.000000
vn 0.000000 1.000000 0.000000
vn 0.000000 1.000000 0.000000
vn 0.000000 1.000000 0.000000
vn 0.000000 1.000000 0.000000
vn 0.000000 0.000000 -1.000000
vn 0.000000 0.000000 -1.000000
vn 0.000000 0.000000 -1.000000
vn 0.000000 0.000000 -1.000000
vn 0.000000 -1.000000 0.000000
vn 0.000000 -1.000000 0.000000
vn 0.000000 -1.000000 0.000000
vn 0.000000 -1.000000 0.000000
vn 1.000000 0.000000 0.000000
vn 1.000000 0.000000 0.000000
vn 1.000000 0.000000 0.000000
vn 1.000000 0.000000 0.000000
vn -1.000000 0.000000 0.000000
vn -1.000000 0.000000 0.000000
vn -1.000000 0.000000 0.000000
vn -1.000000 0.000000 0.000000
vn 0.628508 0.000000 0.777803
vn 0.628508 0.000000 0.777803
vn 0.628508 0.000000 0.777803
vn 0.628508 0.000000 0.777803
vn 0.000000 1.000000 -0.000000
vn 0.000000 1.000000 0.000000
vn 0.000000 1.000000 -0.000000
vn 0.000000 1.000000 0.000000
vn -0.628508 0.000000 -0.777803
vn -0.628508 0.000000 -0.777803
vn -0.628508 0.000000 -0.777803
vn -0.628508 0.000000 -0.777803
vn 0.000000 -1.000000 0.000000
vn 0.000000 -1.000000 0.000000
vn 0.000000 -1.000000 0.000000
vn 0.000000 -1.000000 0.000000
vn 0.777803 0.000000 -0.628508
vn 0.777803 0.000000 -0.628508
vn 0.777803 0.000000 -0.628508
vn 0.777803 0.000000 -0.628508
vn -0.777803 0.000000 0.628508
vn -0.777803 0.000000 0.628508
vn -0.777803 0.000000 0.628508
vn -0.777803 0.000000 0.628508
vn 0.628508 0.000000 0.777803
vn 0.628508 0.000000 0.777803
vn 0.628508 0.000000 0.777803
vn 0.628508 0.000000 0.777803
vn 0.000000 1.000000 -0.000000
vn 0.000000 1.000000 0.000000
vn 0.000000 1.000000 -0.000000
vn 0.000000 1.000000 0.000000
vn -0.628508 0.000000 -0.777803
vn -0.628508 0.000000 -0.777803
vn -0.628508 0.000000 -0.777803
vn -0.628508 0.000000 -0.777803
vn 0.000000 -1.000000 0.000000
vn 0.000000 -1.000000 -0.000000
vn 0.000000 -1.000000 0.000000
vn 0.000000 -1.000000 -0.000000
vn 0.777803 0.000000 -0.628508
vn 0.777803 0.000000 -0.628508
vn 0.777803 0.000000 -0.628508
vn 0.777803 0.000000 -0.628508
vn -0.777803 0.000000 0.628508
vn -0.777803 0.000000 0.628508
vn -0.777803 0.000000 0.628508
vn -0.777803 0.000000 0.628508
vn 0.628508 0.000000 0.777803
vn 0.628508 0.000000 0.777803
vn 0.628508 0.000000 0.777803
vn 0.628508 0.000000 0.777803
vn 0.000000 1.000000 -0.000000
vn 0.000000 1.000000 0.000000
vn 0.000000 1.000000 0.000000
vn 0.000000 1.000000 0.000001
vn -0.628508 0.000000 -0.777803
vn -0.628508 0.000000 -0.777803
vn -0.628508 0.000000 -0.777803
vn -0.628508 0.000000 -0.777803
vn 0.000000 -1.000000 -0.000000
vn 0.000000 -1.000000 0.000000
vn 0.000000 -1.000000 0.000000
vn 0.000000 -1.000000 0.000000
vn 0.777803 0.000000 -0.628508
vn 0.777803 0.000000 -0.628508
vn 0.777803 0.000000 -0.628508
vn 0.777803 0.000000 -0.628508
vn -0.777803 0.000000 0.628508
vn -0.777803 0.000000 0.628508
vn -0.777803 0.000000 0.628508
vn -0.777803 0.000000 0.628508
vn 0.992458 0.000000 0.122582
vn 0.992458 0.000000 0.122582
vn 0.992458 0.000000 0.122582
vn 0.992458 0.000000 0.122582
vn 0.000000 1.000000 -0.000000
vn 0.000000 1.000000 0.000000
vn 0.000000 1.000000 -0.000000
vn 0.000000 1.000000 0.000000
vn -0.992458 0.000000 -0.122582
vn -0.992458 0.000000 -0.122582
vn -0.992458 0.000000 -0.122582
vn -0.992458 0.000000 -0.122582
vn 0.000000 -1.000000 0.000000
vn 0.000000 -1.000000 0.000000
vn 0.000000 -1.000000 0.000000
vn 0.000000 -1.000000 0.000000
vn 0.122582 0.000000 -0.992458
vn 0.122582 0.000000 -0.992458
vn 0.122582 0.000000 -0.992458
vn 0.122582 0.000000 -0.992458
vn -0.122582 0.000000 0.992458
vn -0.122582 0.000000 0.992458
vn -0.122582 0.000000 0.992458
vn -0.122582 0.000000 0.992458
vn 0.992458 0.000000 0.122583
vn 0.992458 0.000000 0.122583
vn 0.992458 0.000000 0.122583
vn 0.992458 0.000000 0.122583
vn 0.000000 1.000000 0.000000
vn 0.000000 1.000000 0.000000
vn 0.000000 1.000000 0.000000
vn 0.000000 1.000000 0.000000
vn -0.992458 0.000000 -0.122583
vn -0.992458 0.000000 -0.122583
vn -0.992458 0.000000 -0.122583
vn -0.992458 0.000000 -0.122583
vn 0.000000 -1.000000 0.000000
vn 0.000000 -1.000000 0.000000
vn 0.000000 -1.000000 0.000000
vn 0.000000 -1.000000 0.000000
vn 0.122583 0.000000 -0.992458
vn 0.122583 0.000000 -0.992458
vn 0.122583 0.000000 -0.992458
vn 0.122583 0.000000 -0.992458
vn -0.122582 0.000000 0.992458
vn -0.122583 0.000000 0.992458
vn -0.122583 0.000000 0.992458
vn -0.122583 0.000000 0.992458
vn 0.992458 0.000000 0.122583
vn 0.992458 0.000000 0.122583
vn 0.992458 0.000000 0.122583
vn 0.992458 0.000000 0.122583
vn 0.000000 1.000000 -0.000001
vn 0.000000 1.000000 -0.000000
vn 0.000000 1.000000 -0.000000
vn 0.000000 1.000000 0.000000
vn -0.992458 0.000000 -0.122583
vn -0.992458 0.000000 -0.122583
vn -0.992458 0.000000 -0.122583
vn -0.992458 0.000000 -0.122583
vn 0.000000 -1.000000 0.000001
vn 0.000000 -1.000000 -0.000000
vn 0.000000 -1.000000 0.000000
vn 0.000000 -1.000000 -0.000000
vn 0.122583 0.000000 -0.992458
vn 0.122583 0.000000 -0.992458
vn 0.122583 0.000000 -0.992458
vn 0.122582 0.000000 -0.992458
vn -0.122583 0.000000 0.992458
vn -0.122582 0.000000 0.992458
vn -0.122582 0.000000 0.992458
vn -0.122582 0.000000 0.992458
vn 0.989665 0.000000 0.143397
vn 0.989665 0.000000 0.143397
vn 0.989665 0.000000 0.143397
vn 0.989665 0.000000 0.143397
vn 0.000000 1.000000 -0.000000
vn 0.000000 1.000000 0.000000
vn 0.000000 1.000000 -0.000000
vn 0.000000 1.000000 0.000000
vn -0.989665 0.000000 -0.143397
vn -0.989665 0.000000 -0.143397
vn -0.989665 0.000000 -0.143397
vn -0.989665 0.000000 -0.143397
vn 0.000000 -1.000000 0.000000
vn 0.000000 -1.000000 0.000000
vn 0.000000 -1.000000 0.000000
vn 0.000000 -1.000000 0.000000
vn 0.143397 0.000000 -0.989665
vn 0.143397 0.000000 -0.989665
vn 0.143397 0.000000 -0.989665
vn 0.143397 0.000000 -0.989665
vn -0.143397 0.000000 0.989665
vn -0.143397 0.000000 0.989665
vn -0.143397 0.000000 0.989665
vn -0.143397 0.000000 0.989665
vn 0.919948 0.000000 0.392042
vn 0.919948 0.000000 0.392041
vn 0.919948 0.000000 0.392041
vn 0.919948 0.000000 0.392042
vn 0.000000 1.000000 0.000000
vn 0.000000 1.000000 0.000000
vn 0.000000 1.000000 0.000000
vn 0.000000 1.000000 0.000000
vn -0.919948 0.000000 -0.392042
vn -0.919948 0.000000 -0.392042
vn -0.919948 0.000000 -0.392041
vn -0.919948 0.000000 -0.392042
vn 0.000000 -1.000000 0.000000
vn 0.000000 -1.000000 0.000000
vn 0.000000 -1.000000 0.000000
vn 0.000000 -1.000000 0.000000
vn 0.392042 0.000000 -0.919947
vn 0.392042 0.000000 -0.919948
vn 0.392042 0.000000 -0.919948
vn 0.392041 0.000000 -0.919948
vn -0.392042 0.000000 0.919947
vn -0.392042 0.000000 0.919948
vn -0.392042 0.000000 0.919948
vn -0.392041 0.000000 0.919948
s 1
g pCube157
usemtl initialShadingGroup
f 1/1/1 2/2/2 3/3/3
f 3/3/3 2/2/2 4/4/4
s 2
f 3/3/5 4/4/6 5/5/7
f 5/5/7 4/4/6 6/6/8
s 3
f 5/5/9 6/6/10 7/7/11
f 7/7/11 6/6/10 8/8/12
s 4
f 7/7/13 8/8/14 1/9/15
f 1/9/15 8/8/14 2/10/16
s 5
f 2/2/17 8/11/18 4/4/19
f 4/4/19 8/11/18 6/12/20
s 6
f 7/13/21 1/1/22 5/14/23
f 5/14/23 1/1/22 3/3/24
s 7
f 9/15/25 10/16/26 11/17/27
f 11/17/27 10/16/26 12/18/28
s 8
f 11/17/29 12/18/30 13/19/31
f 13/19/31 12/18/30 14/20/32
s 9
f 13/19/33 14/20/34 15/21/35
f 15/21/35 14/20/34 16/22/36
s 10
f 15/21/37 16/22/38 9/23/39
f 9/23/39 16/22/38 10/24/40
s 11
f 10/16/41 16/25/42 12/18/43
f 12/18/43 16/25/42 14/26/44
s 12
f 15/27/45 9/15/46 13/28/47
f 13/28/47 9/15/46 11/17/48
s 13
f 17/29/49 18/30/50 19/31/51
f 19/31/51 18/30/50 20/32/52
s 14
f 19/31/53 20/32/54 21/33/55
f 21/33/55 20/32/54 22/34/56
s 15
f 21/33/57 22/34/58 23/35/59
f 23/35/59 22/34/58 24/36/60
s 16
f 23/35/61 24/36/62 17/37/63
f 17/37/63 24/36/62 18/38/64
s 17
f 18/30/65 24/39/66 20/32/67
f 20/32/67 24/39/66 22/40/68
s 18
f 23/41/69 17/29/70 21/42/71
f 21/42/71 17/29/70 19/31/72
s 19
f 25/43/73 26/44/74 27/45/75
f 27/45/75 26/44/74 28/46/76
s 20
f 27/45/77 28/46/78 29/47/79
f 29/47/79 28/46/78 30/48/80
s 21
f 29/47/81 30/48/82 31/49/83
f 31/49/83 30/48/82 32/50/84
s 22
f 31/49/85 32/50/86 25/51/87
f 25/51/87 32/50/86 26/52/88
s 23
f 26/44/89 32/53/90 28/46/91
f 28/46/91 32/53/90 30/54/92
s 24
f 31/55/93 25/43/94 29/56/95
f 29/56/95 25/43/94 27/45/96
s 25
f 33/57/97 34/58/98 35/59/99
f 35/59/99 34/58/98 36/60/100
s 26
f 35/59/101 36/60/102 37/61/103
f 37/61/103 36/60/102 38/62/104
s 27
f 37/61/105 38/62/106 39/63/107
f 39/63/107 38/62/106 40/64/108
s 28
f 39/63/109 40/64/110 33/65/111
f 33/65/111 40/64/110 34/66/112
s 29
f 34/58/113 40/67/114 36/60/115
f 36/60/115 40/67/114 38/68/116
s 30
f 39/69/117 33/57/118 37/70/119
f 37/70/119 33/57/118 35/59/120
s 31
f 41/71/121 42/72/122 43/73/123
f 43/73/123 42/72/122 44/74/124
s 32
f 43/73/125 44/74/126 45/75/127
f 45/75/127 44/74/126 46/76/128
s 33
f 45/75/129 46/76/130 47/77/131
f 47/77/131 46/76/130 48/78/132
s 34
f 47/77/133 48/78/134 41/79/135
f 41/79/135 48/78/134 42/80/136
s 35
f 42/72/137 48/81/138 44/74/139
f 44/74/139 48/81/138 46/82/140
s 36
f 47/83/141 41/71/142 45/84/143
f 45/84/143 41/71/142 43/73/144
s 37
f 49/85/145 50/86/146 51/87/147
f 51/87/147 50/86/146 52/88/148
s 38
f 51/87/149 52/88/150 53/89/151
f 53/89/151 52/88/150 54/90/152
s 39
f 53/89/153 54/90/154 55/91/155
f 55/91/155 54/90/154 56/92/156
s 40
f 55/91/157 56/92/158 49/93/159
f 49/93/159 56/92/158 50/94/160
s 41
f 50/86/161 56/95/162 52/88/163
f 52/88/163 56/95/162 54/96/164
s 42
f 55/97/165 49/85/166 53/98/167
f 53/98/167 49/85/166 51/87/168
s 43
f 57/99/169 58/100/170 59/101/171
f 59/101/171 58/100/170 60/102/172
s 44
f 59/101/173 60/102/174 61/103/175
f 61/103/175 60/102/174 62/104/176
s 45
f 61/103/177 62/104/178 63/105/179
f 63/105/179 62/104/178 64/106/180
s 46
f 63/105/181 64/106/182 57/107/183
f 57/107/183 64/106/182 58/108/184
s 47
f 58/100/185 64/109/186 60/102/187
f 60/102/187 64/109/186 62/110/188
s 48
f 63/111/189 57/99/190 61/112/191
f 61/112/191 57/99/190 59/101/192
s 49
f 65/113/193 66/114/194 67/115/195
f 67/115/195 66/114/194 68/116/196
s 50
f 67/115/197 68/116/198 69/117/199
f 69/117/199 68/116/198 70/118/200
s 51
f 69/117/201 70/118/202 71/119/203
f 71/119/203 70/118/202 72/120/204
s 52
f 71/119/205 72/120/206 65/121/207
f 65/121/207 72/120/206 66/122/208
s 53
f 66/114/209 72/123/210 68/116/211
f 68/116/211 72/123/210 70/124/212
s 54
f 71/125/213 65/113/214 69/126/215
f 69/126/215 65/113/214 67/115/216
s 55
f 73/127/217 74/128/218 75/129/219
f 75/129/219 74/128/218 76/130/220
s 56
f 75/129/221 76/130/222 77/131/223
f 77/131/223 76/130/222 78/132/224
s 57
f 77/131/225 78/132/226 79/133/227
f 79/133/227 78/132/226 80/134/228
s 58
f 79/133/229 80/134/230 73/135/231
f 73/135/231 80/134/230 74/136/232
s 59
f 74/128/233 80/137/234 76/130/235
f 76/130/235 80/137/234 78/138/236
s 60
f 79/139/237 73/127/238 77/140/239
f 77/140/239 73/127/238 75/129/240
