# This file uses centimeters as units for non-parametric coordinates.

mtllib b_Glass_v3.mtl
g default
v -9.603084 3.882356 9.787173
v 9.603084 3.882356 9.787173
v -9.603084 3.882356 -9.787173
v 9.603084 3.882356 -9.787173
v 50.695747 2.977162 68.760040
v 60.136345 3.924854 57.878372
v 48.845078 15.628073 68.256218
v 58.285679 16.575766 57.374573
v 38.123684 13.682499 58.785206
v 47.564285 14.630192 47.903561
v 39.974350 1.031588 59.289021
v 49.414955 1.979280 48.407368
v 69.577652 -10.369249 20.152182
v 61.934025 -5.249597 29.366379
v 72.562157 0.769547 16.438965
v 64.918533 5.889198 25.653162
v 83.757996 0.850780 25.681320
v 76.114380 5.970432 34.895527
v 80.773499 -10.288015 29.394545
v 73.129868 -5.168363 38.608738
v -82.425949 13.093876 -57.983299
v -77.100067 13.093876 -68.087875
v -82.425949 16.358669 -57.983299
v -77.100067 16.358669 -68.087875
v -86.001877 16.358669 -59.868088
v -80.676003 16.358669 -69.972664
v -86.001877 13.093876 -59.868088
v -80.676003 13.093876 -69.972664
v -81.946533 12.887647 -51.331070
v -80.296715 12.887647 -59.261276
v -81.946533 17.987648 -51.331070
v -80.296715 17.987648 -59.261276
v -87.918648 17.987648 -52.573517
v -86.268845 17.987648 -60.503727
v -87.918648 12.887647 -52.573517
v -86.268845 12.887647 -60.503727
v -81.916252 7.751966 -51.305977
v -80.100266 7.751966 -59.199783
v -81.916252 12.851966 -51.305977
v -80.100266 12.851966 -59.199783
v -87.860962 12.851966 -52.673561
v -86.044991 12.851966 -60.567368
v -87.860962 7.751966 -52.673561
v -86.044991 7.751966 -60.567368
v -77.423515 12.887647 -64.898468
v -70.726471 12.887647 -69.454742
v -77.423515 17.987648 -64.898468
v -70.726471 17.987648 -69.454742
v -80.854774 17.987648 -69.941925
v -74.157738 17.987648 -74.498192
v -80.854774 12.887647 -69.941925
v -74.157738 12.887647 -74.498192
v -77.423515 7.751966 -64.898468
v -70.726471 7.751966 -69.454742
v -77.423515 12.851966 -64.898468
v -70.726471 12.851966 -69.454742
v -80.854774 12.851966 -69.941925
v -74.157738 12.851966 -74.498192
v -80.854774 7.751966 -69.941925
v -74.157738 7.751966 -74.498192
v -82.259399 30.940285 -51.437775
v -80.609596 30.940285 -59.367973
v -82.259399 35.641277 -51.437775
v -80.609596 35.641277 -59.367973
v -88.032471 35.641277 -52.638802
v -86.382660 35.641277 -60.569016
v -88.032471 30.940285 -52.638802
v -86.382660 30.940285 -60.569016
v -82.156853 41.078522 -51.436344
v -80.507050 41.078522 -59.366554
v -82.156853 46.178520 -51.436344
v -80.507050 46.178520 -59.366554
v -88.128975 46.178520 -52.678795
v -86.479156 46.178520 -60.608994
v -88.128975 41.078522 -52.678795
v -86.479156 41.078522 -60.608994
vt 0.000000 0.000000
vt 1.000000 0.000000
vt 0.000000 1.000000
vt 1.000000 1.000000
vt 0.375000 0.000000
vt 0.625000 0.000000
vt 0.375000 0.250000
vt 0.625000 0.250000
vt 0.375000 0.500000
vt 0.625000 0.500000
vt 0.375000 0.750000
vt 0.625000 0.750000
vt 0.375000 1.000000
vt 0.625000 1.000000
vt 0.875000 0.000000
vt 0.875000 0.250000
vt 0.125000 0.000000
vt 0.125000 0.250000
vt 0.375000 0.000000
vt 0.625000 0.000000
vt 0.375000 0.250000
vt 0.625000 0.250000
vt 0.375000 0.500000
vt 0.625000 0.500000
vt 0.375000 0.750000
vt 0.625000 0.750000
vt 0.375000 1.000000
vt 0.625000 1.000000
vt 0.875000 0.000000
vt 0.875000 0.250000
vt 0.125000 0.000000
vt 0.125000 0.250000
vt 0.375000 0.000000
vt 0.625000 0.000000
vt 0.375000 0.250000
vt 0.625000 0.250000
vt 0.375000 0.500000
vt 0.625000 0.500000
vt 0.375000 0.750000
vt 0.625000 0.750000
vt 0.375000 1.000000
vt 0.625000 1.000000
vt 0.875000 0.000000
vt 0.875000 0.250000
vt 0.125000 0.000000
vt 0.125000 0.250000
vt 0.375000 0.000000
vt 0.625000 0.000000
vt 0.375000 0.250000
vt 0.625000 0.250000
vt 0.375000 0.500000
vt 0.625000 0.500000
vt 0.375000 0.750000
vt 0.625000 0.750000
vt 0.375000 1.000000
vt 0.625000 1.000000
vt 0.875000 0.000000
vt 0.875000 0.250000
vt 0.125000 0.000000
vt 0.125000 0.250000
vt 0.375000 0.000000
vt 0.625000 0.000000
vt 0.375000 0.250000
vt 0.625000 0.250000
vt 0.375000 0.500000
vt 0.625000 0.500000
vt 0.375000 0.750000
vt 0.625000 0.750000
vt 0.375000 1.000000
vt 0.625000 1.000000
vt 0.875000 0.000000
vt 0.875000 0.250000
vt 0.125000 0.000000
vt 0.125000 0.250000
vt 0.375000 0.000000
vt 0.625000 0.000000
vt 0.375000 0.250000
vt 0.625000 0.250000
vt 0.375000 0.500000
vt 0.625000 0.500000
vt 0.375000 0.750000
vt 0.625000 0.750000
vt 0.375000 1.000000
vt 0.625000 1.000000
vt 0.875000 0.000000
vt 0.875000 0.250000
vt 0.125000 0.000000
vt 0.125000 0.250000
vt 0.375000 0.000000
vt 0.625000 0.000000
vt 0.375000 0.250000
vt 0.625000 0.250000
vt 0.375000 0.500000
vt 0.625000 0.500000
vt 0.375000 0.750000
vt 0.625000 0.750000
vt 0.375000 1.000000
vt 0.625000 1.000000
vt 0.875000 0.000000
vt 0.875000 0.250000
vt 0.125000 0.000000
vt 0.125000 0.250000
vt 0.375000 0.000000
vt 0.625000 0.000000
vt 0.375000 0.250000
vt 0.625000 0.250000
vt 0.375000 0.500000
vt 0.625000 0.500000
vt 0.375000 0.750000
vt 0.625000 0.750000
vt 0.375000 1.000000
vt 0.625000 1.000000
vt 0.875000 0.000000
vt 0.875000 0.250000
vt 0.125000 0.000000
vt 0.125000 0.250000
vt 0.375000 0.000000
vt 0.625000 0.000000
vt 0.375000 0.250000
vt 0.625000 0.250000
vt 0.375000 0.500000
vt 0.625000 0.500000
vt 0.375000 0.750000
vt 0.625000 0.750000
vt 0.375000 1.000000
vt 0.625000 1.000000
vt 0.875000 0.000000
vt 0.875000 0.250000
vt 0.125000 0.000000
vt 0.125000 0.250000
vn 0.000000 1.000000 0.000000
vn 0.000000 1.000000 0.000000
vn 0.000000 1.000000 0.000000
vn 0.000000 1.000000 0.000000
vn 0.742621 0.134761 0.656014
vn 0.742622 0.134761 0.656013
vn 0.742621 0.134761 0.656014
vn 0.742621 0.134761 0.656014
vn 0.742622 0.134761 0.656013
vn 0.742622 0.134761 0.656013
vn -0.144634 0.988702 -0.039374
vn -0.144634 0.988702 -0.039374
vn -0.144634 0.988702 -0.039374
vn -0.144634 0.988702 -0.039374
vn -0.144634 0.988702 -0.039374
vn -0.144634 0.988702 -0.039374
vn -0.742622 -0.134761 -0.656013
vn -0.742622 -0.134761 -0.656013
vn -0.742622 -0.134761 -0.656013
vn -0.742622 -0.134761 -0.656013
vn -0.742622 -0.134761 -0.656013
vn -0.742621 -0.134761 -0.656014
vn 0.144634 -0.988702 0.039374
vn 0.144634 -0.988702 0.039374
vn 0.144634 -0.988702 0.039374
vn 0.144634 -0.988702 0.039374
vn 0.144634 -0.988702 0.039374
vn 0.144634 -0.988702 0.039374
vn 0.653907 0.065642 -0.753722
vn 0.653907 0.065642 -0.753722
vn 0.653907 0.065642 -0.753722
vn 0.653907 0.065642 -0.753722
vn 0.653907 0.065642 -0.753722
vn 0.653907 0.065642 -0.753722
vn -0.653907 -0.065642 0.753722
vn -0.653907 -0.065642 0.753722
vn -0.653907 -0.065642 0.753722
vn -0.653907 -0.065642 0.753722
vn -0.653907 -0.065642 0.753722
vn -0.653907 -0.065642 0.753722
vn -0.771166 -0.005595 -0.636610
vn -0.771166 -0.005595 -0.636610
vn -0.771166 -0.005595 -0.636610
vn -0.771166 -0.005595 -0.636610
vn -0.771166 -0.005595 -0.636610
vn -0.771166 -0.005595 -0.636610
vn 0.246352 0.919438 -0.306503
vn 0.246352 0.919438 -0.306503
vn 0.246352 0.919438 -0.306503
vn 0.246352 0.919438 -0.306503
vn 0.246352 0.919438 -0.306503
vn 0.246352 0.919438 -0.306503
vn 0.771166 0.005596 0.636610
vn 0.771166 0.005595 0.636610
vn 0.771166 0.005595 0.636610
vn 0.771166 0.005595 0.636610
vn 0.771166 0.005595 0.636610
vn 0.771166 0.005595 0.636610
vn -0.246352 -0.919438 0.306503
vn -0.246352 -0.919438 0.306503
vn -0.246352 -0.919438 0.306503
vn -0.246352 -0.919438 0.306503
vn -0.246352 -0.919438 0.306503
vn -0.246352 -0.919438 0.306503
vn -0.587039 0.393195 0.707660
vn -0.587039 0.393195 0.707660
vn -0.587039 0.393195 0.707660
vn -0.587039 0.393195 0.707660
vn -0.587039 0.393195 0.707660
vn -0.587039 0.393195 0.707660
vn 0.587039 -0.393195 -0.707660
vn 0.587039 -0.393195 -0.707660
vn 0.587039 -0.393195 -0.707660
vn 0.587039 -0.393195 -0.707660
vn 0.587039 -0.393195 -0.707660
vn 0.587039 -0.393195 -0.707660
vn 0.884641 0.000000 0.466273
vn 0.884641 0.000000 0.466273
vn 0.884641 0.000000 0.466273
vn 0.884641 0.000000 0.466273
vn 0.884641 0.000000 0.466273
vn 0.884641 0.000000 0.466273
vn 0.000000 1.000000 0.000000
vn 0.000000 1.000000 0.000000
vn 0.000000 1.000000 0.000000
vn 0.000000 1.000000 0.000000
vn 0.000000 1.000000 0.000000
vn 0.000000 1.000000 0.000000
vn -0.884641 0.000000 -0.466273
vn -0.884641 0.000000 -0.466273
vn -0.884641 0.000000 -0.466273
vn -0.884641 0.000000 -0.466273
vn -0.884641 0.000000 -0.466273
vn -0.884640 0.000000 -0.466274
vn 0.000000 -1.000000 0.000000
vn 0.000000 -1.000000 0.000000
vn 0.000000 -1.000000 0.000000
vn 0.000000 -1.000000 0.000000
vn 0.000000 -1.000000 0.000000
vn 0.000000 -1.000000 0.000000
vn 0.466273 0.000000 -0.884641
vn 0.466274 0.000000 -0.884640
vn 0.466274 0.000000 -0.884640
vn 0.466274 0.000000 -0.884640
vn 0.466274 0.000000 -0.884640
vn 0.466275 0.000000 -0.884640
vn -0.466275 0.000000 0.884640
vn -0.466274 0.000000 0.884640
vn -0.466274 0.000000 0.884640
vn -0.466274 0.000000 0.884640
vn -0.466274 0.000000 0.884640
vn -0.466273 0.000000 0.884641
vn 0.979037 0.000000 0.203681
vn 0.979037 0.000000 0.203681
vn 0.979037 0.000000 0.203681
vn 0.979037 0.000000 0.203681
vn 0.979037 0.000000 0.203681
vn 0.979037 0.000000 0.203681
vn 0.000000 1.000000 0.000000
vn 0.000000 1.000000 0.000000
vn 0.000000 1.000000 0.000000
vn 0.000000 1.000000 0.000000
vn 0.000000 1.000000 0.000000
vn 0.000000 1.000000 0.000000
vn -0.979038 0.000000 -0.203680
vn -0.979038 0.000000 -0.203680
vn -0.979038 0.000000 -0.203680
vn -0.979038 0.000000 -0.203680
vn -0.979038 0.000000 -0.203680
vn -0.979038 0.000000 -0.203680
vn 0.000000 -1.000000 0.000000
vn 0.000000 -1.000000 0.000000
vn 0.000000 -1.000000 0.000000
vn 0.000000 -1.000000 0.000000
vn 0.000000 -1.000000 0.000000
vn 0.000000 -1.000000 0.000000
vn 0.203681 0.000000 -0.979037
vn 0.203681 0.000000 -0.979037
vn 0.203681 0.000000 -0.979037
vn 0.203681 0.000000 -0.979037
vn 0.203681 0.000000 -0.979037
vn 0.203680 0.000000 -0.979038
vn -0.203680 0.000000 0.979038
vn -0.203681 0.000000 0.979037
vn -0.203681 0.000000 0.979037
vn -0.203681 0.000000 0.979037
vn -0.203681 0.000000 0.979037
vn -0.203681 0.000000 0.979037
vn 0.974544 0.000000 0.224195
vn 0.974544 0.000000 0.224195
vn 0.974544 0.000000 0.224195
vn 0.974544 0.000000 0.224195
vn 0.974544 0.000000 0.224195
vn 0.974544 0.000000 0.224195
vn 0.000000 1.000000 0.000000
vn 0.000000 1.000000 0.000000
vn 0.000000 1.000000 0.000000
vn 0.000000 1.000000 0.000000
vn 0.000000 1.000000 0.000000
vn 0.000000 1.000000 0.000000
vn -0.974544 0.000000 -0.224195
vn -0.974544 0.000000 -0.224195
vn -0.974544 0.000000 -0.224195
vn -0.974544 0.000000 -0.224195
vn -0.974544 0.000000 -0.224195
vn -0.974544 0.000000 -0.224195
vn 0.000000 -1.000000 0.000000
vn 0.000000 -1.000000 0.000000
vn 0.000000 -1.000000 0.000000
vn 0.000000 -1.000000 0.000000
vn 0.000000 -1.000000 0.000000
vn 0.000000 -1.000000 0.000000
vn 0.224194 0.000000 -0.974545
vn 0.224195 0.000000 -0.974544
vn 0.224195 0.000000 -0.974544
vn 0.224195 0.000000 -0.974544
vn 0.224195 0.000000 -0.974544
vn 0.224195 0.000000 -0.974544
vn -0.224195 0.000000 0.974544
vn -0.224195 0.000000 0.974544
vn -0.224195 0.000000 0.974544
vn -0.224195 0.000000 0.974544
vn -0.224195 0.000000 0.974544
vn -0.224194 0.000000 0.974545
vn 0.562504 0.000000 0.826795
vn 0.562503 0.000000 0.826796
vn 0.562504 0.000000 0.826795
vn 0.562504 0.000000 0.826795
vn 0.562503 0.000000 0.826796
vn 0.562503 0.000000 0.826796
vn 0.000000 1.000000 0.000000
vn 0.000000 1.000000 0.000000
vn 0.000000 1.000000 0.000000
vn 0.000000 1.000000 0.000000
vn 0.000000 1.000000 0.000000
vn 0.000000 1.000000 0.000000
vn -0.562503 0.000000 -0.826796
vn -0.562503 0.000000 -0.826796
vn -0.562503 0.000000 -0.826796
vn -0.562503 0.000000 -0.826796
vn -0.562503 0.000000 -0.826796
vn -0.562504 0.000000 -0.826795
vn 0.000000 -1.000000 0.000000
vn 0.000000 -1.000000 0.000000
vn 0.000000 -1.000000 0.000000
vn 0.000000 -1.000000 0.000000
vn 0.000000 -1.000000 0.000000
vn 0.000000 -1.000000 0.000000
vn 0.826796 0.000000 -0.562503
vn 0.826796 0.000000 -0.562503
vn 0.826796 0.000000 -0.562503
vn 0.826796 0.000000 -0.562503
vn 0.826796 0.000000 -0.562503
vn 0.826796 0.000000 -0.562503
vn -0.826796 0.000000 0.562503
vn -0.826796 0.000000 0.562503
vn -0.826796 0.000000 0.562503
vn -0.826796 0.000000 0.562503
vn -0.826796 0.000000 0.562503
vn -0.826796 0.000000 0.562503
vn 0.562503 0.000000 0.826796
vn 0.562504 0.000000 0.826795
vn 0.562503 0.000000 0.826796
vn 0.562503 0.000000 0.826796
vn 0.562504 0.000000 0.826795
vn 0.562505 0.000000 0.826794
vn 0.000000 1.000000 0.000000
vn 0.000000 1.000000 0.000000
vn 0.000000 1.000000 0.000000
vn 0.000000 1.000000 0.000000
vn 0.000000 1.000000 0.000000
vn 0.000000 1.000000 0.000000
vn -0.562503 0.000000 -0.826796
vn -0.562503 0.000000 -0.826796
vn -0.562503 0.000000 -0.826796
vn -0.562503 0.000000 -0.826796
vn -0.562503 0.000000 -0.826796
vn -0.562504 0.000000 -0.826795
vn 0.000000 -1.000000 0.000000
vn 0.000000 -1.000000 0.000000
vn 0.000000 -1.000000 0.000000
vn 0.000000 -1.000000 0.000000
vn 0.000000 -1.000000 0.000000
vn 0.000000 -1.000000 0.000000
vn 0.826796 0.000000 -0.562503
vn 0.826796 0.000000 -0.562503
vn 0.826796 0.000000 -0.562503
vn 0.826796 0.000000 -0.562503
vn 0.826796 0.000000 -0.562503
vn 0.826796 0.000000 -0.562503
vn -0.826796 0.000000 0.562503
vn -0.826796 0.000000 0.562503
vn -0.826796 0.000000 0.562503
vn -0.826796 0.000000 0.562503
vn -0.826796 0.000000 0.562503
vn -0.826796 0.000000 0.562503
vn 0.979038 0.000000 0.203680
vn 0.979037 0.000000 0.203681
vn 0.979037 0.000000 0.203681
vn 0.979037 0.000000 0.203681
vn 0.979037 0.000000 0.203681
vn 0.979037 0.000000 0.203681
vn 0.000000 1.000000 0.000001
vn 0.000000 1.000000 0.000000
vn 0.000000 1.000000 0.000000
vn 0.000000 1.000000 0.000000
vn 0.000000 1.000000 0.000000
vn 0.000000 1.000000 0.000000
vn -0.979037 0.000000 -0.203681
vn -0.979037 0.000000 -0.203681
vn -0.979037 0.000000 -0.203681
vn -0.979037 0.000000 -0.203681
vn -0.979037 0.000000 -0.203681
vn -0.979038 0.000000 -0.203680
vn 0.000000 -1.000000 0.000000
vn 0.000000 -1.000000 0.000000
vn 0.000000 -1.000000 0.000000
vn 0.000000 -1.000000 0.000000
vn 0.000000 -1.000000 0.000000
vn 0.000000 -1.000000 0.000000
vn 0.203680 0.000000 -0.979038
vn 0.203681 0.000000 -0.979037
vn 0.203681 0.000000 -0.979037
vn 0.203681 0.000000 -0.979037
vn 0.203681 0.000000 -0.979037
vn 0.203681 0.000000 -0.979037
vn -0.203680 0.000000 0.979038
vn -0.203681 0.000000 0.979037
vn -0.203681 0.000000 0.979037
vn -0.203681 0.000000 0.979037
vn -0.203681 0.000000 0.979037
vn -0.203681 0.000000 0.979037
vn 0.979037 0.000000 0.203681
vn 0.979037 0.000000 0.203681
vn 0.979037 0.000000 0.203681
vn 0.979037 0.000000 0.203681
vn 0.979037 0.000000 0.203681
vn 0.979037 0.000000 0.203681
vn 0.000000 1.000000 0.000001
vn 0.000000 1.000000 0.000000
vn 0.000000 1.000000 0.000000
vn 0.000000 1.000000 0.000000
vn 0.000000 1.000000 0.000000
vn -0.000000 1.000000 -0.000001
vn -0.979037 0.000000 -0.203681
vn -0.979037 0.000000 -0.203681
vn -0.979037 0.000000 -0.203681
vn -0.979037 0.000000 -0.203681
vn -0.979037 0.000000 -0.203681
vn -0.979037 0.000000 -0.203681
vn 0.000000 -1.000000 0.000000
vn 0.000000 -1.000000 0.000000
vn 0.000000 -1.000000 0.000000
vn 0.000000 -1.000000 0.000000
vn 0.000000 -1.000000 0.000000
vn 0.000000 -1.000000 0.000000
vn 0.203680 0.000000 -0.979038
vn 0.203680 0.000000 -0.979038
vn 0.203680 0.000000 -0.979038
vn 0.203680 0.000000 -0.979038
vn 0.203680 0.000000 -0.979038
vn 0.203681 0.000000 -0.979037
vn -0.203681 0.000000 0.979037
vn -0.203681 0.000000 0.979037
vn -0.203681 0.000000 0.979037
vn -0.203681 0.000000 0.979037
vn -0.203681 0.000000 0.979037
vn -0.203681 0.000000 0.979037
s 1
g pPlane2
usemtl initialShadingGroup
f 1/1/1 2/2/2 3/3/3
f 3/3/3 2/2/2 4/4/4
s off
f 5/5/5 6/6/6 7/7/7
f 7/7/8 6/6/9 8/8/10
f 7/7/11 8/8/12 9/9/13
f 9/9/14 8/8/15 10/10/16
f 9/9/17 10/10/18 11/11/19
f 11/11/20 10/10/21 12/12/22
f 11/11/23 12/12/24 5/13/25
f 5/13/26 12/12/27 6/14/28
f 6/6/29 12/15/30 8/8/31
f 8/8/32 12/15/33 10/16/34
f 11/17/35 5/5/36 9/18/37
f 9/18/38 5/5/39 7/7/40
f 13/19/41 14/20/42 15/21/43
f 15/21/44 14/20/45 16/22/46
f 15/21/47 16/22/48 17/23/49
f 17/23/50 16/22/51 18/24/52
f 17/23/53 18/24/54 19/25/55
f 19/25/56 18/24/57 20/26/58
f 19/25/59 20/26/60 13/27/61
f 13/27/62 20/26/63 14/28/64
f 14/20/65 20/29/66 16/22/67
f 16/22/68 20/29/69 18/30/70
f 19/31/71 13/19/72 17/32/73
f 17/32/74 13/19/75 15/21/76
f 21/33/77 22/34/78 23/35/79
f 23/35/80 22/34/81 24/36/82
f 23/35/83 24/36/84 25/37/85
f 25/37/86 24/36/87 26/38/88
f 25/37/89 26/38/90 27/39/91
f 27/39/92 26/38/93 28/40/94
f 27/39/95 28/40/96 21/41/97
f 21/41/98 28/40/99 22/42/100
f 22/34/101 28/43/102 24/36/103
f 24/36/104 28/43/105 26/44/106
f 27/45/107 21/33/108 25/46/109
f 25/46/110 21/33/111 23/35/112
f 29/47/113 30/48/114 31/49/115
f 31/49/116 30/48/117 32/50/118
f 31/49/119 32/50/120 33/51/121
f 33/51/122 32/50/123 34/52/124
f 33/51/125 34/52/126 35/53/127
f 35/53/128 34/52/129 36/54/130
f 35/53/131 36/54/132 29/55/133
f 29/55/134 36/54/135 30/56/136
f 30/48/137 36/57/138 32/50/139
f 32/50/140 36/57/141 34/58/142
f 35/59/143 29/47/144 33/60/145
f 33/60/146 29/47/147 31/49/148
f 37/61/149 38/62/150 39/63/151
f 39/63/152 38/62/153 40/64/154
f 39/63/155 40/64/156 41/65/157
f 41/65/158 40/64/159 42/66/160
f 41/65/161 42/66/162 43/67/163
f 43/67/164 42/66/165 44/68/166
f 43/67/167 44/68/168 37/69/169
f 37/69/170 44/68/171 38/70/172
f 38/62/173 44/71/174 40/64/175
f 40/64/176 44/71/177 42/72/178
f 43/73/179 37/61/180 41/74/181
f 41/74/182 37/61/183 39/63/184
f 45/75/185 46/76/186 47/77/187
f 47/77/188 46/76/189 48/78/190
f 47/77/191 48/78/192 49/79/193
f 49/79/194 48/78/195 50/80/196
f 49/79/197 50/80/198 51/81/199
f 51/81/200 50/80/201 52/82/202
f 51/81/203 52/82/204 45/83/205
f 45/83/206 52/82/207 46/84/208
f 46/76/209 52/85/210 48/78/211
f 48/78/212 52/85/213 50/86/214
f 51/87/215 45/75/216 49/88/217
f 49/88/218 45/75/219 47/77/220
f 53/89/221 54/90/222 55/91/223
f 55/91/224 54/90/225 56/92/226
f 55/91/227 56/92/228 57/93/229
f 57/93/230 56/92/231 58/94/232
f 57/93/233 58/94/234 59/95/235
f 59/95/236 58/94/237 60/96/238
f 59/95/239 60/96/240 53/97/241
f 53/97/242 60/96/243 54/98/244
f 54/90/245 60/99/246 56/92/247
f 56/92/248 60/99/249 58/100/250
f 59/101/251 53/89/252 57/102/253
f 57/102/254 53/89/255 55/91/256
f 61/103/257 62/104/258 63/105/259
f 63/105/260 62/104/261 64/106/262
f 63/105/263 64/106/264 65/107/265
f 65/107/266 64/106/267 66/108/268
f 65/107/269 66/108/270 67/109/271
f 67/109/272 66/108/273 68/110/274
f 67/109/275 68/110/276 61/111/277
f 61/111/278 68/110/279 62/112/280
f 62/104/281 68/113/282 64/106/283
f 64/106/284 68/113/285 66/114/286
f 67/115/287 61/103/288 65/116/289
f 65/116/290 61/103/291 63/105/292
f 69/117/293 70/118/294 71/119/295
f 71/119/296 70/118/297 72/120/298
f 71/119/299 72/120/300 73/121/301
f 73/121/302 72/120/303 74/122/304
f 73/121/305 74/122/306 75/123/307
f 75/123/308 74/122/309 76/124/310
f 75/123/311 76/124/312 69/125/313
f 69/125/314 76/124/315 70/126/316
f 70/118/317 76/127/318 72/120/319
f 72/120/320 76/127/321 74/128/322
f 75/129/323 69/117/324 73/130/325
f 73/130/326 69/117/327 71/119/328
