# This file uses centimeters as units for non-parametric coordinates.

mtllib b_Outter.mtl
g default
v -0.725179 -0.500000 -0.469679
v 2.599468 -0.500000 -0.469679
v -0.725179 0.500000 -0.469679
v 2.599468 0.500000 -0.469679
v -0.725179 0.500000 -1.469679
v 2.599468 0.500000 -1.469679
v -0.725179 -0.500000 -1.469679
v 2.599468 -0.500000 -1.469679
v -1.689957 -0.417628 0.938624
v 1.018359 -0.417628 0.780092
v -1.689957 0.417628 0.938624
v 1.018359 0.417628 0.780092
v -2.750322 0.417628 -0.854542
v -1.306449 0.417628 -3.151352
v -2.750322 -0.417628 -0.854542
v -1.306449 -0.417628 -3.151352
v 2.444803 -0.381830 2.414148
v 4.204732 -0.381830 2.414148
v 2.444803 0.381830 2.414148
v 4.204732 0.381830 2.414148
v 2.444803 0.381830 -4.971428
v 4.204732 0.381830 -4.971428
v 2.444803 -0.381830 -4.971428
v 4.204732 -0.381830 -4.971428
v 0.712131 -0.300243 4.025775
v 4.679440 -0.300243 4.978894
v 0.712131 0.300243 4.025775
v 4.679440 0.300243 4.978894
v 1.388928 0.300243 1.208639
v 5.356238 0.300243 2.161757
v 1.388928 -0.300243 1.208639
v 5.356238 -0.300243 2.161757
v 2.546161 -0.594902 -4.599547
v 3.312027 -0.594902 -4.599547
v 4.077893 -0.594902 -4.599547
v 2.546161 0.319927 -4.599547
v 3.312027 0.319927 -4.599547
v 4.077893 0.319927 -4.599547
v -1.586200 0.319927 -6.265906
v 3.312027 0.319927 -5.276242
v 8.210255 0.319927 -5.536675
v -1.586200 0.319927 -8.964925
v 3.312027 0.319927 -9.954588
v 8.210255 0.319927 -9.694155
v -1.586200 -0.594902 -8.964925
v 3.312027 -0.594902 -9.954588
v 8.210255 -0.594902 -9.694155
v -1.586200 -0.594902 -6.265906
v 3.312027 -0.594902 -5.276242
v 8.210255 -0.594902 -5.536675
v -1.850233 -0.603061 -8.818975
v 0.451301 -0.603061 -8.818975
v -1.850233 2.559353 -8.818975
v 0.451301 2.559353 -8.818975
v -1.850233 2.559353 -15.295137
v 0.451301 2.559353 -15.295137
v -1.850233 -0.603061 -15.295137
v 0.451301 -0.603061 -15.295137
v 5.352428 6.675585 -8.818975
v 8.144925 6.675585 -8.818975
v 5.352428 9.837999 -8.818975
v 8.144925 9.837999 -8.818975
v 5.352428 9.837999 -15.295137
v 8.144925 9.837999 -15.295137
v 5.352428 6.675585 -15.295137
v 8.144925 6.675585 -15.295137
v -0.908138 4.273483 -8.550761
v 7.946563 4.273483 -8.550761
v -0.908138 4.758993 -8.550761
v 7.946563 4.758993 -8.550761
v -0.908138 4.758993 -15.531560
v 7.946563 4.758993 -15.531560
v -0.908138 4.273483 -15.531560
v 7.946563 4.273483 -15.531560
v 0.950000 -0.599469 -8.867444
v 1.050000 -0.599469 -8.867444
v 0.950000 4.400531 -8.867444
v 1.050000 4.400531 -8.867444
v 0.950000 4.400531 -15.343606
v 1.050000 4.400531 -15.343606
v 0.950000 -0.599469 -15.343606
v 1.050000 -0.599469 -15.343606
v 4.031087 4.575249 -8.248177
v 8.170297 4.575249 -8.248177
v 4.031087 4.973339 -8.248177
v 8.170297 4.973339 -8.248177
v 4.031087 4.973339 -15.834145
v 8.170297 4.973339 -15.834145
v 4.031087 4.575249 -15.834145
v 8.170297 4.575249 -15.834145
v 3.450000 -0.599469 -8.867444
v 3.550000 -0.599469 -8.867444
v 3.450000 4.400531 -8.867444
v 3.550000 4.400531 -8.867444
v 3.450000 4.400531 -15.343606
v 3.550000 4.400531 -15.343606
v 3.450000 -0.599469 -15.343606
v 3.550000 -0.599469 -15.343606
v 5.950000 -0.599469 -8.867444
v 6.050000 -0.599469 -8.867444
v 5.950000 4.400531 -8.867444
v 6.050000 4.400531 -8.867444
v 5.950000 4.400531 -15.343606
v 6.050000 4.400531 -15.343606
v 5.950000 -0.599469 -15.343606
v 6.050000 -0.599469 -15.343606
v -0.801515 4.024930 -8.703652
v 3.337695 4.024930 -8.703652
v -0.801515 4.423020 -8.703652
v 3.337695 4.423020 -8.703652
v -0.801515 4.423020 -15.378669
v 3.337695 4.423020 -15.378669
v -0.801515 4.024930 -15.378669
v 3.337695 4.024930 -15.378669
vt 0.375000 0.000000
vt 0.625000 0.000000
vt 0.375000 0.250000
vt 0.625000 0.250000
vt 0.375000 0.500000
vt 0.625000 0.500000
vt 0.375000 0.750000
vt 0.625000 0.750000
vt 0.375000 1.000000
vt 0.625000 1.000000
vt 0.875000 0.000000
vt 0.875000 0.250000
vt 0.125000 0.000000
vt 0.125000 0.250000
vt 0.375000 0.000000
vt 0.625000 0.000000
vt 0.375000 0.250000
vt 0.625000 0.250000
vt 0.375000 0.500000
vt 0.625000 0.500000
vt 0.375000 0.750000
vt 0.625000 0.750000
vt 0.375000 1.000000
vt 0.625000 1.000000
vt 0.875000 0.000000
vt 0.875000 0.250000
vt 0.125000 0.000000
vt 0.125000 0.250000
vt 0.375000 0.000000
vt 0.625000 0.000000
vt 0.375000 0.250000
vt 0.625000 0.250000
vt 0.375000 0.500000
vt 0.625000 0.500000
vt 0.375000 0.750000
vt 0.625000 0.750000
vt 0.375000 1.000000
vt 0.625000 1.000000
vt 0.875000 0.000000
vt 0.875000 0.250000
vt 0.125000 0.000000
vt 0.125000 0.250000
vt 0.375000 0.000000
vt 0.625000 0.000000
vt 0.375000 0.250000
vt 0.625000 0.250000
vt 0.375000 0.500000
vt 0.625000 0.500000
vt 0.375000 0.750000
vt 0.625000 0.750000
vt 0.375000 1.000000
vt 0.625000 1.000000
vt 0.875000 0.000000
vt 0.875000 0.250000
vt 0.125000 0.000000
vt 0.125000 0.250000
vt 0.375000 0.000000
vt 0.500000 0.000000
vt 0.500000 0.250000
vt 0.375000 0.250000
vt 0.625000 0.000000
vt 0.625000 0.250000
vt 0.500000 0.375000
vt 0.375000 0.375000
vt 0.625000 0.375000
vt 0.500000 0.500000
vt 0.375000 0.500000
vt 0.625000 0.500000
vt 0.500000 0.750000
vt 0.375000 0.750000
vt 0.625000 0.750000
vt 0.500000 0.875000
vt 0.375000 0.875000
vt 0.625000 0.875000
vt 0.500000 1.000000
vt 0.375000 1.000000
vt 0.625000 1.000000
vt 0.750000 0.000000
vt 0.875000 0.000000
vt 0.875000 0.250000
vt 0.750000 0.250000
vt 0.125000 0.000000
vt 0.250000 0.000000
vt 0.250000 0.250000
vt 0.125000 0.250000
vt 0.375000 0.000000
vt 0.625000 0.000000
vt 0.375000 0.250000
vt 0.625000 0.250000
vt 0.375000 0.500000
vt 0.625000 0.500000
vt 0.375000 0.750000
vt 0.625000 0.750000
vt 0.375000 1.000000
vt 0.625000 1.000000
vt 0.875000 0.000000
vt 0.875000 0.250000
vt 0.125000 0.000000
vt 0.125000 0.250000
vt 0.375000 0.000000
vt 0.625000 0.000000
vt 0.375000 0.250000
vt 0.625000 0.250000
vt 0.375000 0.500000
vt 0.625000 0.500000
vt 0.375000 0.750000
vt 0.625000 0.750000
vt 0.375000 1.000000
vt 0.625000 1.000000
vt 0.875000 0.000000
vt 0.875000 0.250000
vt 0.125000 0.000000
vt 0.125000 0.250000
vt 0.375000 0.000000
vt 0.625000 0.000000
vt 0.375000 0.250000
vt 0.625000 0.250000
vt 0.375000 0.500000
vt 0.625000 0.500000
vt 0.375000 0.750000
vt 0.625000 0.750000
vt 0.375000 1.000000
vt 0.625000 1.000000
vt 0.875000 0.000000
vt 0.875000 0.250000
vt 0.125000 0.000000
vt 0.125000 0.250000
vt 0.375000 0.000000
vt 0.625000 0.000000
vt 0.375000 0.250000
vt 0.625000 0.250000
vt 0.375000 0.500000
vt 0.625000 0.500000
vt 0.375000 0.750000
vt 0.625000 0.750000
vt 0.375000 1.000000
vt 0.625000 1.000000
vt 0.875000 0.000000
vt 0.875000 0.250000
vt 0.125000 0.000000
vt 0.125000 0.250000
vt 0.375000 0.000000
vt 0.625000 0.000000
vt 0.375000 0.250000
vt 0.625000 0.250000
vt 0.375000 0.500000
vt 0.625000 0.500000
vt 0.375000 0.750000
vt 0.625000 0.750000
vt 0.375000 1.000000
vt 0.625000 1.000000
vt 0.875000 0.000000
vt 0.875000 0.250000
vt 0.125000 0.000000
vt 0.125000 0.250000
vt 0.375000 0.000000
vt 0.625000 0.000000
vt 0.375000 0.250000
vt 0.625000 0.250000
vt 0.375000 0.500000
vt 0.625000 0.500000
vt 0.375000 0.750000
vt 0.625000 0.750000
vt 0.375000 1.000000
vt 0.625000 1.000000
vt 0.875000 0.000000
vt 0.875000 0.250000
vt 0.125000 0.000000
vt 0.125000 0.250000
vt 0.375000 0.000000
vt 0.625000 0.000000
vt 0.375000 0.250000
vt 0.625000 0.250000
vt 0.375000 0.500000
vt 0.625000 0.500000
vt 0.375000 0.750000
vt 0.625000 0.750000
vt 0.375000 1.000000
vt 0.625000 1.000000
vt 0.875000 0.000000
vt 0.875000 0.250000
vt 0.125000 0.000000
vt 0.125000 0.250000
vt 0.375000 0.000000
vt 0.625000 0.000000
vt 0.375000 0.250000
vt 0.625000 0.250000
vt 0.375000 0.500000
vt 0.625000 0.500000
vt 0.375000 0.750000
vt 0.625000 0.750000
vt 0.375000 1.000000
vt 0.625000 1.000000
vt 0.875000 0.000000
vt 0.875000 0.250000
vt 0.125000 0.000000
vt 0.125000 0.250000
vn 0.000000 0.000000 1.000000
vn 0.000000 0.000000 1.000000
vn 0.000000 0.000000 1.000000
vn 0.000000 0.000000 1.000000
vn 0.000000 1.000000 0.000000
vn 0.000000 1.000000 0.000000
vn 0.000000 1.000000 0.000000
vn 0.000000 1.000000 0.000000
vn 0.000000 0.000000 -1.000000
vn 0.000000 0.000000 -1.000000
vn 0.000000 0.000000 -1.000000
vn 0.000000 0.000000 -1.000000
vn 0.000000 -1.000000 0.000000
vn 0.000000 -1.000000 0.000000
vn 0.000000 -1.000000 0.000000
vn 0.000000 -1.000000 0.000000
vn 1.000000 0.000000 0.000000
vn 1.000000 0.000000 0.000000
vn 1.000000 0.000000 0.000000
vn 1.000000 0.000000 0.000000
vn -1.000000 0.000000 0.000000
vn -1.000000 0.000000 0.000000
vn -1.000000 0.000000 0.000000
vn -1.000000 0.000000 0.000000
vn 0.058435 0.000000 0.998291
vn 0.058435 0.000000 0.998291
vn 0.058435 0.000000 0.998291
vn 0.058435 0.000000 0.998291
vn 0.000000 1.000000 0.000000
vn 0.000000 1.000000 0.000000
vn 0.000000 1.000000 0.000000
vn 0.000000 1.000000 0.000000
vn -0.846610 0.000000 -0.532215
vn -0.846610 0.000000 -0.532215
vn -0.846610 0.000000 -0.532215
vn -0.846610 0.000000 -0.532215
vn 0.000000 -1.000000 0.000000
vn 0.000000 -1.000000 0.000000
vn 0.000000 -1.000000 0.000000
vn 0.000000 -1.000000 0.000000
vn 0.860765 0.000000 -0.509002
vn 0.860765 0.000000 -0.509002
vn 0.860765 0.000000 -0.509002
vn 0.860765 0.000000 -0.509002
vn -0.860765 0.000000 0.509002
vn -0.860765 0.000000 0.509002
vn -0.860765 0.000000 0.509002
vn -0.860765 0.000000 0.509002
vn 0.000000 0.000000 1.000000
vn 0.000000 0.000000 1.000000
vn 0.000000 0.000000 1.000000
vn 0.000000 0.000000 1.000000
vn 0.000000 1.000000 0.000000
vn 0.000000 1.000000 0.000000
vn 0.000000 1.000000 0.000000
vn 0.000000 1.000000 0.000000
vn 0.000000 0.000000 -1.000000
vn 0.000000 0.000000 -1.000000
vn 0.000000 0.000000 -1.000000
vn 0.000000 0.000000 -1.000000
vn 0.000000 -1.000000 0.000000
vn 0.000000 -1.000000 0.000000
vn 0.000000 -1.000000 0.000000
vn 0.000000 -1.000000 0.000000
vn 1.000000 0.000000 0.000000
vn 1.000000 0.000000 0.000000
vn 1.000000 0.000000 0.000000
vn 1.000000 0.000000 0.000000
vn -1.000000 0.000000 0.000000
vn -1.000000 0.000000 0.000000
vn -1.000000 0.000000 0.000000
vn -1.000000 0.000000 0.000000
vn -0.233596 0.000000 0.972334
vn -0.233596 0.000000 0.972334
vn -0.233596 0.000000 0.972334
vn -0.233596 0.000000 0.972334
vn 0.000000 1.000000 -0.000000
vn 0.000000 1.000000 -0.000000
vn 0.000000 1.000000 -0.000000
vn 0.000000 1.000000 0.000000
vn 0.233596 0.000000 -0.972334
vn 0.233596 0.000000 -0.972334
vn 0.233596 0.000000 -0.972334
vn 0.233596 0.000000 -0.972334
vn 0.000000 -1.000000 -0.000000
vn 0.000000 -1.000000 -0.000000
vn 0.000000 -1.000000 -0.000000
vn 0.000000 -1.000000 0.000000
vn 0.972334 0.000000 0.233596
vn 0.972334 0.000000 0.233596
vn 0.972334 0.000000 0.233596
vn 0.972334 0.000000 0.233596
vn -0.972334 0.000000 -0.233596
vn -0.972334 0.000000 -0.233596
vn -0.972334 0.000000 -0.233596
vn -0.972334 0.000000 -0.233596
vn 0.000000 0.000000 1.000000
vn 0.000000 0.000000 1.000000
vn 0.000000 0.000000 1.000000
vn 0.000000 0.000000 1.000000
vn 0.000000 0.000000 1.000000
vn 0.000000 0.000000 1.000000
vn 0.000000 0.000000 1.000000
vn 0.000000 0.000000 1.000000
vn 0.000000 1.000000 0.000000
vn 0.000000 1.000000 0.000000
vn 0.000000 1.000000 0.000000
vn 0.000000 1.000000 0.000000
vn 0.000000 1.000000 0.000000
vn 0.000000 1.000000 0.000000
vn 0.000000 1.000000 0.000000
vn 0.000000 1.000000 0.000000
vn 0.000000 1.000000 0.000000
vn 0.000000 1.000000 0.000000
vn 0.000000 1.000000 0.000000
vn 0.000000 1.000000 0.000000
vn 0.000000 1.000000 0.000000
vn 0.000000 1.000000 0.000000
vn 0.000000 1.000000 0.000000
vn 0.000000 1.000000 0.000000
vn -0.198043 0.000000 -0.980193
vn -0.198043 0.000000 -0.980193
vn -0.198043 0.000000 -0.980193
vn -0.198043 0.000000 -0.980193
vn 0.053094 0.000000 -0.998590
vn 0.053094 0.000000 -0.998590
vn 0.053094 0.000000 -0.998590
vn 0.053094 0.000000 -0.998590
vn 0.000000 -1.000000 0.000000
vn 0.000000 -1.000000 0.000000
vn 0.000000 -1.000000 0.000000
vn 0.000000 -1.000000 0.000000
vn 0.000000 -1.000000 0.000000
vn 0.000000 -1.000000 0.000000
vn 0.000000 -1.000000 0.000000
vn 0.000000 -1.000000 0.000000
vn 0.000000 -1.000000 0.000000
vn 0.000000 -1.000000 0.000000
vn 0.000000 -1.000000 0.000000
vn 0.000000 -1.000000 0.000000
vn 0.000000 -1.000000 0.000000
vn 0.000000 -1.000000 0.000000
vn 0.000000 -1.000000 0.000000
vn 0.000000 -1.000000 0.000000
vn 1.000000 0.000000 0.000000
vn 1.000000 0.000000 0.000000
vn 1.000000 0.000000 0.000000
vn 1.000000 0.000000 0.000000
vn 0.221162 0.000000 0.975237
vn 0.221162 0.000000 0.975237
vn 0.221162 0.000000 0.975237
vn 0.221162 0.000000 0.975237
vn -1.000000 0.000000 0.000000
vn -1.000000 0.000000 0.000000
vn -1.000000 0.000000 0.000000
vn -1.000000 0.000000 0.000000
vn -0.373985 0.000000 0.927435
vn -0.373985 0.000000 0.927435
vn -0.373985 0.000000 0.927435
vn -0.373985 0.000000 0.927435
vn 0.000000 0.000000 1.000000
vn 0.000000 0.000000 1.000000
vn 0.000000 0.000000 1.000000
vn 0.000000 0.000000 1.000000
vn 0.000000 1.000000 0.000000
vn 0.000000 1.000000 0.000000
vn 0.000000 1.000000 0.000000
vn 0.000000 1.000000 0.000000
vn 0.000000 0.000000 -1.000000
vn 0.000000 0.000000 -1.000000
vn 0.000000 0.000000 -1.000000
vn 0.000000 0.000000 -1.000000
vn 0.000000 -1.000000 0.000000
vn 0.000000 -1.000000 0.000000
vn 0.000000 -1.000000 0.000000
vn 0.000000 -1.000000 0.000000
vn 1.000000 0.000000 0.000000
vn 1.000000 0.000000 0.000000
vn 1.000000 0.000000 0.000000
vn 1.000000 0.000000 0.000000
vn -1.000000 0.000000 0.000000
vn -1.000000 0.000000 0.000000
vn -1.000000 0.000000 0.000000
vn -1.000000 0.000000 0.000000
vn 0.000000 0.000000 1.000000
vn 0.000000 0.000000 1.000000
vn 0.000000 0.000000 1.000000
vn 0.000000 0.000000 1.000000
vn 0.000000 1.000000 0.000000
vn 0.000000 1.000000 0.000000
vn 0.000000 1.000000 0.000000
vn 0.000000 1.000000 0.000000
vn 0.000000 0.000000 -1.000000
vn 0.000000 0.000000 -1.000000
vn 0.000000 0.000000 -1.000000
vn 0.000000 0.000000 -1.000000
vn 0.000000 -1.000000 0.000000
vn 0.000000 -1.000000 0.000000
vn 0.000000 -1.000000 0.000000
vn 0.000000 -1.000000 0.000000
vn 1.000000 0.000000 0.000000
vn 1.000000 0.000000 0.000000
vn 1.000000 0.000000 0.000000
vn 1.000000 0.000000 0.000000
vn -1.000000 0.000000 0.000000
vn -1.000000 0.000000 0.000000
vn -1.000000 0.000000 0.000000
vn -1.000000 0.000000 0.000000
vn 0.000000 0.000000 1.000000
vn 0.000000 0.000000 1.000000
vn 0.000000 0.000000 1.000000
vn 0.000000 0.000000 1.000000
vn 0.000000 1.000000 0.000000
vn 0.000000 1.000000 0.000000
vn 0.000000 1.000000 0.000000
vn 0.000000 1.000000 0.000000
vn 0.000000 0.000000 -1.000000
vn 0.000000 0.000000 -1.000000
vn 0.000000 0.000000 -1.000000
vn 0.000000 0.000000 -1.000000
vn 0.000000 -1.000000 0.000000
vn 0.000000 -1.000000 0.000000
vn 0.000000 -1.000000 0.000000
vn 0.000000 -1.000000 0.000000
vn 1.000000 0.000000 0.000000
vn 1.000000 0.000000 0.000000
vn 1.000000 0.000000 0.000000
vn 1.000000 0.000000 0.000000
vn -1.000000 0.000000 0.000000
vn -1.000000 0.000000 0.000000
vn -1.000000 0.000000 0.000000
vn -1.000000 0.000000 0.000000
vn 0.000000 0.000000 1.000000
vn 0.000000 0.000000 1.000000
vn 0.000000 0.000000 1.000000
vn 0.000000 0.000000 1.000000
vn 0.000000 1.000000 0.000000
vn 0.000000 1.000000 0.000000
vn 0.000000 1.000000 0.000000
vn 0.000000 1.000000 0.000000
vn 0.000000 0.000000 -1.000000
vn 0.000000 0.000000 -1.000000
vn 0.000000 0.000000 -1.000000
vn 0.000000 0.000000 -1.000000
vn 0.000000 -1.000000 0.000000
vn 0.000000 -1.000000 0.000000
vn 0.000000 -1.000000 0.000000
vn 0.000000 -1.000000 0.000000
vn 1.000000 0.000000 0.000000
vn 1.000000 0.000000 0.000000
vn 1.000000 0.000000 0.000000
vn 1.000000 0.000000 0.000000
vn -1.000000 0.000000 0.000000
vn -1.000000 0.000000 0.000000
vn -1.000000 0.000000 0.000000
vn -1.000000 0.000000 0.000000
vn 0.000000 0.000000 1.000000
vn 0.000000 0.000000 1.000000
vn 0.000000 0.000000 1.000000
vn 0.000000 0.000000 1.000000
vn 0.000000 1.000000 0.000000
vn 0.000000 1.000000 0.000000
vn 0.000000 1.000000 0.000000
vn 0.000000 1.000000 0.000000
vn 0.000000 0.000000 -1.000000
vn 0.000000 0.000000 -1.000000
vn 0.000000 0.000000 -1.000000
vn 0.000000 0.000000 -1.000000
vn 0.000000 -1.000000 0.000000
vn 0.000000 -1.000000 0.000000
vn 0.000000 -1.000000 0.000000
vn 0.000000 -1.000000 0.000000
vn 1.000000 0.000000 0.000000
vn 1.000000 0.000000 0.000000
vn 1.000000 0.000000 0.000000
vn 1.000000 0.000000 0.000000
vn -1.000000 0.000000 0.000000
vn -1.000000 0.000000 0.000000
vn -1.000000 0.000000 0.000000
vn -1.000000 0.000000 0.000000
vn 0.000000 0.000000 1.000000
vn 0.000000 0.000000 1.000000
vn 0.000000 0.000000 1.000000
vn 0.000000 0.000000 1.000000
vn 0.000000 1.000000 0.000000
vn 0.000000 1.000000 0.000000
vn 0.000000 1.000000 0.000000
vn 0.000000 1.000000 0.000000
vn 0.000000 0.000000 -1.000000
vn 0.000000 0.000000 -1.000000
vn 0.000000 0.000000 -1.000000
vn 0.000000 0.000000 -1.000000
vn 0.000000 -1.000000 0.000000
vn 0.000000 -1.000000 0.000000
vn 0.000000 -1.000000 0.000000
vn 0.000000 -1.000000 0.000000
vn 1.000000 0.000000 0.000000
vn 1.000000 0.000000 0.000000
vn 1.000000 0.000000 0.000000
vn 1.000000 0.000000 0.000000
vn -1.000000 0.000000 0.000000
vn -1.000000 0.000000 0.000000
vn -1.000000 0.000000 0.000000
vn -1.000000 0.000000 0.000000
vn 0.000000 0.000000 1.000000
vn 0.000000 0.000000 1.000000
vn 0.000000 0.000000 1.000000
vn 0.000000 0.000000 1.000000
vn 0.000000 1.000000 0.000000
vn 0.000000 1.000000 0.000000
vn 0.000000 1.000000 0.000000
vn 0.000000 1.000000 0.000000
vn 0.000000 0.000000 -1.000000
vn 0.000000 0.000000 -1.000000
vn 0.000000 0.000000 -1.000000
vn 0.000000 0.000000 -1.000000
vn 0.000000 -1.000000 0.000000
vn 0.000000 -1.000000 0.000000
vn 0.000000 -1.000000 0.000000
vn 0.000000 -1.000000 0.000000
vn 1.000000 0.000000 0.000000
vn 1.000000 0.000000 0.000000
vn 1.000000 0.000000 0.000000
vn 1.000000 0.000000 0.000000
vn -1.000000 0.000000 0.000000
vn -1.000000 0.000000 0.000000
vn -1.000000 0.000000 0.000000
vn -1.000000 0.000000 0.000000
vn 0.000000 0.000000 1.000000
vn 0.000000 0.000000 1.000000
vn 0.000000 0.000000 1.000000
vn 0.000000 0.000000 1.000000
vn 0.000000 1.000000 0.000000
vn 0.000000 1.000000 0.000000
vn 0.000000 1.000000 0.000000
vn 0.000000 1.000000 0.000000
vn 0.000000 0.000000 -1.000000
vn 0.000000 0.000000 -1.000000
vn 0.000000 0.000000 -1.000000
vn 0.000000 0.000000 -1.000000
vn 0.000000 -1.000000 0.000000
vn 0.000000 -1.000000 0.000000
vn 0.000000 -1.000000 0.000000
vn 0.000000 -1.000000 0.000000
vn 1.000000 0.000000 0.000000
vn 1.000000 0.000000 0.000000
vn 1.000000 0.000000 0.000000
vn 1.000000 0.000000 0.000000
vn -1.000000 0.000000 0.000000
vn -1.000000 0.000000 0.000000
vn -1.000000 0.000000 0.000000
vn -1.000000 0.000000 0.000000
s 1
g pCube69
usemtl initialShadingGroup
f 1/1/1 2/2/2 3/3/3
f 3/3/3 2/2/2 4/4/4
s 2
f 3/3/5 4/4/6 5/5/7
f 5/5/7 4/4/6 6/6/8
s 3
f 5/5/9 6/6/10 7/7/11
f 7/7/11 6/6/10 8/8/12
s 4
f 7/7/13 8/8/14 1/9/15
f 1/9/15 8/8/14 2/10/16
s 5
f 2/2/17 8/11/18 4/4/19
f 4/4/19 8/11/18 6/12/20
s 6
f 7/13/21 1/1/22 5/14/23
f 5/14/23 1/1/22 3/3/24
s 7
f 9/15/25 10/16/26 11/17/27
f 11/17/27 10/16/26 12/18/28
s 8
f 11/17/29 12/18/30 13/19/31
f 13/19/31 12/18/30 14/20/32
s 9
f 13/19/33 14/20/34 15/21/35
f 15/21/35 14/20/34 16/22/36
s 10
f 15/21/37 16/22/38 9/23/39
f 9/23/39 16/22/38 10/24/40
s 11
f 10/16/41 16/25/42 12/18/43
f 12/18/43 16/25/42 14/26/44
s 12
f 15/27/45 9/15/46 13/28/47
f 13/28/47 9/15/46 11/17/48
s 13
f 17/29/49 18/30/50 19/31/51
f 19/31/51 18/30/50 20/32/52
s 14
f 19/31/53 20/32/54 21/33/55
f 21/33/55 20/32/54 22/34/56
s 15
f 21/33/57 22/34/58 23/35/59
f 23/35/59 22/34/58 24/36/60
s 16
f 23/35/61 24/36/62 17/37/63
f 17/37/63 24/36/62 18/38/64
s 17
f 18/30/65 24/39/66 20/32/67
f 20/32/67 24/39/66 22/40/68
s 18
f 23/41/69 17/29/70 21/42/71
f 21/42/71 17/29/70 19/31/72
s 19
f 25/43/73 26/44/74 27/45/75
f 27/45/75 26/44/74 28/46/76
s 20
f 27/45/77 28/46/78 29/47/79
f 29/47/79 28/46/78 30/48/80
s 21
f 29/47/81 30/48/82 31/49/83
f 31/49/83 30/48/82 32/50/84
s 22
f 31/49/85 32/50/86 25/51/87
f 25/51/87 32/50/86 26/52/88
s 23
f 26/44/89 32/53/90 28/46/91
f 28/46/91 32/53/90 30/54/92
s 24
f 31/55/93 25/43/94 29/56/95
f 29/56/95 25/43/94 27/45/96
s off
f 33/57/97 34/58/98 37/59/99 36/60/100
f 34/58/101 35/61/102 38/62/103 37/59/104
f 36/60/105 37/59/106 40/63/107 39/64/108
f 37/59/109 38/62/110 41/65/111 40/63/112
f 39/64/113 40/63/114 43/66/115 42/67/116
f 40/63/117 41/65/118 44/68/119 43/66/120
f 42/67/121 43/66/122 46/69/123 45/70/124
f 43/66/125 44/68/126 47/71/127 46/69/128
f 45/70/129 46/69/130 49/72/131 48/73/132
f 46/69/133 47/71/134 50/74/135 49/72/136
f 48/73/137 49/72/138 34/75/139 33/76/140
f 49/72/141 50/74/142 35/77/143 34/75/144
f 50/78/145 47/79/146 44/80/147 41/81/148
f 35/61/149 50/78/150 41/81/151 38/62/152
f 45/82/153 48/83/154 39/84/155 42/85/156
f 48/83/157 33/57/158 36/60/159 39/84/160
s 25
f 51/86/161 52/87/162 53/88/163
f 53/88/163 52/87/162 54/89/164
s 26
f 53/88/165 54/89/166 55/90/167
f 55/90/167 54/89/166 56/91/168
s 27
f 55/90/169 56/91/170 57/92/171
f 57/92/171 56/91/170 58/93/172
s 28
f 57/92/173 58/93/174 51/94/175
f 51/94/175 58/93/174 52/95/176
s 29
f 52/87/177 58/96/178 54/89/179
f 54/89/179 58/96/178 56/97/180
s 30
f 57/98/181 51/86/182 55/99/183
f 55/99/183 51/86/182 53/88/184
s 31
f 59/100/185 60/101/186 61/102/187
f 61/102/187 60/101/186 62/103/188
s 32
f 61/102/189 62/103/190 63/104/191
f 63/104/191 62/103/190 64/105/192
s 33
f 63/104/193 64/105/194 65/106/195
f 65/106/195 64/105/194 66/107/196
s 34
f 65/106/197 66/107/198 59/108/199
f 59/108/199 66/107/198 60/109/200
s 35
f 60/101/201 66/110/202 62/103/203
f 62/103/203 66/110/202 64/111/204
s 36
f 65/112/205 59/100/206 63/113/207
f 63/113/207 59/100/206 61/102/208
s 37
f 67/114/209 68/115/210 69/116/211
f 69/116/211 68/115/210 70/117/212
s 38
f 69/116/213 70/117/214 71/118/215
f 71/118/215 70/117/214 72/119/216
s 39
f 71/118/217 72/119/218 73/120/219
f 73/120/219 72/119/218 74/121/220
s 40
f 73/120/221 74/121/222 67/122/223
f 67/122/223 74/121/222 68/123/224
s 41
f 68/115/225 74/124/226 70/117/227
f 70/117/227 74/124/226 72/125/228
s 42
f 73/126/229 67/114/230 71/127/231
f 71/127/231 67/114/230 69/116/232
s 43
f 75/128/233 76/129/234 77/130/235
f 77/130/235 76/129/234 78/131/236
s 44
f 77/130/237 78/131/238 79/132/239
f 79/132/239 78/131/238 80/133/240
s 45
f 79/132/241 80/133/242 81/134/243
f 81/134/243 80/133/242 82/135/244
s 46
f 81/134/245 82/135/246 75/136/247
f 75/136/247 82/135/246 76/137/248
s 47
f 76/129/249 82/138/250 78/131/251
f 78/131/251 82/138/250 80/139/252
s 48
f 81/140/253 75/128/254 79/141/255
f 79/141/255 75/128/254 77/130/256
s 49
f 83/142/257 84/143/258 85/144/259
f 85/144/259 84/143/258 86/145/260
s 50
f 85/144/261 86/145/262 87/146/263
f 87/146/263 86/145/262 88/147/264
s 51
f 87/146/265 88/147/266 89/148/267
f 89/148/267 88/147/266 90/149/268
s 52
f 89/148/269 90/149/270 83/150/271
f 83/150/271 90/149/270 84/151/272
s 53
f 84/143/273 90/152/274 86/145/275
f 86/145/275 90/152/274 88/153/276
s 54
f 89/154/277 83/142/278 87/155/279
f 87/155/279 83/142/278 85/144/280
s 55
f 91/156/281 92/157/282 93/158/283
f 93/158/283 92/157/282 94/159/284
s 56
f 93/158/285 94/159/286 95/160/287
f 95/160/287 94/159/286 96/161/288
s 57
f 95/160/289 96/161/290 97/162/291
f 97/162/291 96/161/290 98/163/292
s 58
f 97/162/293 98/163/294 91/164/295
f 91/164/295 98/163/294 92/165/296
s 59
f 92/157/297 98/166/298 94/159/299
f 94/159/299 98/166/298 96/167/300
s 60
f 97/168/301 91/156/302 95/169/303
f 95/169/303 91/156/302 93/158/304
s 61
f 99/170/305 100/171/306 101/172/307
f 101/172/307 100/171/306 102/173/308
s 62
f 101/172/309 102/173/310 103/174/311
f 103/174/311 102/173/310 104/175/312
s 63
f 103/174/313 104/175/314 105/176/315
f 105/176/315 104/175/314 106/177/316
s 64
f 105/176/317 106/177/318 99/178/319
f 99/178/319 106/177/318 100/179/320
s 65
f 100/171/321 106/180/322 102/173/323
f 102/173/323 106/180/322 104/181/324
s 66
f 105/182/325 99/170/326 103/183/327
f 103/183/327 99/170/326 101/172/328
s 67
f 107/184/329 108/185/330 109/186/331
f 109/186/331 108/185/330 110/187/332
s 68
f 109/186/333 110/187/334 111/188/335
f 111/188/335 110/187/334 112/189/336
s 69
f 111/188/337 112/189/338 113/190/339
f 113/190/339 112/189/338 114/191/340
s 70
f 113/190/341 114/191/342 107/192/343
f 107/192/343 114/191/342 108/193/344
s 71
f 108/185/345 114/194/346 110/187/347
f 110/187/347 114/194/346 112/195/348
s 72
f 113/196/349 107/184/350 111/197/351
f 111/197/351 107/184/350 109/186/352
