ply
format ascii 1.0
comment Created by Blender 2.78 (sub 0) - www.blender.org, source file: ''
element vertex 776
property float x
property float y
property float z
property uchar red
property uchar green
property uchar blue
element face 1430
property list uchar uint vertex_indices
end_header
-1.369354 8.301701 0.933531 0 0 255
-0.824337 7.919044 0.941278 0 0 255
-1.350394 8.281167 0.921703 0 0 255
-0.823339 7.912396 0.932487 0 0 255
-1.357116 8.271568 0.921760 0 0 255
-0.823646 7.901640 0.929826 0 0 255
-0.825188 7.891690 0.933398 0 0 255
-1.382924 8.282592 0.933716 0 0 255
-0.823793 7.885401 0.943166 0 0 255
-1.355907 8.271186 0.941266 0 0 255
-0.825781 7.893019 0.951513 0 0 255
-1.349757 8.280744 0.941626 0 0 255
-0.824025 7.902366 0.954483 0 0 255
-0.827668 7.915602 0.950363 0 0 255
-0.080718 0.000000 -0.408630 0 0 255
-0.086383 0.395058 -0.360470 0 0 255
0.291242 0.000000 -0.490379 0 0 255
0.173641 0.394997 -0.306954 0 0 255
0.274502 0.000000 -0.106961 0 0 255
-0.097401 0.820034 -0.265726 0 0 255
0.201513 0.394813 -0.042802 0 0 255
0.512527 -0.000000 0.194974 0 0 255
0.093829 0.838119 -0.187957 0 0 255
-0.098248 1.377034 -0.251719 0 0 255
0.192300 0.394667 0.172729 0 0 255
0.198673 -0.000000 0.385600 0 0 255
0.188476 0.855157 0.005930 0 0 255
0.090424 1.382039 -0.150422 0 0 255
-0.102726 3.644231 -0.163106 0 0 255
0.037715 0.394577 0.325485 0 0 255
-0.034263 -0.000000 0.595736 0 0 255
0.131580 0.863838 0.220480 0 0 255
0.166302 1.404361 0.059133 0 0 255
0.053753 3.628086 -0.036317 0 0 255
-0.084358 4.419744 -0.131353 0 0 255
0.046571 1.386989 0.248699 0 0 255
0.044191 4.398964 -0.020002 0 0 255
-0.070153 5.172154 -0.119966 0 0 255
0.034239 3.632244 0.161709 0 0 255
-0.064561 0.815349 0.307779 0 0 255
0.040363 5.155024 -0.024660 0 0 255
-0.036325 5.907750 -0.109967 0 0 255
0.042448 4.427317 0.153949 0 0 255
0.057412 5.893430 -0.030654 0 0 255
-0.006836 6.624276 -0.088619 0 0 255
0.040662 5.183406 0.125663 0 0 255
0.077500 6.615599 -0.004939 0 0 255
0.008708 7.337893 -0.084621 0 0 255
0.053324 5.909837 0.093953 0 0 255
0.079894 7.331152 -0.013917 0 0 255
0.048026 8.051355 -0.091046 0 0 255
0.030562 6.621912 0.102742 0 0 255
0.105152 8.043262 -0.032699 0 0 255
0.069578 8.790925 -0.066380 0 0 255
0.039893 7.336970 0.076255 0 0 255
0.112323 8.777131 -0.021553 0 0 255
0.070324 8.835040 -0.060423 0 0 255
0.108795 8.822626 -0.020079 0 0 255
0.072541 8.046501 0.039723 0 0 255
0.092203 8.918559 0.034791 0 0 255
0.090687 8.949911 0.030631 0 0 255
-0.061561 7.346227 0.067406 0 0 255
0.026849 8.771617 0.026516 0 0 255
0.031868 8.817663 0.023184 0 0 255
-0.007993 8.052578 0.031681 0 0 255
0.021111 8.930700 -0.031533 0 0 255
0.026704 8.960837 -0.029060 0 0 255
-0.019408 8.045197 -0.046655 0 0 255
-0.075439 7.334274 -0.031520 0 0 255
-0.114806 6.631339 -0.029948 0 0 255
-0.090256 6.631224 0.091669 0 0 255
-0.155149 5.917976 -0.061646 0 0 255
-0.160639 5.904816 0.063292 0 0 255
-0.215286 5.189060 -0.065051 0 0 255
-0.065884 5.911973 0.142364 0 0 255
-0.216833 5.166421 0.086236 0 0 255
-0.251869 4.433226 -0.065397 0 0 255
-0.105239 5.179110 0.180979 0 0 255
-0.254989 4.407526 0.108946 0 0 255
-0.288038 3.640041 -0.078489 0 0 255
-0.125508 4.423344 0.220031 0 0 255
-0.307749 3.633243 0.119445 0 0 255
-0.307969 1.387852 -0.200373 0 0 255
-0.150830 3.641635 0.246441 0 0 255
-0.301424 0.836882 -0.234449 0 0 255
-0.427699 1.404511 -0.010742 0 0 255
-0.351822 1.381389 0.198727 0 0 255
-0.163150 1.375988 0.300004 0 0 255
-0.441338 0.861997 -0.068683 0 0 255
-0.425060 0.850859 0.150699 0 0 255
-0.271929 0.845328 0.303426 0 0 255
-0.320381 0.395048 -0.312875 0 0 255
-0.399565 0.000000 -0.525320 0 0 255
-0.422255 0.394919 -0.110054 0 0 255
-0.584909 0.000000 -0.251441 0 0 255
-0.504827 0.394785 0.098220 0 0 255
-0.700186 -0.000000 0.038318 0 0 255
-0.404183 0.394624 0.319027 0 0 255
-0.574398 -0.000000 0.324641 0 0 255
-0.182293 0.394510 0.454841 0 0 255
-0.335721 -0.000000 0.502942 0 0 255
0.116028 5.065345 0.052343 0 0 255
0.201049 5.199314 0.095415 0 0 255
0.122941 5.007193 0.123010 0 0 255
0.198378 5.127894 0.159001 0 0 255
0.076283 5.029615 0.195580 0 0 255
0.290324 5.335310 0.137744 0 0 255
0.162098 5.160450 0.234103 0 0 255
0.035102 5.126112 0.202228 0 0 255
0.293983 5.274206 0.204374 0 0 255
0.518629 5.703878 0.251151 0 0 255
0.095638 5.213932 0.229014 0 0 255
0.537577 5.655455 0.309416 0 0 255
0.999613 6.536406 0.473806 0 0 255
1.034404 6.485589 0.499972 0 0 255
0.248367 5.291367 0.274224 0 0 255
0.522645 5.693400 0.386688 0 0 255
1.006921 6.444520 0.551874 0 0 255
0.182535 5.345556 0.270347 0 0 255
0.118458 5.316288 0.175483 0 0 255
0.446519 5.717464 0.386187 0 0 255
0.978842 6.501050 0.593401 0 0 255
0.165041 5.386636 0.197649 0 0 255
0.423855 5.761673 0.326480 0 0 255
0.923660 6.515908 0.558329 0 0 255
0.153669 5.282515 0.100179 0 0 255
0.096911 5.194970 0.070996 0 0 255
0.221439 5.385513 0.132397 0 0 255
0.449133 5.737084 0.254133 0 0 255
0.941730 6.548123 0.503297 0 0 255
1.118818 6.696046 0.528413 0 0 255
1.142926 6.652760 0.529092 0 0 255
1.662025 6.943637 0.600061 0 0 255
1.151083 6.628028 0.572569 0 0 255
1.712874 6.898982 0.591904 0 0 255
2.386492 7.140500 0.753924 0 0 255
1.133946 6.648118 0.617881 0 0 255
1.111997 6.699084 0.609471 0 0 255
2.403892 7.106892 0.720010 0 0 255
3.139018 7.227245 1.031082 0 0 255
1.732837 6.892255 0.656144 0 0 255
1.108545 6.694139 0.615394 0 0 255
1.117745 6.709419 0.555439 0 0 255
2.392099 7.069218 0.752727 0 0 255
1.102052 6.716289 0.570224 0 0 255
1.689030 6.942683 0.663376 0 0 255
2.368484 7.100872 0.783360 0 0 255
3.158511 7.214145 0.993852 0 0 255
3.906996 7.229958 1.448516 0 0 255
3.148346 7.184470 1.025071 0 0 255
3.924897 7.244206 1.435451 0 0 255
4.515921 6.900177 1.994324 0 0 255
3.918874 7.219526 1.428446 0 0 255
1.069493 6.718993 0.535891 0 0 255
1.116338 6.705215 0.544315 0 0 255
1.155817 7.287274 0.691495 0 0 255
1.131213 6.690173 0.590416 0 0 255
1.220697 7.308981 0.698290 0 0 255
1.455020 8.779510 1.064792 0 0 255
1.096878 6.689020 0.630045 0 0 255
1.481112 8.780847 1.029408 0 0 255
1.562601 9.650543 1.108687 0 0 255
1.222555 7.317846 0.764826 0 0 255
1.047580 6.703974 0.619331 0 0 255
1.513783 10.519687 0.910732 0 0 255
1.555662 9.653642 1.083052 0 0 255
1.035915 6.718490 0.572105 0 0 255
1.156821 7.306476 0.757587 0 0 255
1.499017 8.776088 1.069778 0 0 255
1.580820 9.648691 1.090627 0 0 255
0.020904 5.306297 0.013476 0 0 255
-0.047064 5.598846 0.087282 0 0 255
-0.013421 5.274852 0.109825 0 0 255
-0.090494 5.563564 0.186205 0 0 255
-0.116704 5.250805 0.125124 0 0 255
-0.118674 5.876637 0.158622 0 0 255
-0.200845 5.544613 0.170440 0 0 255
-0.185698 5.258374 0.043387 0 0 255
-0.151331 5.289829 -0.052969 0 0 255
-0.150333 5.835316 0.248880 0 0 255
-0.261696 6.411722 0.336471 0 0 255
-0.226093 5.567746 0.063054 0 0 255
-0.048080 5.313846 -0.068175 0 0 255
-0.255553 5.829077 0.245895 0 0 255
-0.274397 6.390180 0.423809 0 0 255
-0.829118 8.346406 1.152516 0 0 255
-0.131334 5.601273 0.011401 0 0 255
-0.291032 5.873659 0.155433 0 0 255
-0.201490 5.884053 0.095534 0 0 255
-0.363089 6.376262 0.437838 0 0 255
-0.408678 6.404926 0.364402 0 0 255
-0.342867 6.417696 0.298510 0 0 255
-0.790580 8.333797 1.221306 0 0 255
-0.778693 8.363097 1.173952 0 0 255
-1.059699 9.090504 1.641544 0 0 255
-0.839087 8.314851 1.196511 0 0 255
-1.030625 9.111780 1.626547 0 0 255
-1.290599 9.837195 2.224894 0 0 255
-1.026126 9.096386 1.663965 0 0 255
-0.074904 6.838315 0.020237 0 0 255
0.005914 7.095673 -0.041629 0 0 255
-0.045345 6.813918 -0.045282 0 0 255
0.049284 7.066741 -0.108636 0 0 255
0.027337 6.795389 -0.033094 0 0 255
0.085193 7.353549 -0.104248 0 0 255
0.118315 7.058114 -0.060034 0 0 255
0.042545 6.808440 0.040209 0 0 255
-0.020504 6.834915 0.073113 0 0 255
0.116603 7.296491 -0.159776 0 0 255
0.267143 7.935562 -0.272964 0 0 255
0.074986 7.087026 0.006940 0 0 255
0.181808 7.286511 -0.114386 0 0 255
0.283609 7.864260 -0.316362 0 0 255
0.487682 8.485581 -0.467833 0 0 255
0.154389 7.355845 -0.062006 0 0 255
0.357522 7.894123 -0.292822 0 0 255
0.486665 8.401715 -0.497536 0 0 255
0.742591 9.021972 -0.724934 0 0 255
0.338348 7.956457 -0.245193 0 0 255
0.550942 8.410265 -0.477829 0 0 255
0.729270 8.933558 -0.742225 0 0 255
0.980699 9.578706 -1.034472 0 0 255
0.549897 8.485563 -0.443073 0 0 255
0.786861 8.934734 -0.730750 0 0 255
0.956441 9.495596 -1.041905 0 0 255
1.287498 10.104451 -1.419501 0 0 255
0.791867 8.997924 -0.699648 0 0 255
1.008062 9.491914 -1.039876 0 0 255
1.263123 10.057098 -1.438611 0 0 255
1.624905 10.534306 -1.736100 0 0 255
1.018428 9.539363 -1.010069 0 0 255
1.288180 10.018955 -1.421883 0 0 255
1.311954 10.060421 -1.401713 0 0 255
1.592176 10.475925 -1.749288 0 0 255
1.647743 10.561505 -1.759296 0 0 255
1.618287 10.508964 -1.771165 0 0 255
1.628395 10.468427 -1.726474 0 0 255
1.650885 10.502214 -1.750633 0 0 255
0.008574 7.703641 0.048612 0 0 255
-0.092811 8.212569 -0.005309 0 0 255
-0.036251 7.688658 -0.019694 0 0 255
-0.145588 8.195524 -0.025300 0 0 255
0.030466 7.704312 -0.066632 0 0 255
-0.189848 8.459289 -0.042341 0 0 255
0.075253 7.719284 0.001666 0 0 255
-0.222951 8.465877 -0.014463 0 0 255
-0.208966 8.502164 -0.042783 0 0 255
-0.238759 8.508093 -0.017693 0 0 255
-0.102575 8.207392 -0.063582 0 0 255
-0.241805 8.484211 -0.056025 0 0 255
-0.255728 8.524594 -0.055099 0 0 255
-0.038174 7.122180 -0.061322 0 0 255
0.102408 7.642247 -0.008839 0 0 255
0.046102 7.098742 -0.046453 0 0 255
0.185359 7.617400 0.016768 0 0 255
0.056902 7.089004 0.041113 0 0 255
0.169966 7.868016 0.016948 0 0 255
0.158500 7.617430 0.102547 0 0 255
-0.020799 7.106452 0.080319 0 0 255
-0.079544 7.126948 0.017049 0 0 255
0.250371 7.858042 0.039532 0 0 255
1.004628 10.721858 0.504943 0 0 255
0.076071 7.642104 0.077307 0 0 255
0.240347 7.900054 0.127007 0 0 255
1.040385 10.723531 0.486359 0 0 255
1.698981 11.840895 0.630897 0 0 255
0.163534 7.929665 0.106707 0 0 255
1.032742 10.706829 0.521882 0 0 255
-0.607505 4.105939 -0.141385 0 0 255
-0.700335 4.163365 -0.154932 0 0 255
-0.609655 4.094691 -0.119352 0 0 255
-0.709129 4.154844 -0.132187 0 0 255
-0.607127 4.068122 -0.108732 0 0 255
-2.230105 4.904922 -0.284542 0 0 255
-0.722822 4.134853 -0.123802 0 0 255
-0.611381 4.045741 -0.113365 0 0 255
-2.229137 4.894251 -0.266348 0 0 255
-2.549566 4.971031 -0.137558 0 0 255
-0.733799 4.114390 -0.134919 0 0 255
-0.608006 4.027599 -0.129296 0 0 255
-2.234391 4.874352 -0.262424 0 0 255
-2.543507 4.960371 -0.123522 0 0 255
-2.857748 4.968936 0.037975 0 0 255
-0.735768 4.105192 -0.159137 0 0 255
-0.605063 4.027387 -0.151317 0 0 255
-0.603221 4.044482 -0.168240 0 0 255
-2.849855 4.960339 0.049111 0 0 255
-3.154768 4.875672 0.221315 0 0 255
-0.726991 4.113631 -0.182100 0 0 255
-0.602836 4.070424 -0.173401 0 0 255
-2.241769 4.860848 -0.275975 0 0 255
-0.713200 4.133805 -0.190381 0 0 255
-0.604442 4.094858 -0.163141 0 0 255
-2.245923 4.862401 -0.295685 0 0 255
-2.544372 4.942192 -0.121267 0 0 255
-2.551538 4.929353 -0.132368 0 0 255
-2.847219 4.944225 0.049558 0 0 255
-3.145633 4.867148 0.229821 0 0 255
-3.417764 4.713461 0.389264 0 0 255
-3.744706 4.307186 0.870412 0 0 255
-3.409286 4.708795 0.394536 0 0 255
-3.142028 4.853086 0.225655 0 0 255
-2.852076 4.933021 0.038629 0 0 255
-3.405025 4.699254 0.390593 0 0 255
-2.559686 4.931970 -0.148711 0 0 255
-3.147715 4.847693 0.212834 0 0 255
-2.860509 4.935505 0.025076 0 0 255
-2.243794 4.878657 -0.308085 0 0 255
-2.562771 4.947626 -0.158070 0 0 255
-0.702105 4.154441 -0.179332 0 0 255
-2.236750 4.897578 -0.303102 0 0 255
-2.558307 4.965165 -0.153219 0 0 255
-2.866052 4.949096 0.019122 0 0 255
-2.865067 4.964085 0.024480 0 0 255
-3.156887 4.855818 0.203988 0 0 255
-3.160315 4.869928 0.208471 0 0 255
-3.409282 4.694338 0.381294 0 0 255
-3.418250 4.699238 0.375684 0 0 255
-3.422395 4.709142 0.380091 0 0 255
-0.653855 5.979935 -0.538198 0 0 255
-0.576026 6.080002 -0.559901 0 0 255
-0.652013 5.976858 -0.555458 0 0 255
-0.574734 6.074885 -0.581325 0 0 255
-0.149750 6.631151 -0.690399 0 0 255
-0.646222 5.965459 -0.566514 0 0 255
-0.169182 6.599810 -0.704330 0 0 255
-0.561432 6.062161 -0.592586 0 0 255
-0.638632 5.949331 -0.569015 0 0 255
-0.166398 6.577980 -0.712479 0 0 255
-0.631358 5.933022 -0.561520 0 0 255
-0.544867 6.049740 -0.588675 0 0 255
-0.143395 6.578271 -0.711201 0 0 255
-0.626930 5.921876 -0.545636 0 0 255
-0.533714 6.044130 -0.571628 0 0 255
-0.112982 6.600095 -0.700209 0 0 255
-0.629026 5.924063 -0.527684 0 0 255
-0.534767 6.048918 -0.550936 0 0 255
-0.130289 6.580178 -0.674598 0 0 255
-0.633793 5.938092 -0.517286 0 0 255
-0.547256 6.061213 -0.538538 0 0 255
-0.639857 5.956229 -0.516435 0 0 255
-0.148202 6.581051 -0.661209 0 0 255
-0.647167 5.971544 -0.523569 0 0 255
-0.564299 6.074030 -0.542364 0 0 255
-0.155537 6.602783 -0.668221 0 0 255
-0.090909 6.710054 -0.747820 0 0 255
-0.095180 6.699949 -0.758566 0 0 255
0.209587 7.506923 -1.535356 0 0 255
-0.088515 6.687922 -0.765959 0 0 255
0.208204 7.501016 -1.546939 0 0 255
0.596814 7.965094 -1.866565 0 0 255
-0.074231 6.681425 -0.765043 0 0 255
0.216637 7.493042 -1.552709 0 0 255
0.595735 7.958954 -1.875002 0 0 255
1.016830 8.411805 -2.144227 0 0 255
-0.061182 6.684052 -0.756765 0 0 255
-0.091231 6.645920 -0.714730 0 0 255
1.017098 8.409801 -2.148273 0 0 255
1.295514 8.596663 -2.213290 0 0 255
0.602349 7.950881 -1.876423 0 0 255
1.019998 8.406404 -2.149004 0 0 255
0.228242 7.488838 -1.548887 0 0 255
0.610084 7.948883 -1.869431 0 0 255
1.022716 8.404947 -2.145625 0 0 255
-0.056664 6.694413 -0.745683 0 0 255
-0.090240 6.671673 -0.718605 0 0 255
0.234276 7.491845 -1.537880 0 0 255
-0.063780 6.706682 -0.738287 0 0 255
-0.113339 6.664594 -0.708831 0 0 255
0.230542 7.499452 -1.528247 0 0 255
-0.078291 6.713278 -0.739220 0 0 255
0.219571 7.506247 -1.526961 0 0 255
0.611241 7.955163 -1.860738 0 0 255
0.604419 7.963492 -1.859269 0 0 255
1.022426 8.406984 -2.141552 0 0 255
1.019518 8.410342 -2.140935 0 0 255
-0.063599 6.716176 -0.708853 0 0 255
-0.062067 6.713918 -0.723948 0 0 255
0.793413 7.478886 -0.840059 0 0 255
-0.053820 6.704382 -0.733119 0 0 255
0.792937 7.473613 -0.852068 0 0 255
1.765468 8.630698 -1.629408 0 0 255
0.801241 7.464999 -0.857154 0 0 255
-0.043499 6.692978 -0.730023 0 0 255
0.811784 7.459446 -0.852126 0 0 255
-0.037333 6.686564 -0.717164 0 0 255
-0.038792 6.688756 -0.701581 0 0 255
0.816624 7.461352 -0.840312 0 0 255
0.812464 7.468923 -0.830819 0 0 255
-0.047385 6.698678 -0.692456 0 0 255
-0.057886 6.710282 -0.695587 0 0 255
0.802155 7.476772 -0.830573 0 0 255
1.537246 6.876669 0.497891 0 0 255
1.648567 6.938910 0.429019 0 0 255
1.526805 6.867930 0.491921 0 0 255
1.644522 6.931435 0.415455 0 0 255
1.523469 6.855935 0.488963 0 0 255
1.882867 7.085510 0.281390 0 0 255
1.531979 6.847619 0.488206 0 0 255
1.853868 7.063775 0.282946 0 0 255
1.650564 6.917259 0.411657 0 0 255
1.547109 6.845718 0.491931 0 0 255
1.859861 7.050506 0.279265 0 0 255
1.660821 6.910427 0.421569 0 0 255
1.557533 6.855462 0.498464 0 0 255
1.895288 7.059199 0.273828 0 0 255
1.665075 6.917442 0.435030 0 0 255
1.558125 6.866709 0.502000 0 0 255
1.875919 7.052027 0.301347 0 0 255
1.550131 6.874600 0.502163 0 0 255
1.659032 6.931656 0.438863 0 0 255
1.870044 7.064519 0.305156 0 0 255
1.922616 7.112874 0.242557 0 0 255
1.915667 7.104510 0.236484 0 0 255
2.130407 7.387604 -0.234566 0 0 255
1.920549 7.093043 0.233489 0 0 255
2.125808 7.381921 -0.242349 0 0 255
2.522295 7.736754 -0.633752 0 0 255
1.932781 7.090502 0.236950 0 0 255
1.920727 7.085994 0.255822 0 0 255
2.130848 7.373451 -0.246437 0 0 255
2.520822 7.731456 -0.642306 0 0 255
3.276862 8.179893 -1.097307 0 0 255
3.511039 8.285167 -1.308414 0 0 255
3.275635 8.177776 -1.099919 0 0 255
2.526273 7.723414 -0.641788 0 0 255
2.140502 7.370590 -0.242796 0 0 255
1.939275 7.099475 0.243110 0 0 255
1.915257 7.097581 0.259153 0 0 255
2.145304 7.376264 -0.234891 0 0 255
1.934035 7.110194 0.245659 0 0 255
2.140176 7.384994 -0.230637 0 0 255
2.531157 7.723135 -0.633525 0 0 255
2.528912 7.731210 -0.628374 0 0 255
3.277388 8.174663 -1.099633 0 0 255
3.279640 8.174888 -1.096893 0 0 255
3.279272 8.178088 -1.095523 0 0 255
1.935644 7.113991 0.256496 0 0 255
1.934654 7.110328 0.244628 0 0 255
2.508189 7.309867 0.139789 0 0 255
1.938685 7.098671 0.241135 0 0 255
2.505783 7.306031 0.130093 0 0 255
2.537495 7.318304 0.132546 0 0 255
2.535330 7.314851 0.123819 0 0 255
2.518159 7.299150 0.125287 0 0 255
2.546468 7.308658 0.119494 0 0 255
1.943743 7.090957 0.250239 0 0 255
2.521699 7.292398 0.132864 0 0 255
2.549654 7.302581 0.126314 0 0 255
1.944459 7.095306 0.262135 0 0 255
2.513532 7.292878 0.145310 0 0 255
2.542304 7.303013 0.137514 0 0 255
1.940429 7.106533 0.264793 0 0 255
2.523198 7.307135 0.144867 0 0 255
2.551003 7.315844 0.137116 0 0 255
-1.412770 8.328960 0.940395 0 0 255
-1.409169 8.321548 0.945847 0 0 255
-1.995341 8.356033 1.300895 0 0 255
-1.411239 8.312183 0.943245 0 0 255
-1.994619 8.350363 1.306473 0 0 255
-2.837363 8.713004 1.587259 0 0 255
-1.416837 8.310418 0.935288 0 0 255
-1.401657 8.303962 0.936124 0 0 255
-1.997295 8.342902 1.305161 0 0 255
-2.838505 8.710093 1.591371 0 0 255
-3.360934 9.082067 1.615435 0 0 255
-1.420442 8.317867 0.929827 0 0 255
-1.395682 8.312377 0.936042 0 0 255
-2.000817 8.341016 1.298040 0 0 255
-2.841474 8.706229 1.589767 0 0 255
-2.001526 8.346865 1.292373 0 0 255
-1.418306 8.327127 0.932529 0 0 255
-2.842099 8.706802 1.584821 0 0 255
-1.998778 8.354291 1.293879 0 0 255
-2.839659 8.710857 1.583221 0 0 255
-1.409219 8.327771 0.937862 0 0 255
-1.414621 8.325624 0.945848 0 0 255
-2.225594 8.823108 0.590123 0 0 255
-1.420267 8.317448 0.945809 0 0 255
-2.229033 8.819415 0.596616 0 0 255
-2.792615 9.093113 0.564764 0 0 255
-1.420405 8.311612 0.937832 0 0 255
-2.793684 9.090280 0.568875 0 0 255
-3.328092 9.416825 0.606480 0 0 255
-2.231568 8.812070 0.594271 0 0 255
-2.796473 9.086351 0.567336 0 0 255
-1.414977 8.313783 0.929826 0 0 255
-2.229793 8.811064 0.586432 0 0 255
-2.797073 9.086790 0.562450 0 0 255
-1.409410 8.321939 0.930002 0 0 255
-2.226044 8.817880 0.583658 0 0 255
-2.794783 9.090839 0.560794 0 0 255
-0.566670 6.927142 0.638489 0 0 255
-0.634519 6.996170 0.697678 0 0 255
-0.557822 6.917562 0.655049 0 0 255
-0.625080 6.985550 0.720539 0 0 255
-0.554108 6.894840 0.659579 0 0 255
-0.989963 7.437811 1.193264 0 0 255
-0.556105 6.869849 0.652778 0 0 255
-0.961182 7.402244 1.181811 0 0 255
-0.638414 6.964426 0.731592 0 0 255
-0.565610 6.853940 0.636311 0 0 255
-0.971860 7.383387 1.189624 0 0 255
-0.660960 6.954301 0.719571 0 0 255
-0.574584 6.863638 0.619196 0 0 255
-1.010628 7.400068 1.208643 0 0 255
-0.670201 6.965643 0.696055 0 0 255
-0.577580 6.886192 0.613833 0 0 255
-1.005360 7.391925 1.166397 0 0 255
-0.575603 6.911509 0.621795 0 0 255
-0.656421 6.986818 0.685419 0 0 255
-0.995289 7.410656 1.158796 0 0 255
-1.019902 7.475529 1.283704 0 0 255
-1.008883 7.460590 1.287864 0 0 255
-0.992834 7.492512 1.401640 0 0 255
-1.016237 7.443736 1.292557 0 0 255
-0.982699 7.477431 1.401957 0 0 255
-0.873395 7.498465 2.060982 0 0 255
-1.035171 7.441839 1.293085 0 0 255
-1.026078 7.442908 1.255027 0 0 255
-0.989747 7.461277 1.405971 0 0 255
-0.865174 7.483991 2.057557 0 0 255
-0.902289 7.405190 2.378296 0 0 255
-1.007527 7.459917 1.409836 0 0 255
-0.895068 7.393559 2.377651 0 0 255
-1.009679 7.375701 2.691906 0 0 255
-0.876654 7.471766 2.055512 0 0 255
-1.004502 7.367267 2.695076 0 0 255
-1.192000 7.592851 3.298065 0 0 255
-0.903565 7.383207 2.373935 0 0 255
-1.010999 7.359118 2.694315 0 0 255
-0.891750 7.478640 2.057654 0 0 255
-0.916712 7.388574 2.372165 0 0 255
-1.020257 7.362534 2.690649 0 0 255
-1.018104 7.474886 1.409627 0 0 255
-0.890064 7.494999 2.061020 0 0 255
-1.046633 7.456502 1.289001 0 0 255
-1.016978 7.459530 1.248254 0 0 255
-1.039178 7.473698 1.284213 0 0 255
-1.010874 7.491386 1.405520 0 0 255
-0.915657 7.402673 2.375011 0 0 255
-1.019492 7.373069 2.689095 0 0 255
-1.043115 7.480789 1.276491 0 0 255
-1.034736 7.469894 1.289668 0 0 255
-1.340547 7.588328 1.612959 0 0 255
-1.041005 7.452448 1.293739 0 0 255
-1.330360 7.578182 1.621585 0 0 255
-1.629313 7.664196 2.200145 0 0 255
-1.056131 7.445724 1.284316 0 0 255
-1.333101 7.562021 1.621439 0 0 255
-1.622067 7.653738 2.205321 0 0 255
-1.884302 7.884441 2.773490 0 0 255
-2.002405 8.054510 3.040114 0 0 255
-1.881763 7.880389 2.777286 0 0 255
-1.629970 7.642363 2.205652 0 0 255
-1.345490 7.555099 1.613167 0 0 255
-1.064922 7.456209 1.271006 0 0 255
-1.355573 7.565106 1.604634 0 0 255
-1.058506 7.474001 1.266872 0 0 255
-1.353338 7.581555 1.604376 0 0 255
-1.642845 7.645705 2.200452 0 0 255
-1.642209 7.659654 2.197006 0 0 255
-1.885834 7.875793 2.778074 0 0 255
-1.890727 7.877222 2.774710 0 0 255
-1.889745 7.882443 2.771972 0 0 255
0.594704 8.671351 -0.682031 0 0 255
0.600972 8.763017 -0.783806 0 0 255
0.598838 8.684935 -0.684826 0 0 255
0.604993 8.770947 -0.776370 0 0 255
0.596254 8.694791 -0.684243 0 0 255
0.589537 9.119157 -1.116265 0 0 255
0.588725 8.691486 -0.674956 0 0 255
0.593744 9.108886 -1.095097 0 0 255
0.597629 8.777537 -0.770347 0 0 255
0.579763 8.683470 -0.668588 0 0 255
0.587366 9.113773 -1.088953 0 0 255
0.586377 8.776070 -0.771875 0 0 255
0.576051 8.673235 -0.669142 0 0 255
0.576645 9.128703 -1.103650 0 0 255
0.582393 8.768331 -0.779132 0 0 255
0.578809 8.668518 -0.675089 0 0 255
0.574028 9.106172 -1.096849 0 0 255
0.585996 8.670633 -0.683754 0 0 255
0.589603 8.761847 -0.785058 0 0 255
0.580463 9.101602 -1.103010 0 0 255
0.585638 9.156342 -1.143787 0 0 255
0.588646 9.159867 -1.136641 0 0 255
0.889729 10.228579 -1.787411 0 0 255
0.583462 9.164416 -1.131593 0 0 255
0.891459 10.232714 -1.783625 0 0 255
0.890086 10.383442 -2.052748 0 0 255
0.575264 9.165389 -1.133778 0 0 255
0.579065 9.148465 -1.125370 0 0 255
0.891197 10.387118 -2.050859 0 0 255
0.769126 10.732893 -2.533665 0 0 255
0.886695 10.235672 -1.782042 0 0 255
0.887564 10.389125 -2.049381 0 0 255
0.572360 9.161849 -1.140901 0 0 255
0.584742 9.144261 -1.130925 0 0 255
0.882086 10.233451 -1.784766 0 0 255
0.884019 10.386479 -2.050453 0 0 255
0.577473 9.157348 -1.145904 0 0 255
0.883956 10.229057 -1.788093 0 0 255
0.885846 10.382994 -2.052546 0 0 255
0.586131 9.156606 -1.143481 0 0 255
0.587583 9.164743 -1.141411 0 0 255
0.249004 9.365235 -1.684787 0 0 255
0.581898 9.169049 -1.136693 0 0 255
0.251052 9.371027 -1.681643 0 0 255
0.088847 9.776463 -2.111658 0 0 255
0.574771 9.165126 -1.134084 0 0 255
0.247027 9.374095 -1.676897 0 0 255
0.090339 9.780656 -2.107799 0 0 255
0.144180 10.436461 -2.756497 0 0 255
0.573410 9.157033 -1.136189 0 0 255
0.240895 9.371230 -1.675365 0 0 255
0.085362 9.782930 -2.105731 0 0 255
0.238779 9.365416 -1.678485 0 0 255
0.579022 9.152760 -1.140854 0 0 255
0.080841 9.780236 -2.108226 0 0 255
0.242848 9.362325 -1.683275 0 0 255
0.082995 9.776224 -2.111902 0 0 255
-1.294189 9.642234 -0.787508 0 0 255
-1.569398 10.405528 -0.846249 0 0 255
-1.298278 9.638165 -0.813038 0 0 255
-1.036049 8.885751 -0.820328 0 0 255
-1.062215 8.877940 -0.781463 0 0 255
-0.855643 8.141315 -0.838195 0 0 255
-1.272598 9.666694 -0.791781 0 0 255
-0.916321 8.120841 -0.819350 0 0 255
-0.760357 7.415978 -0.792810 0 0 255
-1.024984 8.888578 -0.754055 0 0 255
-1.275895 9.653164 -0.819863 0 0 255
-0.821097 7.401478 -0.821910 0 0 255
-0.759752 6.759501 -0.690983 0 0 255
-0.896524 8.111033 -0.758884 0 0 255
-0.998248 8.892751 -0.792761 0 0 255
-0.838175 8.143792 -0.773651 0 0 255
-0.771007 7.426249 -0.724819 0 0 255
-0.838179 7.406674 -0.714676 0 0 255
-0.805181 6.776592 -0.625826 0 0 255
-0.883067 6.771575 -0.648653 0 0 255
-0.867828 7.397591 -0.773826 0 0 255
-0.882097 6.723776 -0.720745 0 0 255
-0.808927 6.746205 -0.753258 0 0 255
-0.750875 6.170726 -0.539645 0 0 255
-0.766536 6.154895 -0.613898 0 0 255
-0.698626 5.626980 -0.419696 0 0 255
-0.838296 6.122836 -0.630144 0 0 255
-0.689041 5.634526 -0.497199 0 0 255
-0.609113 5.126399 -0.315757 0 0 255
-0.896394 6.143829 -0.583819 0 0 255
-0.584810 5.149028 -0.399739 0 0 255
-0.495684 4.618636 -0.185933 0 0 255
-0.740906 5.616964 -0.550956 0 0 255
-0.451418 4.613200 -0.264271 0 0 255
-0.379921 4.170955 -0.063271 0 0 255
-0.624002 5.107791 -0.465336 0 0 255
-0.814270 5.594826 -0.540075 0 0 255
-0.315549 4.144023 -0.138120 0 0 255
-0.346390 4.057836 -0.039088 0 0 255
-0.484623 4.596188 -0.347163 0 0 255
-0.337625 4.027209 -0.029822 0 0 255
-0.302233 4.101549 -0.128490 0 0 255
-0.334918 4.102746 -0.226337 0 0 255
-0.303633 4.000183 -0.204021 0 0 255
-0.700831 5.068871 -0.468320 0 0 255
-0.568781 4.571444 -0.369851 0 0 255
-0.434458 4.117239 -0.272868 0 0 255
-0.853362 5.586641 -0.474794 0 0 255
-0.755054 5.050750 -0.406232 0 0 255
-0.883796 6.182097 -0.513387 0 0 255
-0.830495 5.598323 -0.404510 0 0 255
-0.809070 6.188640 -0.489574 0 0 255
-0.759784 5.598940 -0.378362 0 0 255
-0.741647 5.043473 -0.322439 0 0 255
-0.683807 5.101440 -0.285855 0 0 255
-0.648457 4.586808 -0.322360 0 0 255
-0.652475 4.593630 -0.230531 0 0 255
-0.586459 4.616194 -0.171797 0 0 255
-0.522911 4.113840 -0.226173 0 0 255
-0.537888 4.116440 -0.126821 0 0 255
-0.469802 4.126936 -0.051709 0 0 255
-0.383179 3.941110 -0.233131 0 0 255
-0.265014 3.874128 -0.175542 0 0 255
-0.432399 3.997941 -0.022275 0 0 255
-0.321382 3.740624 -0.188722 0 0 255
-0.231196 3.775002 -0.153539 0 0 255
-0.269453 3.587017 -0.157250 0 0 255
-0.466355 3.918314 -0.182035 0 0 255
-0.389939 3.672034 -0.128211 0 0 255
-0.341669 3.519700 -0.099344 0 0 255
-0.485436 3.933474 -0.085517 0 0 255
-0.409559 3.686451 -0.032166 0 0 255
-0.366936 3.541833 -0.003145 0 0 255
-0.395327 3.869581 0.006979 0 0 255
-0.349866 3.720629 0.039074 0 0 255
0.041283 4.927857 0.001770 0 0 255
0.041296 4.856150 0.080278 0 0 255
-0.013739 4.889820 0.158273 0 0 255
-0.044921 5.015032 0.164999 0 0 255
0.031872 5.193421 0.128614 0 0 255
0.078259 5.257129 0.155588 0 0 255
0.040612 5.104389 0.030821 0 0 255
-0.515064 4.046300 -0.129410 0 0 255
-0.507394 4.032504 -0.151544 0 0 255
-0.495694 4.000522 -0.161533 0 0 255
-0.485237 3.965185 -0.155685 0 0 255
-0.480415 3.941248 -0.136443 0 0 255
-0.483797 3.940331 -0.111519 0 0 255
-0.494562 3.966291 -0.094837 0 0 255
-0.495585 3.995137 -0.091232 0 0 255
-0.511877 4.031555 -0.105831 0 0 255
-0.730720 5.880296 -0.510657 0 0 255
-0.726397 5.868952 -0.493529 0 0 255
-0.722996 5.845838 -0.483087 0 0 255
-0.721581 5.818178 -0.482608 0 0 255
-0.719211 5.798360 -0.493081 0 0 255
-0.716276 5.797940 -0.513324 0 0 255
-0.716929 5.816098 -0.531918 0 0 255
-0.719862 5.840351 -0.542159 0 0 255
-0.724204 5.863648 -0.541213 0 0 255
-0.728583 5.878881 -0.529684 0 0 255
1.421739 6.823080 0.567859 0 0 255
1.441296 6.824144 0.570077 0 0 255
1.452289 6.815376 0.569169 0 0 255
1.447625 6.801274 0.566159 0 0 255
1.429335 6.789155 0.563272 0 0 255
1.407161 6.786429 0.562244 0 0 255
1.394347 6.794859 0.563521 0 0 255
1.402715 6.810915 0.565189 0 0 255
-0.683121 7.819070 0.955916 0 0 255
-0.678561 7.810138 0.946365 0 0 255
-0.675080 7.794971 0.942853 0 0 255
-0.674248 7.780200 0.947056 0 0 255
-0.667852 7.771493 0.959567 0 0 255
-0.674430 7.782218 0.968996 0 0 255
-0.674882 7.795372 0.972587 0 0 255
-0.686384 7.816691 0.966720 0 0 255
-0.492755 6.862442 0.581703 0 0 255
-0.493663 6.839200 0.556283 0 0 255
-0.485350 6.800816 0.538484 0 0 255
-0.474435 6.768811 0.539637 0 0 255
-0.462157 6.758174 0.556872 0 0 255
-0.459873 6.781001 0.581701 0 0 255
-0.467690 6.818933 0.597891 0 0 255
-0.480769 6.851429 0.597980 0 0 255
0.578745 8.583046 -0.577296 0 0 255
0.569699 8.582033 -0.580191 0 0 255
0.559954 8.574707 -0.565059 0 0 255
0.557048 8.579915 -0.557207 0 0 255
0.562526 8.594811 -0.561465 0 0 255
0.573430 8.610285 -0.575519 0 0 255
0.582899 8.618306 -0.591678 0 0 255
0.584692 8.603753 -0.588192 0 0 255
-0.281584 3.867994 0.011734 0 0 255
-0.310476 3.943466 -0.009121 0 0 255
-0.303231 3.615610 0.071322 0 0 255
-0.305174 3.362618 0.054649 0 0 255
-0.296301 3.318628 -0.041204 0 0 255
-0.229054 3.339061 -0.116965 0 0 255
-0.168472 3.472660 -0.139580 0 0 255
-0.183875 3.729104 -0.122813 0 0 255
-0.254060 3.958389 -0.082138 0 0 255
-0.266418 3.987526 -0.102192 0 0 255
-0.294651 4.075612 -0.121976 0 0 255
1.711638 10.619316 -1.831033 0 0 255
-0.282689 8.636703 -0.041115 0 0 255
0.068352 8.958773 -0.009777 0 0 255
2.542510 7.311643 0.134433 0 0 255
2.545768 7.307697 0.132799 0 0 255
2.548006 7.316851 0.129196 0 0 255
2.540886 7.304702 0.129261 0 0 255
2.548350 7.312095 0.128296 0 0 255
2.535142 7.306393 0.126851 0 0 255
2.546415 7.314959 0.124955 0 0 255
3 0 1 2
3 3 2 1
3 2 3 4
3 5 4 3
3 6 4 5
3 4 6 7
3 8 7 6
3 7 8 9
3 10 9 8
3 9 10 11
3 12 11 10
3 13 11 12
3 11 13 0
3 1 0 13
3 14 15 16
3 17 16 15
3 16 17 18
3 15 19 17
3 20 18 17
3 18 20 21
3 22 17 19
3 17 22 20
3 19 23 22
3 24 21 20
3 21 24 25
3 26 20 22
3 20 26 24
3 27 22 23
3 22 27 26
3 23 28 27
3 29 25 24
3 25 29 30
3 31 24 26
3 24 31 29
3 32 26 27
3 26 32 31
3 33 27 28
3 27 33 32
3 28 34 33
3 35 31 32
3 32 33 35
3 36 33 34
3 34 37 36
3 38 35 33
3 33 36 38
3 31 35 39
3 39 29 31
3 40 36 37
3 37 41 40
3 36 40 42
3 42 38 36
3 43 40 41
3 41 44 43
3 45 42 40
3 40 43 45
3 46 43 44
3 44 47 46
3 48 45 43
3 43 46 48
3 49 46 47
3 47 50 49
3 51 48 46
3 46 49 51
3 52 49 50
3 50 53 52
3 54 51 49
3 49 52 54
3 55 52 53
3 53 56 55
3 57 55 56
3 52 55 58
3 58 54 52
3 55 57 59
3 59 58 55
3 60 59 57
3 54 58 61
3 59 60 62
3 63 62 60
3 58 59 64
3 62 64 59
3 64 61 58
3 62 63 65
3 66 65 63
3 64 62 67
3 65 67 62
3 56 53 66
3 65 66 53
3 53 50 65
3 67 65 50
3 50 47 67
3 67 68 64
3 68 67 47
3 61 64 68
3 47 44 68
3 69 68 44
3 68 69 61
3 44 41 69
3 70 61 69
3 61 70 54
3 51 54 70
3 71 69 41
3 69 71 70
3 41 37 71
3 70 72 51
3 72 70 71
3 73 71 37
3 71 73 72
3 37 34 73
3 74 51 72
3 48 51 74
3 75 72 73
3 72 75 74
3 76 73 34
3 73 76 75
3 34 28 76
3 74 77 48
3 77 74 75
3 45 48 77
3 78 75 76
3 75 78 77
3 79 76 28
3 76 79 78
3 28 23 79
3 77 80 45
3 80 77 78
3 42 45 80
3 81 78 79
3 78 81 80
3 82 79 23
3 79 82 81
3 23 19 82
3 80 83 42
3 83 80 81
3 38 42 83
3 84 82 19
3 19 15 84
3 85 81 82
3 82 84 85
3 81 86 83
3 86 81 85
3 83 87 38
3 87 83 86
3 35 38 87
3 87 39 35
3 85 88 86
3 88 85 84
3 86 89 87
3 89 86 88
3 39 87 90
3 90 87 89
3 84 91 88
3 91 84 15
3 15 14 91
3 92 91 14
3 93 88 91
3 91 92 93
3 88 93 89
3 94 93 92
3 95 89 93
3 93 94 95
3 89 95 90
3 96 95 94
3 97 90 95
3 95 96 97
3 90 97 39
3 98 97 96
3 99 39 97
3 97 98 99
3 29 39 99
3 100 99 98
3 99 30 29
3 30 99 100
3 101 102 103
3 104 103 102
3 103 104 105
3 102 106 104
3 107 105 104
3 105 107 108
3 109 104 106
3 104 109 107
3 106 110 109
3 111 108 107
3 112 109 110
3 110 113 112
3 114 112 113
3 115 107 109
3 109 112 115
3 107 115 111
3 112 114 116
3 116 115 112
3 117 116 114
3 118 111 115
3 115 116 118
3 111 118 119
3 116 117 120
3 120 118 116
3 121 120 117
3 122 119 118
3 118 120 122
3 120 121 123
3 123 122 120
3 124 123 121
3 119 122 125
3 125 126 119
3 126 125 101
3 102 101 125
3 127 125 122
3 125 127 102
3 122 123 127
3 106 102 127
3 128 127 123
3 127 128 106
3 123 124 128
3 110 106 128
3 129 128 124
3 128 129 110
3 113 110 129
3 113 130 114
3 131 114 130
3 114 131 117
3 130 132 131
3 133 117 131
3 117 133 121
3 134 131 132
3 131 134 133
3 132 135 134
3 136 121 133
3 133 134 136
3 121 136 137
3 138 134 135
3 135 139 138
3 140 136 134
3 134 138 140
3 141 137 136
3 136 140 141
3 137 141 142
3 143 140 138
3 144 142 141
3 142 144 113
3 130 113 144
3 145 141 140
3 141 145 144
3 144 145 130
3 140 143 145
3 132 130 145
3 145 146 132
3 146 145 143
3 135 132 146
3 138 147 143
3 143 147 146
3 147 138 139
3 139 148 147
3 146 149 135
3 149 146 147
3 139 135 149
3 150 147 148
3 147 150 149
3 148 151 150
3 149 152 139
3 152 149 150
3 150 151 152
3 148 139 152
3 152 151 148
3 113 153 142
3 154 142 153
3 142 154 137
3 153 155 154
3 156 137 154
3 137 156 121
3 157 154 155
3 154 157 156
3 155 158 157
3 159 121 156
3 156 157 159
3 121 159 124
3 160 157 158
3 158 161 160
3 162 159 157
3 157 160 162
3 163 124 159
3 159 162 163
3 124 163 129
3 161 164 165
3 165 160 161
3 166 129 163
3 129 166 113
3 153 113 166
3 163 167 166
3 166 167 153
3 167 163 162
3 162 160 167
3 155 153 167
3 168 167 160
3 167 168 155
3 160 165 168
3 158 155 168
3 169 168 165
3 168 169 158
3 165 164 169
3 161 158 169
3 169 164 161
3 170 171 172
3 173 172 171
3 172 173 174
3 171 175 173
3 176 174 173
3 174 176 177
3 177 176 178
3 179 173 175
3 173 179 176
3 175 180 179
3 181 178 176
3 178 181 182
3 183 176 179
3 176 183 181
3 184 179 180
3 179 184 183
3 180 185 184
3 186 182 181
3 182 186 170
3 171 170 186
3 181 187 186
3 187 181 183
3 186 188 171
3 188 186 187
3 175 171 188
3 183 189 187
3 189 183 184
3 187 190 188
3 190 187 189
3 188 191 175
3 191 188 190
3 180 175 191
3 189 192 190
3 190 192 191
3 184 193 189
3 192 189 193
3 193 184 185
3 185 194 193
3 191 195 180
3 195 191 192
3 185 180 195
3 193 196 192
3 196 193 194
3 192 196 195
3 194 197 196
3 195 198 185
3 198 195 196
3 196 197 198
3 194 185 198
3 198 197 194
3 199 200 201
3 202 201 200
3 201 202 203
3 200 204 202
3 205 203 202
3 203 205 206
3 206 205 207
3 208 202 204
3 202 208 205
3 204 209 208
3 210 207 205
3 207 210 199
3 200 199 210
3 211 205 208
3 205 211 210
3 212 208 209
3 208 212 211
3 209 213 212
3 210 214 200
3 214 210 211
3 204 200 214
3 215 211 212
3 211 215 214
3 216 212 213
3 212 216 215
3 213 217 216
3 214 218 204
3 218 214 215
3 209 204 218
3 219 215 216
3 215 219 218
3 220 216 217
3 216 220 219
3 217 221 220
3 218 222 209
3 222 218 219
3 213 209 222
3 223 219 220
3 219 223 222
3 224 220 221
3 220 224 223
3 221 225 224
3 222 226 213
3 226 222 223
3 217 213 226
3 227 223 224
3 223 227 226
3 228 224 225
3 224 228 227
3 225 229 228
3 226 230 217
3 230 226 227
3 221 217 230
3 231 227 228
3 227 231 230
3 230 232 221
3 232 230 231
3 225 221 232
3 228 233 231
3 231 233 232
3 233 228 229
3 229 234 233
3 235 233 234
3 232 236 225
3 236 232 233
3 233 235 236
3 229 225 236
3 237 236 235
3 236 237 229
3 234 229 237
3 238 239 240
3 241 240 239
3 240 241 242
3 239 243 241
3 242 241 244
3 245 241 243
3 243 246 245
3 247 245 246
3 248 244 241
3 241 245 248
3 244 248 238
3 239 238 248
3 245 247 249
3 249 248 245
3 248 249 239
3 250 249 247
3 243 239 249
3 249 250 243
3 246 243 250
3 251 252 253
3 254 253 252
3 253 254 255
3 252 256 254
3 257 255 254
3 255 257 258
3 258 257 259
3 260 254 256
3 254 260 257
3 256 261 260
3 262 259 257
3 259 262 251
3 252 251 262
3 263 257 260
3 257 263 262
3 264 260 261
3 260 264 263
3 261 265 264
3 266 262 263
3 262 266 252
3 263 264 266
3 256 252 266
3 267 266 264
3 266 267 256
3 264 265 267
3 261 256 267
3 267 265 261
3 268 269 270
3 271 270 269
3 270 271 272
3 269 273 271
3 274 272 271
3 272 274 275
3 276 271 273
3 271 276 274
3 273 277 276
3 278 275 274
3 275 278 279
3 280 274 276
3 274 280 278
3 281 276 277
3 276 281 280
3 277 282 281
3 283 279 278
3 279 283 284
3 284 283 285
3 286 281 282
3 282 287 286
3 288 285 283
3 285 288 289
3 278 290 283
3 283 290 288
3 290 278 280
3 291 289 288
3 289 291 292
3 293 288 290
3 288 293 291
3 280 294 290
3 294 280 281
3 281 286 294
3 295 290 294
3 290 295 293
3 296 294 286
3 294 296 295
3 297 286 287
3 286 297 296
3 287 298 297
3 298 299 300
3 300 297 298
3 301 296 297
3 297 300 301
3 302 295 296
3 296 301 302
3 300 299 303
3 303 301 300
3 295 302 304
3 304 293 295
3 305 302 301
3 301 303 305
3 306 304 302
3 302 305 306
3 293 304 307
3 307 291 293
3 304 306 308
3 308 307 304
3 291 307 309
3 309 292 291
3 292 309 268
3 269 268 309
3 310 309 307
3 309 310 269
3 307 308 310
3 273 269 310
3 310 311 273
3 311 310 308
3 277 273 311
3 312 308 306
3 308 312 311
3 306 305 312
3 311 313 277
3 313 311 312
3 282 277 313
3 314 312 305
3 312 314 313
3 313 315 282
3 315 313 314
3 287 282 315
3 305 316 314
3 316 305 303
3 303 299 316
3 317 314 316
3 316 299 317
3 314 317 315
3 315 318 287
3 318 315 317
3 317 299 318
3 298 287 318
3 318 299 298
3 319 320 321
3 322 321 320
3 320 323 322
3 321 322 324
3 325 322 323
3 326 324 322
3 322 325 326
3 324 326 327
3 328 326 325
3 327 326 329
3 326 328 330
3 330 329 326
3 331 330 328
3 329 330 332
3 330 331 333
3 333 332 330
3 334 333 331
3 332 333 335
3 333 334 336
3 336 335 333
3 337 336 334
3 335 336 338
3 336 337 339
3 339 338 336
3 338 339 340
3 341 339 337
3 340 339 342
3 339 341 343
3 343 342 339
3 342 343 319
3 344 343 341
3 320 319 343
3 343 344 320
3 323 320 344
3 323 345 325
3 346 325 345
3 325 346 328
3 345 347 346
3 348 328 346
3 328 348 331
3 349 346 347
3 346 349 348
3 347 350 349
3 351 331 348
3 331 351 334
3 352 348 349
3 348 352 351
3 353 349 350
3 349 353 352
3 350 354 353
3 355 334 351
3 334 355 356
3 357 353 354
3 354 358 357
3 353 357 359
3 359 352 353
3 357 358 360
3 360 359 357
3 361 351 352
3 352 359 361
3 351 361 355
3 359 360 362
3 362 361 359
3 360 358 363
3 363 362 360
3 355 361 364
3 364 356 355
3 356 364 365
3 366 364 361
3 361 362 366
3 367 365 364
3 364 366 367
3 365 367 368
3 366 362 369
3 369 367 366
3 370 368 367
3 367 369 370
3 368 370 323
3 345 323 370
3 370 371 345
3 371 370 369
3 347 345 371
3 372 369 362
3 369 372 371
3 362 363 372
3 371 373 347
3 373 371 372
3 350 347 373
3 374 372 363
3 372 374 373
3 363 358 374
3 373 375 350
3 375 373 374
3 374 358 375
3 354 350 375
3 375 358 354
3 323 376 368
3 377 368 376
3 368 377 365
3 376 378 377
3 379 365 377
3 365 379 356
3 380 377 378
3 378 381 380
3 377 380 379
3 380 381 382
3 382 379 380
3 383 356 379
3 379 382 383
3 356 383 334
3 382 381 384
3 384 383 382
3 385 334 383
3 383 384 385
3 334 385 337
3 386 337 385
3 385 384 386
3 337 386 341
3 387 386 384
3 384 381 387
3 387 381 388
3 389 341 386
3 386 387 389
3 388 389 387
3 341 389 344
3 390 344 389
3 389 388 390
3 344 390 323
3 376 323 390
3 391 390 388
3 390 391 376
3 388 381 391
3 378 376 391
3 391 381 378
3 392 393 394
3 395 394 393
3 394 395 396
3 393 397 395
3 396 395 398
3 399 395 397
3 400 398 395
3 395 399 400
3 398 400 401
3 402 400 399
3 403 401 400
3 400 402 403
3 401 403 404
3 405 403 402
3 406 404 403
3 403 405 406
3 404 406 407
3 408 406 405
3 407 406 409
3 406 408 410
3 410 409 406
3 409 410 392
3 411 410 408
3 393 392 410
3 410 411 393
3 397 393 411
3 397 412 399
3 413 399 412
3 399 413 402
3 412 414 413
3 415 402 413
3 402 415 405
3 416 413 414
3 413 416 415
3 414 417 416
3 418 405 415
3 405 418 419
3 420 415 416
3 415 420 418
3 421 416 417
3 416 421 420
3 417 422 421
3 422 423 424
3 424 421 422
3 425 420 421
3 421 424 425
3 426 418 420
3 420 425 426
3 427 419 418
3 418 426 427
3 419 427 428
3 429 427 426
3 426 425 429
3 430 428 427
3 427 429 430
3 428 430 397
3 412 397 430
3 430 431 412
3 431 430 429
3 414 412 431
3 429 432 431
3 432 429 425
3 431 433 414
3 433 431 432
3 417 414 433
3 425 434 432
3 434 425 424
3 424 423 434
3 435 432 434
3 434 423 435
3 432 435 433
3 433 436 417
3 436 433 435
3 435 423 436
3 422 417 436
3 436 423 422
3 397 437 428
3 438 428 437
3 428 438 419
3 437 439 438
3 440 419 438
3 419 440 405
3 441 438 439
3 438 441 440
3 439 442 441
3 443 441 442
3 441 443 444
3 444 440 441
3 445 444 443
3 446 405 440
3 440 444 446
3 405 446 408
3 444 445 447
3 447 446 444
3 448 447 445
3 449 408 446
3 446 447 449
3 408 449 411
3 447 448 450
3 450 449 447
3 451 450 448
3 452 411 449
3 449 450 452
3 411 452 397
3 437 397 452
3 450 451 453
3 453 452 450
3 452 453 437
3 454 453 451
3 439 437 453
3 453 454 439
3 442 439 454
3 0 455 11
3 456 11 455
3 11 456 9
3 455 457 456
3 458 9 456
3 9 458 7
3 459 456 457
3 456 459 458
3 457 460 459
3 461 7 458
3 7 461 462
3 463 458 459
3 458 463 461
3 464 459 460
3 460 465 464
3 459 464 463
3 466 462 461
3 462 466 467
3 468 461 463
3 461 468 466
3 469 463 464
3 463 469 468
3 464 465 469
3 470 466 468
3 468 469 470
3 471 467 466
3 466 470 471
3 467 471 0
3 455 0 471
3 472 470 469
3 469 465 472
3 473 471 470
3 471 473 455
3 470 472 473
3 457 455 473
3 474 473 472
3 473 474 457
3 472 465 474
3 460 457 474
3 474 465 460
3 0 475 467
3 476 467 475
3 467 476 462
3 475 477 476
3 478 462 476
3 462 478 7
3 479 476 477
3 476 479 478
3 477 480 479
3 481 7 478
3 7 481 4
3 482 479 480
3 480 483 482
3 484 478 479
3 479 482 484
3 478 484 481
3 482 483 485
3 485 484 482
3 486 4 481
3 481 484 486
3 4 486 2
3 484 485 487
3 487 486 484
3 485 483 488
3 488 487 485
3 489 2 486
3 486 487 489
3 2 489 0
3 475 0 489
3 490 489 487
3 489 490 475
3 487 488 490
3 477 475 490
3 491 490 488
3 490 491 477
3 488 483 491
3 480 477 491
3 491 483 480
3 492 493 494
3 495 494 493
3 494 495 496
3 493 497 495
3 496 495 498
3 499 495 497
3 500 498 495
3 495 499 500
3 498 500 501
3 502 500 499
3 503 501 500
3 500 502 503
3 501 503 504
3 505 503 502
3 506 504 503
3 503 505 506
3 504 506 507
3 508 506 505
3 507 506 509
3 506 508 510
3 510 509 506
3 509 510 492
3 511 510 508
3 493 492 510
3 510 511 493
3 497 493 511
3 497 512 499
3 513 499 512
3 499 513 502
3 512 514 513
3 515 502 513
3 502 515 505
3 516 513 514
3 513 516 515
3 514 517 516
3 518 505 515
3 505 518 519
3 520 515 516
3 515 520 518
3 521 516 517
3 516 521 520
3 517 522 521
3 523 518 520
3 524 521 522
3 522 525 524
3 526 520 521
3 521 524 526
3 520 526 523
3 527 524 525
3 525 528 527
3 524 527 529
3 529 526 524
3 527 528 530
3 530 529 527
3 526 529 531
3 529 530 532
3 532 531 529
3 530 528 533
3 533 532 530
3 531 534 526
3 523 526 534
3 531 532 535
3 534 536 523
3 518 523 536
3 536 519 518
3 519 536 537
3 538 537 536
3 536 534 538
3 537 538 497
3 512 497 538
3 539 538 534
3 538 539 512
3 534 531 539
3 535 539 531
3 514 512 539
3 539 535 514
3 517 514 535
3 535 540 517
3 540 535 532
3 532 533 540
3 522 517 540
3 541 540 533
3 540 541 522
3 533 528 541
3 525 522 541
3 541 528 525
3 497 542 537
3 543 537 542
3 537 543 519
3 542 544 543
3 545 519 543
3 519 545 505
3 546 543 544
3 543 546 545
3 544 547 546
3 548 505 545
3 505 548 508
3 549 545 546
3 545 549 548
3 550 546 547
3 546 550 549
3 547 551 550
3 551 552 553
3 553 550 551
3 554 549 550
3 550 553 554
3 555 548 549
3 549 554 555
3 556 508 548
3 548 555 556
3 508 556 511
3 557 556 555
3 555 554 557
3 558 511 556
3 556 557 558
3 511 558 497
3 542 497 558
3 558 559 542
3 559 558 557
3 544 542 559
3 557 560 559
3 560 557 554
3 559 561 544
3 561 559 560
3 547 544 561
3 554 562 560
3 562 554 553
3 553 552 562
3 563 560 562
3 562 552 563
3 560 563 561
3 561 564 547
3 564 561 563
3 563 552 564
3 551 547 564
3 564 552 551
3 565 566 567
3 568 567 566
3 567 568 569
3 566 570 568
3 569 568 571
3 572 568 570
3 573 571 568
3 568 572 573
3 571 573 574
3 575 573 572
3 576 574 573
3 573 575 576
3 574 576 577
3 578 576 575
3 579 577 576
3 576 578 579
3 577 579 580
3 581 579 578
3 580 579 582
3 579 581 583
3 583 582 579
3 582 583 565
3 584 583 581
3 566 565 583
3 583 584 566
3 570 566 584
3 570 585 572
3 586 572 585
3 572 586 575
3 585 587 586
3 588 575 586
3 575 588 578
3 589 586 587
3 586 589 588
3 587 590 589
3 591 578 588
3 578 591 592
3 593 589 590
3 590 594 593
3 595 588 589
3 589 593 595
3 588 595 591
3 593 594 596
3 596 595 593
3 597 592 591
3 591 595 597
3 592 597 598
3 595 596 599
3 599 597 595
3 596 594 600
3 600 599 596
3 601 598 597
3 597 599 601
3 598 601 570
3 585 570 601
3 602 601 599
3 601 602 585
3 599 600 602
3 587 585 602
3 603 602 600
3 602 603 587
3 600 594 603
3 590 587 603
3 603 594 590
3 570 604 598
3 605 598 604
3 598 605 592
3 604 606 605
3 607 592 605
3 592 607 578
3 608 605 606
3 605 608 607
3 606 609 608
3 610 578 607
3 578 610 581
3 611 607 608
3 607 611 610
3 612 608 609
3 609 613 612
3 608 612 611
3 614 581 610
3 581 614 584
3 615 610 611
3 610 615 614
3 616 611 612
3 611 616 615
3 612 613 616
3 617 614 615
3 615 616 617
3 618 584 614
3 614 617 618
3 584 618 570
3 604 570 618
3 619 617 616
3 616 613 619
3 620 618 617
3 618 620 604
3 617 619 620
3 606 604 620
3 621 620 619
3 620 621 606
3 619 613 621
3 609 606 621
3 621 613 609
3 622 623 624
3 624 625 622
3 626 622 625
3 625 627 626
3 628 623 622
3 622 626 628
3 629 626 627
3 627 630 629
3 631 628 626
3 626 629 631
3 632 623 628
3 628 631 632
3 633 629 630
3 630 634 633
3 635 631 629
3 629 633 635
3 636 632 631
3 631 635 636
3 624 623 632
3 632 636 624
3 625 624 636
3 636 637 625
3 637 636 635
3 627 625 637
3 637 638 627
3 630 627 638
3 635 639 637
3 638 637 639
3 638 640 630
3 634 630 640
3 639 641 638
3 640 638 641
3 639 635 642
3 642 635 633
3 642 643 639
3 641 639 643
3 633 644 642
3 643 642 644
3 644 633 634
3 634 645 644
3 646 644 645
3 644 646 643
3 645 647 646
3 648 643 646
3 643 648 641
3 649 646 647
3 646 649 648
3 647 650 649
3 651 641 648
3 652 649 650
3 650 653 652
3 654 648 649
3 649 652 654
3 648 654 651
3 655 652 653
3 653 656 655
3 657 654 652
3 652 655 657
3 658 651 654
3 654 657 658
3 659 655 656
3 656 660 659
3 661 657 655
3 655 659 661
3 660 662 663
3 663 659 660
3 659 663 664
3 664 661 659
3 665 664 663
3 657 661 666
3 666 658 657
3 661 664 667
3 667 666 661
3 664 665 668
3 668 667 664
3 658 666 669
3 669 651 658
3 666 667 670
3 670 669 666
3 651 669 671
3 671 641 651
3 641 671 640
3 672 671 669
3 669 670 672
3 673 640 671
3 671 672 673
3 640 673 634
3 645 634 673
3 673 674 645
3 674 673 672
3 647 645 674
3 672 675 674
3 675 672 670
3 674 676 647
3 676 674 675
3 650 647 676
3 670 677 675
3 677 670 667
3 667 668 677
3 675 678 676
3 678 675 677
3 676 679 650
3 679 676 678
3 653 650 679
3 677 680 678
3 680 677 668
3 678 681 679
3 681 678 680
3 679 682 653
3 682 679 681
3 656 653 682
3 668 683 680
3 683 668 665
3 665 684 683
3 682 685 656
3 660 656 685
3 686 683 684
3 684 687 686
3 688 686 687
3 689 680 683
3 683 686 689
3 680 689 681
3 686 688 690
3 690 689 686
3 691 690 688
3 692 681 689
3 689 690 692
3 681 692 682
3 685 682 692
3 690 691 693
3 693 692 690
3 692 693 685
3 694 693 691
3 695 685 693
3 693 694 695
3 685 695 660
3 696 695 694
3 662 660 695
3 695 696 662
3 697 101 698
3 103 698 101
3 698 103 699
3 105 699 103
3 699 105 700
3 108 700 105
3 700 108 701
3 702 701 108
3 108 111 702
3 119 702 111
3 701 702 703
3 702 119 126
3 126 703 702
3 703 126 697
3 101 697 126
3 268 704 292
3 705 292 704
3 292 705 289
3 706 289 705
3 289 706 285
3 707 285 706
3 285 707 284
3 708 284 707
3 284 708 279
3 709 279 708
3 279 709 275
3 710 275 709
3 275 710 272
3 711 272 710
3 272 711 270
3 712 270 711
3 270 712 268
3 704 268 712
3 319 713 342
3 714 342 713
3 342 714 340
3 715 340 714
3 340 715 338
3 716 338 715
3 338 716 335
3 717 335 716
3 335 717 332
3 718 332 717
3 332 718 329
3 719 329 718
3 329 719 327
3 720 327 719
3 327 720 324
3 721 324 720
3 324 721 321
3 722 321 721
3 321 722 319
3 713 319 722
3 392 723 409
3 724 409 723
3 409 724 407
3 725 407 724
3 407 725 404
3 726 404 725
3 404 726 401
3 727 401 726
3 401 727 398
3 728 398 727
3 398 728 396
3 729 396 728
3 396 729 394
3 730 394 729
3 394 730 392
3 723 392 730
3 1 731 3
3 732 3 731
3 3 732 5
3 733 5 732
3 5 733 6
3 734 6 733
3 6 734 8
3 735 8 734
3 8 735 10
3 736 10 735
3 10 736 12
3 737 12 736
3 12 737 13
3 738 13 737
3 13 738 1
3 731 1 738
3 492 739 509
3 740 509 739
3 509 740 507
3 741 507 740
3 507 741 504
3 742 504 741
3 504 742 501
3 743 501 742
3 501 743 498
3 744 498 743
3 498 744 496
3 745 496 744
3 496 745 494
3 746 494 745
3 494 746 492
3 739 492 746
3 565 747 582
3 748 582 747
3 582 748 580
3 749 580 748
3 580 749 577
3 750 577 749
3 577 750 574
3 751 574 750
3 574 751 571
3 752 571 751
3 571 752 569
3 753 569 752
3 569 753 567
3 754 567 753
3 567 754 565
3 747 565 754
3 755 756 757
3 696 757 756
3 756 662 696
3 757 696 758
3 694 758 696
3 758 694 759
3 691 759 694
3 759 691 760
3 760 691 761
3 688 761 691
3 761 688 762
3 687 762 688
3 762 687 763
3 764 763 687
3 763 764 755
3 687 684 764
3 756 755 764
3 765 764 684
3 764 765 756
3 684 665 765
3 662 756 765
3 663 765 665
3 765 663 662
3 237 766 234
3 235 766 237
3 234 766 235
3 250 767 246
3 247 767 250
3 246 767 247
3 66 768 56
3 63 768 66
3 56 768 57
3 60 768 63
3 57 768 60
3 454 769 442
3 769 454 770
3 451 770 454
3 771 442 769
3 442 771 443
3 770 451 772
3 448 772 451
3 770 773 769
3 772 773 770
3 769 773 771
3 772 448 774
3 774 773 772
3 445 774 448
3 771 773 775
3 775 773 774
3 774 445 775
3 775 443 771
3 443 775 445
