ply
format ascii 1.0
comment Created by Blender 2.78 (sub 0) - www.blender.org, source file: ''
element vertex 378
property float x
property float y
property float z
property float nx
property float ny
property float nz
property float s
property float t
property uchar red
property uchar green
property uchar blue
element face 336
property list uchar uint vertex_indices
end_header
0.037303 -0.017765 0.080420 0.109836 0.376415 0.919889 0.498779 0.002441 0 128 255
0.020282 -0.016168 0.062596 -0.518906 0.651082 0.553850 0.997070 0.000977 255 128 255
-0.001664 -0.038646 0.068458 -0.616749 0.146397 0.773400 0.998047 0.499512 255 128 255
0.056685 -0.057744 0.069305 0.563433 -0.239875 0.790551 0.001590 0.500244 255 128 255
0.052436 -0.026692 0.063063 0.788690 0.223090 0.572863 0.000500 0.001953 255 128 255
0.027595 -0.047131 0.087061 -0.023621 -0.027863 0.999329 0.500000 0.500977 237 128 237
0.018186 -0.076288 0.077804 -0.153142 -0.428388 0.890500 0.500977 0.999500 0 128 0
0.002642 -0.065428 0.060415 -0.796258 -0.287790 0.532060 0.999023 0.997690 255 128 0
0.037593 -0.076867 0.060922 0.457808 -0.698264 0.550249 0.002680 0.998780 255 128 0
0.035824 -0.030260 0.083024 -0.078799 0.209571 0.974578 0.498779 0.002441 0 98 255
0.052512 -0.042964 0.068298 0.521744 -0.257424 0.813318 0.997070 0.000977 255 98 255
0.076349 -0.021544 0.059786 0.647542 0.277291 0.709769 0.998047 0.499512 255 98 255
0.016647 -0.001289 0.050602 -0.516251 0.672140 0.530717 0.001590 0.500244 255 98 255
0.019612 -0.031802 0.063237 -0.767693 0.180029 0.614948 0.000500 0.001953 255 98 255
0.047274 -0.001771 0.071422 0.072359 0.580920 0.810724 0.500000 0.500977 0 98 0
0.057618 0.017327 0.046301 0.210456 0.843989 0.493301 0.500977 0.999500 0 98 0
0.072461 -0.002986 0.037374 0.830378 0.491287 0.262795 0.999023 0.997690 255 98 0
0.036700 0.009147 0.031873 -0.406262 0.910855 0.072542 0.002680 0.998780 255 98 0
0.039999 -0.028959 0.076615 -0.850002 0.446577 0.279366 0.498779 0.002441 0 142 255
0.043800 -0.042351 0.072177 -0.958647 -0.282662 0.032105 0.997070 0.000977 255 142 255
0.047335 -0.052579 0.087679 -0.780816 -0.272896 0.561968 0.998047 0.499512 255 142 255
0.063819 -0.020246 0.086147 -0.217231 0.832545 0.509568 0.001590 0.500244 255 142 255
0.052883 -0.024534 0.071332 -0.334208 0.942106 -0.025941 0.000500 0.001953 255 142 255
0.047938 -0.032218 0.093246 -0.657125 0.366253 0.658773 0.500000 0.500977 0 142 0
0.062145 -0.038961 0.103791 -0.339610 0.216529 0.915281 0.500977 0.999500 0 142 0
0.062193 -0.051610 0.095324 -0.363994 -0.519059 0.773339 0.999023 0.997690 255 142 0
0.072067 -0.032242 0.094406 0.234840 0.655568 0.717643 0.002680 0.998780 255 142 0
0.037783 -0.038710 0.074299 -0.187353 0.041292 0.981414 0.498779 0.002441 33 80 255
0.043723 -0.046112 0.067033 0.190344 -0.605609 0.772607 0.997070 0.000977 255 80 255
0.058502 -0.041558 0.066961 0.541337 -0.173437 0.822687 0.998047 0.499512 255 80 255
0.038467 -0.020130 0.062235 -0.296030 0.722160 0.625141 0.001590 0.500244 255 80 255
0.032683 -0.034303 0.064429 -0.737449 0.386700 0.553728 0.000500 0.001953 255 80 255
0.049064 -0.028437 0.073056 0.132237 0.329844 0.934721 0.500000 0.500977 4 80 4
0.059414 -0.020629 0.064583 0.428083 0.557207 0.711509 0.500977 0.999500 0 80 0
0.062583 -0.031255 0.058921 0.883938 0.014557 0.467330 0.999023 0.997690 255 80 0
0.050582 -0.018420 0.056090 -0.005829 0.966277 0.257393 0.002680 0.998780 255 80 0
0.058048 -0.029274 0.090927 -0.162358 -0.176977 0.970702 0.498779 0.002441 0 210 255
0.021292 -0.032130 0.058801 -0.772393 -0.356334 0.525742 0.998047 0.499512 255 210 255
0.052623 -0.041719 0.068320 -0.389966 -0.763909 0.514115 0.997070 0.000977 255 210 255
0.062220 0.016607 0.074533 0.002899 0.566912 0.823756 0.001590 0.500244 255 210 255
0.075177 -0.014862 0.076989 0.469039 0.259041 0.844295 0.000500 0.001953 255 210 255
0.033751 -0.006750 0.084357 -0.470229 0.112339 0.875332 0.500000 0.500977 0 210 0
0.017274 0.014040 0.062817 -0.690512 0.381512 0.614460 0.500977 0.999500 0 210 0
0.016974 -0.006084 0.044121 -0.988098 -0.096408 0.119633 0.999023 0.997690 255 210 0
0.041489 0.023109 0.053544 -0.164251 0.884671 0.436293 0.002680 0.998780 255 210 0
0.042074 -0.024010 0.088621 -0.073733 0.034700 0.996673 0.498779 0.002441 0 180 255
0.034633 -0.035228 0.074416 -0.540452 -0.499130 0.677297 0.997070 0.000977 255 180 255
0.049945 -0.055237 0.071890 -0.016968 -0.689657 0.723899 0.998047 0.499512 255 180 255
0.071959 -0.011850 0.072007 0.544939 0.417829 0.726920 0.001590 0.500244 255 180 255
0.046764 -0.011319 0.074481 0.082156 0.727958 0.680654 0.000500 0.001953 255 180 255
0.064296 -0.035278 0.085878 0.308969 -0.159307 0.937620 0.500000 0.500977 185 180 0
0.082789 -0.044621 0.071254 0.634785 -0.323985 0.701468 0.500977 0.999500 0 180 0
0.068708 -0.053785 0.059706 0.294473 -0.890255 0.347392 0.999023 0.997690 255 180 0
0.081894 -0.027796 0.059776 0.891568 0.286569 0.350597 0.002680 0.998780 255 180 13
0.055953 -0.022002 0.076413 -0.641041 -0.574541 0.508835 0.498779 0.002441 0 202 255
0.063587 0.025889 0.090069 -0.674459 0.172063 0.717948 0.998047 0.499512 255 202 255
0.055145 0.002669 0.065061 -0.964995 0.082858 0.248787 0.997070 0.000977 255 202 255
0.105591 -0.026620 0.083695 0.097842 -0.793390 0.600757 0.001590 0.500244 255 202 255
0.078292 -0.026267 0.061549 -0.109256 -0.986847 0.118931 0.000500 0.001953 255 202 255
0.075560 -0.009458 0.102281 -0.390698 -0.412427 0.822932 0.500000 0.500977 0 202 0
0.102185 0.010430 0.113908 -0.065737 -0.171911 0.982910 0.500977 0.999500 0 202 0
0.093386 0.031450 0.097123 -0.287454 0.521256 0.803491 0.999023 0.997690 255 202 0
0.118547 -0.000003 0.093304 0.533189 -0.504654 0.678945 0.002680 0.998780 255 202 0
0.051449 -0.014903 0.085689 -0.420789 0.193213 0.886319 0.498779 0.002441 0 19 255
0.047218 -0.028504 0.068841 -0.831019 -0.311899 0.460494 0.997070 0.000977 255 19 255
0.059839 -0.053419 0.074743 -0.404767 -0.564501 0.719321 0.998047 0.499512 255 19 255
0.091543 -0.008985 0.080107 0.313059 0.441572 0.840815 0.001590 0.500244 255 19 255
0.064689 -0.004018 0.071798 -0.035646 0.802850 0.595080 0.000500 0.001953 255 19 255
0.073105 -0.031296 0.093485 -0.085665 -0.058931 0.994568 0.500000 0.500977 188 19 0
0.096157 -0.046980 0.087163 0.266793 -0.300882 0.915555 0.500977 0.999500 0 19 0
0.084433 -0.056822 0.070020 -0.021393 -0.860622 0.508744 0.999023 0.997690 255 19 0
0.103423 -0.030206 0.073234 0.741417 0.208472 0.637806 0.002680 0.998780 255 19 0
0.055468 -0.017962 0.083912 -0.153722 -0.234169 0.959960 0.498779 0.002441 0 223 255
0.079822 0.013895 0.073815 0.219672 0.440260 0.870540 0.998047 0.499512 255 223 255
0.054296 0.000621 0.071643 -0.330607 0.505356 0.797021 0.997070 0.000977 255 223 255
0.081913 -0.040001 0.061002 0.266518 -0.767083 0.583514 0.001590 0.500244 255 223 255
0.055448 -0.029079 0.064582 -0.278695 -0.832362 0.478988 0.000500 0.001953 255 223 255
0.083991 -0.016672 0.083140 0.278207 -0.211921 0.936827 0.500000 0.500977 0 223 0
0.108733 -0.012317 0.068860 0.659230 -0.149602 0.736900 0.500977 0.999500 21 223 0
0.099509 0.006697 0.059215 0.612873 0.573199 0.543840 0.999023 0.997690 255 223 0
0.100762 -0.025587 0.051540 0.662679 -0.709769 0.238838 0.002680 0.998780 255 223 0
0.033810 -0.046627 0.080858 -0.248726 0.306772 0.918668 0.498779 0.002441 151 77 255
0.033240 -0.049347 0.079016 -0.579608 -0.370098 0.725974 0.997070 0.000977 255 77 255
0.036305 -0.052218 0.080000 -0.051759 -0.443495 0.894772 0.998047 0.499512 255 77 255
0.038999 -0.044593 0.078183 0.351909 0.698965 0.622517 0.001590 0.500244 255 77 255
0.034724 -0.045145 0.078015 -0.132328 0.895749 0.424360 0.000500 0.001953 255 77 255
0.037837 -0.047899 0.081490 0.160375 0.174780 0.971435 0.500000 0.500977 231 77 66
0.041550 -0.049558 0.080033 0.540727 0.009339 0.841121 0.500977 0.999500 56 77 0
0.039752 -0.052018 0.078367 0.343516 -0.685751 0.641652 0.999023 0.997690 255 77 35
0.041366 -0.047451 0.077279 0.772485 0.528245 0.352367 0.002680 0.998780 255 77 35
0.033197 -0.050654 0.077829 -0.503342 -0.349193 0.790368 0.498779 0.002441 182 4 255
0.049174 -0.029693 0.080337 -0.154149 0.329356 0.931516 0.998047 0.499512 255 4 255
0.035033 -0.037881 0.071721 -0.635243 0.405560 0.657216 0.997070 0.000977 255 4 255
0.055085 -0.062942 0.069411 0.052644 -0.833979 0.549211 0.001590 0.500244 255 4 255
0.038290 -0.056203 0.065700 -0.406110 -0.883419 0.233650 0.000500 0.001953 255 4 255
0.050169 -0.049859 0.084592 -0.097598 -0.326304 0.940184 0.500000 0.500977 0 4 0
0.068178 -0.046047 0.082733 0.328013 -0.241768 0.913205 0.500977 0.999500 0 4 0
0.064604 -0.033182 0.076183 0.328745 0.499435 0.801538 0.999023 0.997690 255 4 216
0.068144 -0.053098 0.069638 0.548509 -0.736778 0.395306 0.002680 0.998780 255 4 0
0.036820 -0.047980 0.071645 -0.714499 0.057924 0.697195 0.498779 0.002441 0 59 255
0.041299 -0.059590 0.058996 -0.798151 -0.557237 0.228858 0.997070 0.000977 255 59 255
0.055009 -0.075241 0.068701 -0.418958 -0.656270 0.627491 0.998047 0.499512 255 59 255
0.065825 -0.033152 0.076288 -0.114444 0.528611 0.841090 0.001590 0.500244 255 59 255
0.047259 -0.036396 0.063177 -0.460768 0.755608 0.465529 0.000500 0.001953 255 59 255
0.054527 -0.054786 0.084162 -0.370403 -0.071718 0.926084 0.500000 0.500977 0 59 0
0.076624 -0.060825 0.086160 0.044771 -0.188360 0.981048 0.500977 0.999500 0 59 0
0.074837 -0.071514 0.071186 0.081576 -0.815760 0.572558 0.999023 0.997690 255 59 0
0.081316 -0.046303 0.075730 0.405164 0.443312 0.799524 0.002680 0.998780 255 59 0
0.030911 -0.046853 0.083247 -0.633076 -0.340281 0.695242 0.498779 0.002441 88 46 255
0.032066 -0.047920 0.080671 -0.559160 -0.824030 0.090823 0.997070 0.000977 255 46 255
0.035251 -0.049979 0.081601 -0.134983 -0.882656 0.450179 0.998047 0.499512 255 46 255
0.034849 -0.043112 0.084596 -0.201544 0.254067 0.945921 0.001590 0.500244 255 46 255
0.031844 -0.044136 0.082322 -0.632923 0.435408 0.640126 0.000500 0.001953 255 46 255
0.034307 -0.047420 0.085005 -0.247169 -0.399457 0.882778 0.500000 0.500977 72 46 38
0.038211 -0.047214 0.085055 0.186743 -0.383496 0.904447 0.500977 0.999500 79 46 0
0.038275 -0.048394 0.082142 0.383557 -0.852901 0.354167 0.999023 0.997690 255 46 57
0.038034 -0.044281 0.083936 0.312815 0.354991 0.880947 0.002680 0.998780 255 46 57
0.026300 -0.051289 0.087568 -0.071017 -0.338054 0.938414 0.498779 0.002441 116 136 255
0.024408 -0.028245 0.083039 -0.258614 0.412214 0.873592 0.998047 0.499512 255 136 255
0.019417 -0.043635 0.080121 -0.686300 0.085604 0.722251 0.997070 0.000977 255 136 255
0.047372 -0.049146 0.077247 0.644246 -0.409558 0.645894 0.001590 0.500244 255 136 255
0.032071 -0.055153 0.076929 0.314066 -0.824915 0.469955 0.000500 0.001953 255 136 255
0.037432 -0.039551 0.089344 0.224403 -0.023377 0.974212 0.500000 0.500977 0 136 0
0.046810 -0.027527 0.083134 0.478591 0.296854 0.826319 0.500977 0.999500 179 136 15
0.036297 -0.022949 0.076523 -0.028169 0.800195 0.599048 0.999023 0.997690 255 136 0
0.050052 -0.035469 0.073054 0.931211 -0.073031 0.357067 0.002680 0.998780 255 136 0
0.062185 -0.060752 0.090038 -0.211951 0.643483 0.735496 0.498779 0.002441 0 194 255
0.049429 -0.077196 0.076723 -0.842402 0.281320 0.459517 0.997070 0.000977 255 194 255
0.049264 -0.104594 0.093194 -0.566393 -0.041353 0.823084 0.998047 0.499512 255 194 255
0.104316 -0.078306 0.086059 0.546709 0.490158 0.678823 0.001590 0.500244 255 194 255
0.079766 -0.062710 0.072791 0.390881 0.870266 0.299692 0.000500 0.001953 255 194 255
0.075562 -0.084338 0.106352 -0.027345 0.314798 0.948759 0.500000 0.500977 0 194 0
0.089483 -0.113140 0.107649 0.163060 -0.074465 0.983795 0.500977 0.999500 0 194 0
0.071298 -0.122311 0.091913 -0.384198 -0.532365 0.754265 0.999023 0.997690 255 194 0
0.104274 -0.106565 0.087639 0.798578 0.032411 0.600971 0.002680 0.998780 255 194 0
0.054725 -0.072064 0.091985 -0.156529 -0.221595 0.962462 0.498779 0.002441 0 163 255
0.034697 -0.083230 0.069174 -0.615436 -0.623218 0.482437 0.998047 0.499512 255 163 255
0.055719 -0.081106 0.077103 -0.106571 -0.852870 0.511063 0.997070 0.000977 255 163 255
0.046497 -0.043029 0.080350 -0.277474 0.528123 0.802515 0.001590 0.500244 255 163 255
0.062222 -0.058952 0.083262 0.267861 0.422803 0.865688 0.000500 0.001953 255 163 255
0.034565 -0.064493 0.086038 -0.543321 -0.072970 0.836329 0.500000 0.500977 0 163 0
0.020369 -0.056039 0.070616 -0.829005 0.089908 0.551927 0.500977 0.999500 0 163 0
0.026227 -0.068459 0.058718 -0.882199 -0.467727 0.053865 0.999023 0.997690 255 163 0
0.033296 -0.044379 0.065412 -0.523057 0.755730 0.393994 0.002680 0.998780 255 163 0
0.052823 -0.077494 0.090537 -0.020051 -0.518632 0.854732 0.498779 0.002441 0 126 255
0.065920 -0.075483 0.074937 0.598468 -0.685812 0.414045 0.997070 0.000977 255 126 255
0.083123 -0.056468 0.081565 0.677602 -0.214179 0.703513 0.998047 0.499512 255 126 255
0.033987 -0.044675 0.087567 -0.521561 0.073611 0.850002 0.001590 0.500244 255 126 255
0.038843 -0.068984 0.078244 -0.730186 -0.366894 0.576342 0.000500 0.001953 255 126 255
0.059596 -0.053727 0.099288 0.091433 -0.121982 0.988281 0.500000 0.500977 0 126 0
0.065214 -0.028155 0.095036 0.186102 0.299081 0.935881 0.500977 0.999500 0 126 0
0.077630 -0.033858 0.078665 0.810541 0.263985 0.522752 0.999023 0.997690 255 126 0
0.048197 -0.026794 0.082260 -0.463698 0.569842 0.678396 0.002680 0.998780 255 126 47
0.052648 -0.075675 0.095177 0.021210 -0.204535 0.978607 0.498779 0.002441 0 250 255
0.051635 -0.030375 0.079990 -0.108921 0.546068 0.830592 0.998047 0.499512 255 250 255
0.038233 -0.060907 0.079740 -0.578539 0.247597 0.777123 0.997070 0.000977 255 250 255
0.092572 -0.078432 0.069057 0.684561 -0.385449 0.618671 0.001590 0.500244 255 250 255
0.060792 -0.087390 0.073716 0.300638 -0.784509 0.542314 0.000500 0.001953 255 250 255
0.077434 -0.054011 0.092758 0.344371 0.080538 0.935362 0.500000 0.500977 0 250 0
0.096684 -0.033514 0.074740 0.603748 0.351512 0.715476 0.500977 0.999500 0 250 0
0.074683 -0.023934 0.062702 0.116459 0.869839 0.479354 0.999023 0.997690 255 250 20
0.099204 -0.052720 0.056153 0.959685 -0.119999 0.254128 0.002680 0.998780 255 250 0
0.051803 -0.064074 0.098860 0.365459 -0.007111 0.930784 0.498779 0.002441 0 47 255
0.029610 -0.077056 0.085045 -0.290414 -0.418958 0.860286 0.997070 0.000977 255 47 255
0.042088 -0.110580 0.072931 0.152379 -0.711936 0.685476 0.998047 0.499512 255 47 255
0.084279 -0.053791 0.056800 0.874508 0.259987 0.409375 0.001590 0.500244 255 47 255
0.052860 -0.045762 0.076155 0.509659 0.657918 0.554369 0.000500 0.001953 255 47 255
0.075884 -0.086869 0.081596 0.638539 -0.269662 0.720756 0.500000 0.500977 0 47 0
0.088115 -0.104761 0.050597 0.792138 -0.482284 0.374004 0.500977 0.999500 0 47 0
0.059492 -0.113002 0.044485 0.226386 -0.949004 0.219275 0.999023 0.997690 255 47 0
0.084765 -0.078985 0.034822 0.993713 0.083773 -0.074068 0.002680 0.998780 255 47 0
0.074471 -0.062670 0.097821 -0.274667 -0.056887 0.959838 0.498779 0.002441 0 17 255
0.121703 -0.051162 0.085632 0.437849 0.236427 0.867367 0.998047 0.499512 255 17 255
0.087494 -0.044630 0.082476 0.047945 0.626850 0.777642 0.997070 0.000977 255 17 255
0.083223 -0.104391 0.071465 -0.273354 -0.747368 0.605518 0.001590 0.500244 255 17 255
0.066289 -0.073962 0.074670 -0.740074 -0.463210 0.487503 0.000500 0.001953 255 17 255
0.102529 -0.082946 0.097794 0.077670 -0.308481 0.948027 0.500000 0.500977 0 17 0
0.129455 -0.097997 0.081208 0.416669 -0.502792 0.757347 0.500977 0.999500 0 17 0
0.135130 -0.073386 0.068768 0.831416 0.085757 0.548936 0.999023 0.997690 255 17 0
0.112080 -0.105270 0.060282 0.075655 -0.959685 0.270669 0.002680 0.998780 255 17 0
0.073406 -0.075057 0.093516 -0.482650 -0.131199 0.865902 0.498779 0.002441 0 84 255
0.096833 -0.088308 0.079500 0.061800 -0.671590 0.738304 0.997070 0.000977 255 84 255
0.129519 -0.070922 0.092579 0.287088 -0.200049 0.936766 0.998047 0.499512 255 84 255
0.074979 -0.024314 0.069241 -0.610706 0.567186 0.552568 0.001590 0.500244 255 84 255
0.066778 -0.062624 0.066639 -0.932951 0.178472 0.312632 0.000500 0.001953 255 84 255
0.095837 -0.044502 0.102118 -0.228339 0.208930 0.950865 0.500000 0.500977 0 84 0
0.122926 -0.017799 0.092141 0.069948 0.510880 0.856777 0.500977 0.999500 0 84 0
0.140190 -0.040769 0.078963 0.677206 0.090060 0.730216 0.999023 0.997690 255 84 0
0.107521 -0.012850 0.064984 -0.276803 0.905362 0.321970 0.002680 0.998780 255 84 0
-0.031548 -0.005915 0.137163 0.117008 0.127201 0.984924 0.498779 0.002441 0 193 255
-0.065160 -0.019647 0.110002 -0.609119 -0.071291 0.789850 0.997070 0.000977 255 193 255
-0.062207 -0.078166 0.106996 -0.275033 -0.519089 0.809229 0.998047 0.499512 255 193 255
0.034661 -0.023580 0.088434 0.792138 0.082278 0.604755 0.001590 0.500244 255 193 255
-0.011780 0.010434 0.099773 0.573290 0.594989 0.563280 0.000500 0.001953 255 193 255
-0.004451 -0.056678 0.129294 0.316568 -0.250740 0.914792 0.500000 0.500977 0 193 0
0.013587 -0.100501 0.094553 0.457137 -0.582751 0.671834 0.500977 0.999500 0 193 0
-0.029103 -0.101335 0.074353 -0.188269 -0.880856 0.434278 0.999023 0.997690 255 193 0
0.028920 -0.068638 0.063235 0.945738 -0.241829 0.216956 0.002680 0.998780 255 193 0
-0.034459 -0.021774 0.144786 -0.003021 -0.048677 0.998779 0.498779 0.002441 0 179 255
-0.015708 0.035796 0.113065 0.111698 0.671285 0.732719 0.998047 0.499512 255 179 255
-0.048040 0.001325 0.119474 -0.431349 0.539079 0.723380 0.997070 0.000977 255 179 255
0.016535 -0.049885 0.108986 0.548662 -0.489883 0.677450 0.001590 0.500244 255 179 255
-0.030272 -0.045891 0.117226 0.052767 -0.747490 0.662160 0.000500 0.001953 255 179 255
0.008956 -0.005054 0.136749 0.393048 0.104404 0.913541 0.500000 0.500977 0 179 0
0.043356 0.009313 0.106886 0.716422 0.238380 0.655629 0.500977 0.999500 0 179 0
0.017328 0.029796 0.087460 0.414350 0.845607 0.336436 0.999023 0.997690 255 179 0
0.036641 -0.021527 0.085017 0.878689 -0.388256 0.277718 0.002680 0.998780 255 179 8
-0.016686 -0.017302 0.136040 -0.286081 0.032136 0.957640 0.498779 0.002441 0 253 255
-0.008068 0.007962 0.109819 -0.116153 0.734031 0.669088 0.997070 0.000977 255 253 255
-0.049462 0.020982 0.088348 -0.631123 0.573809 0.521897 0.998047 0.499512 255 253 255
-0.035167 -0.070643 0.095694 -0.440260 -0.649403 0.619983 0.001590 0.500244 255 253 255
-0.000190 -0.042529 0.113868 0.095248 -0.621296 0.777734 0.000500 0.001953 255 253 255
-0.058583 -0.025583 0.114291 -0.659169 -0.042634 0.750755 0.500000 0.500977 0 253 0
-0.084876 -0.032899 0.074211 -0.909268 -0.109653 0.401471 0.500977 0.999500 0 253 0
-0.066400 -0.003095 0.057190 -0.839564 0.541917 0.037599 0.999023 0.997690 255 253 0
-0.057837 -0.057978 0.061590 -0.636769 -0.757866 0.141820 0.002680 0.998780 255 253 0
-0.029048 -0.038078 0.149429 -0.130009 -0.189581 0.973205 0.498779 0.002441 0 19 255
-0.064426 0.026830 0.115002 -0.592273 0.376568 0.712272 0.998047 0.499512 255 19 255
-0.055362 -0.029342 0.115295 -0.800989 -0.126164 0.585192 0.997070 0.000977 255 19 255
0.040156 -0.004014 0.122965 0.595721 0.026185 0.802728 0.001590 0.500244 255 19 255
0.002269 -0.046339 0.119684 0.515305 -0.514389 0.685415 0.000500 0.001953 255 19 255
-0.013236 0.015957 0.151068 -0.007538 0.225867 0.974120 0.500000 0.500977 0 19 0
0.002918 0.064008 0.125036 0.116764 0.600208 0.791253 0.500977 0.999500 0 19 0
-0.030714 0.058144 0.094490 -0.488998 0.780938 0.388501 0.999023 0.997690 255 19 0
0.031930 0.039668 0.099260 0.773370 0.408612 0.484634 0.002680 0.998780 255 19 0
-0.027271 -0.026735 0.146208 0.038881 0.036317 0.998566 0.498779 0.002441 0 2 255
-0.010357 -0.040235 0.123649 0.573748 -0.437819 0.692160 0.997070 0.000977 255 2 255
0.019869 -0.014923 0.114605 0.738334 0.095828 0.667562 0.998047 0.499512 255 2 255
-0.051064 0.016794 0.116213 -0.395154 0.602649 0.693258 0.001590 0.500244 255 2 255
-0.049446 -0.022757 0.124535 -0.682150 0.123722 0.720634 0.000500 0.001953 255 2 255
-0.011577 0.008849 0.136681 0.207251 0.418653 0.884152 0.500000 0.500977 0 2 0
0.000057 0.036260 0.109215 0.337107 0.723380 0.602527 0.500977 0.999500 0 2 0
0.014575 0.012552 0.092253 0.894986 0.372295 0.245643 0.999023 0.997690 255 2 0
-0.027915 0.031550 0.093217 -0.309458 0.910886 0.272927 0.002680 0.998780 255 2 0
-0.014589 -0.026335 0.143824 0.029115 -0.388775 0.920865 0.498779 0.002441 0 180 255
-0.067282 -0.027897 0.110651 -0.628925 -0.554918 0.544481 0.998047 0.499512 255 180 255
-0.024857 -0.036848 0.113622 -0.216224 -0.896908 0.385693 0.997070 0.000977 255 180 255
-0.018819 0.035285 0.135793 0.091830 0.384747 0.918424 0.001590 0.500244 255 180 255
0.001849 -0.002030 0.127476 0.582354 0.144230 0.800012 0.000500 0.001953 255 180 255
-0.049201 -0.000953 0.146757 -0.317698 -0.130009 0.939207 0.500000 0.500977 0 180 0
-0.077194 0.027455 0.129325 -0.605884 0.154180 0.780450 0.500977 0.999500 0 180 0
-0.079229 0.007322 0.100781 -0.937254 -0.249825 0.243049 0.999023 0.997690 255 180 0
-0.050200 0.045168 0.115841 -0.171361 0.748680 0.640370 0.002680 0.998780 255 180 0
-0.038194 -0.016018 0.158463 -0.274392 0.056185 0.959960 0.498779 0.002441 0 11 255
0.044504 0.008698 0.133330 0.410016 0.395123 0.822016 0.998047 0.499512 255 11 255
-0.017617 0.014030 0.126465 -0.012268 0.732841 0.680258 0.997070 0.000977 255 11 255
-0.015664 -0.095136 0.122210 -0.209967 -0.674825 0.707450 0.001590 0.500244 255 11 255
-0.050774 -0.043189 0.120337 -0.699240 -0.452651 0.553301 0.000500 0.001953 255 11 255
0.015147 -0.047441 0.163257 0.098849 -0.162420 0.981750 0.500000 0.500977 0 11 0
0.065819 -0.074027 0.137331 0.454817 -0.351207 0.818384 0.500977 0.999500 0 11 0
0.072196 -0.032780 0.108898 0.817286 0.235969 0.525681 0.999023 0.997690 255 11 0
0.036155 -0.094976 0.102237 0.158452 -0.900967 0.403912 0.002680 0.998780 255 11 0
-0.022759 -0.031488 0.154253 -0.237220 -0.661611 0.711295 0.498779 0.002441 0 87 255
-0.053390 0.012385 0.146425 -0.791528 -0.130558 0.597003 0.998047 0.499512 255 87 255
-0.036897 -0.018480 0.132313 -0.818720 -0.533982 0.210974 0.997070 0.000977 255 87 255
0.016869 0.004391 0.162421 0.412000 -0.267525 0.870998 0.001590 0.500244 255 87 255
0.001821 -0.022885 0.141128 0.514756 -0.685720 0.514573 0.000500 0.001953 255 87 255
-0.023552 0.000407 0.173676 -0.243507 -0.285928 0.926756 0.500000 0.500977 0 87 0
-0.019761 0.037948 0.175788 -0.203894 0.145024 0.968169 0.500977 0.999500 0 87 0
-0.036052 0.040677 0.150292 -0.755821 0.391461 0.524827 0.999023 0.997690 255 87 0
0.006034 0.035889 0.159873 0.523057 0.245949 0.816004 0.002680 0.998780 255 87 0
-0.030814 -0.004517 0.179282 0.073153 0.034272 0.996704 0.498779 0.002441 0 47 255
-0.035840 -0.043548 0.142182 -0.049837 -0.684713 0.727103 0.997070 0.000977 255 47 255
0.028722 -0.065272 0.126151 0.488784 -0.541642 0.683859 0.998047 0.499512 255 47 255
0.009855 0.067817 0.122958 0.314524 0.687613 0.654347 0.001590 0.500244 255 47 255
-0.046237 0.029792 0.140423 -0.242927 0.677297 0.694418 0.000500 0.001953 255 47 255
0.035377 0.004425 0.160907 0.483810 0.089450 0.870571 0.500000 0.500977 0 47 0
0.085187 0.010312 0.111954 0.804682 0.127964 0.579699 0.500977 0.999500 0 47 0
0.063221 -0.034128 0.085181 0.796991 -0.547502 0.254921 0.999023 0.997690 255 47 0
0.051920 0.045592 0.083268 0.611805 0.758721 0.223548 0.002680 0.998780 255 47 0
-0.007813 0.000172 0.176711 0.571764 -0.433027 0.696768 0.498779 0.002441 0 58 255
-0.036514 0.001979 0.180362 -0.187048 -0.532395 0.825526 0.998047 0.499512 255 58 255
-0.020814 -0.003686 0.168935 0.000092 -0.895871 0.444288 0.997070 0.000977 255 58 255
-0.009205 0.029063 0.174784 0.685568 0.333048 0.647298 0.001590 0.500244 255 58 255
-0.005765 0.011239 0.165862 0.966979 0.063051 0.246803 0.000500 0.001953 255 58 255
-0.018313 0.013057 0.187874 0.339091 -0.150670 0.928587 0.500000 0.500977 0 58 0
-0.032323 0.027569 0.189746 0.041597 0.161107 0.986053 0.500977 0.999500 0 58 0
-0.042277 0.018933 0.180178 -0.588610 -0.191595 0.785363 0.999023 0.997690 255 58 0
-0.025919 0.035157 0.176838 0.338664 0.728050 0.595965 0.002680 0.998780 255 58 0
-0.005991 0.003260 0.189186 0.506607 0.123386 0.853267 0.498779 0.002441 69 107 255
-0.014087 0.012118 0.180089 0.223579 0.790277 0.570482 0.997070 0.000977 255 107 255
-0.032315 0.012308 0.186969 -0.169469 0.504379 0.846644 0.998047 0.499512 255 107 255
-0.016994 -0.021590 0.182775 0.338755 -0.620167 0.707511 0.001590 0.500244 255 107 255
-0.005644 -0.006563 0.177778 0.786706 -0.455733 0.416333 0.000500 0.001953 255 107 255
-0.022217 -0.004879 0.195701 0.138218 -0.059816 0.988586 0.500000 0.500977 0 107 0
-0.039919 -0.012502 0.192649 -0.257576 -0.232429 0.937864 0.500977 0.999500 0 107 0
-0.043271 -0.000462 0.183169 -0.646107 0.352947 0.676687 0.999023 0.997690 255 107 0
-0.034094 -0.020768 0.180656 -0.106021 -0.842036 0.528855 0.002680 0.998780 255 107 0
-0.009568 0.005116 0.203451 0.145573 -0.104007 0.983856 0.498779 0.002441 0 155 255
-0.020572 0.037001 0.189750 -0.195196 0.568377 0.799249 0.998047 0.499512 255 155 255
-0.024013 0.011936 0.192036 -0.567736 0.151708 0.809076 0.997070 0.000977 255 155 255
0.018773 0.009469 0.181017 0.805902 -0.132145 0.577074 0.001590 0.500244 255 155 255
-0.002331 -0.003236 0.187224 0.541459 -0.624439 0.562883 0.000500 0.001953 255 155 255
0.003897 0.025836 0.198792 0.374432 0.252083 0.892300 0.500000 0.500977 0 155 0
0.012719 0.043524 0.182773 0.533525 0.561968 0.632069 0.500977 0.999500 0 155 0
-0.006004 0.045236 0.174723 -0.092410 0.908200 0.408155 0.999023 0.997690 255 155 0
0.017564 0.028745 0.169493 0.971343 0.163793 0.172033 0.002680 0.998780 255 155 0
-0.009703 0.003894 0.191693 0.338481 0.854457 0.394086 0.498779 0.002441 145 148 255
-0.011722 0.003106 0.191018 -0.414869 0.886715 0.203894 0.997070 0.000977 255 148 255
-0.013035 0.001949 0.193376 -0.340983 0.631947 0.695944 0.998047 0.499512 255 148 255
-0.007726 0.000262 0.192474 0.827387 0.260628 0.497482 0.001590 0.500244 255 148 255
-0.008796 0.002176 0.190521 0.879665 0.475295 -0.015992 0.000500 0.001953 255 148 255
-0.009837 0.002210 0.194059 0.314646 0.594653 0.739830 0.500000 0.500977 69 148 96
-0.010433 -0.000361 0.195358 0.231361 0.221717 0.947233 0.500977 0.999500 137 148 26
-0.012467 -0.000465 0.194157 -0.508408 0.154302 0.847163 0.999023 0.997690 255 148 119
-0.009287 -0.001476 0.193616 0.733116 -0.240211 0.636250 0.002680 0.998780 255 148 119
-0.006209 0.000599 0.190964 0.438032 -0.379315 0.814966 0.498779 0.002441 152 117 255
-0.026815 -0.006282 0.184841 -0.212683 -0.754845 0.620441 0.998047 0.499512 255 117 255
-0.011692 -0.003967 0.181103 0.217841 -0.926176 0.307749 0.997070 0.000977 255 117 255
-0.015736 0.021051 0.191608 0.242012 0.366955 0.898190 0.001590 0.500244 255 117 255
-0.005587 0.011095 0.184833 0.721641 0.316752 0.615497 0.000500 0.001953 255 117 255
-0.020073 0.004791 0.196732 0.049776 -0.258980 0.964568 0.500000 0.500977 0 117 0
-0.034441 0.011054 0.194958 -0.349254 -0.089358 0.932737 0.500977 0.999500 0 117 0
-0.035939 0.004251 0.184363 -0.680807 -0.568773 0.461470 0.999023 0.997690 255 117 3
-0.029302 0.020624 0.188417 -0.197607 0.623249 0.756615 0.002680 0.998780 255 117 0
0.058309 0.050398 0.123875 0.476852 -0.335246 0.812525 0.498779 0.002441 156 4 255
-0.001541 0.048353 0.120862 -0.280221 -0.505905 0.815760 0.998047 0.499512 255 4 255
0.035556 0.038865 0.104004 0.004547 -0.867092 0.498062 0.997070 0.000977 255 4 255
0.050639 0.109256 0.115368 0.525895 0.434950 0.730888 0.001590 0.500244 255 4 255
0.064311 0.072426 0.100977 0.897763 0.175359 0.404035 0.000500 0.001953 255 4 255
0.030457 0.075808 0.141018 0.181494 -0.066988 0.981079 0.500000 0.500977 0 4 0
-0.001412 0.102823 0.137797 -0.149113 0.214850 0.965178 0.500977 0.999500 0 4 0
-0.016413 0.081934 0.116042 -0.698202 -0.211005 0.684072 0.999023 0.997690 255 4 0
0.014843 0.118415 0.112751 0.158391 0.788781 0.593890 0.002680 0.998780 255 4 0
0.064101 0.064494 0.127619 -0.065981 0.381329 0.922056 0.498779 0.002441 0 161 255
0.096871 0.023400 0.117637 0.512772 -0.130436 0.848537 0.998047 0.499512 255 161 255
0.085558 0.058020 0.109452 0.662740 0.370434 0.650777 0.997070 0.000977 255 161 255
0.026126 0.031636 0.109168 -0.712149 0.012116 0.701895 0.001590 0.500244 255 161 255
0.046573 0.062558 0.104785 -0.694479 0.528428 0.488296 0.000500 0.001953 255 161 255
0.059090 0.028538 0.134514 -0.123600 -0.042299 0.991424 0.500000 0.500977 0 161 0
0.056343 -0.006919 0.122979 -0.158116 -0.459487 0.873959 0.500977 0.999500 0 161 0
0.080655 -0.002846 0.105785 0.527055 -0.598224 0.603565 0.999023 0.997690 255 161 0
0.038278 0.002087 0.100712 -0.774560 -0.446699 0.447737 0.002680 0.998780 255 161 0
0.063415 0.056166 0.130452 -0.157933 0.169103 0.972839 0.498779 0.002441 0 233 255
0.040633 0.020905 0.108202 -0.482070 -0.491195 0.725455 0.998047 0.499512 255 233 255
0.069206 0.035743 0.116105 0.063448 -0.561541 0.824976 0.997070 0.000977 255 233 255
0.042825 0.083683 0.097645 -0.439344 0.732780 0.519608 0.001590 0.500244 255 233 255
0.070415 0.070338 0.110287 0.110813 0.794580 0.596912 0.000500 0.001953 255 233 255
0.032604 0.055347 0.119182 -0.560411 0.156346 0.813288 0.500000 0.500977 0 233 0
0.010826 0.051932 0.094353 -0.858608 0.114017 0.499741 0.500977 0.999500 0 233 0
0.024443 0.030652 0.085744 -0.751640 -0.595599 0.283334 0.999023 0.997690 255 233 0
0.025757 0.068256 0.079419 -0.706198 0.705008 0.064577 0.002680 0.998780 255 233 0
0.073019 0.060591 0.131118 -0.138340 0.366039 0.920225 0.498779 0.002441 0 93 255
0.057885 0.047421 0.113147 -0.789239 0.075289 0.609394 0.997070 0.000977 255 93 255
0.060349 0.013453 0.120535 -0.467055 -0.329875 0.820368 0.998047 0.499512 255 93 255
0.118506 0.046354 0.116193 0.611591 0.280343 0.739830 0.001590 0.500244 255 93 255
0.089934 0.065552 0.110754 0.405866 0.751427 0.520157 0.000500 0.001953 255 93 255
0.090045 0.031425 0.138155 0.075838 -0.002441 0.997101 0.500000 0.500977 0 93 0
0.105888 0.002067 0.127893 0.276528 -0.371838 0.886135 0.500977 0.999500 0 93 0
0.084419 -0.003085 0.110578 -0.284555 -0.763329 0.579913 0.999023 0.997690 255 93 0
0.119255 0.016623 0.107977 0.861629 -0.114902 0.494339 0.002680 0.998780 255 93 0
0.061337 0.052961 0.128685 -0.607929 -0.086550 0.789209 0.498779 0.002441 0 193 255
0.093753 0.093567 0.124744 -0.248543 0.600665 0.759880 0.998047 0.499512 255 193 255
0.067439 0.073167 0.110136 -0.690085 0.591388 0.417158 0.997070 0.000977 255 193 255
0.104972 0.024624 0.125825 -0.049074 -0.624958 0.779077 0.001590 0.500244 255 193 255
0.073622 0.035175 0.110732 -0.469069 -0.766594 0.438459 0.000500 0.001953 255 193 255
0.092970 0.058364 0.144979 -0.222114 -0.020844 0.974761 0.500000 0.500977 0 193 0
0.128893 0.064190 0.143702 0.206977 0.048982 0.977111 0.500977 0.999500 0 193 0
0.124544 0.084357 0.122935 0.253304 0.719932 0.646138 0.999023 0.997690 255 193 0
0.131265 0.043060 0.123582 0.465224 -0.582415 0.666555 0.002680 0.998780 255 193 0
0.066050 0.046987 0.129731 0.003418 -0.456404 0.889737 0.498779 0.002441 0 36 255
0.079902 0.047483 0.111559 0.594775 -0.676046 0.434919 0.997070 0.000977 255 36 255
0.100117 0.068481 0.116554 0.702719 -0.188421 0.686056 0.998047 0.499512 255 36 255
0.046086 0.084038 0.124742 -0.478256 0.151585 0.865017 0.001590 0.500244 255 36 255
0.050128 0.056056 0.116072 -0.713706 -0.299295 0.633229 0.000500 0.001953 255 36 255
0.074923 0.073857 0.137228 0.133915 -0.055605 0.989410 0.500000 0.500977 0 36 0
0.081888 0.101765 0.130170 0.239631 0.357097 0.902768 0.500977 0.999500 0 36 0
0.094660 0.093641 0.111793 0.842433 0.270852 0.465712 0.999023 0.997690 255 36 0
0.062295 0.102959 0.116698 -0.412458 0.632160 0.655873 0.002680 0.998780 255 36 0
0.016507 0.079477 0.134484 -0.053011 -0.746147 0.663625 0.498779 0.002441 10 82 255
-0.025423 0.120786 0.132738 -0.700705 -0.319346 0.637928 0.998047 0.499512 255 82 255
-0.003180 0.092334 0.113141 -0.689261 -0.690298 0.219916 0.997070 0.000977 255 82 255
0.052634 0.125044 0.143762 0.527207 -0.252358 0.811365 0.001590 0.500244 255 82 255
0.039834 0.094680 0.119216 0.671255 -0.616108 0.412061 0.000500 0.001953 255 82 255
0.011327 0.111742 0.158700 -0.107242 -0.395581 0.912137 0.500000 0.500977 0 82 0
0.008306 0.152386 0.164391 -0.141423 0.030885 0.989441 0.500977 0.999500 0 82 0
-0.012027 0.154137 0.138356 -0.764794 0.204260 0.611011 0.999023 0.997690 255 82 0
0.034730 0.156688 0.144960 0.539994 0.275430 0.795282 0.002680 0.998780 255 82 0
3 0 1 2
3 3 4 0
3 2 5 0
3 0 5 3
3 6 5 2
3 3 5 6
3 2 7 6
3 6 8 3
3 9 10 11
3 12 13 9
3 11 14 9
3 9 14 12
3 15 14 11
3 12 14 15
3 11 16 15
3 15 17 12
3 18 19 20
3 21 22 18
3 20 23 18
3 18 23 21
3 24 23 20
3 21 23 24
3 20 25 24
3 24 26 21
3 27 28 29
3 30 31 27
3 29 32 27
3 27 32 30
3 33 32 29
3 30 32 33
3 29 34 33
3 33 35 30
3 36 37 38
3 39 36 40
3 37 36 41
3 36 39 41
3 42 37 41
3 39 42 41
3 37 42 43
3 42 39 44
3 45 46 47
3 48 49 45
3 47 50 45
3 45 50 48
3 51 50 47
3 48 50 51
3 47 52 51
3 51 53 48
3 54 55 56
3 57 54 58
3 55 54 59
3 54 57 59
3 60 55 59
3 57 60 59
3 55 60 61
3 60 57 62
3 63 64 65
3 66 67 63
3 65 68 63
3 63 68 66
3 69 68 65
3 66 68 69
3 65 70 69
3 69 71 66
3 72 73 74
3 75 72 76
3 73 72 77
3 72 75 77
3 78 73 77
3 75 78 77
3 73 78 79
3 78 75 80
3 81 82 83
3 84 85 81
3 83 86 81
3 81 86 84
3 87 86 83
3 84 86 87
3 83 88 87
3 87 89 84
3 90 91 92
3 93 90 94
3 91 90 95
3 90 93 95
3 96 91 95
3 93 96 95
3 91 96 97
3 96 93 98
3 99 100 101
3 102 103 99
3 101 104 99
3 99 104 102
3 105 104 101
3 102 104 105
3 101 106 105
3 105 107 102
3 108 109 110
3 111 112 108
3 110 113 108
3 108 113 111
3 114 113 110
3 111 113 114
3 110 115 114
3 114 116 111
3 117 118 119
3 120 117 121
3 118 117 122
3 117 120 122
3 123 118 122
3 120 123 122
3 118 123 124
3 123 120 125
3 126 127 128
3 129 130 126
3 128 131 126
3 126 131 129
3 132 131 128
3 129 131 132
3 128 133 132
3 132 134 129
3 135 136 137
3 138 135 139
3 136 135 140
3 135 138 140
3 141 136 140
3 138 141 140
3 136 141 142
3 141 138 143
3 144 145 146
3 147 148 144
3 146 149 144
3 144 149 147
3 150 149 146
3 147 149 150
3 146 151 150
3 150 152 147
3 153 154 155
3 156 153 157
3 154 153 158
3 153 156 158
3 159 154 158
3 156 159 158
3 154 159 160
3 159 156 161
3 162 163 164
3 165 166 162
3 164 167 162
3 162 167 165
3 168 167 164
3 165 167 168
3 164 169 168
3 168 170 165
3 171 172 173
3 174 171 175
3 172 171 176
3 171 174 176
3 177 172 176
3 174 177 176
3 172 177 178
3 177 174 179
3 180 181 182
3 183 184 180
3 182 185 180
3 180 185 183
3 186 185 182
3 183 185 186
3 182 187 186
3 186 188 183
3 189 190 191
3 192 193 189
3 191 194 189
3 189 194 192
3 195 194 191
3 192 194 195
3 191 196 195
3 195 197 192
3 198 199 200
3 201 198 202
3 199 198 203
3 198 201 203
3 204 199 203
3 201 204 203
3 199 204 205
3 204 201 206
3 207 208 209
3 210 211 207
3 209 212 207
3 207 212 210
3 213 212 209
3 210 212 213
3 209 214 213
3 213 215 210
3 216 217 218
3 219 216 220
3 217 216 221
3 216 219 221
3 222 217 221
3 219 222 221
3 217 222 223
3 222 219 224
3 225 226 227
3 228 229 225
3 227 230 225
3 225 230 228
3 231 230 227
3 228 230 231
3 227 232 231
3 231 233 228
3 234 235 236
3 237 234 238
3 235 234 239
3 234 237 239
3 240 235 239
3 237 240 239
3 235 240 241
3 240 237 242
3 243 244 245
3 246 243 247
3 244 243 248
3 243 246 248
3 249 244 248
3 246 249 248
3 244 249 250
3 249 246 251
3 252 253 254
3 255 252 256
3 253 252 257
3 252 255 257
3 258 253 257
3 255 258 257
3 253 258 259
3 258 255 260
3 261 262 263
3 264 265 261
3 263 266 261
3 261 266 264
3 267 266 263
3 264 266 267
3 263 268 267
3 267 269 264
3 270 271 272
3 273 270 274
3 271 270 275
3 270 273 275
3 276 271 275
3 273 276 275
3 271 276 277
3 276 273 278
3 279 280 281
3 282 283 279
3 281 284 279
3 279 284 282
3 285 284 281
3 282 284 285
3 281 286 285
3 285 287 282
3 288 289 290
3 291 288 292
3 289 288 293
3 288 291 293
3 294 289 293
3 291 294 293
3 289 294 295
3 294 291 296
3 297 298 299
3 300 301 297
3 299 302 297
3 297 302 300
3 303 302 299
3 300 302 303
3 299 304 303
3 303 305 300
3 306 307 308
3 309 306 310
3 307 306 311
3 306 309 311
3 312 307 311
3 309 312 311
3 307 312 313
3 312 309 314
3 315 316 317
3 318 315 319
3 316 315 320
3 315 318 320
3 321 316 320
3 318 321 320
3 316 321 322
3 321 318 323
3 324 325 326
3 327 324 328
3 325 324 329
3 324 327 329
3 330 325 329
3 327 330 329
3 325 330 331
3 330 327 332
3 333 334 335
3 336 333 337
3 334 333 338
3 333 336 338
3 339 334 338
3 336 339 338
3 334 339 340
3 339 336 341
3 342 343 344
3 345 346 342
3 344 347 342
3 342 347 345
3 348 347 344
3 345 347 348
3 344 349 348
3 348 350 345
3 351 352 353
3 354 351 355
3 352 351 356
3 351 354 356
3 357 352 356
3 354 357 356
3 352 357 358
3 357 354 359
3 360 361 362
3 363 364 360
3 362 365 360
3 360 365 363
3 366 365 362
3 363 365 366
3 362 367 366
3 366 368 363
3 369 370 371
3 372 369 373
3 370 369 374
3 369 372 374
3 375 370 374
3 372 375 374
3 370 375 376
3 375 372 377
