ply
format ascii 1.0
comment Created by Blender 2.78 (sub 0) - www.blender.org, source file: ''
element vertex 405
property float x
property float y
property float z
property float nx
property float ny
property float nz
property float s
property float t
property uchar red
property uchar green
property uchar blue
element face 360
property list uchar uint vertex_indices
end_header
-0.003232 -0.000042 0.105682 -0.215918 0.116794 0.969390 0.498779 0.002441 0 82 255
-0.014298 -0.031025 0.072443 -0.597919 -0.477279 0.643941 0.997070 0.000977 255 82 255
0.025748 -0.076246 0.076109 -0.075228 -0.622303 0.779107 0.998047 0.499512 255 82 255
0.071088 0.030783 0.073310 0.409040 0.520859 0.749229 0.001590 0.500244 255 82 255
0.010688 0.027955 0.070901 -0.061312 0.789361 0.610828 0.000500 0.001953 255 82 255
0.051872 -0.023298 0.109015 0.182836 -0.051759 0.981750 0.500000 0.500977 0 82 0
0.101892 -0.045175 0.082700 0.548570 -0.211219 0.808954 0.500977 0.999500 0 82 0
0.073941 -0.071938 0.053102 0.298410 -0.830958 0.469497 0.999023 0.997690 255 82 0
0.101099 -0.007828 0.051425 0.813013 0.383831 0.437727 0.002680 0.998780 255 82 0
0.009024 -0.003503 0.083154 -0.118412 0.329447 0.936705 0.498779 0.002441 43 110 255
0.004669 -0.004581 0.080034 -0.784143 0.096347 0.612995 0.998047 0.499512 255 110 255
0.007966 -0.005743 0.081557 -0.490555 -0.340037 0.802301 0.997070 0.000977 255 110 255
0.010338 -0.000026 0.079149 0.176794 0.868587 0.462874 0.001590 0.500244 255 110 255
0.011090 -0.003232 0.081069 0.574175 0.515549 0.635975 0.000500 0.001953 255 110 255
0.006803 -0.001107 0.081264 -0.370434 0.598987 0.709891 0.500000 0.500977 0 110 2
0.005270 0.000168 0.078008 -0.553484 0.756493 0.348338 0.500977 0.999500 34 110 0
0.004638 -0.002729 0.077212 -0.975738 0.177831 0.127537 0.999023 0.997690 255 110 16
0.008033 0.000000 0.076682 0.045381 0.998444 -0.031953 0.002680 0.998780 255 110 16
0.001781 -0.006474 0.136588 -0.321726 0.308420 0.895169 0.498779 0.002441 0 47 255
0.073519 0.015162 0.110039 0.334117 0.659261 0.673574 0.998047 0.499512 255 47 255
0.018718 0.012281 0.101960 -0.110599 0.895566 0.430952 0.997070 0.000977 255 47 255
0.029497 -0.080378 0.127136 -0.178869 -0.454054 0.872799 0.001590 0.500244 255 47 255
-0.005541 -0.040368 0.111382 -0.678976 -0.337992 0.651692 0.000500 0.001953 255 47 255
0.051066 -0.026843 0.149663 0.068697 0.144963 0.987030 0.500000 0.500977 0 47 0
0.098843 -0.051393 0.135497 0.447584 -0.046419 0.893002 0.500977 0.999500 0 47 0
0.102236 -0.023572 0.100730 0.767327 0.462020 0.444594 0.999023 0.997690 255 47 0
0.075867 -0.080801 0.110971 0.222236 -0.721000 0.656301 0.002680 0.998780 255 47 0
0.016319 0.008142 0.104402 -0.095950 0.517075 0.850520 0.498779 0.002441 0 89 255
0.060056 -0.054292 0.101977 0.453200 -0.029817 0.890896 0.998047 0.499512 255 89 255
0.047737 -0.006437 0.082223 0.645314 0.427473 0.633106 0.997070 0.000977 255 89 255
-0.038994 -0.039161 0.081603 -0.749840 0.153935 0.643422 0.001590 0.500244 255 89 255
-0.006846 0.001901 0.070995 -0.687643 0.631092 0.358928 0.000500 0.001953 255 89 255
0.005441 -0.040637 0.121059 -0.183721 0.112064 0.976562 0.500000 0.500977 0 89 0
-0.000640 -0.092787 0.111891 -0.237159 -0.315500 0.918790 0.500977 0.999500 0 89 0
0.035685 -0.092529 0.089174 0.452681 -0.528886 0.717826 0.999023 0.997690 255 89 0
-0.023646 -0.083465 0.076970 -0.825678 -0.333598 0.454878 0.002680 0.998780 255 89 0
0.018343 -0.011793 0.161954 -0.366863 0.901883 -0.227912 0.498779 0.002441 0 84 255
0.006172 -0.043978 0.162172 -0.867672 0.325571 -0.375622 0.997070 0.000977 255 84 255
-0.013338 -0.050396 0.201675 -0.870815 0.462600 0.166265 0.998047 0.499512 255 84 255
0.065618 -0.017585 0.204417 0.275430 0.938963 0.206091 0.001590 0.500244 255 84 255
0.049682 -0.025897 0.163683 0.402326 0.853328 -0.331523 0.000500 0.001953 255 84 255
0.016382 -0.010754 0.205971 -0.381634 0.901273 0.204932 0.500000 0.500977 0 84 0
0.022893 -0.029749 0.245785 -0.324473 0.730613 0.600726 0.500977 0.999500 0 84 0
0.008112 -0.059941 0.233339 -0.797174 0.149113 0.584979 0.999023 0.997690 255 84 0
0.055407 -0.040287 0.234982 0.420820 0.655263 0.627277 0.002680 0.998780 255 84 0
-0.008638 -0.004973 0.132813 -0.180273 -0.231178 0.956053 0.498779 0.002441 0 10 255
0.026048 0.015346 0.109502 0.530869 0.063265 0.845058 0.997070 0.000977 255 10 255
0.016257 0.074646 0.111213 0.146031 0.467849 0.871639 0.998047 0.499512 255 10 255
-0.073900 0.010181 0.078621 -0.823145 -0.225135 0.521256 0.001590 0.500244 255 10 255
-0.023635 -0.020179 0.091542 -0.542985 -0.704550 0.456862 0.000500 0.001953 255 10 255
-0.041585 0.044213 0.126663 -0.416547 0.127476 0.900113 0.500000 0.500977 0 10 0
-0.062287 0.089967 0.093431 -0.575060 0.463393 0.674154 0.500977 0.999500 0 10 0
-0.017414 0.097558 0.076933 0.047884 0.851527 0.522080 0.999023 0.997690 255 10 0
-0.071419 0.058943 0.057410 -0.981964 0.115116 0.149785 0.002680 0.998780 255 10 0
0.006970 -0.007158 0.111347 -0.016816 0.064760 0.997742 0.498779 0.002441 0 133 255
0.032062 0.003758 0.082621 0.649556 0.320780 0.689291 0.997070 0.000977 255 133 255
0.020961 0.052378 0.070454 0.249489 0.709983 0.658498 0.998047 0.499512 255 133 255
-0.055879 -0.009400 0.073170 -0.718009 -0.067843 0.692679 0.001590 0.500244 255 133 255
-0.010281 -0.030286 0.084117 -0.422407 -0.541063 0.727165 0.000500 0.001953 255 133 255
-0.024134 0.030973 0.098667 -0.280251 0.387188 0.878353 0.500000 0.500977 0 133 0
-0.048303 0.059482 0.063364 -0.491775 0.637715 0.592822 0.500977 0.999500 0 133 0
-0.013079 0.061888 0.041881 0.075625 0.969604 0.232612 0.999023 0.997690 255 133 0
-0.059106 0.024883 0.043507 -0.952452 0.143010 0.268929 0.002680 0.998780 255 133 0
-0.025671 -0.001498 0.148762 0.065828 -0.198401 0.977874 0.498779 0.002441 0 162 255
-0.071954 0.061079 0.122049 -0.477615 0.330790 0.813898 0.998047 0.499512 255 162 255
-0.058692 0.005254 0.119897 -0.667898 -0.186438 0.720481 0.997070 0.000977 255 162 255
0.035286 0.038073 0.110162 0.729606 0.071810 0.680074 0.001590 0.500244 255 162 255
0.000403 -0.007423 0.113346 0.669637 -0.473373 0.572222 0.000500 0.001953 255 162 255
-0.013809 0.054086 0.148195 0.154912 0.225135 0.961913 0.500000 0.500977 0 162 0
-0.006296 0.103660 0.120037 0.215094 0.607776 0.764397 0.500977 0.999500 0 162 0
-0.044786 0.095163 0.095887 -0.466231 0.741691 0.482131 0.999023 0.997690 255 162 0
0.019450 0.081382 0.088767 0.816553 0.466506 0.339946 0.002680 0.998780 255 162 0
-0.013437 0.021578 0.141627 0.033143 -0.197363 0.979736 0.498779 0.002441 0 166 255
-0.039918 0.045524 0.114701 -0.522996 0.312998 0.792749 0.997070 0.000977 255 166 255
-0.083926 0.011318 0.099173 -0.688223 -0.211768 0.693869 0.998047 0.499512 255 166 255
0.017505 -0.032508 0.086912 0.444838 -0.701376 0.556902 0.001590 0.500244 255 166 255
0.015977 0.021373 0.107945 0.732414 -0.229438 0.640980 0.000500 0.001953 255 166 255
-0.036741 -0.026746 0.121569 -0.142491 -0.558397 0.817225 0.500000 0.500977 0 166 0
-0.056114 -0.059320 0.077733 -0.291879 -0.815394 0.499924 0.500977 0.999500 0 166 0
-0.078620 -0.022212 0.060808 -0.874477 -0.418622 0.244942 0.999023 0.997690 255 166 0
-0.017863 -0.048463 0.053464 0.329539 -0.938871 0.099399 0.002680 0.998780 255 166 0
-0.024233 0.015708 0.148577 0.407392 -0.041169 0.912290 0.498779 0.002441 38 210 255
-0.021100 0.014789 0.144040 0.936186 -0.067904 0.344859 0.998047 0.499512 255 210 255
-0.023575 0.017094 0.145982 0.772210 0.457869 0.440443 0.997070 0.000977 255 210 255
-0.027274 0.011434 0.146645 -0.086947 -0.623859 0.776635 0.001590 0.500244 255 210 255
-0.026977 0.015246 0.147418 -0.361400 -0.158086 0.918882 0.000500 0.001953 255 210 255
-0.023038 0.012352 0.147088 0.535813 -0.415021 0.735252 0.500000 0.500977 0 210 0
-0.022877 0.009778 0.144154 0.563616 -0.711936 0.418867 0.500977 0.999500 30 210 0
-0.022271 0.012134 0.142168 0.935789 -0.334513 -0.111118 0.999023 0.997690 255 210 12
-0.025970 0.010124 0.143728 -0.151402 -0.925291 0.347667 0.002680 0.998780 255 210 12
-0.030026 0.020043 0.139027 0.680868 0.084841 0.727470 0.498779 0.002441 0 196 255
-0.054681 0.042582 0.123076 0.333018 0.759606 0.558641 0.997070 0.000977 255 196 255
-0.094648 0.040738 0.149409 0.014710 0.446211 0.894772 0.998047 0.499512 255 196 255
-0.059030 -0.040702 0.125571 0.495407 -0.652760 0.573077 0.001590 0.500244 255 196 255
-0.035053 -0.002296 0.109940 0.865596 -0.458083 0.202216 0.000500 0.001953 255 196 255
-0.065105 -0.002038 0.162048 0.354076 -0.116733 0.927885 0.500000 0.500977 0 196 0
-0.108938 -0.021504 0.163055 -0.040681 -0.297037 0.953978 0.500977 0.999500 0 196 0
-0.122538 0.009230 0.144146 -0.485488 0.292093 0.823969 0.999023 0.997690 255 196 0
-0.101202 -0.039553 0.129867 0.025239 -0.875698 0.482131 0.002680 0.998780 255 196 0
-0.018576 0.005916 0.161843 0.032685 0.039338 0.998688 0.498779 0.002441 0 6 255
-0.082798 0.012962 0.126372 -0.691733 0.007874 0.722068 0.998047 0.499512 255 6 255
-0.039865 -0.014047 0.134861 -0.459944 -0.500687 0.733299 0.997070 0.000977 255 6 255
0.001493 0.064303 0.121588 0.367656 0.653157 0.661946 0.001590 0.500244 255 6 255
0.006585 0.014245 0.132224 0.713858 0.214270 0.666677 0.000500 0.001953 255 6 255
-0.044922 0.048194 0.151352 -0.190558 0.396558 0.897977 0.500000 0.500977 0 6 0
-0.066585 0.080625 0.117709 -0.378704 0.680258 0.627522 0.500977 0.999500 0 6 0
-0.082688 0.048228 0.097573 -0.913480 0.259041 0.313700 0.999023 0.997690 255 6 0
-0.032198 0.078981 0.094707 0.212256 0.944731 0.249825 0.002680 0.998780 255 6 0
-0.031446 0.028677 0.140629 0.217780 0.465133 0.857997 0.498779 0.002441 0 189 255
-0.063241 0.034056 0.106857 -0.347392 0.818537 0.457442 0.997070 0.000977 255 189 255
-0.112609 0.003628 0.123811 -0.545640 0.382458 0.745628 0.998047 0.499512 255 189 255
-0.012781 -0.055255 0.130393 0.522294 -0.247444 0.816034 0.001590 0.500244 255 189 255
-0.008230 0.001607 0.110485 0.835871 0.120548 0.535478 0.000500 0.001953 255 189 255
-0.061025 -0.019210 0.160850 0.002167 0.114719 0.993378 0.500000 0.500977 0 189 0
-0.090908 -0.070945 0.151257 -0.214606 -0.258583 0.941832 0.500977 0.999500 0 189 0
-0.116148 -0.049149 0.115845 -0.822718 -0.030488 0.567583 0.999023 0.997690 255 189 0
-0.056351 -0.084420 0.119787 0.312113 -0.699881 0.642415 0.002680 0.998780 255 189 0
-0.015333 0.009766 0.164097 0.504593 -0.053499 0.861660 0.498779 0.002441 0 189 255
-0.086921 0.000483 0.163102 -0.235054 -0.277902 0.931394 0.998047 0.499512 255 189 255
-0.041459 -0.012474 0.145698 0.079348 -0.689077 0.720298 0.997070 0.000977 255 189 255
-0.030618 0.073904 0.134690 0.487350 0.664174 0.566820 0.001590 0.500244 255 189 255
-0.010432 0.027986 0.130042 0.879788 0.354717 0.316385 0.000500 0.001953 255 189 255
-0.051347 0.042065 0.176194 0.187506 0.226081 0.955870 0.500000 0.500977 0 189 0
-0.092368 0.068934 0.164339 -0.166082 0.464064 0.870083 0.500977 0.999500 0 189 0
-0.108232 0.036052 0.146678 -0.676901 -0.067110 0.732994 0.999023 0.997690 255 189 0
-0.074507 0.080031 0.129660 0.090762 0.933958 0.345592 0.002680 0.998780 255 189 0
-0.041988 0.006929 0.144285 0.364086 -0.262825 0.893490 0.498779 0.002441 0 26 255
-0.031140 0.025789 0.118253 0.871914 0.144230 0.467849 0.997070 0.000977 255 26 255
-0.042544 0.067331 0.126697 0.502487 0.480514 0.718711 0.998047 0.499512 255 26 255
-0.104122 0.010297 0.135012 -0.404187 -0.359233 0.841151 0.001590 0.500244 255 26 255
-0.065074 -0.005640 0.122835 -0.132664 -0.786218 0.603534 0.000500 0.001953 255 26 255
-0.069666 0.038462 0.155596 0.085391 0.052828 0.994934 0.500000 0.500977 0 26 0
-0.099438 0.069089 0.145184 -0.210364 0.359661 0.909024 0.500977 0.999500 0 26 0
-0.078461 0.079966 0.118903 0.188665 0.844997 0.500320 0.999023 0.997690 255 26 0
-0.115347 0.045803 0.123883 -0.774773 -0.047334 0.630421 0.002680 0.998780 255 26 0
-0.017944 0.012157 0.169035 0.362682 -0.545701 0.755394 0.498779 0.002441 0 206 255
-0.082805 0.009978 0.154043 -0.373516 -0.721061 0.583514 0.998047 0.499512 255 206 255
-0.038593 0.005794 0.140342 -0.020600 -0.972808 0.230567 0.997070 0.000977 255 206 255
-0.028873 0.077395 0.176851 0.376537 0.216529 0.900723 0.001590 0.500244 255 206 255
-0.008873 0.042945 0.152911 0.810450 0.066012 0.582049 0.000500 0.001953 255 206 255
-0.053171 0.033352 0.189685 0.028565 -0.340770 0.939695 0.500000 0.500977 0 206 0
-0.089344 0.062627 0.188687 -0.312143 -0.070772 0.947386 0.500977 0.999500 0 206 0
-0.100537 0.047022 0.156575 -0.782861 -0.406903 0.470626 0.999023 0.997690 255 206 0
-0.068232 0.087404 0.170236 0.014130 0.589404 0.807703 0.002680 0.998780 255 206 0
-0.022446 0.017078 0.168095 0.653340 -0.746727 0.124485 0.498779 0.002441 0 63 255
-0.084223 0.010082 0.186794 -0.078677 -0.959685 0.269784 0.998047 0.499512 255 63 255
-0.054434 0.020316 0.154236 0.024018 -0.959777 -0.279672 0.997070 0.000977 255 63 255
-0.022725 0.067573 0.208902 0.798761 -0.139378 0.585223 0.001590 0.500244 255 63 255
-0.020544 0.051997 0.166419 0.996246 -0.050874 0.069796 0.000500 0.001953 255 63 255
-0.039985 0.020008 0.209262 0.477065 -0.709677 0.518387 0.500000 0.500977 0 63 0
-0.068460 0.039020 0.239030 0.210150 -0.538560 0.815912 0.500977 0.999500 0 63 0
-0.094955 0.037516 0.214012 -0.462416 -0.709037 0.532334 0.999023 0.997690 255 63 0
-0.058118 0.071953 0.227254 0.469985 0.162603 0.867550 0.002680 0.998780 255 63 0
-0.032523 0.008232 0.185352 -0.192938 -0.576128 0.794244 0.498779 0.002441 0 40 255
-0.069802 0.066106 0.173868 -0.726890 -0.023316 0.686331 0.998047 0.499512 255 40 255
-0.052839 0.023466 0.157572 -0.818232 -0.458174 0.347148 0.997070 0.000977 255 40 255
0.021904 0.051919 0.185857 0.490280 -0.211615 0.845454 0.001590 0.500244 255 40 255
-0.002303 0.015647 0.164179 0.530381 -0.666829 0.523453 0.000500 0.001953 255 40 255
-0.028549 0.051523 0.206185 -0.155156 -0.182440 0.970885 0.500000 0.500977 0 40 0
-0.020769 0.099600 0.203569 -0.087924 0.247047 0.964995 0.500977 0.999500 0 40 0
-0.045067 0.101406 0.172852 -0.671133 0.486373 0.559435 0.999023 0.997690 255 40 0
0.009865 0.092908 0.180033 0.622272 0.286264 0.728538 0.002680 0.998780 255 40 0
-0.033946 0.013250 0.185477 -0.379894 -0.888638 0.256813 0.498779 0.002441 0 226 255
-0.060551 0.067130 0.206975 -0.832514 -0.294961 0.468917 0.998047 0.499512 255 226 255
-0.046493 0.042588 0.172579 -0.905362 -0.418561 -0.071322 0.997070 0.000977 255 226 255
0.018577 0.035388 0.214188 0.315989 -0.755669 0.573626 0.001590 0.500244 255 226 255
-0.002889 0.025096 0.176554 0.367168 -0.929044 0.044649 0.000500 0.001953 255 226 255
-0.029882 0.032361 0.224992 -0.335643 -0.691305 0.639851 0.500000 0.500977 0 226 0
-0.018319 0.067001 0.250593 -0.227912 -0.362835 0.903531 0.500977 0.999500 0 226 0
-0.035144 0.088951 0.227778 -0.707663 0.170263 0.685690 0.999023 0.997690 255 226 0
0.012253 0.069937 0.232099 0.512742 -0.319285 0.796930 0.002680 0.998780 255 226 0
-0.053157 0.010440 0.151094 0.022309 0.062288 0.997803 0.498779 0.002441 0 100 255
-0.031544 0.017551 0.125754 0.702017 0.246803 0.667989 0.997070 0.000977 255 100 255
-0.036887 0.060107 0.115644 0.345073 0.676687 0.650380 0.998047 0.499512 255 100 255
-0.108030 0.014421 0.120088 -0.698477 0.006531 0.715567 0.001590 0.500244 255 100 255
-0.070749 -0.007625 0.128203 -0.454207 -0.495651 0.740226 0.000500 0.001953 255 100 255
-0.076540 0.045880 0.141096 -0.208808 0.411481 0.887143 0.500000 0.500977 0 100 0
-0.095515 0.072548 0.111492 -0.401410 0.684286 0.608753 0.500977 0.999500 0 100 0
-0.065841 0.071443 0.092081 0.186346 0.955046 0.230476 0.999023 0.997690 255 100 0
-0.108456 0.044077 0.094743 -0.922544 0.242958 0.299722 0.002680 0.998780 255 100 0
-0.023107 0.013257 0.168597 0.802759 -0.492477 0.336161 0.498779 0.002441 0 219 255
-0.077976 0.011318 0.200967 0.156529 -0.665761 0.729514 0.998047 0.499512 255 219 255
-0.056059 0.005451 0.162719 0.180822 -0.951292 0.249550 0.997070 0.000977 255 219 255
-0.028001 0.076273 0.176792 0.882900 0.278298 0.378155 0.001590 0.500244 255 219 255
-0.028519 0.041245 0.149397 0.985626 0.094699 -0.139744 0.000500 0.001953 255 219 255
-0.034846 0.035692 0.204609 0.678304 -0.267098 0.684469 0.500000 0.500977 0 219 0
-0.061747 0.064240 0.225706 0.425428 0.009461 0.904904 0.500977 0.999500 0 219 0
-0.090023 0.047181 0.211871 -0.230567 -0.353130 0.906705 0.999023 0.997690 255 219 0
-0.060088 0.086090 0.197390 0.541246 0.650075 0.533311 0.002680 0.998780 255 219 0
0.005860 0.006060 0.123829 -0.328898 -0.150945 0.932218 0.498779 0.002441 22 187 255
0.007060 0.001351 0.120203 -0.095065 -0.804865 0.585742 0.998047 0.499512 255 187 255
0.008345 0.004951 0.122018 0.341014 -0.517350 0.784845 0.997070 0.000977 255 187 255
0.001997 0.007665 0.119439 -0.868618 0.159642 0.469008 0.001590 0.500244 255 187 255
0.005555 0.008430 0.121597 -0.516037 0.551317 0.655507 0.000500 0.001953 255 187 255
0.003203 0.003666 0.121650 -0.598193 -0.395398 0.696982 0.500000 0.500977 0 187 0
0.001789 0.002088 0.117981 -0.755608 -0.566118 0.329417 0.500977 0.999500 15 187 0
0.005003 0.001422 0.117073 -0.176519 -0.979766 0.094028 0.999023 0.997690 255 187 2
0.001971 0.005203 0.116616 -0.998505 0.045137 -0.029969 0.002680 0.998780 255 187 2
-0.015122 -0.005501 0.108390 -0.511673 -0.263405 0.817774 0.498779 0.002441 0 186 255
0.023590 0.075444 0.103144 -0.313089 0.486831 0.815424 0.998047 0.499512 255 186 255
-0.014910 0.032569 0.078393 -0.767327 0.399487 0.501572 0.997070 0.000977 255 186 255
0.068330 -0.036156 0.095191 0.148015 -0.663381 0.733451 0.001590 0.500244 255 186 255
0.009745 -0.028929 0.074011 -0.256417 -0.874935 0.410749 0.000500 0.001953 255 186 255
0.038138 0.014055 0.133587 -0.136052 -0.124577 0.982818 0.500000 0.500977 0 186 0
0.096088 0.037671 0.128201 0.266579 0.038209 0.963042 0.500977 0.999500 0 186 0
0.078475 0.071904 0.095533 0.140629 0.720420 0.679098 0.999023 0.997690 255 186 0
0.105275 0.005056 0.090769 0.630604 -0.501816 0.591998 0.002680 0.998780 255 186 0
0.014657 0.027235 0.171098 -0.927030 -0.371227 0.052278 0.498779 0.002441 0 143 255
0.046303 0.014109 0.170136 -0.383435 -0.923460 -0.013581 0.997070 0.000977 255 143 255
0.059278 0.008103 0.212115 -0.426862 -0.743980 0.514023 0.998047 0.499512 255 143 255
0.027442 0.085070 0.194145 -0.890896 0.377789 0.252083 0.001590 0.500244 255 143 255
0.028759 0.056523 0.160233 -0.897549 0.319468 -0.303781 0.000500 0.001953 255 143 255
0.021052 0.039601 0.212732 -0.853236 -0.245491 0.460128 0.500000 0.500977 0 143 0
0.046398 0.057505 0.244508 -0.618152 -0.072939 0.782617 0.500977 0.999500 0 143 0
0.073957 0.037957 0.232968 -0.047151 -0.556291 0.829615 0.999023 0.997690 255 143 0
0.054888 0.084061 0.222203 -0.540239 0.635731 0.551317 0.002680 0.998780 255 143 0
-0.004956 -0.004699 0.154055 0.174963 0.197150 0.964629 0.498779 0.002441 72 6 255
-0.003894 -0.006236 0.152252 0.630543 -0.367107 0.683828 0.997070 0.000977 255 6 255
-0.001371 -0.004520 0.150846 0.826044 0.138218 0.546342 0.998047 0.499512 255 6 255
-0.007000 -0.001383 0.151226 -0.256813 0.741844 0.619404 0.001590 0.500244 255 6 255
-0.006996 -0.004507 0.152461 -0.569262 0.301675 0.764763 0.000500 0.001953 255 6 255
-0.003573 -0.002044 0.152607 0.351909 0.538682 0.765465 0.500000 0.500977 2 6 19
-0.002770 -0.000271 0.149862 0.463088 0.779809 0.421186 0.500977 0.999500 62 6 0
-0.001900 -0.002546 0.148685 0.942991 0.326029 0.066713 0.999023 0.997690 255 6 41
-0.005272 -0.000667 0.148912 -0.207678 0.967467 0.144322 0.002680 0.998780 255 6 41
-0.002281 0.009092 0.158656 -0.157018 0.633808 0.757347 0.498779 0.002441 0 248 255
-0.020611 0.001153 0.122439 -0.642048 0.749626 0.160588 0.997070 0.000977 255 248 255
-0.059602 -0.034267 0.131881 -0.813685 0.325419 0.481674 0.998047 0.499512 255 248 255
0.032449 -0.058174 0.170973 0.298074 0.036653 0.953825 0.001590 0.500244 255 248 255
0.030115 -0.012022 0.143981 0.589770 0.429701 0.683737 0.000500 0.001953 255 248 255
-0.022392 -0.035658 0.178644 -0.318644 0.262429 0.910794 0.500000 0.500977 0 248 0
-0.034147 -0.087782 0.174445 -0.420728 -0.159795 0.892972 0.500977 0.999500 0 248 0
-0.049920 -0.080542 0.135009 -0.925260 -0.170690 0.338725 0.999023 0.997690 255 248 0
0.005219 -0.094863 0.158425 0.256111 -0.477523 0.840419 0.002680 0.998780 255 248 0
-0.011298 -0.000382 0.179878 0.410779 0.478103 0.776269 0.498779 0.002441 0 22 255
0.015404 -0.068656 0.157993 0.816706 -0.146367 0.558153 0.998047 0.499512 255 22 255
0.002746 -0.018326 0.145484 0.929350 0.290384 0.227943 0.997070 0.000977 255 22 255
-0.077609 -0.037642 0.188113 -0.309488 0.229133 0.922849 0.001590 0.500244 255 22 255
-0.048510 -0.001236 0.162082 -0.318461 0.706442 0.632038 0.000500 0.001953 255 22 255
-0.020317 -0.047965 0.201021 0.332377 0.084567 0.939329 0.500000 0.500977 0 22 0
-0.038271 -0.098186 0.197287 0.190954 -0.326304 0.925748 0.500977 0.999500 0 22 0
-0.017904 -0.102146 0.159648 0.653737 -0.629444 0.419965 0.999023 0.997690 255 22 0
-0.073619 -0.083569 0.177690 -0.542955 -0.230415 0.807489 0.002680 0.998780 255 22 0
-0.000568 -0.014492 0.140881 0.436079 -0.784997 0.439985 0.498779 0.002441 0 25 255
-0.053387 0.016607 0.170517 -0.222114 -0.570360 0.790765 0.998047 0.499512 255 25 255
-0.034978 -0.004919 0.132379 -0.328898 -0.881466 0.338755 0.997070 0.000977 255 25 255
0.028401 0.047053 0.143774 0.890683 -0.156102 0.426893 0.001590 0.500244 255 25 255
0.010092 0.011858 0.117642 0.904050 -0.422498 -0.064364 0.000500 0.001953 255 25 255
-0.000623 0.016625 0.176139 0.430372 -0.490616 0.757653 0.500000 0.500977 0 25 0
-0.010890 0.059634 0.193703 0.343425 -0.102603 0.933531 0.500977 0.999500 0 25 0
-0.045667 0.057276 0.177962 -0.405621 -0.089511 0.909635 0.999023 0.997690 255 25 0
0.003323 0.075513 0.161943 0.776849 0.350627 0.522965 0.002680 0.998780 255 25 0
-0.006666 0.008373 0.153932 -0.787866 0.499313 0.360424 0.498779 0.002441 0 217 255
-0.001163 -0.025749 0.132014 -0.990844 -0.106693 -0.082644 0.997070 0.000977 255 217 255
0.000346 -0.066200 0.166156 -0.858791 -0.269875 0.435438 0.998047 0.499512 255 217 255
0.060625 0.012586 0.188776 -0.123020 0.691763 0.711539 0.001590 0.500244 255 217 255
0.032055 0.017667 0.144479 -0.175604 0.958800 0.223243 0.000500 0.001953 255 217 255
0.009835 -0.016606 0.196963 -0.642872 0.288095 0.709677 0.500000 0.500977 0 217 0
0.043473 -0.049406 0.221569 -0.376080 0.021790 0.926298 0.500977 0.999500 0 217 0
0.039919 -0.076692 0.189003 -0.505997 -0.633137 0.585711 0.999023 0.997690 255 217 0
0.076027 -0.029499 0.202552 0.275826 0.388684 0.879086 0.002680 0.998780 255 217 0
0.001999 -0.000159 0.181738 0.434858 -0.291665 0.851924 0.498779 0.002441 0 53 255
0.004046 0.029742 0.159694 0.721091 0.378460 0.580309 0.997070 0.000977 255 53 255
-0.026936 0.062290 0.176963 0.240883 0.459792 0.854701 0.998047 0.499512 255 53 255
-0.061003 -0.022893 0.165190 -0.216498 -0.683950 0.696646 0.001590 0.500244 255 53 255
-0.014727 -0.017199 0.153206 0.214270 -0.888760 0.405164 0.000500 0.001953 255 53 255
-0.040383 0.014573 0.197787 0.046602 -0.155034 0.986785 0.500000 0.500977 0 53 0
-0.084228 0.033151 0.190236 -0.351817 0.011322 0.935972 0.500977 0.999500 0 53 0
-0.068384 0.060066 0.167287 -0.197607 0.700766 0.685446 0.999023 0.997690 255 53 0
-0.088790 0.009042 0.160235 -0.683645 -0.514573 0.517472 0.002680 0.998780 255 53 0
-0.004167 0.008175 0.195864 0.670003 -0.204016 0.713736 0.498779 0.002441 0 111 255
-0.016001 0.034143 0.183046 0.614002 0.556230 0.559954 0.997070 0.000977 255 111 255
-0.047314 0.045607 0.205994 0.203040 0.387432 0.899228 0.998047 0.499512 255 111 255
-0.047108 -0.029120 0.184438 0.206336 -0.805811 0.555010 0.001590 0.500244 255 111 255
-0.015887 -0.007036 0.171168 0.617664 -0.765862 0.178594 0.000500 0.001953 255 111 255
-0.038472 0.002349 0.215733 0.293283 -0.264199 0.918760 0.500000 0.500977 0 111 0
-0.078982 0.001818 0.217186 -0.140141 -0.274758 0.951231 0.500977 0.999500 0 111 0
-0.079539 0.030513 0.201749 -0.318430 0.444319 0.837336 0.999023 0.997690 255 111 0
-0.079416 -0.014248 0.188836 -0.314920 -0.823634 0.471572 0.002680 0.998780 255 111 0
-0.008833 0.015448 0.203049 0.661397 0.384442 0.643971 0.498779 0.002441 0 97 255
-0.034513 0.026849 0.186266 0.179052 0.919248 0.350505 0.997070 0.000977 255 97 255
-0.068340 0.023795 0.211557 -0.061861 0.636860 0.768456 0.998047 0.499512 255 97 255
-0.023062 -0.043509 0.205235 0.629261 -0.390454 0.671987 0.001590 0.500244 255 97 255
-0.009562 -0.010240 0.182783 0.944823 -0.218970 0.243599 0.000500 0.001953 255 97 255
-0.034797 -0.004479 0.229240 0.386731 0.175115 0.905393 0.500000 0.500977 0 97 0
-0.069149 -0.028270 0.236492 0.038087 -0.067995 0.996948 0.500977 0.999500 0 97 0
-0.086805 -0.008662 0.214903 -0.520768 0.375286 0.766747 0.999023 0.997690 255 97 0
-0.059684 -0.048977 0.211116 0.213599 -0.716330 0.664205 0.002680 0.998780 255 97 0
-0.011395 0.008408 0.192180 0.897122 -0.420331 -0.135868 0.498779 0.002441 0 202 255
-0.021424 0.035891 0.197187 0.931516 0.354595 -0.080508 0.997070 0.000977 255 202 255
-0.020327 0.041629 0.235145 0.897946 0.116825 0.424268 0.998047 0.499512 255 202 255
-0.052916 -0.020879 0.213336 0.349437 -0.935179 0.057222 0.001590 0.500244 255 202 255
-0.039383 0.001445 0.185169 0.323801 -0.811029 -0.487197 0.000500 0.001953 255 202 255
-0.018217 -0.000691 0.228455 0.809107 -0.518387 0.276711 0.500000 0.500977 0 202 0
-0.040615 0.000081 0.259715 0.568133 -0.518998 0.638600 0.500977 0.999500 0 202 0
-0.045406 0.030276 0.255102 0.548540 0.210608 0.809137 0.999023 0.997690 255 202 0
-0.064927 -0.007166 0.242039 -0.034303 -0.907254 0.419111 0.002680 0.998780 255 202 0
0.002741 -0.011130 0.085361 -0.232856 -0.253578 0.938841 0.498779 0.002441 0 106 255
0.019894 -0.027843 0.056569 0.082888 -0.839625 0.536760 0.997070 0.000977 255 106 255
0.067425 -0.019900 0.061654 0.475570 -0.491562 0.729514 0.998047 0.499512 255 106 255
0.013158 0.055441 0.068546 -0.248268 0.513382 0.821436 0.001590 0.500244 255 106 255
-0.010011 0.013674 0.060367 -0.719108 0.273843 0.638630 0.000500 0.001953 255 106 255
0.041526 0.016141 0.092637 0.118168 -0.005707 0.992950 0.500000 0.500977 0 106 0
0.077763 0.043769 0.075939 0.448164 0.244148 0.859951 0.500977 0.999500 0 106 0
0.084938 0.016987 0.048493 0.854640 -0.241829 0.459395 0.999023 0.997690 255 106 0
0.052432 0.062117 0.052621 0.085482 0.826014 0.557085 0.002680 0.998780 255 106 0
0.013631 0.006200 0.112538 0.184271 0.738273 0.648823 0.498779 0.002441 0 117 255
0.070263 -0.059640 0.103351 0.790429 0.263161 0.553087 0.998047 0.499512 255 117 255
0.037534 -0.014971 0.077922 0.760338 0.634938 0.136692 0.997070 0.000977 255 117 255
-0.043060 -0.057108 0.132656 -0.411634 0.290017 0.863948 0.001590 0.500244 255 117 255
-0.024914 -0.013576 0.094071 -0.571520 0.664693 0.481124 0.000500 0.001953 255 117 255
0.021631 -0.042187 0.147655 0.239204 0.383953 0.891812 0.500000 0.500977 0 117 0
0.022415 -0.102648 0.155911 0.249184 -0.044069 0.967437 0.500977 0.999500 0 117 0
0.047741 -0.107453 0.114171 0.810877 -0.263741 0.522355 0.999023 0.997690 255 117 0
-0.020140 -0.105936 0.131725 -0.466445 -0.235206 0.852687 0.002680 0.998780 255 117 0
0.006546 -0.006306 0.123201 0.466720 0.861843 0.198370 0.498779 0.002441 0 4 255
-0.037310 -0.018950 0.110210 -0.261879 0.963591 -0.053713 0.997070 0.000977 255 4 255
-0.070388 -0.025076 0.161577 -0.251930 0.834468 0.490066 0.998047 0.499512 255 4 255
0.033416 -0.081137 0.160914 0.840754 0.244301 0.483077 0.001590 0.500244 255 4 255
0.019893 -0.049843 0.109844 0.948820 0.309702 -0.061434 0.000500 0.001953 255 4 255
-0.004182 -0.026835 0.179397 0.385113 0.706076 0.594195 0.500000 0.500977 0 4 0
-0.026807 -0.069184 0.217820 0.230567 0.416547 0.879360 0.500977 0.999500 0 4 0
-0.068086 -0.070937 0.190676 -0.505356 0.444075 0.739830 0.999023 0.997690 255 4 0
-0.005907 -0.104518 0.190279 0.655751 -0.182989 0.732414 0.002680 0.998780 255 4 0
-0.021821 -0.004251 0.132602 0.457533 -0.539964 0.706442 0.498779 0.002441 0 105 255
-0.103053 0.028996 0.147000 -0.285134 -0.390851 0.875149 0.998047 0.499512 255 105 255
-0.064916 -0.004776 0.111549 -0.243446 -0.819483 0.518754 0.997070 0.000977 255 105 255
0.000750 0.080753 0.119327 0.795923 0.148167 0.586932 0.001590 0.500244 255 105 255
-0.007714 0.023745 0.096299 0.954344 -0.222236 0.199438 0.000500 0.001953 255 105 255
-0.038100 0.045550 0.164683 0.337962 -0.184362 0.922910 0.500000 0.500977 0 105 0
-0.064986 0.101467 0.168413 0.154180 0.207251 0.966033 0.500977 0.999500 0 105 0
-0.104032 0.083770 0.142745 -0.565416 0.053804 0.823023 0.999023 0.997690 255 105 0
-0.041854 0.114772 0.126169 0.583331 0.626606 0.516770 0.002680 0.998780 255 105 0
-0.023205 0.009142 0.135566 0.804498 0.029054 0.593188 0.498779 0.002441 0 181 255
-0.047829 0.037179 0.117708 0.576403 0.734428 0.358226 0.997070 0.000977 255 181 255
-0.085871 0.049716 0.153216 0.267556 0.554430 0.788018 0.998047 0.499512 255 181 255
-0.070927 -0.050875 0.137876 0.448012 -0.660237 0.602771 0.001590 0.500244 255 181 255
-0.039594 -0.018252 0.109255 0.776360 -0.611408 0.152989 0.000500 0.001953 255 181 255
-0.061263 -0.001877 0.170746 0.485549 -0.060854 0.872066 0.500000 0.500977 0 181 0
-0.112609 -0.011357 0.182894 0.073794 -0.139592 0.987426 0.500977 0.999500 0 181 0
-0.124086 0.022169 0.158372 -0.257912 0.511277 0.819758 0.999023 0.997690 255 181 0
-0.115135 -0.038084 0.149184 -0.066164 -0.779443 0.622913 0.002680 0.998780 255 181 0
0.008336 0.019581 0.150709 -0.932951 0.191931 0.304514 0.498779 0.002441 0 52 255
0.070533 0.068598 0.173576 -0.437452 0.765252 0.472213 0.998047 0.499512 255 52 255
0.040937 0.042894 0.131490 -0.603992 0.794671 -0.060579 0.997070 0.000977 255 52 255
0.052680 -0.039615 0.187091 -0.638081 -0.450880 0.624104 0.001590 0.500244 255 52 255
0.031099 -0.016738 0.138937 -0.826289 -0.552812 0.107669 0.000500 0.001953 255 52 255
0.036411 0.021132 0.200214 -0.709403 0.201392 0.675375 0.500000 0.500977 0 52 0
0.085091 0.016910 0.230715 -0.351238 0.172857 0.920164 0.500977 0.999500 0 52 0
0.106490 0.043241 0.199207 0.055116 0.747398 0.662038 0.999023 0.997690 255 52 0
0.095796 -0.021578 0.207302 -0.158055 -0.544877 0.823450 0.002680 0.998780 255 52 0
0.027880 0.004052 0.165324 0.132511 -0.611438 0.780084 0.498779 0.002441 0 33 255
0.051593 0.015774 0.130079 0.715018 -0.646474 0.266030 0.997070 0.000977 255 33 255
0.084969 0.059205 0.145918 0.769860 -0.204901 0.604389 0.998047 0.499512 255 33 255
-0.021024 0.069203 0.171760 -0.431684 -0.091586 0.897336 0.001590 0.500244 255 33 255
-0.006816 0.021283 0.144319 -0.616260 -0.520920 0.590625 0.000500 0.001953 255 33 255
0.038396 0.054166 0.189067 0.211158 -0.221717 0.951964 0.500000 0.500977 0 33 0
0.042982 0.110999 0.185889 0.250282 0.211219 0.944823 0.500977 0.999500 0 33 0
0.066986 0.106362 0.147035 0.826289 0.303873 0.474197 0.999023 0.997690 255 33 0
0.003496 0.112351 0.162514 -0.450453 0.424299 0.785485 0.002680 0.998780 255 33 0
0.022773 0.017971 0.149566 -0.010407 -0.558916 0.829127 0.498779 0.002441 0 242 255
0.053864 0.037446 0.124993 0.709159 -0.397107 0.582537 0.997070 0.000977 255 242 255
0.063787 0.088820 0.147935 0.492508 0.030732 0.869747 0.998047 0.499512 255 242 255
-0.041775 0.064479 0.130200 -0.701743 -0.244606 0.669088 0.001590 0.500244 255 242 255
-0.004307 0.024032 0.115220 -0.614063 -0.702231 0.360240 0.000500 0.001953 255 242 255
0.007662 0.068344 0.170369 -0.125340 -0.168615 0.977660 0.500000 0.500977 0 242 0
-0.003992 0.123934 0.163441 -0.217078 0.254860 0.942259 0.500977 0.999500 0 242 0
0.033643 0.128027 0.137314 0.441816 0.534806 0.720206 0.999023 0.997690 255 242 0
-0.029588 0.113446 0.126690 -0.827204 0.242195 0.507004 0.002680 0.998780 255 242 0
-0.002961 0.025935 0.130465 -0.504105 0.561724 0.655965 0.498779 0.002441 0 211 255
0.098667 0.014294 0.139427 0.265419 0.624653 0.734397 0.998047 0.499512 255 211 255
0.042257 0.032528 0.099190 0.080447 0.945433 0.315622 0.997070 0.000977 255 211 255
-0.004812 -0.076481 0.137639 -0.668081 -0.194250 0.718253 0.001590 0.500244 255 211 255
-0.014766 -0.017495 0.098205 -0.953856 0.038087 0.297769 0.000500 0.001953 255 211 255
0.033446 -0.016427 0.174172 -0.276986 0.297769 0.913541 0.500000 0.500977 0 211 0
0.080059 -0.069787 0.185538 0.003174 -0.023286 0.999695 0.500977 0.999500 0 211 0
0.115225 -0.046571 0.146144 0.642079 0.254463 0.723136 0.999023 0.997690 255 211 0
0.053241 -0.100946 0.145073 -0.349864 -0.615711 0.706015 0.002680 0.998780 255 211 0
-0.006087 -0.000225 0.162914 0.318827 0.868801 0.378796 0.498779 0.002441 0 176 255
0.021572 -0.069944 0.192144 0.721671 0.259743 0.641621 0.998047 0.499512 255 176 255
0.012757 -0.036370 0.147985 0.900357 0.413709 0.134800 0.997070 0.000977 255 176 255
-0.078149 -0.029590 0.183526 -0.425855 0.724113 0.542467 0.001590 0.500244 255 176 255
-0.042195 -0.014133 0.143236 -0.371105 0.928251 0.024934 0.000500 0.001953 255 176 255
-0.020976 -0.027123 0.209243 0.199683 0.650075 0.733146 0.500000 0.500977 0 176 0
-0.041587 -0.072475 0.235376 0.042451 0.307901 0.950438 0.500977 0.999500 0 176 0
-0.014988 -0.098643 0.209828 0.557360 -0.216071 0.801630 0.999023 0.997690 255 176 0
-0.074721 -0.074471 0.204666 -0.662008 0.277352 0.696249 0.002680 0.998780 255 176 0
-0.014646 -0.029605 0.193029 -0.227607 -0.481735 0.846217 0.498779 0.002441 18 97 255
-0.012027 -0.029511 0.190969 0.454237 -0.704184 0.545640 0.997070 0.000977 255 97 255
-0.009296 -0.026552 0.192514 0.505387 -0.227088 0.832453 0.998047 0.499512 255 97 255
-0.017180 -0.024105 0.191786 -0.676107 0.139592 0.723411 0.001590 0.500244 255 97 255
-0.016372 -0.028163 0.190568 -0.854823 -0.297861 0.424818 0.000500 0.001953 255 97 255
-0.013592 -0.025755 0.194545 -0.118473 -0.087649 0.989074 0.500000 0.500977 0 97 0
-0.012273 -0.021686 0.193943 0.013367 0.324351 0.945830 0.500977 0.999500 12 97 0
-0.009823 -0.022843 0.191771 0.704489 0.234352 0.669881 0.999023 0.997690 255 97 1
-0.014546 -0.021377 0.191335 -0.551012 0.624012 0.554003 0.002680 0.998780 255 97 1
-0.016693 -0.034220 0.201078 0.006012 -0.418897 0.907987 0.498779 0.002441 60 218 255
-0.014917 -0.034009 0.199010 0.651143 -0.570147 0.500870 0.997070 0.000977 255 218 255
-0.012911 -0.031163 0.199641 0.674123 -0.063448 0.735862 0.998047 0.499512 255 218 255
-0.019621 -0.030189 0.200135 -0.551622 0.114566 0.826167 0.001590 0.500244 255 218 255
-0.018615 -0.033472 0.199282 -0.706961 -0.372875 0.600909 0.000500 0.001953 255 218 255
-0.016145 -0.030858 0.201893 0.073366 -0.000458 0.997284 0.500000 0.500977 0 218 10
-0.015722 -0.027468 0.200951 0.127140 0.419568 0.898770 0.500977 0.999500 51 218 0
-0.013931 -0.028296 0.198897 0.764122 0.402539 0.504013 0.999023 0.997690 255 218 30
-0.017950 -0.027713 0.199193 -0.538377 0.591723 0.599963 0.002680 0.998780 255 218 30
3 0 1 2
3 3 4 0
3 2 5 0
3 0 5 3
3 6 5 2
3 3 5 6
3 2 7 6
3 6 8 3
3 9 10 11
3 12 9 13
3 10 9 14
3 9 12 14
3 15 10 14
3 12 15 14
3 10 15 16
3 15 12 17
3 18 19 20
3 21 18 22
3 19 18 23
3 18 21 23
3 24 19 23
3 21 24 23
3 19 24 25
3 24 21 26
3 27 28 29
3 30 27 31
3 28 27 32
3 27 30 32
3 33 28 32
3 30 33 32
3 28 33 34
3 33 30 35
3 36 37 38
3 39 40 36
3 38 41 36
3 36 41 39
3 42 41 38
3 39 41 42
3 38 43 42
3 42 44 39
3 45 46 47
3 48 49 45
3 47 50 45
3 45 50 48
3 51 50 47
3 48 50 51
3 47 52 51
3 51 53 48
3 54 55 56
3 57 58 54
3 56 59 54
3 54 59 57
3 60 59 56
3 57 59 60
3 56 61 60
3 60 62 57
3 63 64 65
3 66 63 67
3 64 63 68
3 63 66 68
3 69 64 68
3 66 69 68
3 64 69 70
3 69 66 71
3 72 73 74
3 75 76 72
3 74 77 72
3 72 77 75
3 78 77 74
3 75 77 78
3 74 79 78
3 78 80 75
3 81 82 83
3 84 81 85
3 82 81 86
3 81 84 86
3 87 82 86
3 84 87 86
3 82 87 88
3 87 84 89
3 90 91 92
3 93 94 90
3 92 95 90
3 90 95 93
3 96 95 92
3 93 95 96
3 92 97 96
3 96 98 93
3 99 100 101
3 102 99 103
3 100 99 104
3 99 102 104
3 105 100 104
3 102 105 104
3 100 105 106
3 105 102 107
3 108 109 110
3 111 112 108
3 110 113 108
3 108 113 111
3 114 113 110
3 111 113 114
3 110 115 114
3 114 116 111
3 117 118 119
3 120 117 121
3 118 117 122
3 117 120 122
3 123 118 122
3 120 123 122
3 118 123 124
3 123 120 125
3 126 127 128
3 129 130 126
3 128 131 126
3 126 131 129
3 132 131 128
3 129 131 132
3 128 133 132
3 132 134 129
3 135 136 137
3 138 135 139
3 136 135 140
3 135 138 140
3 141 136 140
3 138 141 140
3 136 141 142
3 141 138 143
3 144 145 146
3 147 144 148
3 145 144 149
3 144 147 149
3 150 145 149
3 147 150 149
3 145 150 151
3 150 147 152
3 153 154 155
3 156 153 157
3 154 153 158
3 153 156 158
3 159 154 158
3 156 159 158
3 154 159 160
3 159 156 161
3 162 163 164
3 165 162 166
3 163 162 167
3 162 165 167
3 168 163 167
3 165 168 167
3 163 168 169
3 168 165 170
3 171 172 173
3 174 175 171
3 173 176 171
3 171 176 174
3 177 176 173
3 174 176 177
3 173 178 177
3 177 179 174
3 180 181 182
3 183 180 184
3 181 180 185
3 180 183 185
3 186 181 185
3 183 186 185
3 181 186 187
3 186 183 188
3 189 190 191
3 192 189 193
3 190 189 194
3 189 192 194
3 195 190 194
3 192 195 194
3 190 195 196
3 195 192 197
3 198 199 200
3 201 198 202
3 199 198 203
3 198 201 203
3 204 199 203
3 201 204 203
3 199 204 205
3 204 201 206
3 207 208 209
3 210 211 207
3 209 212 207
3 207 212 210
3 213 212 209
3 210 212 213
3 209 214 213
3 213 215 210
3 216 217 218
3 219 220 216
3 218 221 216
3 216 221 219
3 222 221 218
3 219 221 222
3 218 223 222
3 222 224 219
3 225 226 227
3 228 229 225
3 227 230 225
3 225 230 228
3 231 230 227
3 228 230 231
3 227 232 231
3 231 233 228
3 234 235 236
3 237 234 238
3 235 234 239
3 234 237 239
3 240 235 239
3 237 240 239
3 235 240 241
3 240 237 242
3 243 244 245
3 246 243 247
3 244 243 248
3 243 246 248
3 249 244 248
3 246 249 248
3 244 249 250
3 249 246 251
3 252 253 254
3 255 256 252
3 254 257 252
3 252 257 255
3 258 257 254
3 255 257 258
3 254 259 258
3 258 260 255
3 261 262 263
3 264 265 261
3 263 266 261
3 261 266 264
3 267 266 263
3 264 266 267
3 263 268 267
3 267 269 264
3 270 271 272
3 273 274 270
3 272 275 270
3 270 275 273
3 276 275 272
3 273 275 276
3 272 277 276
3 276 278 273
3 279 280 281
3 282 283 279
3 281 284 279
3 279 284 282
3 285 284 281
3 282 284 285
3 281 286 285
3 285 287 282
3 288 289 290
3 291 292 288
3 290 293 288
3 288 293 291
3 294 293 290
3 291 293 294
3 290 295 294
3 294 296 291
3 297 298 299
3 300 301 297
3 299 302 297
3 297 302 300
3 303 302 299
3 300 302 303
3 299 304 303
3 303 305 300
3 306 307 308
3 309 306 310
3 307 306 311
3 306 309 311
3 312 307 311
3 309 312 311
3 307 312 313
3 312 309 314
3 315 316 317
3 318 319 315
3 317 320 315
3 315 320 318
3 321 320 317
3 318 320 321
3 317 322 321
3 321 323 318
3 324 325 326
3 327 324 328
3 325 324 329
3 324 327 329
3 330 325 329
3 327 330 329
3 325 330 331
3 330 327 332
3 333 334 335
3 336 337 333
3 335 338 333
3 333 338 336
3 339 338 335
3 336 338 339
3 335 340 339
3 339 341 336
3 342 343 344
3 345 342 346
3 343 342 347
3 342 345 347
3 348 343 347
3 345 348 347
3 343 348 349
3 348 345 350
3 351 352 353
3 354 355 351
3 353 356 351
3 351 356 354
3 357 356 353
3 354 356 357
3 353 358 357
3 357 359 354
3 360 361 362
3 363 364 360
3 362 365 360
3 360 365 363
3 366 365 362
3 363 365 366
3 362 367 366
3 366 368 363
3 369 370 371
3 372 369 373
3 370 369 374
3 369 372 374
3 375 370 374
3 372 375 374
3 370 375 376
3 375 372 377
3 378 379 380
3 381 378 382
3 379 378 383
3 378 381 383
3 384 379 383
3 381 384 383
3 379 384 385
3 384 381 386
3 387 388 389
3 390 391 387
3 389 392 387
3 387 392 390
3 393 392 389
3 390 392 393
3 389 394 393
3 393 395 390
3 396 397 398
3 399 400 396
3 398 401 396
3 396 401 399
3 402 401 398
3 399 401 402
3 398 403 402
3 402 404 399
