ply
format ascii 1.0
comment Created by Blender 2.78 (sub 0) - www.blender.org, source file: ''
element vertex 405
property float x
property float y
property float z
property uchar red
property uchar green
property uchar blue
element face 360
property list uchar uint vertex_indices
end_header
0.163937 5.361237 -0.002121 0 82 255
0.725308 3.675005 -1.573910 255 82 255
-1.306179 3.860972 -3.867938 255 82 255
-3.606262 3.719006 1.561625 255 82 255
-0.542180 3.596780 1.418128 255 82 255
-2.631456 5.530306 -1.181888 0 82 0
-5.168969 4.195364 -2.291738 0 82 0
-3.750983 2.693836 -3.649399 255 82 0
-5.128734 2.608790 -0.397091 255 82 0
-0.457799 4.218369 -0.177721 43 110 255
-0.236859 4.060105 -0.232399 255 110 255
-0.404105 4.137384 -0.291332 255 110 255
-0.524441 4.015182 -0.001298 255 110 255
-0.562581 4.112629 -0.163981 255 110 255
-0.345126 4.122514 -0.056144 0 110 2
-0.267338 3.957301 0.008540 34 110 0
-0.235275 3.916950 -0.138417 255 110 16
-0.407537 3.890040 0.000013 255 110 16
-0.090329 6.929072 -0.328431 0 47 255
-3.729609 5.582256 0.769160 255 47 255
-0.949575 5.172416 0.623015 255 47 255
-1.496392 6.449593 -4.077577 255 47 255
0.281075 5.650380 -2.047844 255 47 255
-2.590543 7.592347 -1.361753 0 47 0
-5.014300 6.873708 -2.607144 0 47 0
-5.186418 5.109981 -1.195805 255 47 0
-3.848722 5.629508 -4.099002 255 47 0
-0.827844 5.296291 0.413062 0 89 255
-3.046632 5.173256 -2.754224 255 89 255
-2.421672 4.171125 -0.326572 255 89 255
1.978177 4.139697 -1.986609 255 89 255
0.347319 3.601573 0.096439 255 89 255
-0.276017 6.141263 -2.061478 0 89 0
0.032479 5.676211 -4.707059 0 89 0
-1.810297 4.523754 -4.693955 255 89 0
1.199562 3.904646 -4.234156 255 89 0
-0.930515 8.215863 -0.598248 0 84 255
-0.313094 8.226913 -2.230988 255 84 255
0.676646 10.230900 -2.556555 255 84 255
-3.328776 10.370008 -0.892072 255 84 255
-2.520336 8.303567 -1.313746 255 84 255
-0.831055 10.448872 -0.545527 0 84 0
-1.161358 12.468623 -1.509166 0 84 0
-0.411521 11.837219 -3.040765 255 84 0
-2.810771 11.920547 -2.043745 255 84 0
0.438205 6.737574 -0.252294 0 10 255
-1.321416 5.555004 0.778500 255 10 255
-0.824729 5.641795 3.786772 255 10 255
3.748946 3.988420 0.516456 255 10 255
1.198972 4.643897 -1.023658 255 10 255
2.109580 6.425593 2.242919 0 10 0
3.159778 4.739750 4.563976 0 10 0
0.883416 3.902795 4.949086 255 10 0
3.623044 2.912416 2.990167 255 10 0
-0.353594 5.648616 -0.363127 0 133 255
-1.626517 4.191317 0.190633 255 133 255
-1.063350 3.574131 2.657125 255 133 255
2.834707 3.711869 -0.476859 255 133 255
0.521560 4.267227 -1.536394 255 133 255
1.224330 5.005365 1.571226 0 133 0
2.450396 3.214449 3.017498 0 133 0
0.663474 2.124612 3.139564 255 133 0
2.998409 2.207111 1.262306 255 133 0
1.302265 7.546634 -0.075998 0 162 255
3.650180 6.191500 3.098506 255 162 255
2.977448 6.082329 0.266556 255 162 255
-1.790048 5.588471 1.931438 255 162 255
-0.020465 5.750028 -0.376578 255 162 255
0.700541 7.517893 2.743751 0 162 0
0.319375 6.089447 5.258615 0 162 0
2.271996 4.864326 4.827583 255 162 0
-0.986698 4.503103 4.128509 255 162 0
0.681640 7.184687 1.094638 0 166 255
2.025030 5.818748 2.309430 255 166 255
4.257531 5.030994 0.574169 255 166 255
-0.888027 4.409012 -1.649099 255 166 255
-0.810502 5.476006 1.084268 255 166 255
1.863845 6.167183 -1.356818 0 166 0
2.846653 3.943369 -3.009310 0 166 0
3.988363 3.084789 -1.126787 255 166 0
0.906174 2.712215 -2.458522 255 166 0
1.229330 7.537265 0.796877 38 210 255
1.070382 7.307093 0.750228 255 210 255
1.195938 7.405630 0.867190 255 210 255
1.383600 7.439280 0.580037 255 210 255
1.368540 7.478474 0.773404 255 210 255
1.168714 7.461707 0.626633 0 210 0
1.160566 7.312870 0.496039 30 210 0
1.129809 7.212120 0.615546 255 210 12
1.317426 7.291298 0.513602 255 210 12
1.523212 7.052776 1.016759 0 196 255
2.773966 6.243623 2.160190 255 196 255
4.801489 7.579481 2.066632 255 196 255
2.994558 6.370182 -2.064797 255 196 255
1.778224 5.577224 -0.116490 255 196 255
3.302770 8.220627 -0.103393 0 196 0
5.526367 8.271738 -1.090872 0 196 0
6.216310 7.312494 0.468219 255 196 0
5.133961 6.588118 -2.006506 255 196 0
0.942372 8.210246 0.300092 0 6 255
4.200318 6.410836 0.657578 255 6 255
2.022334 6.841435 -0.712575 255 6 255
-0.075742 6.168146 3.262048 255 6 255
-0.334050 6.707706 0.722652 255 6 255
2.278905 7.678020 2.444842 0 6 0
3.377839 5.971361 4.090063 0 6 0
4.194731 4.949850 2.446607 255 6 0
1.633371 4.804472 4.006682 255 6 0
1.595224 7.134046 1.454761 0 189 255
3.208208 5.420841 1.727636 255 189 255
5.712604 6.280874 0.184049 255 189 255
0.648390 6.614774 -2.803095 255 189 255
0.417499 5.604847 0.081535 255 189 255
3.095783 8.159890 -0.974529 0 189 0
4.611755 7.673210 -3.599013 0 189 0
5.892137 5.876765 -2.493294 255 189 0
2.858673 6.076764 -4.282594 255 189 0
0.777819 8.324573 0.495422 0 189 255
4.409470 8.274103 0.024481 255 189 255
2.103186 7.391224 -0.632819 255 189 255
1.553244 6.832808 3.749127 255 189 255
0.529218 6.596984 1.419698 255 189 255
2.604804 8.938282 2.133920 0 189 0
4.685821 8.336845 3.497004 0 189 0
5.490586 7.440933 1.828889 255 189 0
3.779710 6.577591 4.059951 255 189 0
2.130041 7.319515 0.351526 0 26 255
1.579731 5.998951 1.308292 255 26 255
2.158222 6.427278 3.415674 255 26 255
5.282092 6.849096 0.522375 255 26 255
3.301179 6.231405 -0.286105 255 26 255
3.534112 7.893351 1.951148 0 26 0
5.044483 7.365140 3.504873 0 26 0
3.980322 6.031896 4.056653 255 26 0
5.851522 6.284561 2.323568 255 26 0
0.910303 8.575087 0.616741 0 206 255
4.200666 7.814571 0.506187 255 206 255
1.957801 7.119507 0.293923 255 206 255
1.464719 8.971595 3.926201 255 206 255
0.450115 7.757104 2.178565 255 206 255
2.697327 9.622652 1.691928 0 206 0
4.532374 9.572048 3.177052 0 206 0
5.100217 7.942995 2.385392 255 206 0
3.461385 8.636045 4.433983 255 206 0
1.138662 8.527385 0.866349 0 63 255
4.272627 9.475994 0.511441 255 63 255
2.761403 7.824332 1.030607 255 63 255
1.152853 10.597534 3.427962 255 63 255
1.042202 8.442370 2.637792 255 63 255
2.028413 10.615782 1.015022 0 63 0
3.472939 12.125932 1.979496 0 63 0
4.817033 10.856745 1.903164 255 63 0
2.948292 11.528544 3.650163 255 63 0
1.649861 9.402852 0.417611 0 40 255
3.541038 8.820270 3.353561 255 40 255
2.680490 7.993564 1.190400 255 40 255
-1.111199 9.428481 2.633840 255 40 255
0.116812 8.328732 0.793781 255 40 255
1.448273 10.459689 2.613750 0 40 0
1.053610 10.327008 5.052701 0 40 0
2.286222 8.768713 5.144311 255 40 0
-0.500469 9.133026 4.713201 255 40 0
1.722069 9.409193 0.672169 0 226 255
3.071728 10.499785 3.405502 255 226 255
2.358594 8.754888 2.160452 255 226 255
-0.942399 10.865700 1.795244 255 226 255
0.146556 8.956528 1.273091 255 226 255
1.515896 11.413790 1.641646 0 226 0
0.929340 12.712529 3.398964 0 226 0
1.782849 11.555120 4.512445 255 226 0
-0.621615 11.774302 3.547906 255 226 0
2.696645 7.664973 0.529616 0 100 255
1.600238 6.379457 0.890368 255 100 255
1.871265 5.866586 3.049219 255 100 255
5.480346 6.092051 0.731571 255 100 255
3.589072 6.503708 -0.386806 255 100 255
3.882868 7.157782 2.327480 0 100 0
4.845470 5.655958 3.680361 0 100 0
3.340078 4.671229 3.624277 255 100 0
5.501917 4.806276 2.236005 255 100 0
1.172210 8.552894 0.672518 0 219 255
3.955686 10.195002 0.574151 255 219 255
2.843832 8.254675 0.276506 255 219 255
1.420481 8.968592 3.869315 255 219 255
1.446767 7.578845 2.092348 255 219 255
1.767747 10.379746 1.810636 0 219 0
3.132414 11.449985 3.258898 0 219 0
4.566834 10.748159 2.393502 255 219 0
3.048251 10.013536 4.367308 255 219 0
-0.297256 6.281809 0.307441 22 187 255
-0.358166 6.097869 0.068553 255 187 255
-0.423352 6.189913 0.251151 255 187 255
-0.101313 6.059111 0.388827 255 187 255
-0.281809 6.168555 0.427643 255 187 255
-0.162477 6.171275 0.185975 0 187 0
-0.090740 5.985134 0.105918 15 187 0
-0.253823 5.939104 0.072115 255 187 2
-0.099969 5.915887 0.263960 255 187 2
0.767159 5.498591 -0.279071 0 186 255
-1.196699 5.232469 3.827240 255 186 255
0.756372 3.976870 1.652235 255 186 255
-3.466355 4.828993 -1.834187 255 186 255
-0.494347 3.754535 -1.467577 255 186 255
-1.934705 6.776841 0.713002 0 186 0
-4.874525 6.503602 1.911042 0 186 0
-3.981030 4.846366 3.647676 255 186 0
-5.340558 4.604677 0.256483 255 186 0
-0.743529 8.679755 1.381640 0 143 255
-2.348943 8.630928 0.715763 255 143 255
-3.007159 10.760533 0.411083 255 143 255
-1.392119 9.848894 4.315598 255 143 255
-1.458946 8.128554 2.867397 255 143 255
-1.067964 10.791807 2.008968 0 143 0
-2.353771 12.403806 2.917197 0 143 0
-3.751839 11.818388 1.925571 255 143 0
-2.784436 11.272315 4.264377 255 143 0
0.251405 7.815188 -0.238398 72 6 255
0.197551 7.723678 -0.316361 255 6 255
0.069533 7.652369 -0.229311 255 6 255
0.355087 7.671631 -0.070137 255 6 255
0.354910 7.734293 -0.228645 255 6 255
0.181271 7.741692 -0.103686 2 6 19
0.140533 7.602437 -0.013751 62 6 0
0.096405 7.542735 -0.129159 255 6 41
0.267452 7.554273 -0.033814 255 6 41
0.115733 8.048584 0.461241 0 248 255
1.045576 6.211280 0.058485 255 248 255
3.023613 6.690278 -1.738339 255 248 255
-1.646116 8.673390 -2.951155 255 248 255
-1.527743 7.304106 -0.609847 255 248 255
1.135931 9.062535 -1.808910 0 248 0
1.732248 8.849556 -4.453176 0 248 0
2.532418 6.848973 -4.085889 255 248 0
-0.264751 8.036851 -4.812369 255 248 0
0.573136 9.125149 -0.019361 0 22 255
-0.781463 8.014930 -3.482881 255 22 255
-0.139308 7.380347 -0.929675 255 22 255
3.937067 9.542902 -1.909590 255 22 255
2.460901 8.222363 -0.062685 255 22 255
1.030668 10.197712 -2.433232 0 22 0
1.941478 10.008320 -4.980943 0 22 0
0.908265 8.098916 -5.181830 255 22 0
3.734668 9.014164 -4.239432 255 22 0
0.028811 7.146827 -0.735155 0 25 255
2.708295 8.650255 0.842490 255 25 255
1.774430 6.715536 -0.249547 255 25 255
-1.440752 7.293632 2.386984 255 25 255
-0.511964 5.967950 0.601561 255 25 255
0.031598 8.935459 0.843400 0 25 0
0.552447 9.826469 3.025213 0 25 0
2.316696 9.027963 2.905594 255 25 0
-0.168581 8.215342 3.830750 255 25 0
0.338143 7.808913 0.424771 0 217 255
0.058986 6.697042 -1.306248 255 217 255
-0.017530 8.429069 -3.358324 255 217 255
-3.075466 9.576551 0.638470 255 217 255
-1.626127 7.329378 0.896246 255 217 255
-0.498933 9.991871 -0.842400 0 217 0
-2.205364 11.240119 -2.506357 0 217 0
-2.025095 9.588063 -3.890553 255 217 0
-3.856803 10.275402 -1.496476 255 217 0
-0.101431 9.219532 -0.008080 0 53 255
-0.205240 8.101229 1.508800 255 53 255
1.366451 8.977301 3.159941 255 53 255
3.094650 8.380054 -1.161370 255 53 255
0.747102 7.772112 -0.872521 255 53 255
2.048636 10.033650 0.739265 0 53 0
4.272871 9.650633 1.681726 0 53 0
3.469111 8.486439 3.047141 255 53 0
4.504303 8.128682 0.458677 255 53 0
0.211385 9.936125 0.414735 0 111 255
0.811731 9.285881 1.732076 255 111 255
2.400200 10.450021 2.313624 255 111 255
2.389750 9.356498 -1.477236 255 111 255
0.805967 8.683283 -0.356931 255 111 255
1.951661 10.944083 0.119178 0 111 0
4.006738 11.017803 0.092247 0 111 0
4.034987 10.234643 1.547929 255 111 0
4.028731 9.579618 -0.722794 255 111 0
0.448095 10.300598 0.783673 0 97 255
1.750840 9.449240 1.362060 255 97 255
3.466887 10.732231 1.207136 255 97 255
1.169924 10.411534 -2.207214 255 97 255
0.485060 9.272517 -0.519462 255 97 255
1.765218 11.629292 -0.227207 0 97 0
3.507899 11.997190 -1.434131 0 97 0
4.403604 10.901962 -0.439411 255 97 0
3.027726 10.709861 -2.484608 255 97 0
0.578045 9.749218 0.426547 0 202 255
1.086831 10.003242 1.820748 255 202 255
1.031173 11.928829 2.111821 255 202 255
2.684435 10.822495 -1.059184 255 202 255
1.997879 9.393578 0.073319 255 202 255
0.924152 11.589474 -0.035054 0 202 0
2.060403 13.175246 0.004089 0 202 0
2.303420 12.941236 1.535913 255 202 0
3.293729 12.278542 -0.363517 255 202 0
-0.139038 4.330352 -0.564617 0 106 255
-1.009204 2.869737 -1.412490 255 106 255
-3.420433 3.127680 -1.009514 255 106 255
-0.667512 3.477295 2.812504 255 106 255
0.507836 3.062403 0.693683 255 106 255
-2.106610 4.699463 0.818822 0 106 0
-3.944906 3.852343 2.220401 0 106 0
-4.308856 2.460018 0.861763 255 106 0
-2.659857 2.669431 3.151152 255 106 0
-0.691499 5.709016 0.314499 0 117 255
-3.564421 5.242941 -3.025505 255 117 255
-1.904099 3.952971 -0.759489 255 117 255
2.184428 6.729584 -2.897050 255 117 255
1.263883 4.772211 -0.688693 255 117 255
-1.097335 7.490482 -2.140113 0 117 0
-1.137112 7.909328 -5.207297 0 117 0
-2.421874 5.791863 -5.451062 255 117 0
1.021688 6.682355 -5.374122 255 117 0
-0.332090 6.249938 -0.319918 0 4 255
1.892716 5.590904 -0.961334 255 4 255
3.570771 8.196730 -1.272121 255 4 255
-1.695189 8.163103 -4.116075 255 4 255
-1.009169 5.572371 -2.528526 255 4 255
0.212135 9.100732 -1.361335 0 4 0
1.359936 11.049955 -3.509691 0 4 0
3.453991 9.672939 -3.598633 255 4 0
0.299686 9.652794 -5.302168 255 4 0
1.106974 6.726848 -0.215673 0 105 255
5.227857 7.457274 1.470983 255 105 255
3.293177 5.658837 -0.242277 255 105 255
-0.038043 6.053440 4.096577 255 105 255
0.391325 4.885238 1.204586 255 105 255
1.932779 8.354322 2.310735 0 105 0
3.296707 8.543549 5.147410 0 105 0
5.277519 7.241416 4.249635 255 105 0
2.123249 6.400512 5.822369 255 105 0
1.177166 6.877202 0.463780 0 181 255
2.426370 5.971301 1.886090 255 181 255
4.356203 7.772593 2.522056 255 181 255
3.598103 6.994409 -2.580862 255 181 255
2.008601 5.542474 -0.925943 255 181 255
3.107851 8.661897 -0.095209 0 181 0
5.712601 9.278168 -0.576157 0 181 0
6.294860 8.034180 1.124646 255 181 0
5.840765 7.568041 -1.932002 255 181 0
-0.422858 7.645420 0.993315 0 52 255
-3.578106 8.805440 3.479963 255 52 255
-2.076730 6.670427 2.176010 255 52 255
-2.672415 9.491066 -2.009646 255 52 255
-1.577627 7.048250 -0.849115 255 52 255
-1.847099 10.156782 1.071995 0 52 0
-4.316630 11.704103 0.857816 0 52 0
-5.402204 10.105687 2.193619 255 52 0
-4.859702 10.516374 -1.094658 255 52 0
-1.414346 8.386823 0.205533 0 33 255
-2.617294 6.598853 0.800205 255 33 255
-4.310460 7.402375 3.003476 255 33 255
1.066523 8.713322 3.510652 255 33 255
0.345767 7.321273 1.079684 255 33 255
-1.947804 9.591294 2.747845 0 33 0
-2.180446 9.430100 5.630943 0 33 0
-3.398162 7.459041 5.395720 255 33 0
-0.177348 8.244291 5.699522 255 33 0
-1.155261 7.587422 0.911664 0 242 255
-2.732483 6.340871 1.899600 255 242 255
-3.235883 7.504704 4.505824 255 242 255
2.119215 6.605017 3.271015 255 242 255
0.218518 5.845092 1.219134 255 242 255
-0.388714 8.642778 3.467069 0 242 0
0.202509 8.291310 6.287148 0 242 0
-1.706699 6.965887 6.494751 255 242 0
1.501004 6.426968 5.755104 255 242 0
0.150189 6.618433 1.315668 0 211 255
-5.005345 7.073072 0.725143 255 211 255
-2.143707 5.031856 1.650123 255 211 255
0.244109 6.982403 -3.879879 255 211 255
0.749085 4.981895 -0.887531 255 211 255
-1.696713 8.835690 -0.833351 0 211 0
-4.061360 9.412271 -3.540264 0 211 0
-5.845310 7.413849 -2.362545 255 211 0
-2.700891 7.359531 -5.120957 255 211 0
0.308802 8.264580 -0.011439 0 176 255
-1.094323 9.747429 -3.548230 255 176 255
-0.647168 7.507224 -1.845064 255 176 255
3.964494 9.310243 -1.501077 255 176 255
2.140561 7.266307 -0.716944 255 176 255
1.064093 10.614827 -1.375956 0 176 0
2.109685 11.940548 -3.676648 0 176 0
0.760338 10.644507 -5.004154 255 176 0
3.790571 10.382630 -3.777916 255 176 0
0.743008 9.792286 -1.501837 18 97 255
0.610130 9.687790 -1.497090 255 97 255
0.471575 9.766183 -1.346968 255 97 255
0.871552 9.729272 -1.222825 255 97 255
0.830543 9.667450 -1.428680 255 97 255
0.689495 9.869206 -1.306551 0 97 0
0.622602 9.838648 -1.100113 12 97 0
0.498307 9.728478 -1.158836 255 97 1
0.737894 9.706368 -1.084474 255 97 1
0.846852 10.200643 -1.735981 60 218 255
0.756748 10.095711 -1.725260 255 218 255
0.654988 10.127739 -1.580907 255 218 255
0.995380 10.152812 -1.531466 255 218 255
0.944326 10.109529 -1.698015 255 218 255
0.819036 10.241956 -1.565423 0 218 10
0.797575 10.194191 -1.393450 51 218 0
0.706702 10.089977 -1.435463 255 218 30
0.910598 10.104998 -1.405847 255 218 30
3 0 1 2
3 3 4 0
3 2 5 0
3 0 5 3
3 6 5 2
3 3 5 6
3 2 7 6
3 6 8 3
3 9 10 11
3 12 9 13
3 10 9 14
3 9 12 14
3 15 10 14
3 12 15 14
3 10 15 16
3 15 12 17
3 18 19 20
3 21 18 22
3 19 18 23
3 18 21 23
3 24 19 23
3 21 24 23
3 19 24 25
3 24 21 26
3 27 28 29
3 30 27 31
3 28 27 32
3 27 30 32
3 33 28 32
3 30 33 32
3 28 33 34
3 33 30 35
3 36 37 38
3 39 40 36
3 38 41 36
3 36 41 39
3 42 41 38
3 39 41 42
3 38 43 42
3 42 44 39
3 45 46 47
3 48 49 45
3 47 50 45
3 45 50 48
3 51 50 47
3 48 50 51
3 47 52 51
3 51 53 48
3 54 55 56
3 57 58 54
3 56 59 54
3 54 59 57
3 60 59 56
3 57 59 60
3 56 61 60
3 60 62 57
3 63 64 65
3 66 63 67
3 64 63 68
3 63 66 68
3 69 64 68
3 66 69 68
3 64 69 70
3 69 66 71
3 72 73 74
3 75 76 72
3 74 77 72
3 72 77 75
3 78 77 74
3 75 77 78
3 74 79 78
3 78 80 75
3 81 82 83
3 84 81 85
3 82 81 86
3 81 84 86
3 87 82 86
3 84 87 86
3 82 87 88
3 87 84 89
3 90 91 92
3 93 94 90
3 92 95 90
3 90 95 93
3 96 95 92
3 93 95 96
3 92 97 96
3 96 98 93
3 99 100 101
3 102 99 103
3 100 99 104
3 99 102 104
3 105 100 104
3 102 105 104
3 100 105 106
3 105 102 107
3 108 109 110
3 111 112 108
3 110 113 108
3 108 113 111
3 114 113 110
3 111 113 114
3 110 115 114
3 114 116 111
3 117 118 119
3 120 117 121
3 118 117 122
3 117 120 122
3 123 118 122
3 120 123 122
3 118 123 124
3 123 120 125
3 126 127 128
3 129 130 126
3 128 131 126
3 126 131 129
3 132 131 128
3 129 131 132
3 128 133 132
3 132 134 129
3 135 136 137
3 138 135 139
3 136 135 140
3 135 138 140
3 141 136 140
3 138 141 140
3 136 141 142
3 141 138 143
3 144 145 146
3 147 144 148
3 145 144 149
3 144 147 149
3 150 145 149
3 147 150 149
3 145 150 151
3 150 147 152
3 153 154 155
3 156 153 157
3 154 153 158
3 153 156 158
3 159 154 158
3 156 159 158
3 154 159 160
3 159 156 161
3 162 163 164
3 165 162 166
3 163 162 167
3 162 165 167
3 168 163 167
3 165 168 167
3 163 168 169
3 168 165 170
3 171 172 173
3 174 175 171
3 173 176 171
3 171 176 174
3 177 176 173
3 174 176 177
3 173 178 177
3 177 179 174
3 180 181 182
3 183 180 184
3 181 180 185
3 180 183 185
3 186 181 185
3 183 186 185
3 181 186 187
3 186 183 188
3 189 190 191
3 192 189 193
3 190 189 194
3 189 192 194
3 195 190 194
3 192 195 194
3 190 195 196
3 195 192 197
3 198 199 200
3 201 198 202
3 199 198 203
3 198 201 203
3 204 199 203
3 201 204 203
3 199 204 205
3 204 201 206
3 207 208 209
3 210 211 207
3 209 212 207
3 207 212 210
3 213 212 209
3 210 212 213
3 209 214 213
3 213 215 210
3 216 217 218
3 219 220 216
3 218 221 216
3 216 221 219
3 222 221 218
3 219 221 222
3 218 223 222
3 222 224 219
3 225 226 227
3 228 229 225
3 227 230 225
3 225 230 228
3 231 230 227
3 228 230 231
3 227 232 231
3 231 233 228
3 234 235 236
3 237 234 238
3 235 234 239
3 234 237 239
3 240 235 239
3 237 240 239
3 235 240 241
3 240 237 242
3 243 244 245
3 246 243 247
3 244 243 248
3 243 246 248
3 249 244 248
3 246 249 248
3 244 249 250
3 249 246 251
3 252 253 254
3 255 256 252
3 254 257 252
3 252 257 255
3 258 257 254
3 255 257 258
3 254 259 258
3 258 260 255
3 261 262 263
3 264 265 261
3 263 266 261
3 261 266 264
3 267 266 263
3 264 266 267
3 263 268 267
3 267 269 264
3 270 271 272
3 273 274 270
3 272 275 270
3 270 275 273
3 276 275 272
3 273 275 276
3 272 277 276
3 276 278 273
3 279 280 281
3 282 283 279
3 281 284 279
3 279 284 282
3 285 284 281
3 282 284 285
3 281 286 285
3 285 287 282
3 288 289 290
3 291 292 288
3 290 293 288
3 288 293 291
3 294 293 290
3 291 293 294
3 290 295 294
3 294 296 291
3 297 298 299
3 300 301 297
3 299 302 297
3 297 302 300
3 303 302 299
3 300 302 303
3 299 304 303
3 303 305 300
3 306 307 308
3 309 306 310
3 307 306 311
3 306 309 311
3 312 307 311
3 309 312 311
3 307 312 313
3 312 309 314
3 315 316 317
3 318 319 315
3 317 320 315
3 315 320 318
3 321 320 317
3 318 320 321
3 317 322 321
3 321 323 318
3 324 325 326
3 327 324 328
3 325 324 329
3 324 327 329
3 330 325 329
3 327 330 329
3 325 330 331
3 330 327 332
3 333 334 335
3 336 337 333
3 335 338 333
3 333 338 336
3 339 338 335
3 336 338 339
3 335 340 339
3 339 341 336
3 342 343 344
3 345 342 346
3 343 342 347
3 342 345 347
3 348 343 347
3 345 348 347
3 343 348 349
3 348 345 350
3 351 352 353
3 354 355 351
3 353 356 351
3 351 356 354
3 357 356 353
3 354 356 357
3 353 358 357
3 357 359 354
3 360 361 362
3 363 364 360
3 362 365 360
3 360 365 363
3 366 365 362
3 363 365 366
3 362 367 366
3 366 368 363
3 369 370 371
3 372 369 373
3 370 369 374
3 369 372 374
3 375 370 374
3 372 375 374
3 370 375 376
3 375 372 377
3 378 379 380
3 381 378 382
3 379 378 383
3 378 381 383
3 384 379 383
3 381 384 383
3 379 384 385
3 384 381 386
3 387 388 389
3 390 391 387
3 389 392 387
3 387 392 390
3 393 392 389
3 390 392 393
3 389 394 393
3 393 395 390
3 396 397 398
3 399 400 396
3 398 401 396
3 396 401 399
3 402 401 398
3 399 401 402
3 398 403 402
3 402 404 399
