ply
format ascii 1.0
comment Created by Blender 2.78 (sub 0) - www.blender.org, source file: ''
element vertex 378
property float x
property float y
property float z
property uchar red
property uchar green
property uchar blue
element face 336
property list uchar uint vertex_indices
end_header
-1.865145 4.021000 -0.888231 0 128 255
-1.014077 3.129780 -0.808410 255 128 255
0.083206 3.422893 -1.932302 255 128 255
-2.834242 3.465258 -2.887206 255 128 255
-2.621779 3.153129 -1.334620 255 128 255
-1.379740 4.353029 -2.356528 237 128 237
-0.909296 3.890188 -3.814375 0 128 0
-0.132078 3.020736 -3.271384 255 128 0
-1.879629 3.046108 -3.843373 255 128 0
-1.791186 4.151178 -1.513011 0 98 255
-2.625575 3.414886 -2.148183 255 98 255
-3.817431 2.989293 -1.077205 255 98 255
-0.832371 2.530079 -0.064461 255 98 255
-0.980615 3.161834 -1.590097 255 98 255
-2.363704 3.571122 -0.088527 0 98 0
-2.880901 2.315051 0.866364 0 98 0
-3.623074 1.868699 -0.149298 255 98 0
-1.835022 1.593626 0.457334 255 98 0
-1.999966 3.830755 -1.447958 0 142 255
-2.189981 3.608857 -2.117567 255 142 255
-2.366731 4.383968 -2.628951 255 142 255
-3.190934 4.307325 -1.012313 255 142 255
-2.644167 3.566622 -1.226695 255 142 255
-2.396883 4.662320 -1.610892 0 142 0
-3.107260 5.189532 -1.948065 0 142 0
-3.109674 4.766191 -2.580488 255 142 0
-3.603374 4.720280 -1.612122 255 142 0
-1.889151 3.714925 -1.935504 33 80 255
-2.186144 3.351665 -2.305583 255 80 255
-2.925092 3.348075 -2.077915 255 80 255
-1.923368 3.111737 -1.006511 255 80 255
-1.634130 3.221431 -1.715172 255 80 255
-2.453207 3.652777 -1.421841 4 80 4
-2.970720 3.229131 -1.031436 0 80 0
-3.129151 2.946047 -1.562758 255 80 0
-2.529118 2.804479 -0.920987 255 80 0
-2.902384 4.546354 -1.463683 0 210 255
-1.064616 2.940067 -1.606507 255 210 255
-2.631168 3.416014 -2.085943 255 210 255
-3.110979 3.726643 0.830337 255 210 255
-3.758845 3.849473 -0.743088 255 210 255
-1.687571 4.217867 -0.337499 0 210 0
-0.863688 3.140845 0.702011 0 210 0
-0.848681 2.206071 -0.304209 255 210 0
-2.074453 2.677225 1.155461 255 210 0
-2.103706 4.431040 -1.200521 0 180 255
-1.731630 3.720813 -1.761420 255 180 255
-2.497244 3.594483 -2.761853 255 180 255
-3.597944 3.600370 -0.592488 255 180 255
-2.338184 3.724061 -0.565960 255 180 255
-3.214810 4.293879 -1.763904 185 180 0
-4.139460 3.562679 -2.231071 0 180 0
-3.435390 2.985296 -2.689265 255 180 0
-4.094709 2.988819 -1.389816 255 180 13
-2.797650 3.820626 -1.100091 0 202 255
-3.179332 4.503461 1.294440 255 202 255
-2.757249 3.253070 0.133453 255 202 255
-5.279549 4.184751 -1.331020 255 202 255
-3.914598 3.077441 -1.313347 255 202 255
-3.778006 5.114044 -0.472876 0 202 0
-5.109260 5.695385 0.521481 0 202 0
-4.669303 4.856131 1.572509 255 202 0
-5.927335 4.665219 -0.000139 255 202 0
-2.572445 4.284431 -0.745127 0 19 255
-2.360904 3.442068 -1.425188 255 19 255
-2.991967 3.737133 -2.670928 255 19 255
-4.577148 4.005372 -0.449256 255 19 255
-3.234437 3.589888 -0.200903 255 19 255
-3.655244 4.674232 -1.564775 188 19 0
-4.807835 4.358140 -2.348994 0 19 0
-4.221648 3.501008 -2.841095 255 19 0
-5.171173 3.661679 -1.510315 255 19 0
-2.773422 4.195623 -0.898106 0 223 255
-3.991091 3.690743 0.694759 255 223 255
-2.714776 3.582129 0.031055 255 223 255
-4.095664 3.050100 -2.000062 255 223 255
-2.772400 3.229097 -1.453964 255 223 255
-4.199533 4.157010 -0.833588 0 223 0
-5.436639 3.443022 -0.615845 21 223 0
-4.975465 2.960766 0.334836 255 223 0
-5.038105 2.577017 -1.279361 255 223 0
-1.690508 4.042882 -2.331355 151 77 255
-1.661994 3.950794 -2.467338 255 77 255
-1.815261 3.999979 -2.610888 255 77 255
-1.949962 3.909144 -2.229667 255 77 255
-1.736222 3.900739 -2.257261 255 77 255
-1.891846 4.074475 -2.394968 231 77 66
-2.077524 4.001673 -2.477923 56 77 0
-1.987605 3.918370 -2.600912 255 77 35
-2.068291 3.863960 -2.372561 255 77 35
-1.659859 3.891451 -2.532701 182 4 255
-2.458724 4.016859 -1.484648 255 4 255
-1.751645 3.586052 -1.894033 255 4 255
-2.754248 3.470571 -3.147114 255 4 255
-1.914495 3.285014 -2.810159 255 4 255
-2.508440 4.229582 -2.492966 0 4 0
-3.408881 4.136674 -2.302372 0 4 0
-3.230191 3.809148 -1.659105 255 4 216
-3.407210 3.481920 -2.654921 255 4 0
-1.840990 3.582264 -2.398976 0 59 255
-2.064929 2.949795 -2.979495 255 59 255
-2.750465 3.435065 -3.762069 255 59 255
-3.291271 3.814419 -1.657606 255 59 255
-2.362944 3.158845 -1.819800 255 59 255
-2.726345 4.208122 -2.739313 0 59 0
-3.831217 4.308008 -3.041248 0 59 0
-3.741850 3.559287 -3.575709 255 59 0
-4.065795 3.786517 -2.315135 255 59 0
-1.545564 4.162354 -2.342638 88 46 255
-1.603298 4.033575 -2.396013 255 46 255
-1.762542 4.080054 -2.498950 255 46 255
-1.742436 4.229793 -2.155610 255 46 255
-1.592218 4.116090 -2.206811 255 46 255
-1.715332 4.250227 -2.371021 72 46 38
-1.910570 4.252727 -2.360677 79 46 0
-1.913762 4.107091 -2.419717 255 46 57
-1.901718 4.196785 -2.214056 255 46 57
-1.315005 4.378419 -2.564441 116 136 255
-1.220393 4.151940 -1.412244 255 136 255
-0.970848 4.006031 -2.181733 255 136 255
-2.368577 3.862362 -2.457324 255 136 255
-1.603570 3.846456 -2.757640 255 136 255
-1.871580 4.467189 -1.977553 0 136 0
-2.340493 4.156698 -1.376346 179 136 15
-1.814843 3.826170 -1.147429 255 136 0
-2.502605 3.652710 -1.773431 255 136 0
-3.109238 4.501916 -3.037596 0 194 255
-2.471464 3.836153 -3.859806 255 194 255
-2.463197 4.659683 -5.229693 255 194 255
-5.215800 4.302938 -3.915300 255 194 255
-3.988322 3.639567 -3.135487 255 194 255
-3.778088 5.317619 -4.216907 0 194 0
-4.474157 5.382433 -5.657023 0 194 0
-3.564910 4.595648 -6.115552 255 194 0
-5.213720 4.381954 -5.328233 255 194 0
-2.736234 4.599263 -3.603187 0 163 255
-1.734848 3.458722 -4.161477 255 163 255
-2.785970 3.855168 -4.055289 255 163 255
-2.324863 4.017478 -2.151428 255 163 255
-3.111107 4.163082 -2.947625 255 163 255
-1.728269 4.301898 -3.224653 0 163 0
-1.018432 3.530779 -2.801935 0 163 0
-1.311357 2.935923 -3.422958 255 163 0
-1.664776 3.270615 -2.218939 255 163 0
-2.641135 4.526854 -3.874712 0 126 255
-3.296022 3.746833 -3.774143 255 126 255
-4.156169 4.078273 -2.823416 255 126 255
-1.699361 4.378366 -2.233737 255 126 255
-1.942163 3.912206 -3.449195 255 126 255
-2.979807 4.964410 -2.686358 0 126 0
-3.260724 4.751802 -1.407759 0 126 0
-3.881486 3.933273 -1.692900 255 126 0
-2.409858 4.113024 -1.339681 255 126 47
-2.632389 4.758843 -3.783762 0 250 255
-2.581760 3.999483 -1.518746 255 250 255
-1.911669 3.987024 -3.045371 255 250 255
-4.628591 3.452826 -3.921586 255 250 255
-3.039602 3.685786 -4.369493 255 250 255
-3.871703 4.637876 -2.700547 0 250 0
-4.834194 3.737012 -1.675712 0 250 0
-3.734169 3.135099 -1.196719 255 250 20
-4.960219 2.807648 -2.636019 255 250 0
-2.590131 4.942977 -3.203679 0 47 255
-1.480488 4.252244 -3.852818 255 47 255
-2.104391 3.646571 -5.529006 255 47 255
-4.213966 2.839979 -2.689549 255 47 255
-2.642999 3.807765 -2.288095 255 47 255
-3.794219 4.079787 -4.343459 0 47 0
-4.405730 2.529851 -5.238063 0 47 0
-2.974624 2.224252 -5.650083 255 47 0
-4.238257 1.741099 -3.949249 255 47 0
-3.723564 4.891037 -3.133488 0 17 255
-6.085161 4.281614 -2.558123 255 17 255
-4.374680 4.123817 -2.231507 255 17 255
-4.161157 3.573265 -5.219531 255 17 255
-3.314428 3.733476 -3.698112 255 17 255
-5.126431 4.889711 -4.147306 0 17 0
-6.472740 4.060406 -4.899865 0 17 0
-6.756498 3.438385 -3.669310 255 17 0
-5.604021 3.014079 -5.263493 255 17 0
-3.670293 4.675811 -3.752831 0 84 255
-4.841630 3.974997 -4.415420 255 84 255
-6.475935 4.628945 -3.546100 255 84 255
-3.748967 3.462026 -1.215684 255 84 255
-3.338893 3.331954 -3.131213 255 84 255
-4.791826 5.105917 -2.225083 0 84 0
-6.146291 4.607050 -0.889936 0 84 0
-7.009496 3.948172 -2.038436 255 84 0
-5.376045 3.249184 -0.642517 255 84 0
1.577422 6.858133 -0.295755 0 193 255
3.258024 5.500081 -0.982354 255 193 255
3.110348 5.349809 -3.908306 255 193 255
-1.733055 4.421722 -1.178992 255 193 255
0.589000 4.988654 0.521677 255 193 255
0.222547 6.464677 -2.833887 0 193 0
-0.679346 4.727650 -5.025037 0 193 0
1.455174 3.717672 -5.066749 255 193 0
-1.446022 3.161741 -3.431889 255 193 0
1.722937 7.239282 -1.088690 0 179 255
0.785418 5.653229 1.789811 255 179 255
2.401997 5.973682 0.066231 255 179 255
-0.826727 5.449322 -2.494233 255 179 255
1.513604 5.861322 -2.294552 255 179 255
-0.447796 6.837461 -0.252689 0 179 0
-2.167816 5.344278 0.465648 0 179 0
-0.866396 4.372977 1.489815 255 179 0
-1.832069 4.250829 -1.076328 255 179 8
0.834304 6.802007 -0.865120 0 253 255
0.403389 5.490962 0.398121 255 253 255
2.473123 4.417377 1.049119 255 253 255
1.758363 4.784694 -3.532156 255 253 255
0.009511 5.693384 -2.126454 255 253 255
2.929151 5.714541 -1.279145 0 253 0
4.243813 3.710570 -1.644930 0 253 0
3.320012 2.859490 -0.154727 255 253 0
2.891869 3.079507 -2.898910 255 253 0
1.452402 7.471438 -1.903876 0 19 255
3.221277 5.750116 1.341521 255 19 255
2.768091 5.764772 -1.467094 255 19 255
-2.007788 6.148249 -0.200712 255 19 255
-0.113457 5.984178 -2.316968 255 19 255
0.661802 7.553402 0.797874 0 19 0
-0.145886 6.251804 3.200385 0 19 0
1.535710 4.724518 2.907214 255 19 0
-1.596500 4.962993 1.983417 255 19 0
1.363559 7.310414 -1.336731 0 2 255
0.517858 6.182436 -2.011737 255 2 255
-0.993472 5.730234 -0.746136 255 2 255
2.553201 5.810664 0.839706 255 2 255
2.472302 6.226763 -1.137839 255 2 255
0.578834 6.834069 0.442435 0 2 0
-0.002843 5.460733 1.812988 0 2 0
-0.728729 4.612660 0.627598 255 2 0
1.395729 4.660833 1.577516 255 2 0
0.729454 7.191214 -1.316734 0 180 255
3.364087 5.532554 -1.394835 255 180 255
1.242873 5.681079 -1.842377 255 180 255
0.940952 6.789632 1.764266 255 180 255
-0.092432 6.373815 -0.101515 255 180 255
2.460044 7.337847 -0.047661 0 180 0
3.859713 6.466271 1.372752 0 180 0
3.961462 5.039064 0.366089 255 180 0
2.510004 5.792048 2.258392 255 180 0
1.909686 7.923162 -0.800902 0 11 255
-2.225224 6.666512 0.434905 255 11 255
0.880851 6.323240 0.701490 255 11 255
0.783198 6.110482 -4.756801 255 11 255
2.538689 6.016840 -2.159469 255 11 255
-0.757335 8.162848 -2.372026 0 11 0
-3.290931 6.866530 -3.701327 0 11 0
-3.609810 5.444923 -1.638988 255 11 0
-1.807766 5.111853 -4.748819 255 11 0
1.137943 7.712641 -1.574413 0 87 255
2.669516 7.321260 0.619239 255 87 255
1.844831 6.615671 -0.923982 255 87 255
-0.843467 8.121057 0.219531 255 87 255
-0.091046 7.056413 -1.144252 255 87 255
1.177586 8.683776 0.020349 0 87 0
0.988058 8.789380 1.897385 0 87 0
1.802595 7.514587 2.033864 255 87 0
-0.301683 7.993661 1.794442 255 87 0
1.540675 8.964121 -0.225854 0 47 255
1.791999 7.109114 -2.177412 255 47 255
-1.436113 6.307558 -3.263602 255 47 255
-0.492746 6.147890 3.390856 255 47 255
2.311858 7.021137 1.489620 255 47 255
-1.768829 8.045333 0.221273 0 47 0
-4.259367 5.597700 0.515616 0 47 0
-3.161062 4.259055 -1.706418 255 47 0
-2.595982 4.163404 2.279601 255 47 0
0.390643 8.835530 0.008576 0 58 255
1.825699 9.018078 0.098945 255 58 255
1.040716 8.446749 -0.184306 255 58 255
0.460261 8.739209 1.453136 255 58 255
0.288270 8.293075 0.561938 255 58 255
0.915633 9.393703 0.652871 0 58 0
1.616142 9.487288 1.378470 0 58 0
2.113846 9.008924 0.946673 255 58 0
1.295950 8.841880 1.757834 255 58 0
0.299559 9.459300 0.163019 69 107 255
0.704355 9.004461 0.605893 255 107 255
1.615751 9.348449 0.615422 255 107 255
0.849710 9.138753 -1.079521 255 107 255
0.282216 8.888907 -0.328129 255 107 255
1.110867 9.785071 -0.243962 0 107 0
1.995959 9.632431 -0.625101 0 107 0
2.163556 9.158431 -0.023107 255 107 0
1.704699 9.032821 -1.038378 255 107 0
0.478409 10.172527 0.255797 0 155 255
1.028596 9.487479 1.850044 255 155 255
1.200626 9.601785 0.596795 255 155 255
-0.938663 9.050850 0.473452 255 155 255
0.116541 9.361177 -0.161797 255 155 255
-0.194843 9.939575 1.291814 0 155 0
-0.635948 9.138663 2.176221 0 155 0
0.300204 8.736175 2.261821 255 155 0
-0.878183 8.474629 1.437242 255 155 0
0.485175 9.584669 0.194719 145 148 255
0.586077 9.550880 0.155279 255 148 255
0.651743 9.668796 0.097442 255 148 255
0.386323 9.623708 0.013089 255 148 255
0.439813 9.526034 0.108795 255 148 255
0.491854 9.702938 0.110485 69 148 96
0.521665 9.767899 -0.018038 137 148 26
0.623348 9.707828 -0.023268 255 148 119
0.464361 9.680820 -0.073796 255 148 119
0.310458 9.548217 0.029974 152 117 255
1.340744 9.242054 -0.314104 255 117 255
0.584598 9.055174 -0.198348 255 117 255
0.786788 9.580418 1.052565 255 117 255
0.279331 9.241634 0.554773 255 117 255
1.003662 9.836593 0.239557 0 117 0
1.722029 9.747904 0.552693 0 117 0
1.796936 9.218169 0.212552 255 117 3
1.465117 9.420848 1.031187 255 117 0
-2.915453 6.193728 2.519925 156 4 255
0.077072 6.043105 2.417662 255 4 255
-1.777809 5.200205 1.943246 255 4 255
-2.531963 5.768412 5.462782 255 4 255
-3.215558 5.048836 3.621299 255 4 255
-1.522862 7.050890 3.790410 0 4 0
0.070585 6.889835 5.141136 0 4 0
0.820645 5.802115 4.096722 255 4 0
-0.742165 5.637569 5.920749 255 4 0
-3.205047 6.380934 3.224713 0 161 255
-4.843554 5.881870 1.170011 255 161 255
-4.277911 5.472600 2.901010 255 161 255
-1.306289 5.458405 1.581776 255 161 255
-2.328652 5.239247 3.127923 255 161 255
-2.954494 6.725683 1.426893 0 161 0
-2.817168 6.148933 -0.345939 0 161 0
-4.032740 5.289252 -0.142300 255 161 0
-1.913919 5.035592 0.104346 255 161 0
-3.170749 6.522610 2.808313 0 233 255
-2.031648 5.410120 1.045234 255 233 255
-3.460324 5.805242 1.787167 255 233 255
-2.141266 4.882242 4.184174 255 233 255
-3.520731 5.514352 3.516925 255 233 255
-1.630224 5.959077 2.767342 0 233 0
-0.541302 4.717639 2.596596 0 233 0
-1.222165 4.287176 1.532580 255 233 0
-1.287828 3.970973 3.412804 255 233 0
-3.650935 6.555897 3.029568 0 93 255
-2.894273 5.657334 2.371060 255 93 255
-3.017455 6.026773 0.672639 255 93 255
-5.925303 5.809630 2.317716 255 93 255
-4.496682 5.537678 3.277605 255 93 255
-4.502243 6.907758 1.571238 0 93 0
-5.294378 6.394631 0.103325 0 93 0
-4.220946 5.528912 -0.154238 255 93 0
-5.962748 5.398839 0.831162 255 93 0
-3.066826 6.434261 2.648029 0 193 255
-4.687637 6.237207 4.678358 255 193 255
-3.371968 5.506802 3.658344 255 193 255
-5.248613 6.291232 1.231182 255 193 255
-3.681098 5.536576 1.758729 255 193 255
-4.648521 7.248952 2.918193 0 193 0
-6.444640 7.185076 3.209483 0 193 0
-6.227211 6.146765 4.217853 255 193 0
-6.563238 6.179121 2.152995 255 193 0
-3.302506 6.486560 2.349350 0 36 255
-3.995115 5.577966 2.374144 255 36 255
-5.005859 5.827701 3.424048 255 36 255
-2.304311 6.237108 4.201882 255 36 255
-2.506389 5.803579 2.802776 255 36 255
-3.746134 6.861392 3.692860 0 36 0
-4.094421 6.508524 5.088250 0 36 0
-4.732987 5.589649 4.682051 255 36 0
-3.114759 5.834880 5.147975 255 36 0
-0.825352 6.724178 3.973826 10 82 255
1.271146 6.636878 6.039291 255 82 255
0.159007 5.657043 4.616703 255 82 255
-2.631704 7.188110 6.252191 255 82 255
-1.991712 5.960810 4.734018 255 82 255
-0.566335 7.934995 5.587108 0 82 0
-0.415289 8.219570 7.619287 0 82 0
0.601330 6.917808 7.706864 255 82 0
-1.736477 7.247992 7.834394 255 82 0
3 0 1 2
3 3 4 0
3 2 5 0
3 0 5 3
3 6 5 2
3 3 5 6
3 2 7 6
3 6 8 3
3 9 10 11
3 12 13 9
3 11 14 9
3 9 14 12
3 15 14 11
3 12 14 15
3 11 16 15
3 15 17 12
3 18 19 20
3 21 22 18
3 20 23 18
3 18 23 21
3 24 23 20
3 21 23 24
3 20 25 24
3 24 26 21
3 27 28 29
3 30 31 27
3 29 32 27
3 27 32 30
3 33 32 29
3 30 32 33
3 29 34 33
3 33 35 30
3 36 37 38
3 39 36 40
3 37 36 41
3 36 39 41
3 42 37 41
3 39 42 41
3 37 42 43
3 42 39 44
3 45 46 47
3 48 49 45
3 47 50 45
3 45 50 48
3 51 50 47
3 48 50 51
3 47 52 51
3 51 53 48
3 54 55 56
3 57 54 58
3 55 54 59
3 54 57 59
3 60 55 59
3 57 60 59
3 55 60 61
3 60 57 62
3 63 64 65
3 66 67 63
3 65 68 63
3 63 68 66
3 69 68 65
3 66 68 69
3 65 70 69
3 69 71 66
3 72 73 74
3 75 72 76
3 73 72 77
3 72 75 77
3 78 73 77
3 75 78 77
3 73 78 79
3 78 75 80
3 81 82 83
3 84 85 81
3 83 86 81
3 81 86 84
3 87 86 83
3 84 86 87
3 83 88 87
3 87 89 84
3 90 91 92
3 93 90 94
3 91 90 95
3 90 93 95
3 96 91 95
3 93 96 95
3 91 96 97
3 96 93 98
3 99 100 101
3 102 103 99
3 101 104 99
3 99 104 102
3 105 104 101
3 102 104 105
3 101 106 105
3 105 107 102
3 108 109 110
3 111 112 108
3 110 113 108
3 108 113 111
3 114 113 110
3 111 113 114
3 110 115 114
3 114 116 111
3 117 118 119
3 120 117 121
3 118 117 122
3 117 120 122
3 123 118 122
3 120 123 122
3 118 123 124
3 123 120 125
3 126 127 128
3 129 130 126
3 128 131 126
3 126 131 129
3 132 131 128
3 129 131 132
3 128 133 132
3 132 134 129
3 135 136 137
3 138 135 139
3 136 135 140
3 135 138 140
3 141 136 140
3 138 141 140
3 136 141 142
3 141 138 143
3 144 145 146
3 147 148 144
3 146 149 144
3 144 149 147
3 150 149 146
3 147 149 150
3 146 151 150
3 150 152 147
3 153 154 155
3 156 153 157
3 154 153 158
3 153 156 158
3 159 154 158
3 156 159 158
3 154 159 160
3 159 156 161
3 162 163 164
3 165 166 162
3 164 167 162
3 162 167 165
3 168 167 164
3 165 167 168
3 164 169 168
3 168 170 165
3 171 172 173
3 174 171 175
3 172 171 176
3 171 174 176
3 177 172 176
3 174 177 176
3 172 177 178
3 177 174 179
3 180 181 182
3 183 184 180
3 182 185 180
3 180 185 183
3 186 185 182
3 183 185 186
3 182 187 186
3 186 188 183
3 189 190 191
3 192 193 189
3 191 194 189
3 189 194 192
3 195 194 191
3 192 194 195
3 191 196 195
3 195 197 192
3 198 199 200
3 201 198 202
3 199 198 203
3 198 201 203
3 204 199 203
3 201 204 203
3 199 204 205
3 204 201 206
3 207 208 209
3 210 211 207
3 209 212 207
3 207 212 210
3 213 212 209
3 210 212 213
3 209 214 213
3 213 215 210
3 216 217 218
3 219 216 220
3 217 216 221
3 216 219 221
3 222 217 221
3 219 222 221
3 217 222 223
3 222 219 224
3 225 226 227
3 228 229 225
3 227 230 225
3 225 230 228
3 231 230 227
3 228 230 231
3 227 232 231
3 231 233 228
3 234 235 236
3 237 234 238
3 235 234 239
3 234 237 239
3 240 235 239
3 237 240 239
3 235 240 241
3 240 237 242
3 243 244 245
3 246 243 247
3 244 243 248
3 243 246 248
3 249 244 248
3 246 249 248
3 244 249 250
3 249 246 251
3 252 253 254
3 255 252 256
3 253 252 257
3 252 255 257
3 258 253 257
3 255 258 257
3 253 258 259
3 258 255 260
3 261 262 263
3 264 265 261
3 263 266 261
3 261 266 264
3 267 266 263
3 264 266 267
3 263 268 267
3 267 269 264
3 270 271 272
3 273 270 274
3 271 270 275
3 270 273 275
3 276 271 275
3 273 276 275
3 271 276 277
3 276 273 278
3 279 280 281
3 282 283 279
3 281 284 279
3 279 284 282
3 285 284 281
3 282 284 285
3 281 286 285
3 285 287 282
3 288 289 290
3 291 288 292
3 289 288 293
3 288 291 293
3 294 289 293
3 291 294 293
3 289 294 295
3 294 291 296
3 297 298 299
3 300 301 297
3 299 302 297
3 297 302 300
3 303 302 299
3 300 302 303
3 299 304 303
3 303 305 300
3 306 307 308
3 309 306 310
3 307 306 311
3 306 309 311
3 312 307 311
3 309 312 311
3 307 312 313
3 312 309 314
3 315 316 317
3 318 315 319
3 316 315 320
3 315 318 320
3 321 316 320
3 318 321 320
3 316 321 322
3 321 318 323
3 324 325 326
3 327 324 328
3 325 324 329
3 324 327 329
3 330 325 329
3 327 330 329
3 325 330 331
3 330 327 332
3 333 334 335
3 336 333 337
3 334 333 338
3 333 336 338
3 339 334 338
3 336 339 338
3 334 339 340
3 339 336 341
3 342 343 344
3 345 346 342
3 344 347 342
3 342 347 345
3 348 347 344
3 345 347 348
3 344 349 348
3 348 350 345
3 351 352 353
3 354 351 355
3 352 351 356
3 351 354 356
3 357 352 356
3 354 357 356
3 352 357 358
3 357 354 359
3 360 361 362
3 363 364 360
3 362 365 360
3 360 365 363
3 366 365 362
3 363 365 366
3 362 367 366
3 366 368 363
3 369 370 371
3 372 369 373
3 370 369 374
3 369 372 374
3 375 370 374
3 372 375 374
3 370 375 376
3 375 372 377
