ply
format ascii 1.0
comment Created by Blender 2.78 (sub 0) - www.blender.org, source file: ''
element vertex 162
property float x
property float y
property float z
property float nx
property float ny
property float nz
property float s
property float t
property uchar red
property uchar green
property uchar blue
element face 144
property list uchar uint vertex_indices
end_header
-0.089030 6.829404 -0.323708 0.321726 0.895169 0.308420 0.498779 0.002441 0 47 255
-3.675962 5.501960 0.758096 -0.334117 0.673574 0.659261 0.998047 0.499512 255 47 255
-0.935917 5.098015 0.614052 0.110599 0.430952 0.895566 0.997070 0.000977 255 47 255
-1.474868 6.356821 -4.018926 0.178869 0.872799 -0.454054 0.001590 0.500244 255 47 255
0.277032 5.569104 -2.018389 0.678976 0.651692 -0.337992 0.000500 0.001953 255 47 255
-2.553280 7.483138 -1.342167 -0.068697 0.987030 0.144963 0.500000 0.500977 0 47 0
-4.942174 6.774836 -2.569644 -0.447584 0.893002 -0.046419 0.500977 0.999500 0 47 0
-5.111815 5.036479 -1.178606 -0.767327 0.444594 0.462020 0.999023 0.997690 255 47 0
-3.793362 5.548532 -4.040043 -0.222236 0.656301 -0.721000 0.002680 0.998780 255 47 0
0.431902 6.640660 -0.248666 0.180273 0.956053 -0.231178 0.498779 0.002441 0 10 255
-1.302408 5.475101 0.767301 -0.530869 0.845058 0.063265 0.997070 0.000977 255 10 255
-0.812866 5.560643 3.732302 -0.146031 0.871639 0.467849 0.998047 0.499512 255 10 255
3.695021 3.931050 0.509027 0.823145 0.521256 -0.225135 0.001590 0.500244 255 10 255
1.181725 4.577099 -1.008935 0.542985 0.456862 -0.704550 0.000500 0.001953 255 10 255
2.079236 6.333167 2.210656 0.416547 0.900113 0.127476 0.500000 0.500977 0 10 0
3.114328 4.671574 4.498326 0.575060 0.674154 0.463393 0.500977 0.999500 0 10 0
0.870709 3.846658 4.877897 -0.047884 0.522080 0.851527 0.999023 0.997690 255 10 0
3.570930 2.870524 2.947156 0.981964 0.149785 0.115116 0.002680 0.998780 255 10 0
1.211648 7.428849 0.785414 -0.407392 0.912290 -0.041169 0.498779 0.002441 38 210 255
1.054986 7.201987 0.739435 -0.936186 0.344859 -0.067904 0.998047 0.499512 255 210 255
1.178735 7.299107 0.854715 -0.772210 0.440443 0.457869 0.997070 0.000977 255 210 255
1.363698 7.332272 0.571692 0.086947 0.776635 -0.623859 0.001590 0.500244 255 210 255
1.348855 7.370903 0.762278 0.361400 0.918882 -0.158086 0.000500 0.001953 255 210 255
1.151903 7.354377 0.617617 -0.535813 0.735252 -0.415021 0.500000 0.500977 0 210 0
1.143873 7.207681 0.488902 -0.563616 0.418867 -0.711936 0.500977 0.999500 30 210 0
1.113557 7.108380 0.606691 -0.935789 -0.111118 -0.334513 0.999023 0.997690 255 210 12
1.298476 7.186419 0.506213 0.151402 0.347667 -0.925291 0.002680 0.998780 255 210 12
1.572278 7.031429 1.433834 -0.217780 0.857997 0.465133 0.498779 0.002441 0 189 255
3.162061 5.342867 1.702785 0.347392 0.457442 0.818537 0.997070 0.000977 255 189 255
5.630433 6.190530 0.181400 0.545640 0.745628 0.382458 0.998047 0.499512 255 189 255
0.639063 6.519626 -2.762776 -0.522324 0.816034 -0.247444 0.001590 0.500244 255 189 255
0.411493 5.524227 0.080361 -0.835871 0.535478 0.120548 0.000500 0.001953 255 189 255
3.051253 8.042518 -0.960513 -0.002167 0.993378 0.114719 0.500000 0.500977 0 189 0
4.545419 7.562838 -3.547246 0.214606 0.941832 -0.258583 0.500977 0.999500 0 189 0
5.807384 5.792233 -2.457431 0.822718 0.567583 -0.030488 0.999023 0.997690 255 189 0
2.817554 5.989354 -4.220994 -0.312113 0.642415 -0.699881 0.002680 0.998780 255 189 0
1.155349 8.429868 0.662843 -0.802759 0.336161 -0.492477 0.498779 0.002441 0 219 255
3.898787 10.048356 0.565890 -0.156529 0.729514 -0.665761 0.998047 0.499512 255 219 255
2.802927 8.135939 0.272527 -0.180822 0.249550 -0.951292 0.997070 0.000977 255 219 255
1.400049 8.839587 3.813656 -0.882900 0.378155 0.278298 0.001590 0.500244 255 219 255
1.425956 7.469830 2.062250 -0.985626 -0.139744 0.094699 0.000500 0.001953 255 219 255
1.742320 10.230444 1.784589 -0.678304 0.684469 -0.267098 0.500000 0.500977 0 219 0
3.087358 11.285288 3.212019 -0.425428 0.904904 0.009461 0.500977 0.999500 0 219 0
4.501144 10.593557 2.359072 0.230567 0.906705 -0.353130 0.999023 0.997690 255 219 0
3.004405 9.869501 4.304486 -0.541246 0.533311 0.650075 0.002680 0.998780 255 219 0
-0.292980 6.191451 0.303017 0.328898 0.932218 -0.150945 0.498779 0.002441 22 187 255
-0.353014 6.010157 0.067566 0.095065 0.585742 -0.804865 0.998047 0.499512 255 187 255
-0.417262 6.100876 0.247537 -0.341014 0.784845 -0.517380 0.997070 0.000977 255 187 255
-0.099856 5.971956 0.383233 0.868618 0.469008 0.159642 0.001590 0.500244 255 187 255
-0.277756 6.079826 0.421490 0.516037 0.655507 0.551317 0.000500 0.001953 255 187 255
-0.160140 6.082507 0.183298 0.598193 0.696982 -0.395398 0.500000 0.500977 0 187 0
-0.089435 5.899043 0.104393 0.755608 0.329417 -0.566118 0.500977 0.999500 15 187 0
-0.250172 5.853675 0.071077 0.176519 0.094028 -0.979766 0.999023 0.997690 255 187 2
-0.098531 5.830792 0.260162 0.998505 -0.029969 0.045137 0.002680 0.998780 255 187 2
-0.732834 8.554905 1.361764 0.927030 0.052278 -0.371227 0.498779 0.002441 0 143 255
-2.315156 8.506781 0.705465 0.383435 -0.013581 -0.923460 0.997070 0.000977 255 143 255
-2.963904 10.605753 0.405168 0.426862 0.514023 -0.743980 0.998047 0.499512 255 143 255
-1.372095 9.707228 4.253520 0.890896 0.252083 0.377789 0.001590 0.500244 255 143 255
-1.437961 8.011633 2.826150 0.897549 -0.303781 0.319468 0.000500 0.001953 255 143 255
-1.052602 10.636577 1.980068 0.853236 0.460128 -0.245491 0.500000 0.500977 0 143 0
-2.319914 12.225388 2.875234 0.618152 0.782617 -0.072939 0.500977 0.999500 0 143 0
-3.697872 11.648391 1.897871 0.047151 0.829615 -0.556291 0.999023 0.997690 255 143 0
-2.744384 11.110174 4.203036 0.540239 0.551317 0.635731 0.002680 0.998780 255 143 0
0.247788 7.702774 -0.234970 -0.174963 0.964629 0.197150 0.498779 0.002441 72 6 255
0.194710 7.612580 -0.311812 -0.630543 0.683828 -0.367107 0.997070 0.000977 255 6 255
0.068532 7.542296 -0.226014 -0.826044 0.546342 0.138218 0.998047 0.499512 255 6 255
0.349979 7.561282 -0.069129 0.256813 0.619404 0.741844 0.001590 0.500244 255 6 255
0.349805 7.623043 -0.225358 0.569262 0.764763 0.301675 0.000500 0.001953 255 6 255
0.178664 7.630335 -0.102196 -0.351909 0.765465 0.538682 0.500000 0.500977 2 6 19
0.138511 7.493083 -0.013554 -0.463088 0.421186 0.779809 0.500977 0.999500 62 6 0
0.095018 7.434240 -0.127303 -0.942991 0.066713 0.326029 0.999023 0.997690 255 6 41
0.263605 7.445612 -0.033329 0.207678 0.144322 0.967467 0.002680 0.998780 255 6 41
0.114068 7.932812 0.454605 0.157018 0.757347 0.633808 0.498779 0.002441 0 248 255
1.030537 6.121936 0.057642 0.642048 0.160588 0.749626 0.997070 0.000977 255 248 255
2.980121 6.594044 -1.713336 0.813685 0.481674 0.325419 0.998047 0.499512 255 248 255
-1.622439 8.548632 -2.908707 -0.298074 0.953825 0.036653 0.001590 0.500244 255 248 255
-1.505768 7.199043 -0.601077 -0.589770 0.683737 0.429701 0.000500 0.001953 255 248 255
1.119592 8.932179 -1.782892 0.318644 0.910794 0.262429 0.500000 0.500977 0 248 0
1.707331 8.722262 -4.389123 0.420728 0.892972 -0.159795 0.500977 0.999500 0 248 0
2.495992 6.750456 -4.027119 0.925260 0.338725 -0.170690 0.999023 0.997690 255 248 0
-0.260943 7.921247 -4.743150 -0.256111 0.840419 -0.477523 0.002680 0.998780 255 248 0
0.333279 7.696589 0.418659 0.787866 0.360424 0.499313 0.498779 0.002441 0 217 255
0.058138 6.600711 -1.287460 0.990844 -0.082644 -0.106693 0.997070 0.000977 255 217 255
-0.017278 8.307823 -3.310019 0.858791 0.435438 -0.269875 0.998047 0.499512 255 217 255
-3.031229 9.438801 0.629284 0.123020 0.711539 0.691763 0.001590 0.500244 255 217 255
-1.602736 7.223952 0.883353 0.175604 0.223243 0.958800 0.000500 0.001953 255 217 255
-0.491756 9.848147 -0.830285 0.642872 0.709677 0.288095 0.500000 0.500977 0 217 0
-2.173642 11.078440 -2.470308 0.376080 0.926298 0.021790 0.500977 0.999500 0 217 0
-1.995965 9.450147 -3.834592 0.505997 0.585711 -0.633137 0.999023 0.997690 255 217 0
-3.801326 10.127600 -1.474953 -0.275826 0.879086 0.388684 0.002680 0.998780 255 217 0
0.569730 9.608984 0.420409 -0.897122 -0.135868 -0.420331 0.498779 0.002441 0 202 255
1.071198 9.859355 1.794556 -0.931516 -0.080508 0.354595 0.997070 0.000977 255 202 255
1.016340 11.757243 2.081442 -0.897946 0.424268 0.116825 0.998047 0.499512 255 202 255
2.645822 10.666823 -1.043951 -0.349437 0.057222 -0.935179 0.001590 0.500244 255 202 255
1.969141 9.258460 0.072262 -0.323801 -0.487197 -0.811029 0.000500 0.001953 255 202 255
0.910859 11.422770 -0.034552 -0.809107 0.276711 -0.518387 0.500000 0.500977 0 202 0
2.030766 12.985732 0.004027 -0.568133 0.638600 -0.518998 0.500977 0.999500 0 202 0
2.270287 12.755089 1.513817 -0.548540 0.809137 0.210608 0.999023 0.997690 255 202 0
3.246351 12.101926 -0.358291 0.034303 0.419111 -0.907254 0.002680 0.998780 255 202 0
-1.055942 4.301394 -0.133005 0.667135 0.740715 -0.078860 0.498779 0.002441 0 106 255
-1.829545 3.064951 -1.307369 0.574969 0.344890 -0.741905 0.997070 0.000977 255 106 255
-3.759932 4.136490 -2.305250 0.167364 0.721091 -0.672292 0.998047 0.499512 255 106 255
-3.496379 4.393211 2.335449 0.237678 0.789575 0.565722 0.001590 0.500244 255 106 255
-1.684304 3.206424 1.249953 0.652852 0.420789 0.629810 0.000500 0.001953 255 106 255
-3.109031 5.540294 -0.084940 0.290475 0.954344 -0.069277 0.500000 0.500977 0 106 0
-5.530171 5.634220 0.047366 -0.142338 0.988708 -0.046602 0.500977 0.999500 0 106 0
-5.635380 4.195524 -1.265700 -0.355174 0.644185 -0.677358 0.999023 0.997690 255 106 0
-5.477515 4.349295 1.514080 -0.280465 0.716971 0.638173 0.002680 0.998780 255 106 0
-0.681553 5.626897 0.309974 -0.184271 0.648823 0.738273 0.498779 0.002441 0 117 255
-3.513150 5.167526 -2.981987 -0.790429 0.553087 0.263161 0.998047 0.499512 255 117 255
-1.876711 3.896111 -0.748565 -0.760338 0.136692 0.634938 0.997070 0.000977 255 117 255
2.153008 6.632785 -2.855380 0.411634 0.863948 0.290017 0.001590 0.500244 255 117 255
1.245704 4.703567 -0.678788 0.571520 0.481124 0.664693 0.000500 0.001953 255 117 255
-1.081551 7.382738 -2.109330 -0.239174 0.891812 0.383953 0.500000 0.500977 0 117 0
-1.120755 7.795559 -5.132397 -0.249184 0.967437 -0.044069 0.500977 0.999500 0 117 0
-2.387038 5.708551 -5.372654 -0.810877 0.522355 -0.263741 0.999023 0.997690 255 117 0
1.006992 6.586235 -5.296822 0.466445 0.852687 -0.235206 0.002680 0.998780 255 117 0
1.091051 6.630088 -0.212572 -0.457533 0.706442 -0.539964 0.498779 0.002441 0 105 255
5.152658 7.350008 1.449822 0.285134 0.875149 -0.390851 0.998047 0.499512 255 105 255
3.245808 5.577439 -0.238793 0.243446 0.518754 -0.819483 0.997070 0.000977 255 105 255
-0.037496 5.966367 4.037650 -0.795923 0.586963 0.148167 0.001590 0.500244 255 105 255
0.385696 4.814968 1.187258 -0.954344 0.199438 -0.222236 0.000500 0.001953 255 105 255
1.904978 8.234153 2.277496 -0.337962 0.922910 -0.184362 0.500000 0.500977 0 105 0
3.249287 8.420658 5.073367 -0.154180 0.966033 0.207251 0.500977 0.999500 0 105 0
5.201607 7.137255 4.188506 0.565416 0.823023 0.053804 0.999023 0.997690 255 105 0
2.092708 6.308447 5.738618 -0.583331 0.516770 0.626606 0.002680 0.998780 255 105 0
-1.394002 8.266186 0.202575 -0.132511 0.780084 -0.611438 0.498779 0.002441 0 33 255
-2.579647 6.503934 0.788693 -0.715018 0.266030 -0.646474 0.997070 0.000977 255 33 255
-4.248457 7.295899 2.960272 -0.769860 0.604389 -0.204901 0.998047 0.499512 255 33 255
1.051182 8.587990 3.460153 0.431684 0.897336 -0.091586 0.001590 0.500244 255 33 255
0.340793 7.215963 1.064152 0.616260 0.590625 -0.520920 0.000500 0.001953 255 33 255
-1.919786 9.453332 2.708318 -0.211158 0.951964 -0.221717 0.500000 0.500977 0 33 0
-2.149083 9.294458 5.549945 -0.250282 0.944823 0.211219 0.500977 0.999500 0 33 0
-3.349283 7.351751 5.318106 -0.826289 0.474197 0.303873 0.999023 0.997690 255 33 0
-0.174797 8.125706 5.617538 0.450453 0.785485 0.424299 0.002680 0.998780 255 33 0
-1.138643 7.478283 0.898549 0.010407 0.829127 -0.558916 0.498779 0.002441 0 242 255
-2.693179 6.249664 1.872275 -0.709159 0.582537 -0.397107 0.997070 0.000977 255 242 255
-3.189337 7.396756 4.441010 -0.492508 0.869747 0.030732 0.998047 0.499512 255 242 255
2.088732 6.510011 3.223963 0.701743 0.669088 -0.244606 0.001590 0.500244 255 242 255
0.215375 5.761015 1.201597 0.614063 0.360240 -0.702231 0.000500 0.001953 255 242 255
-0.383122 8.518461 3.417196 0.125340 0.977660 -0.168615 0.500000 0.500977 0 242 0
0.199596 8.172049 6.196711 0.217078 0.942259 0.254860 0.500977 0.999500 0 242 0
-1.682149 6.865691 6.401328 -0.441816 0.720206 0.534806 0.999023 0.997690 255 242 0
1.479413 6.334524 5.672320 0.827204 0.507004 0.242195 0.002680 0.998780 255 242 0
0.148029 6.523232 1.296742 0.504105 0.655965 0.561724 0.498779 0.002441 0 211 255
-4.933348 6.971332 0.714711 -0.265419 0.734397 0.624653 0.998047 0.499512 255 211 255
-2.112871 4.959478 1.626386 -0.080447 0.315622 0.945433 0.997070 0.000977 255 211 255
0.240598 6.881967 -3.824072 0.668081 0.718253 -0.194250 0.001590 0.500244 255 211 255
0.738310 4.910235 -0.874765 0.953856 0.297769 0.038087 0.000500 0.001953 255 211 255
-1.672308 8.708596 -0.821366 0.276986 0.913541 0.297769 0.500000 0.500977 0 211 0
-4.002942 9.276884 -3.489342 -0.003174 0.999695 -0.023286 0.500977 0.999500 0 211 0
-5.761231 7.307208 -2.328563 -0.642079 0.723136 0.254463 0.999023 0.997690 255 211 0
-2.662042 7.253670 -5.047298 0.349864 0.706015 -0.615711 0.002680 0.998780 255 211 0
0.304360 8.145701 -0.011276 -0.318827 0.378796 0.868801 0.498779 0.002441 0 176 255
-1.078582 9.607220 -3.497194 -0.721671 0.641621 0.259743 0.998047 0.499512 255 176 255
-0.637859 7.399239 -1.818526 -0.900357 0.134800 0.413709 0.997070 0.000977 255 176 255
3.907469 9.176323 -1.479487 0.425855 0.542467 0.724113 0.001590 0.500244 255 176 255
2.109771 7.161788 -0.706632 0.371105 0.024934 0.928251 0.000500 0.001953 255 176 255
1.048787 10.462142 -1.356166 -0.199683 0.733146 0.650075 0.500000 0.500977 0 176 0
2.079339 11.768793 -3.623765 -0.042451 0.950468 0.307901 0.500977 0.999500 0 176 0
0.749401 10.491395 -4.932176 -0.557360 0.801630 -0.216071 0.999023 0.997690 255 176 0
3.736047 10.233284 -3.723576 0.662008 0.696249 0.277352 0.002680 0.998780 255 176 0
3 0 1 2
3 3 0 4
3 1 0 5
3 0 3 5
3 6 1 5
3 3 6 5
3 1 6 7
3 6 3 8
3 9 10 11
3 12 13 9
3 11 14 9
3 9 14 12
3 15 14 11
3 12 14 15
3 11 16 15
3 15 17 12
3 18 19 20
3 21 18 22
3 19 18 23
3 18 21 23
3 24 19 23
3 21 24 23
3 19 24 25
3 24 21 26
3 27 28 29
3 30 31 27
3 29 32 27
3 27 32 30
3 33 32 29
3 30 32 33
3 29 34 33
3 33 35 30
3 36 37 38
3 39 36 40
3 37 36 41
3 36 39 41
3 42 37 41
3 39 42 41
3 37 42 43
3 42 39 44
3 45 46 47
3 48 45 49
3 46 45 50
3 45 48 50
3 51 46 50
3 48 51 50
3 46 51 52
3 51 48 53
3 54 55 56
3 57 58 54
3 56 59 54
3 54 59 57
3 60 59 56
3 57 59 60
3 56 61 60
3 60 62 57
3 63 64 65
3 66 67 63
3 65 68 63
3 63 68 66
3 69 68 65
3 66 68 69
3 65 70 69
3 69 71 66
3 72 73 74
3 75 76 72
3 74 77 72
3 72 77 75
3 78 77 74
3 75 77 78
3 74 79 78
3 78 80 75
3 81 82 83
3 84 85 81
3 83 86 81
3 81 86 84
3 87 86 83
3 84 86 87
3 83 88 87
3 87 89 84
3 90 91 92
3 93 94 90
3 92 95 90
3 90 95 93
3 96 95 92
3 93 95 96
3 92 97 96
3 96 98 93
3 99 100 101
3 102 103 99
3 101 104 99
3 99 104 102
3 105 104 101
3 102 104 105
3 101 106 105
3 105 107 102
3 108 109 110
3 111 108 112
3 109 108 113
3 108 111 113
3 114 109 113
3 111 114 113
3 109 114 115
3 114 111 116
3 117 118 119
3 120 117 121
3 118 117 122
3 117 120 122
3 123 118 122
3 120 123 122
3 118 123 124
3 123 120 125
3 126 127 128
3 129 130 126
3 128 131 126
3 126 131 129
3 132 131 128
3 129 131 132
3 128 133 132
3 132 134 129
3 135 136 137
3 138 139 135
3 137 140 135
3 135 140 138
3 141 140 137
3 138 140 141
3 137 142 141
3 141 143 138
3 144 145 146
3 147 144 148
3 145 144 149
3 144 147 149
3 150 145 149
3 147 150 149
3 145 150 151
3 150 147 152
3 153 154 155
3 156 153 157
3 154 153 158
3 153 156 158
3 159 154 158
3 156 159 158
3 154 159 160
3 159 156 161
