ply
format ascii 1.0
comment Created by Blender 2.78 (sub 0) - www.blender.org, source file: ''
element vertex 432
property float x
property float y
property float z
property float nx
property float ny
property float nz
property float s
property float t
property uchar red
property uchar green
property uchar blue
element face 144
property list uchar uint vertex_indices
end_header
-0.089030 6.829404 -0.323708 0.110613 0.430956 0.895568 0.498779 0.002441 0 47 255
-3.675962 5.501960 0.758096 0.110613 0.430956 0.895568 0.998047 0.499512 255 47 255
-0.935917 5.098015 0.614052 0.110613 0.430956 0.895568 0.997070 0.000977 255 47 255
-1.474868 6.356821 -4.018926 0.678996 0.651708 -0.337995 0.001590 0.500244 255 47 255
-0.089030 6.829404 -0.323708 0.678996 0.651708 -0.337995 0.498779 0.002441 0 47 255
0.277032 5.569104 -2.018389 0.678996 0.651708 -0.337995 0.000500 0.001953 255 47 255
-3.675962 5.501960 0.758096 -0.076043 0.745293 0.662386 0.998047 0.499512 255 47 255
-0.089030 6.829404 -0.323708 -0.076043 0.745293 0.662386 0.498779 0.002441 0 47 255
-2.553280 7.483138 -1.342167 -0.076043 0.745293 0.662386 0.500000 0.500977 0 47 0
-0.089030 6.829404 -0.323708 0.341686 0.907531 -0.244209 0.498779 0.002441 0 47 255
-1.474868 6.356821 -4.018926 0.341686 0.907531 -0.244209 0.001590 0.500244 255 47 255
-2.553280 7.483138 -1.342167 0.341686 0.907531 -0.244209 0.500000 0.500977 0 47 0
-4.942174 6.774836 -2.569644 -0.462660 0.754919 0.464803 0.500977 0.999500 0 47 0
-3.675962 5.501960 0.758096 -0.462660 0.754919 0.464803 0.998047 0.499512 255 47 255
-2.553280 7.483138 -1.342167 -0.462660 0.754919 0.464803 0.500000 0.500977 0 47 0
-1.474868 6.356821 -4.018926 -0.060605 0.911070 -0.407773 0.001590 0.500244 255 47 255
-4.942174 6.774836 -2.569644 -0.060605 0.911070 -0.407773 0.500977 0.999500 0 47 0
-2.553280 7.483138 -1.342167 -0.060605 0.911070 -0.407773 0.500000 0.500977 0 47 0
-3.675962 5.501960 0.758096 -0.767353 0.444615 0.462047 0.998047 0.499512 255 47 255
-4.942174 6.774836 -2.569644 -0.767353 0.444615 0.462047 0.500977 0.999500 0 47 0
-5.111815 5.036479 -1.178606 -0.767353 0.444615 0.462047 0.999023 0.997690 255 47 0
-4.942174 6.774836 -2.569644 -0.222244 0.656321 -0.721006 0.500977 0.999500 0 47 0
-1.474868 6.356821 -4.018926 -0.222244 0.656321 -0.721006 0.001590 0.500244 255 47 255
-3.793362 5.548532 -4.040043 -0.222244 0.656321 -0.721006 0.002680 0.998780 255 47 0
0.431902 6.640660 -0.248666 -0.530880 0.845082 0.063271 0.498779 0.002441 0 10 255
-1.302408 5.475101 0.767301 -0.530880 0.845082 0.063271 0.997070 0.000977 255 10 255
-0.812866 5.560643 3.732302 -0.530880 0.845082 0.063271 0.998047 0.499512 255 10 255
3.695021 3.931050 0.509027 0.542986 0.456884 -0.704573 0.001590 0.500244 255 10 255
1.181725 4.577099 -1.008935 0.542986 0.456884 -0.704573 0.000500 0.001953 255 10 255
0.431902 6.640660 -0.248666 0.542986 0.456884 -0.704573 0.498779 0.002441 0 10 255
-0.812866 5.560643 3.732302 -0.143736 0.965531 0.217001 0.998047 0.499512 255 10 255
2.079236 6.333167 2.210656 -0.143736 0.965531 0.217001 0.500000 0.500977 0 10 0
0.431902 6.640660 -0.248666 -0.143736 0.965531 0.217001 0.498779 0.002441 0 10 255
0.431902 6.640660 -0.248666 0.645491 0.680228 -0.347321 0.498779 0.002441 0 10 255
2.079236 6.333167 2.210656 0.645491 0.680228 -0.347321 0.500000 0.500977 0 10 0
3.695021 3.931050 0.509027 0.645491 0.680228 -0.347321 0.001590 0.500244 255 10 255
3.114328 4.671574 4.498326 0.076455 0.822863 0.563073 0.500977 0.999500 0 10 0
2.079236 6.333167 2.210656 0.076455 0.822863 0.563073 0.500000 0.500977 0 10 0
-0.812866 5.560643 3.732302 0.076455 0.822863 0.563073 0.998047 0.499512 255 10 255
3.695021 3.931050 0.509027 0.836067 0.548265 0.019927 0.001590 0.500244 255 10 255
2.079236 6.333167 2.210656 0.836067 0.548265 0.019927 0.500000 0.500977 0 10 0
3.114328 4.671574 4.498326 0.836067 0.548265 0.019927 0.500977 0.999500 0 10 0
-0.812866 5.560643 3.732302 -0.047900 0.522101 0.851538 0.998047 0.499512 255 10 255
0.870709 3.846658 4.877897 -0.047900 0.522101 0.851538 0.999023 0.997690 255 10 0
3.114328 4.671574 4.498326 -0.047900 0.522101 0.851538 0.500977 0.999500 0 10 0
3.114328 4.671574 4.498326 0.981991 0.149793 0.115136 0.500977 0.999500 0 10 0
3.570930 2.870524 2.947156 0.981991 0.149793 0.115136 0.002680 0.998780 255 10 0
3.695021 3.931050 0.509027 0.981991 0.149793 0.115136 0.001590 0.500244 255 10 255
1.211648 7.428849 0.785414 -0.772228 0.440470 0.457875 0.498779 0.002441 38 210 255
1.054986 7.201987 0.739435 -0.772228 0.440470 0.457875 0.998047 0.499512 255 210 255
1.178735 7.299107 0.854715 -0.772228 0.440470 0.457875 0.997070 0.000977 255 210 255
1.363698 7.332272 0.571692 0.361416 0.918901 -0.158110 0.001590 0.500244 255 210 255
1.211648 7.428849 0.785414 0.361416 0.918901 -0.158110 0.498779 0.002441 38 210 255
1.348855 7.370903 0.762278 0.361416 0.918901 -0.158110 0.000500 0.001953 255 210 255
1.054986 7.201987 0.739435 -0.826273 0.561469 0.045005 0.998047 0.499512 255 210 255
1.211648 7.428849 0.785414 -0.826273 0.561469 0.045005 0.498779 0.002441 38 210 255
1.151903 7.354377 0.617617 -0.826273 0.561469 0.045005 0.500000 0.500977 0 210 0
1.211648 7.428849 0.785414 0.006892 0.913088 -0.407705 0.498779 0.002441 38 210 255
1.363698 7.332272 0.571692 0.006892 0.913088 -0.407705 0.001590 0.500244 255 210 255
1.151903 7.354377 0.617617 0.006892 0.913088 -0.407705 0.500000 0.500977 0 210 0
1.143873 7.207681 0.488902 -0.894801 0.321132 -0.310169 0.500977 0.999500 30 210 0
1.054986 7.201987 0.739435 -0.894801 0.321132 -0.310169 0.998047 0.499512 255 210 255
1.151903 7.354377 0.617617 -0.894801 0.321132 -0.310169 0.500000 0.500977 0 210 0
1.363698 7.332272 0.571692 -0.092901 0.659554 -0.745894 0.001590 0.500244 255 210 255
1.143873 7.207681 0.488902 -0.092901 0.659554 -0.745894 0.500977 0.999500 30 210 0
1.151903 7.354377 0.617617 -0.092901 0.659554 -0.745894 0.500000 0.500977 0 210 0
1.054986 7.201987 0.739435 -0.935805 -0.111131 -0.334542 0.998047 0.499512 255 210 255
1.143873 7.207681 0.488902 -0.935805 -0.111131 -0.334542 0.500977 0.999500 30 210 0
1.113557 7.108380 0.606691 -0.935805 -0.111131 -0.334542 0.999023 0.997690 255 210 12
1.143873 7.207681 0.488902 0.151424 0.347690 -0.925301 0.500977 0.999500 30 210 0
1.363698 7.332272 0.571692 0.151424 0.347690 -0.925301 0.001590 0.500244 255 210 255
1.298476 7.186419 0.506213 0.151424 0.347690 -0.925301 0.002680 0.998780 255 210 12
1.572278 7.031429 1.433834 0.347415 0.457469 0.818550 0.498779 0.002441 0 189 255
3.162061 5.342867 1.702785 0.347415 0.457469 0.818550 0.997070 0.000977 255 189 255
5.630433 6.190530 0.181400 0.347415 0.457469 0.818550 0.998047 0.499512 255 189 255
0.639063 6.519626 -2.762776 -0.835889 0.535492 0.120573 0.001590 0.500244 255 189 255
0.411493 5.524227 0.080361 -0.835889 0.535492 0.120573 0.000500 0.001953 255 189 255
1.572278 7.031429 1.433834 -0.835889 0.535492 0.120573 0.498779 0.002441 0 189 255
5.630433 6.190530 0.181400 0.326034 0.781784 0.531522 0.998047 0.499512 255 189 255
3.051253 8.042518 -0.960513 0.326034 0.781784 0.531522 0.500000 0.500977 0 189 0
1.572278 7.031429 1.433834 0.326034 0.781784 0.531522 0.498779 0.002441 0 189 255
1.572278 7.031429 1.433834 -0.543625 0.839123 0.018552 0.498779 0.002441 0 189 255
3.051253 8.042518 -0.960513 -0.543625 0.839123 0.018552 0.500000 0.500977 0 189 0
0.639063 6.519626 -2.762776 -0.543625 0.839123 0.018552 0.001590 0.500244 255 189 255
4.545419 7.562838 -3.547246 0.531114 0.833515 0.152220 0.500977 0.999500 0 189 0
3.051253 8.042518 -0.960513 0.531114 0.833515 0.152220 0.500000 0.500977 0 189 0
5.630433 6.190530 0.181400 0.531114 0.833515 0.152220 0.998047 0.499512 255 189 255
0.639063 6.519626 -2.762776 -0.305913 0.888703 -0.341503 0.001590 0.500244 255 189 255
3.051253 8.042518 -0.960513 -0.305913 0.888703 -0.341503 0.500000 0.500977 0 189 0
4.545419 7.562838 -3.547246 -0.305913 0.888703 -0.341503 0.500977 0.999500 0 189 0
5.630433 6.190530 0.181400 0.822732 0.567611 -0.030504 0.998047 0.499512 255 189 255
5.807384 5.792233 -2.457431 0.822732 0.567611 -0.030504 0.999023 0.997690 255 189 0
4.545419 7.562838 -3.547246 0.822732 0.567611 -0.030504 0.500977 0.999500 0 189 0
4.545419 7.562838 -3.547246 -0.312118 0.642432 -0.699902 0.500977 0.999500 0 189 0
2.817554 5.989354 -4.220994 -0.312118 0.642432 -0.699902 0.002680 0.998780 255 189 0
0.639063 6.519626 -2.762776 -0.312118 0.642432 -0.699902 0.001590 0.500244 255 189 255
1.155349 8.429868 0.662843 -0.180849 0.249562 -0.951321 0.498779 0.002441 0 219 255
3.898787 10.048356 0.565890 -0.180849 0.249562 -0.951321 0.998047 0.499512 255 219 255
2.802927 8.135939 0.272527 -0.180849 0.249562 -0.951321 0.997070 0.000977 255 219 255
1.400049 8.839587 3.813656 -0.985645 -0.139755 0.094721 0.001590 0.500244 255 219 255
1.155349 8.429868 0.662843 -0.985645 -0.139755 0.094721 0.498779 0.002441 0 219 255
1.425956 7.469830 2.062250 -0.985645 -0.139755 0.094721 0.000500 0.001953 255 219 255
3.898787 10.048356 0.565890 -0.365154 0.575106 -0.732062 0.998047 0.499512 255 219 255
1.155349 8.429868 0.662843 -0.365154 0.575106 -0.732062 0.498779 0.002441 0 219 255
1.742320 10.230444 1.784589 -0.365154 0.575106 -0.732062 0.500000 0.500977 0 219 0
1.155349 8.429868 0.662843 -0.956631 0.288979 0.036717 0.498779 0.002441 0 219 255
1.400049 8.839587 3.813656 -0.956631 0.288979 0.036717 0.001590 0.500244 255 219 255
1.742320 10.230444 1.784589 -0.956631 0.288979 0.036717 0.500000 0.500977 0 219 0
3.087358 11.285288 3.212019 -0.188340 0.866280 -0.462696 0.500977 0.999500 0 219 0
3.898787 10.048356 0.565890 -0.188340 0.866280 -0.462696 0.998047 0.499512 255 219 255
1.742320 10.230444 1.784589 -0.188340 0.866280 -0.462696 0.500000 0.500977 0 219 0
1.400049 8.839587 3.813656 -0.757622 0.590889 0.277236 0.001590 0.500244 255 219 255
3.087358 11.285288 3.212019 -0.757622 0.590889 0.277236 0.500977 0.999500 0 219 0
1.742320 10.230444 1.784589 -0.757622 0.590889 0.277236 0.500000 0.500977 0 219 0
3.898787 10.048356 0.565890 0.230583 0.906712 -0.353134 0.998047 0.499512 255 219 255
3.087358 11.285288 3.212019 0.230583 0.906712 -0.353134 0.500977 0.999500 0 219 0
4.501144 10.593557 2.359072 0.230583 0.906712 -0.353134 0.999023 0.997690 255 219 0
3.087358 11.285288 3.212019 -0.541254 0.533333 0.650077 0.500977 0.999500 0 219 0
1.400049 8.839587 3.813656 -0.541254 0.533333 0.650077 0.001590 0.500244 255 219 255
3.004405 9.869501 4.304486 -0.541254 0.533333 0.650077 0.002680 0.998780 255 219 0
-0.292980 6.191451 0.303017 -0.341040 0.784864 -0.517378 0.498779 0.002441 22 187 255
-0.353014 6.010157 0.067566 -0.341040 0.784864 -0.517378 0.998047 0.499512 255 187 255
-0.417262 6.100876 0.247537 -0.341040 0.784864 -0.517378 0.997070 0.000977 255 187 255
-0.099856 5.971956 0.383233 0.516048 0.655536 0.551332 0.001590 0.500244 255 187 255
-0.292980 6.191451 0.303017 0.516048 0.655536 0.551332 0.498779 0.002441 22 187 255
-0.277756 6.079826 0.421490 0.516048 0.655536 0.551332 0.000500 0.001953 255 187 255
-0.353014 6.010157 0.067566 0.080014 0.779828 -0.620858 0.998047 0.499512 255 187 255
-0.292980 6.191451 0.303017 0.080014 0.779828 -0.620858 0.498779 0.002441 22 187 255
-0.160140 6.082507 0.183298 0.080014 0.779828 -0.620858 0.500000 0.500977 0 187 0
-0.292980 6.191451 0.303017 0.709924 0.684778 0.164584 0.498779 0.002441 22 187 255
-0.099856 5.971956 0.383233 0.709924 0.684778 0.164584 0.001590 0.500244 255 187 255
-0.160140 6.082507 0.183298 0.709924 0.684778 0.164584 0.500000 0.500977 0 187 0
-0.089435 5.899043 0.104393 0.314986 0.474827 -0.821781 0.500977 0.999500 15 187 0
-0.353014 6.010157 0.067566 0.314986 0.474827 -0.821781 0.998047 0.499512 255 187 255
-0.160140 6.082507 0.183298 0.314986 0.474827 -0.821781 0.500000 0.500977 0 187 0
-0.099856 5.971956 0.383233 0.921257 0.383346 -0.065810 0.001590 0.500244 255 187 255
-0.089435 5.899043 0.104393 0.921257 0.383346 -0.065810 0.500977 0.999500 15 187 0
-0.160140 6.082507 0.183298 0.921257 0.383346 -0.065810 0.500000 0.500977 0 187 0
-0.353014 6.010157 0.067566 0.176539 0.094040 -0.979791 0.998047 0.499512 255 187 255
-0.089435 5.899043 0.104393 0.176539 0.094040 -0.979791 0.500977 0.999500 15 187 0
-0.250172 5.853675 0.071077 0.176539 0.094040 -0.979791 0.999023 0.997690 255 187 2
-0.089435 5.899043 0.104393 0.998529 -0.030002 0.045163 0.500977 0.999500 15 187 0
-0.099856 5.971956 0.383233 0.998529 -0.030002 0.045163 0.001590 0.500244 255 187 255
-0.098531 5.830792 0.260162 0.998529 -0.030002 0.045163 0.002680 0.998780 255 187 2
-0.732834 8.554905 1.361764 0.383439 -0.013606 -0.923466 0.498779 0.002441 0 143 255
-2.315156 8.506781 0.705465 0.383439 -0.013606 -0.923466 0.997070 0.000977 255 143 255
-2.963904 10.605753 0.405168 0.383439 -0.013606 -0.923466 0.998047 0.499512 255 143 255
-1.372095 9.707228 4.253520 0.897568 -0.303811 0.319484 0.001590 0.500244 255 143 255
-1.437961 8.011633 2.826150 0.897568 -0.303811 0.319484 0.000500 0.001953 255 143 255
-0.732834 8.554905 1.361764 0.897568 -0.303811 0.319484 0.498779 0.002441 0 143 255
-2.963904 10.605753 0.405168 0.601399 0.310974 -0.735945 0.998047 0.499512 255 143 255
-1.052602 10.636577 1.980068 0.601399 0.310974 -0.735945 0.500000 0.500977 0 143 0
-0.732834 8.554905 1.361764 0.601399 0.310974 -0.735945 0.498779 0.002441 0 143 255
-0.732834 8.554905 1.361764 0.979251 0.097688 0.177549 0.498779 0.002441 0 143 255
-1.052602 10.636577 1.980068 0.979251 0.097688 0.177549 0.500000 0.500977 0 143 0
-1.372095 9.707228 4.253520 0.979251 0.097688 0.177549 0.001590 0.500244 255 143 255
-2.319914 12.225388 2.875234 0.456976 0.684519 -0.567984 0.500977 0.999500 0 143 0
-1.052602 10.636577 1.980068 0.456976 0.684519 -0.567984 0.500000 0.500977 0 143 0
-2.963904 10.605753 0.405168 0.456976 0.684519 -0.567984 0.998047 0.499512 255 143 255
-1.372095 9.707228 4.253520 0.820651 0.479237 0.311232 0.001590 0.500244 255 143 255
-1.052602 10.636577 1.980068 0.820651 0.479237 0.311232 0.500000 0.500977 0 143 0
-2.319914 12.225388 2.875234 0.820651 0.479237 0.311232 0.500977 0.999500 0 143 0
-2.963904 10.605753 0.405168 0.047176 0.829642 -0.556300 0.998047 0.499512 255 143 255
-3.697872 11.648391 1.897871 0.047176 0.829642 -0.556300 0.999023 0.997690 255 143 0
-2.319914 12.225388 2.875234 0.047176 0.829642 -0.556300 0.500977 0.999500 0 143 0
-2.319914 12.225388 2.875234 0.540246 0.551318 0.635754 0.500977 0.999500 0 143 0
-2.744384 11.110174 4.203036 0.540246 0.551318 0.635754 0.002680 0.998780 255 143 0
-1.372095 9.707228 4.253520 0.540246 0.551318 0.635754 0.001590 0.500244 255 143 255
0.247788 7.702774 -0.234970 -0.630546 0.683839 -0.367120 0.498779 0.002441 72 6 255
0.194710 7.612580 -0.311812 -0.630546 0.683839 -0.367120 0.997070 0.000977 255 6 255
0.068532 7.542296 -0.226014 -0.630546 0.683839 -0.367120 0.998047 0.499512 255 6 255
0.349979 7.561282 -0.069129 0.569286 0.764781 0.301701 0.001590 0.500244 255 6 255
0.349805 7.623043 -0.225358 0.569286 0.764781 0.301701 0.000500 0.001953 255 6 255
0.247788 7.702774 -0.234970 0.569286 0.764781 0.301701 0.498779 0.002441 72 6 255
0.068532 7.542296 -0.226014 -0.664081 0.745182 0.060828 0.998047 0.499512 255 6 255
0.178664 7.630335 -0.102196 -0.664081 0.745182 0.060828 0.500000 0.500977 2 6 19
0.247788 7.702774 -0.234970 -0.664081 0.745182 0.060828 0.498779 0.002441 72 6 255
0.247788 7.702774 -0.234970 0.217725 0.804668 0.552363 0.498779 0.002441 72 6 255
0.178664 7.630335 -0.102196 0.217725 0.804668 0.552363 0.500000 0.500977 2 6 19
0.349979 7.561282 -0.069129 0.217725 0.804668 0.552363 0.001590 0.500244 255 6 255
0.138511 7.493083 -0.013554 -0.797805 0.474020 0.372576 0.500977 0.999500 62 6 0
0.178664 7.630335 -0.102196 -0.797805 0.474020 0.372576 0.500000 0.500977 2 6 19
0.068532 7.542296 -0.226014 -0.797805 0.474020 0.372576 0.998047 0.499512 255 6 255
0.349979 7.561282 -0.069129 0.050911 0.531270 0.845672 0.001590 0.500244 255 6 255
0.178664 7.630335 -0.102196 0.050911 0.531270 0.845672 0.500000 0.500977 2 6 19
0.138511 7.493083 -0.013554 0.050911 0.531270 0.845672 0.500977 0.999500 62 6 0
0.068532 7.542296 -0.226014 -0.942995 0.066713 0.326052 0.998047 0.499512 255 6 255
0.095018 7.434240 -0.127303 -0.942995 0.066713 0.326052 0.999023 0.997690 255 6 41
0.138511 7.493083 -0.013554 -0.942995 0.066713 0.326052 0.500977 0.999500 62 6 0
0.138511 7.493083 -0.013554 0.207712 0.144332 0.967483 0.500977 0.999500 62 6 0
0.263605 7.445612 -0.033329 0.207712 0.144332 0.967483 0.002680 0.998780 255 6 41
0.349979 7.561282 -0.069129 0.207712 0.144332 0.967483 0.001590 0.500244 255 6 255
0.114068 7.932812 0.454605 0.642066 0.160616 0.749636 0.498779 0.002441 0 248 255
1.030537 6.121936 0.057642 0.642066 0.160616 0.749636 0.997070 0.000977 255 248 255
2.980121 6.594044 -1.713336 0.642066 0.160616 0.749636 0.998047 0.499512 255 248 255
-1.622439 8.548632 -2.908707 -0.589779 0.683752 0.429702 0.001590 0.500244 255 248 255
-1.505768 7.199043 -0.601077 -0.589779 0.683752 0.429702 0.000500 0.001953 255 248 255
0.114068 7.932812 0.454605 -0.589779 0.683752 0.429702 0.498779 0.002441 0 248 255
2.980121 6.594044 -1.713336 0.654046 0.536315 0.533469 0.998047 0.499512 255 248 255
1.119592 8.932179 -1.782892 0.654046 0.536315 0.533469 0.500000 0.500977 0 248 0
0.114068 7.932812 0.454605 0.654046 0.536315 0.533469 0.498779 0.002441 0 248 255
0.114068 7.932812 0.454605 -0.251288 0.920787 0.298337 0.498779 0.002441 0 248 255
1.119592 8.932179 -1.782892 -0.251288 0.920787 0.298337 0.500000 0.500977 0 248 0
-1.622439 8.548632 -2.908707 -0.251288 0.920787 0.298337 0.001590 0.500244 255 248 255
1.707331 8.722262 -4.389123 0.774573 0.620063 0.124734 0.500977 0.999500 0 248 0
1.119592 8.932179 -1.782892 0.774573 0.620063 0.124734 0.500000 0.500977 0 248 0
2.980121 6.594044 -1.713336 0.774573 0.620063 0.124734 0.998047 0.499512 255 248 255
-1.622439 8.548632 -2.908707 -0.096789 0.990108 -0.101575 0.001590 0.500244 255 248 255
1.119592 8.932179 -1.782892 -0.096789 0.990108 -0.101575 0.500000 0.500977 0 248 0
1.707331 8.722262 -4.389123 -0.096789 0.990108 -0.101575 0.500977 0.999500 0 248 0
2.980121 6.594044 -1.713336 0.925266 0.338739 -0.170701 0.998047 0.499512 255 248 255
2.495992 6.750456 -4.027119 0.925266 0.338739 -0.170701 0.999023 0.997690 255 248 0
1.707331 8.722262 -4.389123 0.925266 0.338739 -0.170701 0.500977 0.999500 0 248 0
1.707331 8.722262 -4.389123 -0.256138 0.840447 -0.477537 0.500977 0.999500 0 248 0
-0.260943 7.921247 -4.743150 -0.256138 0.840447 -0.477537 0.002680 0.998780 255 248 0
-1.622439 8.548632 -2.908707 -0.256138 0.840447 -0.477537 0.001590 0.500244 255 248 255
0.333279 7.696589 0.418659 0.990850 -0.082649 -0.106705 0.498779 0.002441 0 217 255
0.058138 6.600711 -1.287460 0.990850 -0.082649 -0.106705 0.997070 0.000977 255 217 255
-0.017278 8.307823 -3.310019 0.990850 -0.082649 -0.106705 0.998047 0.499512 255 217 255
-3.031229 9.438801 0.629284 0.175633 0.223263 0.958805 0.001590 0.500244 255 217 255
-1.602736 7.223952 0.883353 0.175633 0.223263 0.958805 0.000500 0.001953 255 217 255
0.333279 7.696589 0.418659 0.175633 0.223263 0.958805 0.498779 0.002441 0 217 255
-0.017278 8.307823 -3.310019 0.939351 0.341427 -0.032345 0.998047 0.499512 255 217 255
-0.491756 9.848147 -0.830285 0.939351 0.341427 -0.032345 0.500000 0.500977 0 217 0
0.333279 7.696589 0.418659 0.939351 0.341427 -0.032345 0.498779 0.002441 0 217 255
0.333279 7.696589 0.418659 0.340215 0.566252 0.750742 0.498779 0.002441 0 217 255
-0.491756 9.848147 -0.830285 0.340215 0.566252 0.750742 0.500000 0.500977 0 217 0
-3.031229 9.438801 0.629284 0.340215 0.566252 0.750742 0.001590 0.500244 255 217 255
-2.173642 11.078440 -2.470308 0.722270 0.640915 -0.259913 0.500977 0.999500 0 217 0
-0.491756 9.848147 -0.830285 0.722270 0.640915 -0.259913 0.500000 0.500977 0 217 0
-0.017278 8.307823 -3.310019 0.722270 0.640915 -0.259913 0.998047 0.499512 255 217 255
-3.031229 9.438801 0.629284 0.145615 0.857303 0.493789 0.001590 0.500244 255 217 255
-0.491756 9.848147 -0.830285 0.145615 0.857303 0.493789 0.500000 0.500977 0 217 0
-2.173642 11.078440 -2.470308 0.145615 0.857303 0.493789 0.500977 0.999500 0 217 0
-0.017278 8.307823 -3.310019 0.506002 0.585718 -0.633164 0.998047 0.499512 255 217 255
-1.995965 9.450147 -3.834592 0.506002 0.585718 -0.633164 0.999023 0.997690 255 217 0
-2.173642 11.078440 -2.470308 0.506002 0.585718 -0.633164 0.500977 0.999500 0 217 0
-2.173642 11.078440 -2.470308 -0.275837 0.879100 0.388713 0.500977 0.999500 0 217 0
-3.801326 10.127600 -1.474953 -0.275837 0.879100 0.388713 0.002680 0.998780 255 217 0
-3.031229 9.438801 0.629284 -0.275837 0.879100 0.388713 0.001590 0.500244 255 217 255
0.569730 9.608984 0.420409 -0.931537 -0.080530 0.354619 0.498779 0.002441 0 202 255
1.071198 9.859355 1.794556 -0.931537 -0.080530 0.354619 0.997070 0.000977 255 202 255
1.016340 11.757243 2.081442 -0.931537 -0.080530 0.354619 0.998047 0.499512 255 202 255
2.645822 10.666823 -1.043951 -0.323806 -0.487212 -0.811033 0.001590 0.500244 255 202 255
1.969141 9.258460 0.072262 -0.323806 -0.487212 -0.811033 0.000500 0.001953 255 202 255
0.569730 9.608984 0.420409 -0.323806 -0.487212 -0.811033 0.498779 0.002441 0 202 255
1.016340 11.757243 2.081442 -0.981716 0.189403 0.018999 0.998047 0.499512 255 202 255
0.910859 11.422770 -0.034552 -0.981716 0.189403 0.018999 0.500000 0.500977 0 202 0
0.569730 9.608984 0.420409 -0.981716 0.189403 0.018999 0.498779 0.002441 0 202 255
0.569730 9.608984 0.420409 -0.535068 -0.109487 -0.837684 0.498779 0.002441 0 202 255
0.910859 11.422770 -0.034552 -0.535068 -0.109487 -0.837684 0.500000 0.500977 0 202 0
2.645822 10.666823 -1.043951 -0.535068 -0.109487 -0.837684 0.001590 0.500244 255 202 255
2.030766 12.985732 0.004027 -0.811182 0.582509 -0.051640 0.500977 0.999500 0 202 0
0.910859 11.422770 -0.034552 -0.811182 0.582509 -0.051640 0.500000 0.500977 0 202 0
1.016340 11.757243 2.081442 -0.811182 0.582509 -0.051640 0.998047 0.499512 255 202 255
2.645822 10.666823 -1.043951 -0.381295 0.294836 -0.876177 0.001590 0.500244 255 202 255
0.910859 11.422770 -0.034552 -0.381295 0.294836 -0.876177 0.500000 0.500977 0 202 0
2.030766 12.985732 0.004027 -0.381295 0.294836 -0.876177 0.500977 0.999500 0 202 0
1.016340 11.757243 2.081442 -0.548547 0.809153 0.210635 0.998047 0.499512 255 202 255
2.270287 12.755089 1.513817 -0.548547 0.809153 0.210635 0.999023 0.997690 255 202 0
2.030766 12.985732 0.004027 -0.548547 0.809153 0.210635 0.500977 0.999500 0 202 0
2.030766 12.985732 0.004027 0.034304 0.419124 -0.907281 0.500977 0.999500 0 202 0
3.246351 12.101926 -0.358291 0.034304 0.419124 -0.907281 0.002680 0.998780 255 202 0
2.645822 10.666823 -1.043951 0.034304 0.419124 -0.907281 0.001590 0.500244 255 202 255
-1.055942 4.301394 -0.133005 0.574978 0.344916 -0.741912 0.498779 0.002441 0 106 255
-1.829545 3.064951 -1.307369 0.574978 0.344916 -0.741912 0.997070 0.000977 255 106 255
-3.759932 4.136490 -2.305250 0.574978 0.344916 -0.741912 0.998047 0.499512 255 106 255
-3.496379 4.393211 2.335449 0.652881 0.420803 0.629818 0.001590 0.500244 255 106 255
-1.684304 3.206424 1.249953 0.652881 0.420803 0.629818 0.000500 0.001953 255 106 255
-1.055942 4.301394 -0.133005 0.652881 0.420803 0.629818 0.498779 0.002441 0 106 255
-3.759932 4.136490 -2.305250 0.414673 0.709306 -0.570028 0.998047 0.499512 255 106 255
-3.109031 5.540294 -0.084940 0.414673 0.709306 -0.570028 0.500000 0.500977 0 106 0
-1.055942 4.301394 -0.133005 0.414673 0.709306 -0.570028 0.498779 0.002441 0 106 255
-1.055942 4.301394 -0.133005 0.471928 0.765075 0.438114 0.498779 0.002441 0 106 255
-3.109031 5.540294 -0.084940 0.471928 0.765075 0.438114 0.500000 0.500977 0 106 0
-3.496379 4.393211 2.335449 0.471928 0.765075 0.438114 0.001590 0.500244 255 106 255
-5.530171 5.634220 0.047366 0.003528 0.844758 -0.535137 0.500977 0.999500 0 106 0
-3.109031 5.540294 -0.084940 0.003528 0.844758 -0.535137 0.500000 0.500977 0 106 0
-3.759932 4.136490 -2.305250 0.003528 0.844758 -0.535137 0.998047 0.499512 255 106 255
-3.496379 4.393211 2.335449 0.058635 0.898435 0.435174 0.001590 0.500244 255 106 255
-3.109031 5.540294 -0.084940 0.058635 0.898435 0.435174 0.500000 0.500977 0 106 0
-5.530171 5.634220 0.047366 0.058635 0.898435 0.435174 0.500977 0.999500 0 106 0
-3.759932 4.136490 -2.305250 -0.355190 0.644203 -0.677379 0.998047 0.499512 255 106 255
-5.635380 4.195524 -1.265700 -0.355190 0.644203 -0.677379 0.999023 0.997690 255 106 0
-5.530171 5.634220 0.047366 -0.355190 0.644203 -0.677379 0.500977 0.999500 0 106 0
-5.530171 5.634220 0.047366 -0.280480 0.716977 0.638182 0.500977 0.999500 0 106 0
-5.477515 4.349295 1.514080 -0.280480 0.716977 0.638182 0.002680 0.998780 255 106 0
-3.496379 4.393211 2.335449 -0.280480 0.716977 0.638182 0.001590 0.500244 255 106 255
-0.681553 5.626897 0.309974 -0.760360 0.136719 0.634949 0.498779 0.002441 0 117 255
-3.513150 5.167526 -2.981987 -0.760360 0.136719 0.634949 0.998047 0.499512 255 117 255
-1.876711 3.896111 -0.748565 -0.760360 0.136719 0.634949 0.997070 0.000977 255 117 255
2.153008 6.632785 -2.855380 0.571538 0.481150 0.664710 0.001590 0.500244 255 117 255
-0.681553 5.626897 0.309974 0.571538 0.481150 0.664710 0.498779 0.002441 0 117 255
1.245704 4.703567 -0.678788 0.571538 0.481150 0.664710 0.000500 0.001953 255 117 255
-3.513150 5.167526 -2.981987 -0.673522 0.540821 0.503865 0.998047 0.499512 255 117 255
-0.681553 5.626897 0.309974 -0.673522 0.540821 0.503865 0.498779 0.002441 0 117 255
-1.081551 7.382738 -2.109330 -0.673522 0.540821 0.503865 0.500000 0.500977 0 117 0
-0.681553 5.626897 0.309974 0.305345 0.793955 0.525738 0.498779 0.002441 0 117 255
2.153008 6.632785 -2.855380 0.305345 0.793955 0.525738 0.001590 0.500244 255 117 255
-1.081551 7.382738 -2.109330 0.305345 0.793955 0.525738 0.500000 0.500977 0 117 0
-1.120755 7.795559 -5.132397 -0.690257 0.715657 0.106679 0.500977 0.999500 0 117 0
-3.513150 5.167526 -2.981987 -0.690257 0.715657 0.106679 0.998047 0.499512 255 117 255
-1.081551 7.382738 -2.109330 -0.690257 0.715657 0.106679 0.500000 0.500977 0 117 0
2.153008 6.632785 -2.855380 0.251879 0.959292 0.127732 0.001590 0.500244 255 117 255
-1.120755 7.795559 -5.132397 0.251879 0.959292 0.127732 0.500977 0.999500 0 117 0
-1.081551 7.382738 -2.109330 0.251879 0.959292 0.127732 0.500000 0.500977 0 117 0
-3.513150 5.167526 -2.981987 -0.810901 0.522374 -0.263754 0.998047 0.499512 255 117 255
-1.120755 7.795559 -5.132397 -0.810901 0.522374 -0.263754 0.500977 0.999500 0 117 0
-2.387038 5.708551 -5.372654 -0.810901 0.522374 -0.263754 0.999023 0.997690 255 117 0
-1.120755 7.795559 -5.132397 0.466460 0.852695 -0.235215 0.500977 0.999500 0 117 0
2.153008 6.632785 -2.855380 0.466460 0.852695 -0.235215 0.001590 0.500244 255 117 255
1.006992 6.586235 -5.296822 0.466460 0.852695 -0.235215 0.002680 0.998780 255 117 0
1.091051 6.630088 -0.212572 0.243465 0.518783 -0.819506 0.498779 0.002441 0 105 255
5.152658 7.350008 1.449822 0.243465 0.518783 -0.819506 0.998047 0.499512 255 105 255
3.245808 5.577439 -0.238793 0.243465 0.518783 -0.819506 0.997070 0.000977 255 105 255
-0.037496 5.966367 4.037650 -0.954367 0.199457 -0.222262 0.001590 0.500244 255 105 255
1.091051 6.630088 -0.212572 -0.954367 0.199457 -0.222262 0.498779 0.002441 0 105 255
0.385696 4.814968 1.187258 -0.954367 0.199457 -0.222262 0.000500 0.001953 255 105 255
5.152658 7.350008 1.449822 0.082335 0.825348 -0.558589 0.998047 0.499512 255 105 255
1.091051 6.630088 -0.212572 0.082335 0.825348 -0.558589 0.498779 0.002441 0 105 255
1.904978 8.234153 2.277496 0.082335 0.825348 -0.558589 0.500000 0.500977 0 105 0
1.091051 6.630088 -0.212572 -0.798001 0.590659 -0.119652 0.498779 0.002441 0 105 255
-0.037496 5.966367 4.037650 -0.798001 0.590659 -0.119652 0.001590 0.500244 255 105 255
1.904978 8.234153 2.277496 -0.798001 0.590659 -0.119652 0.500000 0.500977 0 105 0
3.249287 8.420658 5.073367 0.218521 0.961055 -0.169179 0.500977 0.999500 0 105 0
5.152658 7.350008 1.449822 0.218521 0.961055 -0.169179 0.998047 0.499512 255 105 255
1.904978 8.234153 2.277496 0.218521 0.961055 -0.169179 0.500000 0.500977 0 105 0
-0.037496 5.966367 4.037650 -0.628780 0.735174 0.253288 0.001590 0.500244 255 105 255
3.249287 8.420658 5.073367 -0.628780 0.735174 0.253288 0.500977 0.999500 0 105 0
1.904978 8.234153 2.277496 -0.628780 0.735174 0.253288 0.500000 0.500977 0 105 0
5.152658 7.350008 1.449822 0.565437 0.823033 0.053831 0.998047 0.499512 255 105 255
3.249287 8.420658 5.073367 0.565437 0.823033 0.053831 0.500977 0.999500 0 105 0
5.201607 7.137255 4.188506 0.565437 0.823033 0.053831 0.999023 0.997690 255 105 0
3.249287 8.420658 5.073367 -0.583343 0.516777 0.626620 0.500977 0.999500 0 105 0
-0.037496 5.966367 4.037650 -0.583343 0.516777 0.626620 0.001590 0.500244 255 105 255
2.092708 6.308447 5.738618 -0.583343 0.516777 0.626620 0.002680 0.998780 255 105 0
-1.394002 8.266186 0.202575 -0.715021 0.266043 -0.646503 0.498779 0.002441 0 33 255
-2.579647 6.503934 0.788693 -0.715021 0.266043 -0.646503 0.997070 0.000977 255 33 255
-4.248457 7.295899 2.960272 -0.715021 0.266043 -0.646503 0.998047 0.499512 255 33 255
1.051182 8.587990 3.460153 0.616274 0.590625 -0.520930 0.001590 0.500244 255 33 255
0.340793 7.215963 1.064152 0.616274 0.590625 -0.520930 0.000500 0.001953 255 33 255
-1.394002 8.266186 0.202575 0.616274 0.590625 -0.520930 0.498779 0.002441 0 33 255
-4.248457 7.295899 2.960272 -0.636781 0.636502 -0.435172 0.998047 0.499512 255 33 255
-1.919786 9.453332 2.708318 -0.636781 0.636502 -0.435172 0.500000 0.500977 0 33 0
-1.394002 8.266186 0.202575 -0.636781 0.636502 -0.435172 0.498779 0.002441 0 33 255
-1.394002 8.266186 0.202575 0.341643 0.875049 -0.342885 0.498779 0.002441 0 33 255
-1.919786 9.453332 2.708318 0.341643 0.875049 -0.342885 0.500000 0.500977 0 33 0
1.051182 8.587990 3.460153 0.341643 0.875049 -0.342885 0.001590 0.500244 255 33 255
-2.149083 9.294458 5.549945 -0.680366 0.732740 -0.013933 0.500977 0.999500 0 33 0
-1.919786 9.453332 2.708318 -0.680366 0.732740 -0.013933 0.500000 0.500977 0 33 0
-4.248457 7.295899 2.960272 -0.680366 0.732740 -0.013933 0.998047 0.499512 255 33 255
1.051182 8.587990 3.460153 0.261344 0.962336 0.074892 0.001590 0.500244 255 33 255
-1.919786 9.453332 2.708318 0.261344 0.962336 0.074892 0.500000 0.500977 0 33 0
-2.149083 9.294458 5.549945 0.261344 0.962336 0.074892 0.500977 0.999500 0 33 0
-4.248457 7.295899 2.960272 -0.826299 0.474221 0.303881 0.998047 0.499512 255 33 255
-3.349283 7.351751 5.318106 -0.826299 0.474221 0.303881 0.999023 0.997690 255 33 0
-2.149083 9.294458 5.549945 -0.826299 0.474221 0.303881 0.500977 0.999500 0 33 0
-2.149083 9.294458 5.549945 0.450483 0.785507 0.424315 0.500977 0.999500 0 33 0
-0.174797 8.125706 5.617538 0.450483 0.785507 0.424315 0.002680 0.998780 255 33 0
1.051182 8.587990 3.460153 0.450483 0.785507 0.424315 0.001590 0.500244 255 33 255
-1.138643 7.478283 0.898549 -0.709169 0.582556 -0.397124 0.498779 0.002441 0 242 255
-2.693179 6.249664 1.872275 -0.709169 0.582556 -0.397124 0.997070 0.000977 255 242 255
-3.189337 7.396756 4.441010 -0.709169 0.582556 -0.397124 0.998047 0.499512 255 242 255
2.088732 6.510011 3.223963 0.614066 0.360249 -0.702242 0.001590 0.500244 255 242 255
0.215375 5.761015 1.201597 0.614066 0.360249 -0.702242 0.000500 0.001953 255 242 255
-1.138643 7.478283 0.898549 0.614066 0.360249 -0.702242 0.498779 0.002441 0 242 255
-3.189337 7.396756 4.441010 -0.432473 0.871741 -0.230292 0.998047 0.499512 255 242 255
-0.383122 8.518461 3.417196 -0.432473 0.871741 -0.230292 0.500000 0.500977 0 242 0
-1.138643 7.478283 0.898549 -0.432473 0.871741 -0.230292 0.498779 0.002441 0 242 255
-1.138643 7.478283 0.898549 0.540026 0.708356 -0.454537 0.498779 0.002441 0 242 255
-0.383122 8.518461 3.417196 0.540026 0.708356 -0.454537 0.500000 0.500977 0 242 0
2.088732 6.510011 3.223963 0.540026 0.708356 -0.454537 0.001590 0.500244 255 242 255
0.199596 8.172049 6.196711 -0.307434 0.934219 0.180885 0.500977 0.999500 0 242 0
-0.383122 8.518461 3.417196 -0.307434 0.934219 0.180885 0.500000 0.500977 0 242 0
-3.189337 7.396756 4.441010 -0.307434 0.934219 0.180885 0.998047 0.499512 255 242 255
2.088732 6.510011 3.223963 0.628574 0.776965 -0.034945 0.001590 0.500244 255 242 255
-0.383122 8.518461 3.417196 0.628574 0.776965 -0.034945 0.500000 0.500977 0 242 0
0.199596 8.172049 6.196711 0.628574 0.776965 -0.034945 0.500977 0.999500 0 242 0
-3.189337 7.396756 4.441010 -0.441846 0.720229 0.534828 0.998047 0.499512 255 242 255
-1.682149 6.865691 6.401328 -0.441846 0.720229 0.534828 0.999023 0.997690 255 242 0
0.199596 8.172049 6.196711 -0.441846 0.720229 0.534828 0.500977 0.999500 0 242 0
0.199596 8.172049 6.196711 0.827205 0.507019 0.242206 0.500977 0.999500 0 242 0
1.479413 6.334524 5.672320 0.827205 0.507019 0.242206 0.002680 0.998780 255 242 0
2.088732 6.510011 3.223963 0.827205 0.507019 0.242206 0.001590 0.500244 255 242 255
0.148029 6.523232 1.296742 -0.080461 0.315638 0.945462 0.498779 0.002441 0 211 255
-4.933348 6.971332 0.714711 -0.080461 0.315638 0.945462 0.998047 0.499512 255 211 255
-2.112871 4.959478 1.626386 -0.080461 0.315638 0.945462 0.997070 0.000977 255 211 255
0.240598 6.881967 -3.824072 0.953875 0.297776 0.038104 0.001590 0.500244 255 211 255
0.148029 6.523232 1.296742 0.953875 0.297776 0.038104 0.498779 0.002441 0 211 255
0.738310 4.910235 -0.874765 0.953875 0.297776 0.038104 0.000500 0.001953 255 211 255
-4.933348 6.971332 0.714711 -0.022820 0.685924 0.727316 0.998047 0.499512 255 211 255
0.148029 6.523232 1.296742 -0.022820 0.685924 0.727316 0.498779 0.002441 0 211 255
-1.672308 8.708596 -0.821366 -0.022820 0.685924 0.727316 0.500000 0.500977 0 211 0
0.148029 6.523232 1.296742 0.737356 0.672794 0.060461 0.498779 0.002441 0 211 255
0.240598 6.881967 -3.824072 0.737356 0.672794 0.060461 0.001590 0.500244 255 211 255
-1.672308 8.708596 -0.821366 0.737356 0.672794 0.060461 0.500000 0.500977 0 211 0
-4.002942 9.276884 -3.489342 -0.266152 0.868798 0.417556 0.500977 0.999500 0 211 0
-4.933348 6.971332 0.714711 -0.266152 0.868798 0.417556 0.998047 0.499512 255 211 255
-1.672308 8.708596 -0.821366 -0.266152 0.868798 0.417556 0.500000 0.500977 0 211 0
0.240598 6.881967 -3.824072 0.465499 0.856161 -0.224275 0.001590 0.500244 255 211 255
-4.002942 9.276884 -3.489342 0.465499 0.856161 -0.224275 0.500977 0.999500 0 211 0
-1.672308 8.708596 -0.821366 0.465499 0.856161 -0.224275 0.500000 0.500977 0 211 0
-4.933348 6.971332 0.714711 -0.642092 0.723156 0.254485 0.998047 0.499512 255 211 255
-4.002942 9.276884 -3.489342 -0.642092 0.723156 0.254485 0.500977 0.999500 0 211 0
-5.761231 7.307208 -2.328563 -0.642092 0.723156 0.254485 0.999023 0.997690 255 211 0
-4.002942 9.276884 -3.489342 0.349887 0.706021 -0.615722 0.500977 0.999500 0 211 0
0.240598 6.881967 -3.824072 0.349887 0.706021 -0.615722 0.001590 0.500244 255 211 255
-2.662042 7.253670 -5.047298 0.349887 0.706021 -0.615722 0.002680 0.998780 255 211 0
0.304360 8.145701 -0.011276 -0.900365 0.134825 0.413722 0.498779 0.002441 0 176 255
-1.078582 9.607220 -3.497194 -0.900365 0.134825 0.413722 0.998047 0.499512 255 176 255
-0.637859 7.399239 -1.818526 -0.900365 0.134825 0.413722 0.997070 0.000977 255 176 255
3.907469 9.176323 -1.479487 0.371113 0.024947 0.928253 0.001590 0.500244 255 176 255
0.304360 8.145701 -0.011276 0.371113 0.024947 0.928253 0.498779 0.002441 0 176 255
2.109771 7.161788 -0.706632 0.371113 0.024947 0.928253 0.000500 0.001953 255 176 255
-1.078582 9.607220 -3.497194 -0.702700 0.512407 0.493611 0.998047 0.499512 255 176 255
0.304360 8.145701 -0.011276 -0.702700 0.512407 0.493611 0.498779 0.002441 0 176 255
1.048787 10.462142 -1.356166 -0.702700 0.512407 0.493611 0.500000 0.500977 0 176 0
0.304360 8.145701 -0.011276 0.231761 0.431650 0.871760 0.498779 0.002441 0 176 255
3.907469 9.176323 -1.479487 0.231761 0.431650 0.871760 0.001590 0.500244 255 176 255
1.048787 10.462142 -1.356166 0.231761 0.431650 0.871760 0.500000 0.500977 0 176 0
2.079339 11.768793 -3.623765 -0.545205 0.809308 0.218567 0.500977 0.999500 0 176 0
-1.078582 9.607220 -3.497194 -0.545205 0.809308 0.218567 0.998047 0.499512 255 176 255
1.048787 10.462142 -1.356166 -0.545205 0.809308 0.218567 0.500000 0.500977 0 176 0
3.907469 9.176323 -1.479487 0.354191 0.731582 0.582526 0.001590 0.500244 255 176 255
2.079339 11.768793 -3.623765 0.354191 0.731582 0.582526 0.500977 0.999500 0 176 0
1.048787 10.462142 -1.356166 0.354191 0.731582 0.582526 0.500000 0.500977 0 176 0
-1.078582 9.607220 -3.497194 -0.557380 0.801643 -0.216092 0.998047 0.499512 255 176 255
2.079339 11.768793 -3.623765 -0.557380 0.801643 -0.216092 0.500977 0.999500 0 176 0
0.749401 10.491395 -4.932176 -0.557380 0.801643 -0.216092 0.999023 0.997690 255 176 0
2.079339 11.768793 -3.623765 0.662035 0.696260 0.277365 0.500977 0.999500 0 176 0
3.907469 9.176323 -1.479487 0.662035 0.696260 0.277365 0.001590 0.500244 255 176 255
3.736047 10.233284 -3.723576 0.662035 0.696260 0.277365 0.002680 0.998780 255 176 0
3 0 1 2
3 3 4 5
3 6 7 8
3 9 10 11
3 12 13 14
3 15 16 17
3 18 19 20
3 21 22 23
3 24 25 26
3 27 28 29
3 30 31 32
3 33 34 35
3 36 37 38
3 39 40 41
3 42 43 44
3 45 46 47
3 48 49 50
3 51 52 53
3 54 55 56
3 57 58 59
3 60 61 62
3 63 64 65
3 66 67 68
3 69 70 71
3 72 73 74
3 75 76 77
3 78 79 80
3 81 82 83
3 84 85 86
3 87 88 89
3 90 91 92
3 93 94 95
3 96 97 98
3 99 100 101
3 102 103 104
3 105 106 107
3 108 109 110
3 111 112 113
3 114 115 116
3 117 118 119
3 120 121 122
3 123 124 125
3 126 127 128
3 129 130 131
3 132 133 134
3 135 136 137
3 138 139 140
3 141 142 143
3 144 145 146
3 147 148 149
3 150 151 152
3 153 154 155
3 156 157 158
3 159 160 161
3 162 163 164
3 165 166 167
3 168 169 170
3 171 172 173
3 174 175 176
3 177 178 179
3 180 181 182
3 183 184 185
3 186 187 188
3 189 190 191
3 192 193 194
3 195 196 197
3 198 199 200
3 201 202 203
3 204 205 206
3 207 208 209
3 210 211 212
3 213 214 215
3 216 217 218
3 219 220 221
3 222 223 224
3 225 226 227
3 228 229 230
3 231 232 233
3 234 235 236
3 237 238 239
3 240 241 242
3 243 244 245
3 246 247 248
3 249 250 251
3 252 253 254
3 255 256 257
3 258 259 260
3 261 262 263
3 264 265 266
3 267 268 269
3 270 271 272
3 273 274 275
3 276 277 278
3 279 280 281
3 282 283 284
3 285 286 287
3 288 289 290
3 291 292 293
3 294 295 296
3 297 298 299
3 300 301 302
3 303 304 305
3 306 307 308
3 309 310 311
3 312 313 314
3 315 316 317
3 318 319 320
3 321 322 323
3 324 325 326
3 327 328 329
3 330 331 332
3 333 334 335
3 336 337 338
3 339 340 341
3 342 343 344
3 345 346 347
3 348 349 350
3 351 352 353
3 354 355 356
3 357 358 359
3 360 361 362
3 363 364 365
3 366 367 368
3 369 370 371
3 372 373 374
3 375 376 377
3 378 379 380
3 381 382 383
3 384 385 386
3 387 388 389
3 390 391 392
3 393 394 395
3 396 397 398
3 399 400 401
3 402 403 404
3 405 406 407
3 408 409 410
3 411 412 413
3 414 415 416
3 417 418 419
3 420 421 422
3 423 424 425
3 426 427 428
3 429 430 431
